<svg xmlns="http://www.w3.org/2000/svg" width="112" height="23" viewBox="0 0 112 23" fill="none"><path d="M49.5838 12.7672H56.0677V22.7015H57.8662V12.7672H64.3501V11.4714H49.5838V12.7672Z" fill="#7C756F"></path><path d="M111.484 12.7672V11.4714H97.6557V22.7015H111.484V21.4057H99.4608V17.6645H108.467V16.3687H99.4608V12.7672H111.484Z" fill="#7C756F"></path><path d="M34.0876 8.54322L33.1949 0L32.2956 8.54322L33.1949 10.8489L34.0876 8.54322Z" fill="#7C756F"></path><path d="M33.1949 17.4104L27.102 11.4714H24.9972L32.2891 18.5791L33.1949 23L34.0941 18.5791L41.3861 11.4714H39.2812L33.1949 17.4104Z" fill="#7C756F"></path><path d="M36.5248 8.54322L33.1949 12.9133L29.865 8.54322H28.0078L33.1949 15.346L38.382 8.54322H36.5248Z" fill="#7C756F"></path><path d="M15.2746 11.4714L8.59522 20.4402L1.90932 11.4714H0L8.59522 23L17.1839 11.4714H15.2746Z" fill="#7C756F"></path><path d="M85.7371 22.7015H87.6464L79.0512 11.1729L70.456 22.7015H72.3653L74.4311 19.9257H83.6649L85.7371 22.7015ZM75.4085 18.6299L79.0577 13.739L82.707 18.6299H75.4085Z" fill="#7C756F"></path></svg>