<svg xmlns="http://www.w3.org/2000/svg" xmlns:xlink="http://www.w3.org/1999/xlink" viewBox="0 0 492.84058 66.7915"><defs><linearGradient id="Sfumatura_senza_nome_3" y1="-1722.99994" x2="40" y2="-1722.99994" gradientTransform="matrix(1, 0, 0, -1, 0, -1703)" gradientUnits="userSpaceOnUse"><stop offset="0" stop-color="#646459"/><stop offset="1" stop-color="#45453a"/></linearGradient><linearGradient id="Sfumatura_senza_nome_3-2" x1="75" y1="-1722.99994" x2="115" y2="-1722.99994" xlink:href="#Sfumatura_senza_nome_3"/><clipPath id="clip-path"><rect x="82.5" y="7.49994" width="25" height="25" fill="none"/></clipPath><linearGradient id="Sfumatura_senza_nome_3-3" x1="150" y1="-1722.99994" x2="190" y2="-1722.99994" xlink:href="#Sfumatura_senza_nome_3"/><clipPath id="clip-path-9"><rect x="159.53801" y="6.99994" width="20.92399" height="26" fill="none"/></clipPath><linearGradient id="Sfumatura_senza_nome_3-4" x1="225.4847" y1="-1722.99994" x2="265.4847" y2="-1722.99994" xlink:href="#Sfumatura_senza_nome_3"/><clipPath id="clip-path-13"><rect x="232.9847" y="8.62292" width="25" height="22.75404" fill="none"/></clipPath><linearGradient id="Sfumatura_senza_nome_3-5" x1="300" y1="-1722.99994" x2="340" y2="-1722.99994" xlink:href="#Sfumatura_senza_nome_3"/><clipPath id="clip-path-16"><rect x="307.5" y="7.97354" width="25" height="24.0528" fill="none"/></clipPath><linearGradient id="Sfumatura_senza_nome_3-6" x1="375" y1="-1722.99994" x2="415" y2="-1722.99994" xlink:href="#Sfumatura_senza_nome_3"/><clipPath id="clip-path-19"><rect x="382.5" y="10.6629" width="25" height="18.67407" fill="none"/></clipPath><linearGradient id="Sfumatura_senza_nome_3-7" x1="450.48476" y1="-1722.99994" x2="490.48475" y2="-1722.99994" xlink:href="#Sfumatura_senza_nome_3"/><clipPath id="clip-path-24"><rect x="457.98476" y="10.66659" width="25" height="18.6667" fill="none"/></clipPath></defs><g id="Livello_2" data-name="Livello 2"><g id="Livello_1-2" data-name="Livello 1"><g id="Livello_1-3" data-name="Livello 1"><path d="M10.01476,38.00666A39.82607,39.82607,0,0,0,20,39.2688a39.82843,39.82843,0,0,0,9.98667-1.26249,11.35333,11.35333,0,0,0,8.02047-8.02249A39.82227,39.82227,0,0,0,39.26892,20a39.82539,39.82539,0,0,0-1.2625-9.98643A11.35333,11.35333,0,0,0,29.98405,1.993a40.126,40.126,0,0,0-19.97049.00071,11.3534,11.3534,0,0,0-8.02047,8.02237,40.122,40.122,0,0,0,.00072,19.97037A11.35364,11.35364,0,0,0,10.01476,38.00666Z" fill="#38382c" opacity="0.5" style="isolation:isolate"/><g opacity="0.5"><path d="M20,39.99988A40.55458,40.55458,0,0,1,9.83032,38.71406l-.00262-.00071a12.0876,12.0876,0,0,1-8.54093-8.54094A40.853,40.853,0,0,1,1.28605,9.83008,12.08878,12.08878,0,0,1,9.8277,1.28665a40.85612,40.85612,0,0,1,20.34222-.00071,12.08874,12.08874,0,0,1,8.54355,8.54165A40.56192,40.56192,0,0,1,40,20a40.55833,40.55833,0,0,1-1.28582,10.1698,12.08874,12.08874,0,0,1-8.54165,8.54355A40.56146,40.56146,0,0,1,20,39.99988Zm-9.98524-1.99322A39.82607,39.82607,0,0,0,20,39.2688a39.82843,39.82843,0,0,0,9.98667-1.26249,11.35333,11.35333,0,0,0,8.02047-8.02249A39.82227,39.82227,0,0,0,39.26892,20a39.82539,39.82539,0,0,0-1.2625-9.98643A11.35333,11.35333,0,0,0,29.98405,1.993a40.126,40.126,0,0,0-19.97049.00071,11.3534,11.3534,0,0,0-8.02047,8.02237,40.122,40.122,0,0,0,.00072,19.97037A11.35364,11.35364,0,0,0,10.01476,38.00666Z" fill="url(#Sfumatura_senza_nome_3)"/></g><path d="M28.52974,21.38676a1.28073,1.28073,0,0,1-2.20469.88686L24.20332,20.063H27.206A1.3253,1.3253,0,0,1,28.52974,21.38676Zm-5.63228,3.55669-.42154.49561H17.52407l-.42153-.49561a3.79937,3.79937,0,0,1-.82988-1.70415H23.7273A3.79888,3.79888,0,0,1,22.89746,24.94345ZM20,28.35009l-1.64531-1.93442h3.29063Zm-6.325-6.07652a1.28069,1.28069,0,0,1-2.20468-.88681A1.32529,1.32529,0,0,1,12.7941,20.063h3.00263ZM8.47656,16.91371a2.17514,2.17514,0,0,1,2.1727-2.1727,2.40652,2.40652,0,0,1,1.586.59629l4.28081,3.74907h-5.8668A2.17508,2.17508,0,0,1,8.47656,16.91371Zm10.12285-.96826h2.80117a1.57048,1.57048,0,0,1,0,3.141H18.59941a1.57048,1.57048,0,0,1,0-3.141Zm-.18632-.97656a1.66037,1.66037,0,0,1,3.17377,0ZM22.42573,20.063a.98351.98351,0,0,1,.84434.47266,3.79058,3.79058,0,0,1,.52768,1.72715H16.20229a3.7904,3.7904,0,0,1,.52769-1.7271.98346.98346,0,0,1,.84428-.47266h4.85148ZM32.5,16.91371a3.14688,3.14688,0,0,0-.78047-2.07534.48829.48829,0,0,0-.73432.6438,2.17275,2.17275,0,0,1-1.63448,3.60425H23.484l4.15313-3.63726a.48827.48827,0,0,0-.64336-.73466l-3.04936,2.67061a2.54983,2.54983,0,0,0-1.31372-2.09859,2.63542,2.63542,0,0,0-1.076-1.95723,2.20076,2.20076,0,0,1,2.18291-1.94482.48828.48828,0,1,0,0-.97656,3.17947,3.17947,0,0,0-3.09961,2.491,2.63229,2.63229,0,0,0-1.27578,0,3.17942,3.17942,0,0,0-3.09961-2.491.48828.48828,0,1,0,0,.97656,2.20076,2.20076,0,0,1,2.18291,1.94482,2.63544,2.63544,0,0,0-1.076,1.95723,2.54977,2.54977,0,0,0-1.31367,2.09859l-3.177-2.78242a3.38282,3.38282,0,0,0-2.22939-.83823,3.14926,3.14926,0,1,0-.00006,6.29852h.26528a2.287,2.287,0,0,0-.4208,1.32378,2.25728,2.25728,0,0,0,3.88584,1.563l.85909-.89507a4.77836,4.77836,0,0,0,1.12006,3.52144l3.26939,3.8439a.48826.48826,0,0,0,.74385,0l3.26939-3.8439a4.77854,4.77854,0,0,0,1.12007-3.52144l.85908.89507a2.26131,2.26131,0,0,0,3.465-2.88687h.26528A3.15274,3.15274,0,0,0,32.5,16.91371Z" fill="#8e917e"/><path d="M14.93018,54.47852a1.20624,1.20624,0,0,1,.28711.79785,1.23822,1.23822,0,0,1-.18555.669,1.26113,1.26113,0,0,1-.54248.46875,1.9559,1.9559,0,0,1-.854.17188H11.94141V51.6924h1.645a1.65331,1.65331,0,0,1,1.13037.34375,1.12867,1.12867,0,0,1,.38867.88867,1.08834,1.08834,0,0,1-.24512.73828,1.28224,1.28224,0,0,1-.62988.39551A1.17573,1.17573,0,0,1,14.93018,54.47852Zm-2.499-.62305h1.14111a1.13249,1.13249,0,0,0,.7666-.23438.81289.81289,0,0,0,.26953-.64746.79311.79311,0,0,0-.26953-.63672,1.17815,1.17815,0,0,0-.7876-.23145H12.43114Zm1.99854,2.06543a.86111.86111,0,0,0,.29785-.69336.87252.87252,0,0,0-.31152-.70312,1.2582,1.2582,0,0,0-.83643-.2627H12.43115v1.91113h1.16943A1.2442,1.2442,0,0,0,14.42969,55.9209Z" fill="#fff"/><path d="M19.564,54.86328h-3.1709a1.53786,1.53786,0,0,0,.21.74219,1.23407,1.23407,0,0,0,.49707.46582,1.45923,1.45923,0,0,0,.67188.15723,1.35542,1.35542,0,0,0,.80176-.23047,1.08718,1.08718,0,0,0,.43018-.623H19.522a1.6173,1.6173,0,0,1-.59862.91309,1.83182,1.83182,0,0,1-1.15138.35352,1.92536,1.92536,0,0,1-.96582-.24121,1.70175,1.70175,0,0,1-.66846-.68652,2.1406,2.1406,0,0,1-.2417-1.03906,2.19149,2.19149,0,0,1,.23828-1.043,1.65376,1.65376,0,0,1,.66456-.68652A1.9702,1.9702,0,0,1,17.772,52.708a1.8711,1.8711,0,0,1,.95557.23731,1.65345,1.65345,0,0,1,.62988.64062,1.82955,1.82955,0,0,1,.22069.89257C19.57812,54.64648,19.57324,54.77539,19.564,54.86328Zm-.65429-1.127a1.16608,1.16608,0,0,0-.48682-.45508,1.48129,1.48129,0,0,0-.67188-.15332,1.33542,1.33542,0,0,0-.93115.34961,1.39894,1.39894,0,0,0-.42676.9873h2.688A1.36539,1.36539,0,0,0,18.90967,53.73633Z" fill="#fff"/><path d="M23.918,54.86328h-3.1709a1.53786,1.53786,0,0,0,.21.74219,1.23407,1.23407,0,0,0,.49707.46582,1.45923,1.45923,0,0,0,.67188.15723,1.35542,1.35542,0,0,0,.80176-.23047,1.08723,1.08723,0,0,0,.43018-.623H23.876a1.61731,1.61731,0,0,1-.59863.91309,1.83179,1.83179,0,0,1-1.15137.35352,1.9253,1.9253,0,0,1-.96582-.24121,1.70168,1.70168,0,0,1-.66846-.68652,2.1406,2.1406,0,0,1-.2417-1.03906,2.19149,2.19149,0,0,1,.23828-1.043,1.65379,1.65379,0,0,1,.66455-.68652A1.97025,1.97025,0,0,1,22.126,52.708a1.871,1.871,0,0,1,.95557.23731,1.65345,1.65345,0,0,1,.62988.64062,1.82945,1.82945,0,0,1,.2207.89257C23.93213,54.64648,23.92725,54.77539,23.918,54.86328Zm-.6543-1.127a1.16608,1.16608,0,0,0-.48682-.45508,1.48129,1.48129,0,0,0-.67188-.15332,1.33542,1.33542,0,0,0-.93115.34961,1.39894,1.39894,0,0,0-.42676.9873h2.688A1.36539,1.36539,0,0,0,23.26367,53.73633Z" fill="#fff"/><path d="M25.06934,56.33691a1.11055,1.11055,0,0,1-.46533-.8291h.50391a.72271.72271,0,0,0,.30469.52148,1.192,1.192,0,0,0,.72461.19922.95259.95259,0,0,0,.62646-.18848.58739.58739,0,0,0,.22754-.46973.43567.43567,0,0,0-.126-.32129.90726.90726,0,0,0-.31885-.2002,4.962,4.962,0,0,0-.52149-.15721A5.30213,5.30213,0,0,1,25.332,54.668a1.18635,1.18635,0,0,1-.45166-.333.95689.95689,0,0,1-.01709-1.10937,1.15244,1.15244,0,0,1,.47559-.37793,1.68484,1.68484,0,0,1,.7002-.13965,1.51148,1.51148,0,0,1,.99414.31152,1.12911,1.12911,0,0,1,.40576.85742h-.48975a.74442.74442,0,0,0-.2627-.543.98485.98485,0,0,0-.66162-.206.97462.97462,0,0,0-.602.1748.52666.52666,0,0,0-.231.43359.514.514,0,0,0,.13672.36816.9356.9356,0,0,0,.33935.22363q.20289.08056.5459.17871a5.05443,5.05443,0,0,1,.6582.21681,1.15211,1.15211,0,0,1,.41992.30762.8271.8271,0,0,1,.18213.53905.9399.9399,0,0,1-.168.54981,1.14829,1.14829,0,0,1-.46923.38184,1.63453,1.63453,0,0,1-.69287.13964A1.776,1.776,0,0,1,25.06934,56.33691Z" fill="#fff"/><path d="M5.31934,62.51465a1.75886,1.75886,0,0,1-1.23877.38477h-.9873v2.08594H2.60352V60.09278h1.477a1.761,1.761,0,0,1,1.23535.38477,1.458,1.458,0,0,1,.00342,2.0371ZM5.22852,61.5a.95952.95952,0,0,0-.27295-.74219,1.26485,1.26485,0,0,0-.875-.252h-.9873v1.97363h.9873Q5.22827,62.47949,5.22852,61.5Z" fill="#fff"/><path d="M7.53467,61.29a1.57937,1.57937,0,0,1,.81543-.19629v.51074H8.21729a1.2344,1.2344,0,0,0-.854.28711,1.2303,1.2303,0,0,0-.32227.959v2.13477H6.55127V61.16406H7.041v.67871A1.19236,1.19236,0,0,1,7.53467,61.29Z" fill="#fff"/><path d="M9.78906,64.7998a1.74693,1.74693,0,0,1-.6792-.68555,2.09838,2.09838,0,0,1-.24854-1.04,2.07007,2.07007,0,0,1,.252-1.03906,1.766,1.766,0,0,1,.686-.68652,2.09045,2.09045,0,0,1,1.9497,0,1.74064,1.74064,0,0,1,.686.68652,2.09456,2.09456,0,0,1,.24854,1.03906,2.07194,2.07194,0,0,1-.25244,1.03613,1.743,1.743,0,0,1-.69286.68946,2.00507,2.00507,0,0,1-.98.24218A1.944,1.944,0,0,1,9.78906,64.7998Zm1.66944-.35644a1.31091,1.31091,0,0,0,.52148-.51855,1.68137,1.68137,0,0,0,.19922-.85059,1.70934,1.70934,0,0,0-.1958-.85059,1.28851,1.28851,0,0,0-.51807-.51758,1.51109,1.51109,0,0,0-1.39991,0,1.26615,1.26615,0,0,0-.51465.51758,1.97659,1.97659,0,0,0,0,1.70118,1.26979,1.26979,0,0,0,.51123.51855,1.44568,1.44568,0,0,0,.69629.1709A1.46783,1.46783,0,0,0,11.4585,64.44336Z" fill="#fff"/><path d="M14.21631,61.57617v2.373a.67984.67984,0,0,0,.1333.4834.65358.65358,0,0,0,.46875.13281h.44824v.41992h-.5249a1.07544,1.07544,0,0,1-.77-.24121,1.06452,1.06452,0,0,1-.25195-.79492v-2.373H13.1875v-.41211h.53223v-.959h.49658v.959H15.2666v.41211Z" fill="#fff"/><path d="M19.51514,63.26367h-3.1709a1.541,1.541,0,0,0,.21.74219,1.23153,1.23153,0,0,0,.49707.46484,1.4478,1.4478,0,0,0,.67188.15821,1.34892,1.34892,0,0,0,.80176-.23146,1.084,1.084,0,0,0,.43018-.623h.51807a1.61968,1.61968,0,0,1-.59863.91406,1.83184,1.83184,0,0,1-1.15137.35352,1.9257,1.9257,0,0,1-.96582-.24219,1.70529,1.70529,0,0,1-.66846-.68554,2.14452,2.14452,0,0,1-.2417-1.04,2.19156,2.19156,0,0,1,.23828-1.043A1.65139,1.65139,0,0,1,16.75,61.3457a1.96025,1.96025,0,0,1,.97314-.23828,1.8618,1.8618,0,0,1,.95557.23828,1.64047,1.64047,0,0,1,.62988.64062,1.82686,1.82686,0,0,1,.22069.89258C19.5293,63.04688,19.52441,63.1748,19.51514,63.26367Zm-.6543-1.127a1.15392,1.15392,0,0,0-.48682-.45508,1.482,1.482,0,0,0-.67188-.1543,1.33621,1.33621,0,0,0-.93115.3506,1.39841,1.39841,0,0,0-.42676.98633h2.688A1.36185,1.36185,0,0,0,18.86084,62.13672Z" fill="#fff"/><path d="M20.43945,62.03516a1.69825,1.69825,0,0,1,.65771-.68653,1.898,1.898,0,0,1,.959-.24121,1.86621,1.86621,0,0,1,1.16553.3506,1.584,1.584,0,0,1,.5918.95117h-.52539a1.08092,1.08092,0,0,0-.42334-.64746,1.347,1.347,0,0,0-.80859-.23439,1.38088,1.38088,0,0,0-.69287.1748,1.22926,1.22926,0,0,0-.48633.52148,1.8416,1.8416,0,0,0-.17871.85059,1.86416,1.86416,0,0,0,.17871.85449,1.21481,1.21481,0,0,0,.48633.52441,1.3714,1.3714,0,0,0,.69287.17578,1.34687,1.34687,0,0,0,.80859-.23438,1.07942,1.07942,0,0,0,.42334-.65528h.52539a1.60375,1.60375,0,0,1-.59521.94532,1.84285,1.84285,0,0,1-1.16211.35742,1.8885,1.8885,0,0,1-.959-.24219,1.69557,1.69557,0,0,1-.65771-.68555,2.38675,2.38675,0,0,1,0-2.07907Z" fill="#fff"/><path d="M25.353,61.57617v2.373a.67984.67984,0,0,0,.1333.4834.65358.65358,0,0,0,.46875.13281h.44824v.41992h-.5249a1.07544,1.07544,0,0,1-.77-.24121,1.06452,1.06452,0,0,1-.252-.79492v-2.373h-.53223v-.41211h.53223v-.959H25.353v.959h1.05029v.41211Z" fill="#fff"/><path d="M27.20117,60.33789a.35158.35158,0,0,1-.105-.25977.33768.33768,0,0,1,.105-.25488.3633.3633,0,0,1,.5039,0,.33947.33947,0,0,1,.105.25488.35349.35349,0,0,1-.105.25977.356.356,0,0,1-.5039,0Zm.49658.82617v3.82129H27.208V61.16406Z" fill="#fff"/><path d="M29.51465,64.7998a1.74693,1.74693,0,0,1-.6792-.68555,2.09838,2.09838,0,0,1-.24854-1.04,2.07007,2.07007,0,0,1,.252-1.03906,1.766,1.766,0,0,1,.686-.68652,2.09045,2.09045,0,0,1,1.9497,0,1.74064,1.74064,0,0,1,.686.68652,2.09456,2.09456,0,0,1,.24854,1.03906,2.07184,2.07184,0,0,1-.25245,1.03613,1.74288,1.74288,0,0,1-.69287.68946,2.00506,2.00506,0,0,1-.98.24218A1.94391,1.94391,0,0,1,29.51465,64.7998Zm1.66943-.35644a1.31091,1.31091,0,0,0,.52148-.51855,1.68137,1.68137,0,0,0,.19922-.85059,1.70934,1.70934,0,0,0-.1958-.85059,1.28851,1.28851,0,0,0-.51807-.51758,1.51109,1.51109,0,0,0-1.39991,0,1.26615,1.26615,0,0,0-.51465.51758,1.97659,1.97659,0,0,0,0,1.70118,1.26979,1.26979,0,0,0,.51123.51855,1.44568,1.44568,0,0,0,.69629.1709A1.4678,1.4678,0,0,0,31.18408,64.44336Z" fill="#fff"/><path d="M36.21729,61.51758a1.639,1.639,0,0,1,.43359,1.22754v2.24022H36.168V62.80176a1.33318,1.33318,0,0,0-.31152-.95215,1.11331,1.11331,0,0,0-.8501-.3291,1.15572,1.15572,0,0,0-.88232.34961,1.45215,1.45215,0,0,0-.3291,1.02929v2.08594h-.48975V61.16406h.48975v.65039a1.24641,1.24641,0,0,1,.52539-.53515,1.60132,1.60132,0,0,1,.77686-.18555A1.53406,1.53406,0,0,1,36.21729,61.51758Z" fill="#fff"/></g><g id="Livello_1-4" data-name="Livello 1"><path d="M85.01475,38.00666A39.8262,39.8262,0,0,0,95,39.26879a39.82832,39.82832,0,0,0,9.98667-1.26249,11.35336,11.35336,0,0,0,8.02047-8.02249,40.12867,40.12867,0,0,0-.00071-19.97024A11.35332,11.35332,0,0,0,104.98407,1.993a40.126,40.126,0,0,0-19.97049.00071,11.3534,11.3534,0,0,0-8.02047,8.02237,40.12165,40.12165,0,0,0,.0007,19.97037A11.35363,11.35363,0,0,0,85.01475,38.00666Z" fill="#38382c" opacity="0.5" style="isolation:isolate"/><g opacity="0.5"><path d="M95,39.99988a40.55447,40.55447,0,0,1-10.16968-1.28582l-.00263-.00071a12.08759,12.08759,0,0,1-8.54092-8.54094,40.85286,40.85286,0,0,1-.00071-20.34233A12.08879,12.08879,0,0,1,84.8277,1.28665a40.85612,40.85612,0,0,1,20.34222-.00071,12.08875,12.08875,0,0,1,8.54355,8.54165,40.85977,40.85977,0,0,1,.00071,20.34221,12.08875,12.08875,0,0,1-8.54165,8.54355A40.56146,40.56146,0,0,1,95,39.99988Zm-9.98525-1.99322A39.8262,39.8262,0,0,0,95,39.26879a39.82832,39.82832,0,0,0,9.98667-1.26249,11.35336,11.35336,0,0,0,8.02047-8.02249,40.12867,40.12867,0,0,0-.00071-19.97024A11.35332,11.35332,0,0,0,104.98407,1.993a40.126,40.126,0,0,0-19.97049.00071,11.3534,11.3534,0,0,0-8.02047,8.02237,40.12165,40.12165,0,0,0,.0007,19.97037A11.35363,11.35363,0,0,0,85.01475,38.00666Z" fill="url(#Sfumatura_senza_nome_3-2)"/></g><g clip-path="url(#clip-path)"><path d="M84.73814,12.03465a.48828.48828,0,0,1-.35362-.82493l.01354-.01431a.48828.48828,0,1,1,.70553.6752l-.01162.0124A.48755.48755,0,0,1,84.73814,12.03465Z" fill="#8e917e"/></g><g clip-path="url(#clip-path)"><path d="M97.70615,32.49994a7.18739,7.18739,0,0,1-5.73808-2.84805,6.22837,6.22837,0,0,1-7.92656-9.40933,6.83532,6.83532,0,0,1-.87261-7.2731.48832.48832,0,0,1,.88043.42267,5.85777,5.85777,0,0,0,1.0065,6.52733.4884.4884,0,0,1-.01183.67959,5.25128,5.25128,0,0,0,6.76479,7.98874.48831.48831,0,0,1,.69256.128,6.22859,6.22859,0,0,0,11.31725-2.22263.48768.48768,0,0,1,.34618-.37632,3.24272,3.24272,0,0,0,.87452-5.84431.48842.48842,0,0,1-.10719-.72555,6.72653,6.72653,0,1,0-10.81257-7.95232.48825.48825,0,0,1-.74882.091,5.85753,5.85753,0,0,0-6.82087-.91744.48825.48825,0,1,1-.46463-.85888,6.83527,6.83527,0,0,1,7.53212.69409,7.70315,7.70315,0,0,1,12.38213,9.1671,4.21912,4.21912,0,0,1-1.28384,7.19414A7.21476,7.21476,0,0,1,97.70615,32.49994Z" fill="#8e917e"/></g><g clip-path="url(#clip-path)"><path d="M99.79694,11.11322h-.00363a.48829.48829,0,1,1,.00363-.97656h.00191a.48829.48829,0,1,1-.00191.97656Z" fill="#8e917e"/></g><g clip-path="url(#clip-path)"><path d="M104.37506,15.69124a.48836.48836,0,0,1-.48828-.48828,4.1166,4.1166,0,0,0-2.30846-3.68271.48824.48824,0,1,1,.42591-.87871,5.06685,5.06685,0,0,1,2.85912,4.56142A.48837.48837,0,0,1,104.37506,15.69124Z" fill="#8e917e"/></g><g clip-path="url(#clip-path)"><path d="M88.74987,27.91006a3.595,3.595,0,0,1-3.591-3.591.48828.48828,0,0,1,.97656,0,2.61738,2.61738,0,0,0,2.61439,2.6144.48829.48829,0,0,1,0,.97657Z" fill="#8e917e"/></g><g clip-path="url(#clip-path)"><path d="M97.1645,16.53843a2.44141,2.44141,0,1,0,2.44141,2.44141A2.44428,2.44428,0,0,0,97.1645,16.53843Zm0,5.85938a3.418,3.418,0,1,1,3.418-3.418A3.42186,3.42186,0,0,1,97.1645,22.39781Z" fill="#8e917e"/></g><g clip-path="url(#clip-path)"><path d="M90.23027,22.39634a3.41732,3.41732,0,1,1,2.417-5.83324.48836.48836,0,1,1-.69065.69065,2.44132,2.44132,0,1,0,0,3.45249.48836.48836,0,1,1,.69065.69065A3.40811,3.40811,0,0,1,90.23027,22.39634Z" fill="#8e917e"/></g><g clip-path="url(#clip-path)"><path d="M102.69931,24.43791h-1.56956a.48833.48833,0,0,1-.28916-.88176c.44689-.33,1.37024-1.20335,1.37024-1.79577,0-.18768-.04845-.2964-.2964-.2964a.29683.29683,0,0,0-.2964.2964.48828.48828,0,0,1-.97656,0,1.27442,1.27442,0,0,1,1.273-1.273,1.20514,1.20514,0,0,1,1.273,1.273,2.77012,2.77012,0,0,1-.80929,1.701h.321a.48828.48828,0,0,1,.0002.97656Z" fill="#8e917e"/></g><path d="M88.19264,52.84375a2.288,2.288,0,0,1,.86133-.88867,2.36888,2.36888,0,0,1,1.21777-.31885,2.47848,2.47848,0,0,1,1.40332.38867,2.20982,2.20982,0,0,1,.85059,1.0957h-.57422a1.68247,1.68247,0,0,0-.64062-.77734,1.86437,1.86437,0,0,0-1.03906-.27979,1.88444,1.88444,0,0,0-.96973.252,1.75543,1.75543,0,0,0-.67578.72461,2.56277,2.56277,0,0,0,0,2.1875,1.75988,1.75988,0,0,0,.67578.7207,2.03913,2.03913,0,0,0,2.00879-.02442,1.66193,1.66193,0,0,0,.64062-.7666h.57422a2.18515,2.18515,0,0,1-.85449,1.08545,2.49841,2.49841,0,0,1-1.39941.38477,2.36855,2.36855,0,0,1-1.21777-.31836,2.29344,2.29344,0,0,1-.86133-.88574,2.79472,2.79472,0,0,1,0-2.57958Z" fill="#fff"/><path d="M94.46413,56.31592a2.29661,2.29661,0,0,1-.87109-.88916,2.77881,2.77881,0,0,1,0-2.583,2.29864,2.29864,0,0,1,.87109-.88867,2.55442,2.55442,0,0,1,2.47168,0,2.28465,2.28465,0,0,1,.86816.88867,2.80951,2.80951,0,0,1,0,2.583,2.28279,2.28279,0,0,1-.86816.88916,2.55786,2.55786,0,0,1-2.47168,0Zm2.21191-.36035a1.786,1.786,0,0,0,.68652-.72461,2.50012,2.50012,0,0,0,0-2.1875,1.79215,1.79215,0,0,0-.68652-.72119,2.03183,2.03183,0,0,0-1.96,0,1.79634,1.79634,0,0,0-.68555.72119,2.5,2.5,0,0,0,0,2.1875,1.79006,1.79006,0,0,0,.68555.72461,2.03183,2.03183,0,0,0,1.96,0Z" fill="#fff"/><path d="M100.803,54.46777a2.26166,2.26166,0,0,0,.70312-1.50146,1.171,1.171,0,0,0-.24121-.77344.96907.96907,0,0,0-.78711-.29053,1.0332,1.0332,0,0,0-.82227.33252,1.44083,1.44083,0,0,0-.32618.88573h-.47559a1.75284,1.75284,0,0,1,.47949-1.20752,1.75394,1.75394,0,0,1,2.24316-.0493,1.3863,1.3863,0,0,1,.41993,1.08153,2.46467,2.46467,0,0,1-.70313,1.64161,11.00153,11.00153,0,0,1-1.73241,1.55029h2.58984v.41309H98.81176v-.34961A14.77936,14.77936,0,0,0,100.803,54.46777Z" fill="#fff"/><path d="M76.67408,62.03467a1.67916,1.67916,0,0,1,.65137-.686,1.843,1.843,0,0,1,.94141-.24122,1.71635,1.71635,0,0,1,.94141.252,1.46976,1.46976,0,0,1,.57031.644v-.83984h.49024v3.82177h-.49024v-.84716a1.52769,1.52769,0,0,1-.57715.64746,1.699,1.699,0,0,1-.94238.25586,1.80366,1.80366,0,0,1-.93359-.24512,1.697,1.697,0,0,1-.65137-.69287,2.3999,2.3999,0,0,1,0-2.06884Zm2.915.22754a1.3506,1.3506,0,0,0-.51367-.53907,1.408,1.408,0,0,0-.71777-.18895,1.45889,1.45889,0,0,0-.72852.18213,1.29111,1.29111,0,0,0-.50684.52832,1.71724,1.71724,0,0,0-.18555.82274,1.73963,1.73963,0,0,0,.18555.82228,1.30181,1.30181,0,0,0,.50684.53906,1.43108,1.43108,0,0,0,.72852.18555,1.408,1.408,0,0,0,.71777-.189,1.34735,1.34735,0,0,0,.51367-.53906,1.835,1.835,0,0,0,0-1.624Z" fill="#fff"/><path d="M82.45631,61.35938a1.702,1.702,0,0,1,.93457-.252,1.82608,1.82608,0,0,1,.9375.24121,1.68905,1.68905,0,0,1,.64746.686,2.39986,2.39986,0,0,1,0,2.06884,1.70112,1.70112,0,0,1-.65039.69287,1.80972,1.80972,0,0,1-.93457.24512,1.73342,1.73342,0,0,1-.94141-.24854,1.48356,1.48356,0,0,1-.57812-.64746v.83984h-.48242V59.80517h.48242v2.20508A1.55036,1.55036,0,0,1,82.45631,61.35938Zm2.07226.88525a1.29312,1.29312,0,0,0-.50781-.52832,1.45876,1.45876,0,0,0-.72852-.18213,1.40191,1.40191,0,0,0-.7168.189,1.3463,1.3463,0,0,0-.51465.53906,1.83492,1.83492,0,0,0,0,1.624,1.34314,1.34314,0,0,0,.51465.53907,1.4019,1.4019,0,0,0,.7168.18895,1.4311,1.4311,0,0,0,.72852-.18554,1.30391,1.30391,0,0,0,.50781-.53907,1.75093,1.75093,0,0,0,.18458-.82227A1.72827,1.72827,0,0,0,84.52857,62.24463Z" fill="#fff"/><path d="M86.35474,64.73682a1.11273,1.11273,0,0,1-.46582-.82959h.50391a.72268.72268,0,0,0,.30469.52147,1.18879,1.18879,0,0,0,.72461.19971.95508.95508,0,0,0,.627-.189.58711.58711,0,0,0,.22754-.46924.436.436,0,0,0-.126-.32177.89728.89728,0,0,0-.31934-.19971,4.88514,4.88514,0,0,0-.52148-.15723,5.28065,5.28065,0,0,1-.69238-.22412,1.183,1.183,0,0,1-.45215-.33252.89223.89223,0,0,1-.18555-.59131.87807.87807,0,0,1,.16895-.51806,1.14159,1.14159,0,0,1,.47559-.37793,1.674,1.674,0,0,1,.7002-.14014,1.515,1.515,0,0,1,.99414.31153,1.12948,1.12948,0,0,1,.40527.85742h-.48926a.746.746,0,0,0-.2627-.54248.98638.98638,0,0,0-.66211-.20655.97316.97316,0,0,0-.60156.1748.52676.52676,0,0,0-.23145.43408.51287.51287,0,0,0,.13672.36769.93445.93445,0,0,0,.33984.22412c.13477.05371.31738.11279.5459.17822a5.14708,5.14708,0,0,1,.6582.21729,1.1453,1.1453,0,0,1,.41992.30762.82957.82957,0,0,1,.18164.53906.93747.93747,0,0,1-.168.5498,1.14884,1.14884,0,0,1-.46875.38135,1.62943,1.62943,0,0,1-.69336.14013A1.77365,1.77365,0,0,1,86.35474,64.73682Z" fill="#fff"/><path d="M90.387,64.7998a1.74057,1.74057,0,0,1-.67871-.68605,2.28239,2.28239,0,0,1,.00293-2.0791,1.76289,1.76289,0,0,1,.68652-.686,1.96822,1.96822,0,0,1,.97266-.24121,1.99118,1.99118,0,0,1,.97656.24121,1.73747,1.73747,0,0,1,.68652.686,2.10286,2.10286,0,0,1,.248,1.03955,2.07823,2.07823,0,0,1-.25195,1.03614,1.744,1.744,0,0,1-.69336.68945,2.00287,2.00287,0,0,1-.97949.2417A1.94685,1.94685,0,0,1,90.387,64.7998Zm1.66993-.35693a1.31891,1.31891,0,0,0,.52148-.51807,1.68268,1.68268,0,0,0,.19921-.85059,1.70427,1.70427,0,0,0-.19628-.85059,1.28449,1.28449,0,0,0-.51758-.51758,1.51217,1.51217,0,0,0-1.4004,0,1.26613,1.26613,0,0,0-.51465.51758,1.97659,1.97659,0,0,0,0,1.70118,1.27271,1.27271,0,0,0,.51172.51807,1.44457,1.44457,0,0,0,.69629.17139A1.4682,1.4682,0,0,0,92.0569,64.44287Z" fill="#fff"/><path d="M95.16041,61.28955a1.58063,1.58063,0,0,1,.81543-.19629v.51123H95.843a1.07444,1.07444,0,0,0-1.17579,1.2461v2.13477H94.177V61.16358h.49023v.67871A1.196,1.196,0,0,1,95.16041,61.28955Z" fill="#fff"/><path d="M97.77174,61.36279a1.69767,1.69767,0,0,1,.94141-.25537,1.83056,1.83056,0,0,1,.93457.24121,1.68538,1.68538,0,0,1,.65137.68605,2.39986,2.39986,0,0,1,0,2.06884,1.70337,1.70337,0,0,1-.65137.69287,1.80478,1.80478,0,0,1-.93457.24511,1.6983,1.6983,0,0,1-.9375-.25586,1.5321,1.5321,0,0,1-.58106-.64013v2.646H96.7112V61.16357h.48339v.83985A1.54278,1.54278,0,0,1,97.77174,61.36279Zm2.0791.88184a1.29316,1.29316,0,0,0-.5078-.52832,1.45252,1.45252,0,0,0-.72754-.18213,1.40284,1.40284,0,0,0-.71777.189,1.35285,1.35285,0,0,0-.51465.53906,1.84339,1.84339,0,0,0,0,1.624,1.34965,1.34965,0,0,0,.51465.53907,1.40293,1.40293,0,0,0,.71777.18895,1.42492,1.42492,0,0,0,.72754-.18554,1.30389,1.30389,0,0,0,.5078-.53907,1.73965,1.73965,0,0,0,.18556-.82227A1.71731,1.71731,0,0,0,99.85084,62.24463Z" fill="#fff"/><path d="M102.07252,61.57617v2.373a.6775.6775,0,0,0,.13379.48291.65261.65261,0,0,0,.46875.1333h.44824v.41992h-.52539a1.07414,1.07414,0,0,1-.76953-.2417,1.06324,1.06324,0,0,1-.25195-.79443v-2.373h-.53223v-.4126h.53223v-.959h.49609v.959h1.05078v.4126Z" fill="#fff"/><path d="M103.92115,60.3374a.35.35,0,0,1-.10449-.25928.33912.33912,0,0,1,.10449-.25537.36332.36332,0,0,1,.5039,0,.33992.33992,0,0,1,.10547.25537.35089.35089,0,0,1-.10547.25928.35483.35483,0,0,1-.5039,0Zm.49707.82617v3.82177H103.928V61.16357Z" fill="#fff"/><path d="M106.23463,64.7998a1.74057,1.74057,0,0,1-.67871-.68605,2.28239,2.28239,0,0,1,.00293-2.0791,1.76289,1.76289,0,0,1,.68652-.686,1.96822,1.96822,0,0,1,.97266-.24121,1.99118,1.99118,0,0,1,.97656.24121,1.73747,1.73747,0,0,1,.68652.686,2.10286,2.10286,0,0,1,.248,1.03955,2.07823,2.07823,0,0,1-.25195,1.03614,1.744,1.744,0,0,1-.69336.68945,2.00287,2.00287,0,0,1-.97949.2417A1.94685,1.94685,0,0,1,106.23463,64.7998Zm1.66993-.35693a1.31891,1.31891,0,0,0,.52148-.51807,1.68268,1.68268,0,0,0,.19921-.85059,1.70427,1.70427,0,0,0-.19628-.85059,1.28443,1.28443,0,0,0-.51758-.51758,1.51217,1.51217,0,0,0-1.4004,0,1.26613,1.26613,0,0,0-.51465.51758,1.97659,1.97659,0,0,0,0,1.70118,1.27271,1.27271,0,0,0,.51172.51807,1.44457,1.44457,0,0,0,.69629.17139A1.46825,1.46825,0,0,0,107.90456,64.44287Z" fill="#fff"/><path d="M112.93677,61.51709a1.64023,1.64023,0,0,1,.43359,1.228v2.24022H112.888V62.80126a1.33318,1.33318,0,0,0-.31152-.95215,1.11594,1.11594,0,0,0-.85059-.32861,1.15218,1.15218,0,0,0-.88184.34961,1.4491,1.4491,0,0,0-.3291,1.0293v2.08593h-.49023V61.16357h.49023v.65088a1.24487,1.24487,0,0,1,.52539-.53564,1.60623,1.60623,0,0,1,.77637-.18555A1.5352,1.5352,0,0,1,112.93677,61.51709Z" fill="#fff"/></g><g id="Livello_1-5" data-name="Livello 1"><path d="M160.01476,38.00666A39.82618,39.82618,0,0,0,170,39.26879a39.82843,39.82843,0,0,0,9.98667-1.26249,11.35333,11.35333,0,0,0,8.02047-8.02249,40.12852,40.12852,0,0,0-.00072-19.97024A11.35333,11.35333,0,0,0,179.98405,1.993a40.126,40.126,0,0,0-19.97049.00071,11.3534,11.3534,0,0,0-8.02047,8.02237,40.122,40.122,0,0,0,.00072,19.97037A11.35364,11.35364,0,0,0,160.01476,38.00666Z" fill="#38382c" opacity="0.5" style="isolation:isolate"/><g opacity="0.5"><path d="M170,39.99988a40.55458,40.55458,0,0,1-10.16968-1.28582l-.00262-.00071a12.0876,12.0876,0,0,1-8.54093-8.54094,40.853,40.853,0,0,1-.00072-20.34233,12.08878,12.08878,0,0,1,8.54165-8.54343,40.85612,40.85612,0,0,1,20.34222-.00071,12.08874,12.08874,0,0,1,8.54355,8.54165,40.85981,40.85981,0,0,1,.00071,20.34222,12.08874,12.08874,0,0,1-8.54165,8.54355A40.56185,40.56185,0,0,1,170,39.99988Zm-9.98524-1.99322A39.82618,39.82618,0,0,0,170,39.26879a39.82843,39.82843,0,0,0,9.98667-1.26249,11.35333,11.35333,0,0,0,8.02047-8.02249,40.12852,40.12852,0,0,0-.00072-19.97024A11.35333,11.35333,0,0,0,179.98405,1.993a40.126,40.126,0,0,0-19.97049.00071,11.3534,11.3534,0,0,0-8.02047,8.02237,40.122,40.122,0,0,0,.00072,19.97037A11.35364,11.35364,0,0,0,160.01476,38.00666Z" fill="url(#Sfumatura_senza_nome_3-3)"/></g><g clip-path="url(#clip-path-9)"><path d="M171.02828,26.28909h-7.39194a.577.577,0,1,0,0,1.15386h7.39194a.577.577,0,1,0,0-1.15386Z" fill="#8e917e"/></g><g clip-path="url(#clip-path-9)"><path d="M171.02828,28.46867h-7.39194a.577.577,0,1,0,0,1.15386h7.39194a.577.577,0,1,0,0-1.15386Z" fill="#8e917e"/></g><g clip-path="url(#clip-path-9)"><path d="M174.39784,30.73528a1.12055,1.12055,0,0,1-1.12745,1.11087H162.42311a1.12055,1.12055,0,0,1-1.12745-1.11087v-10.974c.02085.00069.04161.00154.06254.00154h12.97711c.021,0,.04169-.00084.06253-.00154ZM160.7091,8.79329a.64508.64508,0,0,1,.6491-.63947h12.97711a.645.645,0,0,1,.649.63947v9.176a.645.645,0,0,1-.649.63955H161.3582a.64509.64509,0,0,1-.6491-.63955Zm18.58179,6.83814V16.8173a.02792.02792,0,0,1-.028.02769h-1.08451V14.06086A1.67735,1.67735,0,0,1,179.29089,15.63143Zm-3.1354,2.338V8.79329A1.8089,1.8089,0,0,0,174.33538,7H161.3582A1.809,1.809,0,0,0,159.538,8.79329v9.176a1.77676,1.77676,0,0,0,.58656,1.31718V30.7352a2.28445,2.28445,0,0,0,2.29854,2.26474h10.84728a2.2844,2.2844,0,0,0,2.29854-2.26474V25.45563h.40723a2.18861,2.18861,0,0,0,2.2022-2.16982v-5.287h1.08451a1.19181,1.19181,0,0,0,1.19912-1.18156V15.63142a2.84233,2.84233,0,0,0-2.28363-2.7676v-.84171a1.4454,1.4454,0,0,1,1.45434-1.43295.577.577,0,1,0,0-1.15387,2.60925,2.60925,0,0,0-2.62543,2.58682V23.28588a1.02481,1.02481,0,0,1-1.03111,1.01594h-.40723V19.28656A1.77682,1.77682,0,0,0,176.15549,17.9694Z" fill="#8e917e"/></g><g clip-path="url(#clip-path-9)"><path d="M162.697,17.44207h1.25315a.577.577,0,1,0,0-1.15386h-.88566V10.47463H172.629v5.81358h-5.94142a.577.577,0,1,0,0,1.15386h6.30883a.79875.79875,0,0,0,.80368-.79186V10.11254a.7987.7987,0,0,0-.80368-.79179H162.697a.79862.79862,0,0,0-.8036.79179v6.53767A.79869.79869,0,0,0,162.697,17.44207Z" fill="#8e917e"/></g><path d="M154.595,51.69238v.40625h-2.15625v1.82715H154.259V54.332h-1.82031v2.25391H151.949V51.69239Z" fill="#fff"/><path d="M156.10377,56.40039a1.74306,1.74306,0,0,1-.6792-.68652,2.28435,2.28435,0,0,1,.00341-2.0791,1.7636,1.7636,0,0,1,.686-.68555,1.9661,1.9661,0,0,1,.97314-.24121,1.9859,1.9859,0,0,1,.97656.24121,1.73825,1.73825,0,0,1,.686.68555,2.101,2.101,0,0,1,.24855,1.04,2.07464,2.07464,0,0,1-.25244,1.03613,1.74286,1.74286,0,0,1-.69287.68945,2.0044,2.0044,0,0,1-.98.24121A1.94348,1.94348,0,0,1,156.10377,56.40039Zm1.66944-.35742a1.31456,1.31456,0,0,0,.52148-.51758,1.6839,1.6839,0,0,0,.19922-.85059,1.70937,1.70937,0,0,0-.1958-.85059,1.28251,1.28251,0,0,0-.51807-.51758,1.51117,1.51117,0,0,0-1.39991,0,1.26035,1.26035,0,0,0-.51465.51758,1.97659,1.97659,0,0,0,0,1.70118,1.27333,1.27333,0,0,0,.51123.51758,1.44633,1.44633,0,0,0,.69629.17188A1.46863,1.46863,0,0,0,157.77321,56.043Z" fill="#fff"/><path d="M160.135,56.33691a1.11055,1.11055,0,0,1-.46533-.8291h.50391a.72271.72271,0,0,0,.30469.52148,1.192,1.192,0,0,0,.72461.19922.95259.95259,0,0,0,.62646-.18848.58739.58739,0,0,0,.22754-.46973.43567.43567,0,0,0-.126-.32129.90726.90726,0,0,0-.31885-.2002,4.96091,4.96091,0,0,0-.52148-.15721,5.30213,5.30213,0,0,1-.69287-.22363,1.18635,1.18635,0,0,1-.45166-.333.95689.95689,0,0,1-.01709-1.10937,1.15244,1.15244,0,0,1,.47559-.37793,1.68484,1.68484,0,0,1,.7002-.13965,1.51148,1.51148,0,0,1,.99414.31152,1.12911,1.12911,0,0,1,.40576.85742h-.48975a.74442.74442,0,0,0-.2627-.543.98485.98485,0,0,0-.66162-.206.97462.97462,0,0,0-.602.1748.52666.52666,0,0,0-.231.43359.514.514,0,0,0,.13672.36816.93555.93555,0,0,0,.33936.22363q.20289.08056.5459.17871a5.05443,5.05443,0,0,1,.6582.21681,1.15211,1.15211,0,0,1,.41992.30762.8271.8271,0,0,1,.18213.53905.9399.9399,0,0,1-.168.54981,1.14825,1.14825,0,0,1-.46924.38184,1.63453,1.63453,0,0,1-.69287.13964A1.776,1.776,0,0,1,160.135,56.33691Z" fill="#fff"/><path d="M163.70533,56.33691a1.11055,1.11055,0,0,1-.46533-.8291h.50391a.72271.72271,0,0,0,.30469.52148,1.192,1.192,0,0,0,.72461.19922.95259.95259,0,0,0,.62646-.18848.58739.58739,0,0,0,.22754-.46973.43567.43567,0,0,0-.126-.32129.90726.90726,0,0,0-.31885-.2002,4.96091,4.96091,0,0,0-.52148-.15721,5.30213,5.30213,0,0,1-.69287-.22363,1.18635,1.18635,0,0,1-.45166-.333.95689.95689,0,0,1-.01709-1.10937,1.15244,1.15244,0,0,1,.47559-.37793,1.68484,1.68484,0,0,1,.7002-.13965,1.51149,1.51149,0,0,1,.99415.31152,1.12914,1.12914,0,0,1,.40576.85742h-.48976a.74442.74442,0,0,0-.2627-.543.98485.98485,0,0,0-.66162-.206.97462.97462,0,0,0-.602.1748.52666.52666,0,0,0-.231.43359.514.514,0,0,0,.13672.36816.93555.93555,0,0,0,.33936.22363q.20289.08056.5459.17871a5.05443,5.05443,0,0,1,.6582.21681,1.15211,1.15211,0,0,1,.41992.30762.8271.8271,0,0,1,.18213.53905.9399.9399,0,0,1-.168.54981,1.14825,1.14825,0,0,1-.46924.38184,1.63453,1.63453,0,0,1-.69287.13964A1.77608,1.77608,0,0,1,163.70533,56.33691Z" fill="#fff"/><path d="M167.02711,51.9375a.34939.34939,0,0,1-.105-.25879.34134.34134,0,0,1,.105-.25586.3633.3633,0,0,1,.5039,0,.34316.34316,0,0,1,.105.25586.35127.35127,0,0,1-.105.25879.35367.35367,0,0,1-.5039,0Zm.49658.82617v3.82227h-.48975V52.76367Z" fill="#fff"/><path d="M169.12672,51.40527v5.18066H168.637V51.40527Z" fill="#fff"/><path d="M173.66237,53.17676h-.88916v3.40918h-.48975V53.17676h-.53223v-.41309h.53223v-.26562a1.18939,1.18939,0,0,1,.31836-.917,1.49467,1.49467,0,0,1,1.03271-.294V51.707a.96764.96764,0,0,0-.66846.18164.81033.81033,0,0,0-.19287.60937v.26563h.88916v.41308Z" fill="#fff"/><path d="M177.74342,52.76367v3.82227h-.49023v-.67188a1.1764,1.1764,0,0,1-.51807.5459,1.62283,1.62283,0,0,1-.78369.18848,1.53653,1.53653,0,0,1-1.12012-.42285,1.6397,1.6397,0,0,1-.43408-1.22852v-2.2334h.48291v2.17676a1.33212,1.33212,0,0,0,.31152.95215,1.1137,1.1137,0,0,0,.85059.3291,1.15189,1.15189,0,0,0,.88184-.34961,1.44987,1.44987,0,0,0,.3291-1.0293v-2.0791Z" fill="#fff"/><path d="M182.30739,54.86328h-3.1709a1.53786,1.53786,0,0,0,.21.74219,1.23407,1.23407,0,0,0,.49707.46582,1.45923,1.45923,0,0,0,.67188.15723,1.35542,1.35542,0,0,0,.80176-.23047,1.08714,1.08714,0,0,0,.43018-.623h.51807a1.6173,1.6173,0,0,1-.59862.91309,1.83182,1.83182,0,0,1-1.15138.35352,1.92536,1.92536,0,0,1-.96582-.24121,1.70175,1.70175,0,0,1-.66846-.68652,2.1406,2.1406,0,0,1-.2417-1.03906,2.19138,2.19138,0,0,1,.23829-1.043,1.65367,1.65367,0,0,1,.66455-.68652,1.9702,1.9702,0,0,1,.97314-.23731,1.8711,1.8711,0,0,1,.95557.23731,1.65345,1.65345,0,0,1,.62988.64062,1.82956,1.82956,0,0,1,.2207.89257C182.32155,54.64648,182.31666,54.77539,182.30739,54.86328Zm-.6543-1.127a1.16608,1.16608,0,0,0-.48682-.45508,1.48129,1.48129,0,0,0-.67188-.15332,1.33542,1.33542,0,0,0-.93115.34961,1.39894,1.39894,0,0,0-.42676.9873h2.688A1.36539,1.36539,0,0,0,181.65309,53.73633Z" fill="#fff"/><path d="M183.70729,51.40527v5.18066h-.48975V51.40527Z" fill="#fff"/><path d="M185.06178,56.33691a1.11055,1.11055,0,0,1-.46533-.8291h.50391a.72273.72273,0,0,0,.3047.52148,1.192,1.192,0,0,0,.7246.19922.95262.95262,0,0,0,.62647-.18848.58738.58738,0,0,0,.22753-.46973.43563.43563,0,0,0-.126-.32129.90726.90726,0,0,0-.31885-.2002,4.9624,4.9624,0,0,0-.52148-.15721,5.30213,5.30213,0,0,1-.69287-.22363,1.18635,1.18635,0,0,1-.45166-.333.95689.95689,0,0,1-.01709-1.10937,1.15244,1.15244,0,0,1,.47559-.37793,1.68484,1.68484,0,0,1,.7002-.13965,1.51148,1.51148,0,0,1,.99414.31152,1.12911,1.12911,0,0,1,.40576.85742h-.48975a.74442.74442,0,0,0-.2627-.543.98485.98485,0,0,0-.66162-.206.97462.97462,0,0,0-.602.1748.52666.52666,0,0,0-.231.43359.514.514,0,0,0,.13672.36816.93555.93555,0,0,0,.33936.22363q.20289.08056.5459.17871a5.05443,5.05443,0,0,1,.6582.21681,1.15211,1.15211,0,0,1,.41992.30762.8271.8271,0,0,1,.18213.53905.9399.9399,0,0,1-.168.54981,1.14825,1.14825,0,0,1-.46924.38184,1.63453,1.63453,0,0,1-.69287.13964A1.776,1.776,0,0,1,185.06178,56.33691Z" fill="#fff"/><path d="M151.60914,62.03516a1.68353,1.68353,0,0,1,.65137-.68653,1.84913,1.84913,0,0,1,.94141-.24121,1.71519,1.71519,0,0,1,.94141.252,1.46526,1.46526,0,0,1,.57031.64453v-.83985h.49023v3.82129h-.49023v-.84668a1.52764,1.52764,0,0,1-.57715.64746,1.70133,1.70133,0,0,1-.94189.25586,1.80889,1.80889,0,0,1-.93408-.24511,1.70158,1.70158,0,0,1-.65137-.69336,2.39884,2.39884,0,0,1,0-2.06836Zm2.91553.22754a1.34849,1.34849,0,0,0-.51416-.53906,1.40573,1.40573,0,0,0-.71777-.18945,1.45733,1.45733,0,0,0-.728.18261,1.28624,1.28624,0,0,0-.50732.52832,1.72084,1.72084,0,0,0-.18555.82228,1.74544,1.74544,0,0,0,.18555.82227,1.29688,1.29688,0,0,0,.50732.53906,1.42916,1.42916,0,0,0,.728.18555,1.40492,1.40492,0,0,0,.71777-.18848,1.34842,1.34842,0,0,0,.51416-.53906,1.83923,1.83923,0,0,0,0-1.624Z" fill="#fff"/><path d="M156.81373,59.80566v5.17969H156.324V59.80566Z" fill="#fff"/><path d="M158.56324,61.57617v2.373a.67984.67984,0,0,0,.1333.4834.65358.65358,0,0,0,.46875.13281h.44824v.41992h-.5249a1.07544,1.07544,0,0,1-.77-.24121,1.06452,1.06452,0,0,1-.25195-.79492v-2.373h-.53223v-.41211h.53223v-.959h.49658v.959h1.05029v.41211Z" fill="#fff"/><path d="M163.86256,63.26367h-3.1709a1.541,1.541,0,0,0,.21.74219,1.23153,1.23153,0,0,0,.49707.46484,1.4478,1.4478,0,0,0,.67188.15821,1.34892,1.34892,0,0,0,.80176-.23146,1.08408,1.08408,0,0,0,.43018-.623h.51807a1.61968,1.61968,0,0,1-.59863.91406,1.83186,1.83186,0,0,1-1.15137.35352,1.92567,1.92567,0,0,1-.96582-.24219,1.70529,1.70529,0,0,1-.66846-.68554,2.14452,2.14452,0,0,1-.2417-1.04,2.19156,2.19156,0,0,1,.23828-1.043,1.65142,1.65142,0,0,1,.66455-.68555,1.96028,1.96028,0,0,1,.97314-.23828,1.8618,1.8618,0,0,1,.95557.23828,1.64047,1.64047,0,0,1,.62988.64062,1.82675,1.82675,0,0,1,.2207.89258C163.87672,63.04688,163.87184,63.1748,163.86256,63.26367Zm-.6543-1.127a1.15392,1.15392,0,0,0-.48682-.45508,1.482,1.482,0,0,0-.67188-.1543,1.33621,1.33621,0,0,0-.93115.3506,1.39841,1.39841,0,0,0-.42676.98633h2.688A1.36167,1.36167,0,0,0,163.20826,62.13672Z" fill="#fff"/><path d="M165.75612,61.29a1.57937,1.57937,0,0,1,.81543-.19629v.51074h-.13281a1.075,1.075,0,0,0-1.17627,1.24609v2.13477h-.48975V61.16406h.48975v.67871A1.19236,1.19236,0,0,1,165.75612,61.29Z" fill="#fff"/><path d="M170.21852,61.51758a1.639,1.639,0,0,1,.43359,1.22754v2.24022h-.48291V62.80176a1.33318,1.33318,0,0,0-.31152-.95215,1.11331,1.11331,0,0,0-.8501-.3291,1.15572,1.15572,0,0,0-.88232.34961,1.45215,1.45215,0,0,0-.3291,1.02929v2.08594h-.48975V61.16406h.48975v.65039a1.24647,1.24647,0,0,1,.52539-.53515,1.60132,1.60132,0,0,1,.77686-.18555A1.534,1.534,0,0,1,170.21852,61.51758Z" fill="#fff"/><path d="M171.74782,62.03516a1.68353,1.68353,0,0,1,.65137-.68653,1.84913,1.84913,0,0,1,.94141-.24121,1.71519,1.71519,0,0,1,.94141.252,1.46526,1.46526,0,0,1,.57031.64453v-.83985h.49023v3.82129h-.49023v-.84668a1.52764,1.52764,0,0,1-.57715.64746,1.70133,1.70133,0,0,1-.94189.25586,1.80889,1.80889,0,0,1-.93408-.24511,1.70164,1.70164,0,0,1-.65137-.69336,2.39884,2.39884,0,0,1,0-2.06836Zm2.91552.22754a1.34849,1.34849,0,0,0-.51416-.53906,1.40573,1.40573,0,0,0-.71777-.18945,1.45733,1.45733,0,0,0-.728.18261,1.28624,1.28624,0,0,0-.50732.52832,1.72084,1.72084,0,0,0-.18555.82228,1.74544,1.74544,0,0,0,.18555.82227,1.29688,1.29688,0,0,0,.50732.53906,1.42916,1.42916,0,0,0,.728.18555,1.40492,1.40492,0,0,0,.71777-.18848,1.34842,1.34842,0,0,0,.51416-.53906,1.83923,1.83923,0,0,0,0-1.624Z" fill="#fff"/><path d="M177.09938,61.57617v2.373a.67984.67984,0,0,0,.1333.4834.65359.65359,0,0,0,.46875.13281h.44824v.41992h-.5249a1.07544,1.07544,0,0,1-.77-.24121,1.06456,1.06456,0,0,1-.25194-.79492v-2.373h-.53224v-.41211h.53224v-.959h.49657v.959h1.05029v.41211Z" fill="#fff"/><path d="M178.94752,60.33789a.35158.35158,0,0,1-.105-.25977.33768.33768,0,0,1,.105-.25488.3633.3633,0,0,1,.5039,0,.33947.33947,0,0,1,.105.25488.35349.35349,0,0,1-.105.25977.356.356,0,0,1-.5039,0Zm.49658.82617v3.82129h-.48975V61.16406Z" fill="#fff"/><path d="M181.9153,64.50977l1.28809-3.3457h.51807l-1.5332,3.82129h-.55273l-1.5332-3.82129h.5249Z" fill="#fff"/><path d="M187.83033,63.26367h-3.1709a1.54093,1.54093,0,0,0,.21.74219,1.23153,1.23153,0,0,0,.49707.46484,1.44773,1.44773,0,0,0,.67187.15821,1.349,1.349,0,0,0,.80177-.23146,1.08408,1.08408,0,0,0,.43018-.623h.51807a1.61973,1.61973,0,0,1-.59863.91406,1.83186,1.83186,0,0,1-1.15137.35352,1.92567,1.92567,0,0,1-.96582-.24219,1.70531,1.70531,0,0,1-.66847-.68554,2.14463,2.14463,0,0,1-.24169-1.04,2.19156,2.19156,0,0,1,.23828-1.043,1.65142,1.65142,0,0,1,.66455-.68555,1.96028,1.96028,0,0,1,.97314-.23828,1.8618,1.8618,0,0,1,.95557.23828,1.64047,1.64047,0,0,1,.62988.64062,1.82675,1.82675,0,0,1,.2207.89258C187.8445,63.04688,187.83961,63.1748,187.83033,63.26367Zm-.65429-1.127a1.15392,1.15392,0,0,0-.48682-.45508,1.48194,1.48194,0,0,0-.67188-.1543,1.33616,1.33616,0,0,0-.93114.3506,1.39841,1.39841,0,0,0-.42677.98633h2.688A1.36185,1.36185,0,0,0,187.176,62.13672Z" fill="#fff"/></g><g id="Livello_1-6" data-name="Livello 1"><path d="M235.49946,38.00666a39.82618,39.82618,0,0,0,9.98524,1.26213,39.82857,39.82857,0,0,0,9.98668-1.26249,11.35336,11.35336,0,0,0,8.02047-8.02249,40.12883,40.12883,0,0,0-.00072-19.97024A11.35335,11.35335,0,0,0,255.46876,1.993a40.126,40.126,0,0,0-19.97049.00071,11.35341,11.35341,0,0,0-8.02047,8.02237,40.1218,40.1218,0,0,0,.00071,19.97037A11.35364,11.35364,0,0,0,235.49946,38.00666Z" fill="#38382c" opacity="0.5" style="isolation:isolate"/><g opacity="0.5"><path d="M245.4847,39.99988A40.55458,40.55458,0,0,1,235.315,38.71406l-.00262-.00071a12.08762,12.08762,0,0,1-8.54093-8.54094,40.853,40.853,0,0,1-.00072-20.34233,12.08878,12.08878,0,0,1,8.54165-8.54343,40.85612,40.85612,0,0,1,20.34222-.00071,12.08872,12.08872,0,0,1,8.54354,8.54165,40.85961,40.85961,0,0,1,.00072,20.34221,12.08874,12.08874,0,0,1-8.54165,8.54355A40.5614,40.5614,0,0,1,245.4847,39.99988Zm-9.98524-1.99322a39.82618,39.82618,0,0,0,9.98524,1.26213,39.82857,39.82857,0,0,0,9.98668-1.26249,11.35336,11.35336,0,0,0,8.02047-8.02249,40.12883,40.12883,0,0,0-.00072-19.97024A11.35335,11.35335,0,0,0,255.46876,1.993a40.126,40.126,0,0,0-19.97049.00071,11.35341,11.35341,0,0,0-8.02047,8.02237,40.1218,40.1218,0,0,0,.00071,19.97037A11.35364,11.35364,0,0,0,235.49946,38.00666Z" fill="url(#Sfumatura_senza_nome_3-4)"/></g><g clip-path="url(#clip-path-13)"><path d="M244.50776,16.43522c0-1.67085,2.55179-4.999,3.9062-6.58235,1.35441,1.58282,3.90609,4.91013,3.90609,6.58235a3.90615,3.90615,0,1,1-7.81229,0Zm8.78883,0c0-2.18378-3.12873-6.101-4.51931-7.65014a.48822.48822,0,0,0-.72674,0c-1.397,1.55631-4.51931,5.4671-4.51931,7.65014a4.88268,4.88268,0,0,0,9.76536,0Z" fill="#8e917e"/></g><g clip-path="url(#clip-path-13)"><circle cx="253.29666" cy="27.37249" r="0.48828" fill="#8e917e"/></g><g clip-path="url(#clip-path-13)"><path d="M233.473,29.37432h1.58492a10.43529,10.43529,0,0,1,2.92512.73211,18.87069,18.87069,0,0,0,5.98271,1.26974,12.633,12.633,0,0,0,6.888-2.0393c.26093-.16084.52191-.3184.77581-.46825a.48827.48827,0,0,0-.49652-.84089c-.25917.153-.52547.31381-.79168.47782a11.66263,11.66263,0,0,1-6.3655,1.8942,17.81166,17.81166,0,0,1-5.67848-1.21784,10.951,10.951,0,0,0-3.23946-.78411h-1.09665V24.9799h.53417a8.68523,8.68523,0,0,0,4.49183-1.39361A4.67121,4.67121,0,0,1,241.09,22.7827a2.728,2.728,0,0,1,1.64542.59862,4.70666,4.70666,0,0,0,2.56028.91135c3.22453.17934,3.92251.78987,3.92251.93137,0,.12544-.29.25888-.33183.29023-.64169.32343-2.26767.68631-6.33157.68631a.48827.48827,0,1,0,0,.97654c3.58965,0,5.83461-.2745,6.86037-.83855a16.47534,16.47534,0,0,0,2.76956-1.16647,4.02651,4.02651,0,0,1,3.13009-.38842,4.85737,4.85737,0,0,1,1.33341.5598l-.078.03017c-.36127.13964-.856.33095-1.48585.60721a.48829.48829,0,0,0,.39218.89437c.61-.26752,1.09309-.45433,1.44581-.59071a5.82925,5.82925,0,0,0,.71995-.30858.5674.5674,0,0,0,.24369-.836,5.25762,5.25762,0,0,0-6.20653-.80345,9.7403,9.7403,0,0,1-1.50323.68719c-.18554-.97717-1.76944-1.536-4.82629-1.706a3.7777,3.7777,0,0,1-2.08369-.75594,3.64332,3.64332,0,0,0-2.17626-.75555,5.40328,5.40328,0,0,0-2.579.92761,7.75424,7.75424,0,0,1-4.01557,1.2696H233.473a.48829.48829,0,0,0-.48827.48827v4.39441A.48828.48828,0,0,0,233.473,29.37432Z" fill="#8e917e"/></g><path d="M228.06055,55.18652h1.75684v.39893h-2.24707V50.69238h.49023Z" fill="#fff"/><path d="M233.96094,53.86328H230.79a1.54483,1.54483,0,0,0,.21.74219,1.22974,1.22974,0,0,0,.49707.46533,1.452,1.452,0,0,0,.67188.15771,1.35114,1.35114,0,0,0,.80176-.231,1.08269,1.08269,0,0,0,.42969-.623h.51855a1.616,1.616,0,0,1-.59863.91357,1.83186,1.83186,0,0,1-1.15137.35352,1.92689,1.92689,0,0,1-.96582-.2417,1.69606,1.69606,0,0,1-.668-.686,2.13176,2.13176,0,0,1-.24219-1.03955,2.19732,2.19732,0,0,1,.23828-1.043,1.65449,1.65449,0,0,1,.66406-.686,1.96712,1.96712,0,0,1,.97363-.23779,1.86959,1.86959,0,0,1,.95605.23779,1.64445,1.64445,0,0,1,.62891.64062,1.82281,1.82281,0,0,1,.2207.89258A3.83464,3.83464,0,0,1,233.96094,53.86328Zm-.6543-1.127a1.16165,1.16165,0,0,0-.48633-.45508,1.4831,1.4831,0,0,0-.67188-.15381,1.33621,1.33621,0,0,0-.93164.3501,1.40271,1.40271,0,0,0-.42676.98682h2.68848A1.36372,1.36372,0,0,0,233.30664,52.73633Z" fill="#fff"/><path d="M235.1123,55.33691a1.11269,1.11269,0,0,1-.46582-.82959h.50391a.72271.72271,0,0,0,.30469.52148,1.19078,1.19078,0,0,0,.72461.19971.95508.95508,0,0,0,.62695-.189.58714.58714,0,0,0,.22754-.46924.436.436,0,0,0-.126-.32178.90167.90167,0,0,0-.31836-.19971,5.032,5.032,0,0,0-.52148-.15722,5.30412,5.30412,0,0,1-.69336-.22412,1.17251,1.17251,0,0,1-.45117-.33252.887.887,0,0,1-.18555-.59131.87708.87708,0,0,1,.168-.51807,1.14159,1.14159,0,0,1,.47559-.37793,1.67719,1.67719,0,0,1,.7002-.14014,1.515,1.515,0,0,1,.99414.31152,1.13357,1.13357,0,0,1,.40625.85742h-.49023a.74245.74245,0,0,0-.2627-.54248.98539.98539,0,0,0-.66113-.20654.97416.97416,0,0,0-.60254.1748.52927.52927,0,0,0-.23145.43408.51706.51706,0,0,0,.13672.36768.95148.95148,0,0,0,.33984.22412c.13476.05371.31738.11279.5459.17822a5.095,5.095,0,0,1,.6582.21729,1.13716,1.13716,0,0,1,.41992.30762.83545.83545,0,0,1,.18262.53906.94447.94447,0,0,1-.168.5498,1.15842,1.15842,0,0,1-.46973.38135,1.62477,1.62477,0,0,1-.69238.14014A1.77662,1.77662,0,0,1,235.1123,55.33691Z" fill="#fff"/><path d="M238.68262,55.33691a1.11269,1.11269,0,0,1-.46582-.82959h.50391a.72271.72271,0,0,0,.30469.52148,1.19078,1.19078,0,0,0,.72461.19971.95508.95508,0,0,0,.62695-.189.58714.58714,0,0,0,.22754-.46924.436.436,0,0,0-.126-.32178.90171.90171,0,0,0-.31835-.19971,5.03311,5.03311,0,0,0-.52149-.15722,5.30412,5.30412,0,0,1-.69336-.22412,1.17251,1.17251,0,0,1-.45117-.33252.887.887,0,0,1-.18555-.59131.87708.87708,0,0,1,.168-.51807,1.14159,1.14159,0,0,1,.47559-.37793,1.67719,1.67719,0,0,1,.7002-.14014,1.515,1.515,0,0,1,.99414.31152,1.13357,1.13357,0,0,1,.40625.85742h-.49023a.74245.74245,0,0,0-.2627-.54248.98539.98539,0,0,0-.66113-.20654.97416.97416,0,0,0-.60254.1748.52927.52927,0,0,0-.23145.43408.51706.51706,0,0,0,.13672.36768.95157.95157,0,0,0,.33984.22412c.13476.05371.31739.11279.54591.17822a5.0943,5.0943,0,0,1,.65819.21729,1.1372,1.1372,0,0,1,.41993.30762.83545.83545,0,0,1,.18262.53906.94447.94447,0,0,1-.168.5498,1.15842,1.15842,0,0,1-.46973.38135,1.62477,1.62477,0,0,1-.69238.14014A1.77657,1.77657,0,0,1,238.68262,55.33691Z" fill="#fff"/><path d="M248.96875,51.76367l-1.19727,3.82178h-.48926L246.2246,52.3794,245.168,55.58545h-.49707l-1.19629-3.82178h.49609l.95312,3.32471,1.07031-3.32471h.49023l1.05664,3.33154.94531-3.33154Z" fill="#fff"/><path d="M249.64453,52.63477a1.68316,1.68316,0,0,1,.65039-.686,1.84554,1.84554,0,0,1,.94141-.24121,1.71411,1.71411,0,0,1,.94141.252,1.46374,1.46374,0,0,1,.57031.644v-.83984h.49023v3.82178h-.49023v-.84717a1.52523,1.52523,0,0,1-.57618.64746,1.699,1.699,0,0,1-.94238.25586,1.8071,1.8071,0,0,1-.93457-.24512,1.70118,1.70118,0,0,1-.65039-.69287,2.39986,2.39986,0,0,1,0-2.06884Zm2.915.22753a1.35279,1.35279,0,0,0-.51465-.53906,1.40188,1.40188,0,0,0-.7168-.189,1.4563,1.4563,0,0,0-.72852.18213,1.29318,1.29318,0,0,0-.50781.52832,1.72844,1.72844,0,0,0-.18555.82275,1.75131,1.75131,0,0,0,.18555.82227,1.30376,1.30376,0,0,0,.50781.53906,1.42853,1.42853,0,0,0,.72852.18555,1.40191,1.40191,0,0,0,.7168-.189,1.34963,1.34963,0,0,0,.51465-.53906,1.84343,1.84343,0,0,0,0-1.624Z" fill="#fff"/><path d="M254.99609,52.17627v2.373a.67783.67783,0,0,0,.13281.48291.65261.65261,0,0,0,.46875.1333h.44824v.41992h-.52441a1.07686,1.07686,0,0,1-.77052-.2417,1.06329,1.06329,0,0,1-.25195-.79443v-2.373h-.53223v-.4126h.53223v-.959h.49708v.959h1.0498v.4126Z" fill="#fff"/><path d="M260.29492,53.86328h-3.17187a1.53448,1.53448,0,0,0,.21094.74219,1.2273,1.2273,0,0,0,.49609.46533,1.4549,1.4549,0,0,0,.67188.15771,1.3542,1.3542,0,0,0,.80273-.231,1.08715,1.08715,0,0,0,.42969-.623h.51758a1.61932,1.61932,0,0,1-.59766.91357,1.83474,1.83474,0,0,1-1.15234.35352,1.9206,1.9206,0,0,1-.96484-.2417,1.7046,1.7046,0,0,1-.66895-.686,2.14232,2.14232,0,0,1-.24121-1.03955,2.18584,2.18584,0,0,1,.23828-1.043,1.64865,1.64865,0,0,1,.66406-.686,1.96586,1.96586,0,0,1,.97266-.23779,1.86458,1.86458,0,0,1,.95605.23779,1.6469,1.6469,0,0,1,.62988.64062,1.83355,1.83355,0,0,1,.2207.89258C260.30859,53.64648,260.30371,53.7749,260.29492,53.86328Zm-.65429-1.127a1.15839,1.15839,0,0,0-.4873-.45508,1.48015,1.48015,0,0,0-.67188-.15381,1.33212,1.33212,0,0,0-.93066.3501,1.39935,1.39935,0,0,0-.42773.98682h2.68848A1.36372,1.36372,0,0,0,259.64063,52.73633Z" fill="#fff"/><path d="M262.1875,51.88965a1.58433,1.58433,0,0,1,.81641-.19629v.51123h-.13281a1.07457,1.07457,0,0,0-1.17676,1.24609v2.13477h-.48926V51.76367h.48926v.67871A1.20139,1.20139,0,0,1,262.1875,51.88965Z" fill="#fff"/><path d="M222.61133,61.03467a1.69262,1.69262,0,0,1,.65723-.686,1.893,1.893,0,0,1,.959-.24122,1.86167,1.86167,0,0,1,1.165.3501,1.57625,1.57625,0,0,1,.5918.95166H225.459a1.07311,1.07311,0,0,0-.42285-.64746,1.347,1.347,0,0,0-.80859-.23438,1.37893,1.37893,0,0,0-.69238.1748,1.21784,1.21784,0,0,0-.48633.52147,1.84142,1.84142,0,0,0-.17969.8506,1.86174,1.86174,0,0,0,.17969.854,1.21041,1.21041,0,0,0,.48633.5249,1.37425,1.37425,0,0,0,.69238.1753,1.34681,1.34681,0,0,0,.80859-.23439,1.07339,1.07339,0,0,0,.42285-.65479h.52539a1.60214,1.60214,0,0,1-.59473.94531,1.84458,1.84458,0,0,1-1.16211.35694,1.88833,1.88833,0,0,1-.959-.2417,1.68965,1.68965,0,0,1-.65723-.686,2.38667,2.38667,0,0,1,0-2.07905Z" fill="#fff"/><path d="M227.5918,63.7998a1.74937,1.74937,0,0,1-.67969-.686,2.28634,2.28634,0,0,1,.0039-2.0791,1.76691,1.76691,0,0,1,.68555-.686,1.96822,1.96822,0,0,1,.97266-.24121,1.98849,1.98849,0,0,1,.97656.24121,1.73747,1.73747,0,0,1,.68652.686,2.10318,2.10318,0,0,1,.249,1.03955,2.0684,2.0684,0,0,1-.25293,1.03614,1.74788,1.74788,0,0,1-.69238.68945,2.0093,2.0093,0,0,1-.98047.2417A1.94042,1.94042,0,0,1,227.5918,63.7998Zm1.66894-.35693a1.31885,1.31885,0,0,0,.52148-.51807,1.68258,1.68258,0,0,0,.19922-.85059,1.70417,1.70417,0,0,0-.19629-.85059,1.28443,1.28443,0,0,0-.51758-.51758,1.51214,1.51214,0,0,0-1.40039,0,1.25821,1.25821,0,0,0-.51367.51758,1.96755,1.96755,0,0,0,0,1.70118,1.27055,1.27055,0,0,0,.51074.51807,1.44457,1.44457,0,0,0,.69629.17139A1.46816,1.46816,0,0,0,229.26074,63.44287Z" fill="#fff"/><path d="M234.294,60.51709a1.64023,1.64023,0,0,1,.43359,1.228v2.24022h-.4834V61.80126a1.33727,1.33727,0,0,0-.31055-.95215,1.1174,1.1174,0,0,0-.85059-.32861,1.15218,1.15218,0,0,0-.88184.34961,1.44932,1.44932,0,0,0-.33008,1.0293v2.08593h-.48926V60.16357h.48926v.65088a1.25573,1.25573,0,0,1,.52539-.53564,1.61018,1.61018,0,0,1,.77734-.18555A1.53684,1.53684,0,0,1,234.294,60.51709Z" fill="#fff"/><path d="M236.05371,63.73682a1.1127,1.1127,0,0,1-.46582-.82959h.50391a.72268.72268,0,0,0,.30469.52147,1.19078,1.19078,0,0,0,.72461.19971.95508.95508,0,0,0,.62695-.189.58711.58711,0,0,0,.22754-.46924.436.436,0,0,0-.126-.32177.90167.90167,0,0,0-.31836-.19971,5.03,5.03,0,0,0-.52148-.15723,5.30108,5.30108,0,0,1-.69336-.22412,1.17241,1.17241,0,0,1-.45117-.33252.887.887,0,0,1-.18555-.59131.877.877,0,0,1,.168-.51806,1.14159,1.14159,0,0,1,.47559-.37793,1.67719,1.67719,0,0,1,.7002-.14014,1.515,1.515,0,0,1,.99414.31153,1.13356,1.13356,0,0,1,.40625.85742h-.49023a.74244.74244,0,0,0-.2627-.54248.98539.98539,0,0,0-.66113-.20655.97422.97422,0,0,0-.60254.1748.52927.52927,0,0,0-.23145.43408.51708.51708,0,0,0,.13672.36769.95148.95148,0,0,0,.33984.22412c.13476.05371.31738.11279.5459.17822a5.095,5.095,0,0,1,.6582.21729,1.13728,1.13728,0,0,1,.41992.30762.83545.83545,0,0,1,.18262.53906.94447.94447,0,0,1-.168.5498,1.15842,1.15842,0,0,1-.46973.38135,1.62507,1.62507,0,0,1-.69238.14013A1.77671,1.77671,0,0,1,236.05371,63.73682Z" fill="#fff"/><path d="M242.69336,60.16357v3.82177h-.49023v-.67188a1.1755,1.1755,0,0,1-.51758.5459,1.62777,1.62777,0,0,1-.78418.189,1.53535,1.53535,0,0,1-1.12012-.42334,1.64064,1.64064,0,0,1-.43359-1.22853V60.16354h.48242V62.3403a1.33158,1.33158,0,0,0,.31152.95215,1.11619,1.11619,0,0,0,.85059.3291,1.15222,1.15222,0,0,0,.88184-.3501,1.44907,1.44907,0,0,0,.3291-1.02929V60.16354h.49023Z" fill="#fff"/><path d="M249.459,60.51709a1.66379,1.66379,0,0,1,.42383,1.228v2.24022h-.4834V61.80126a1.36661,1.36661,0,0,0-.30078-.95215,1.05468,1.05468,0,0,0-.81934-.32861,1.10248,1.10248,0,0,0-.86133.35693,1.49675,1.49675,0,0,0-.32227,1.03614v2.07177h-.48242V61.80126a1.36192,1.36192,0,0,0-.30078-.95215,1.06547,1.06547,0,0,0-.82617-.32861,1.10248,1.10248,0,0,0-.86133.35693,1.49675,1.49675,0,0,0-.32227,1.03614v2.07177h-.48926V60.16357h.48926v.6577a1.26046,1.26046,0,0,1,.51855-.54248,1.524,1.524,0,0,1,.749-.18554,1.58506,1.58506,0,0,1,.87109.23828,1.3366,1.3366,0,0,1,.543.6997,1.29446,1.29446,0,0,1,.52832-.69628,1.535,1.535,0,0,1,.85059-.2417A1.48264,1.48264,0,0,1,249.459,60.51709Z" fill="#fff"/><path d="M252.02734,60.36279a1.69767,1.69767,0,0,1,.94141-.25537,1.8367,1.8367,0,0,1,.93555.24121,1.68312,1.68312,0,0,1,.65039.68605,2.39986,2.39986,0,0,1,0,2.06884,1.70118,1.70118,0,0,1-.65039.69287,1.81083,1.81083,0,0,1-.93555.24511,1.6983,1.6983,0,0,1-.9375-.25586,1.53864,1.53864,0,0,1-.58105-.64013v2.646h-.4834V60.16357h.4834v.83985A1.54282,1.54282,0,0,1,252.02734,60.36279Zm2.08008.88184a1.29939,1.29939,0,0,0-.50781-.52832,1.45876,1.45876,0,0,0-.72852-.18213,1.39935,1.39935,0,0,0-.7168.189,1.355,1.355,0,0,0-.51562.53906,1.84339,1.84339,0,0,0,0,1.624,1.35191,1.35191,0,0,0,.51562.53907,1.39934,1.39934,0,0,0,.7168.189,1.4311,1.4311,0,0,0,.72852-.18554,1.31014,1.31014,0,0,0,.50781-.53907,1.75105,1.75105,0,0,0,.18457-.82227A1.72827,1.72827,0,0,0,254.10742,61.24463Z" fill="#fff"/><path d="M256.3291,60.57617v2.373a.67285.67285,0,0,0,.13379.48291.651.651,0,0,0,.46875.1333h.44727v.41992h-.52441a1.07677,1.07677,0,0,1-.77051-.2417,1.06324,1.06324,0,0,1-.25195-.79443v-2.373h-.53125v-.4126h.53125v-.959h.49707v.959h1.0498v.4126Z" fill="#fff"/><path d="M258.17773,59.3374a.35089.35089,0,0,1-.10547-.25928.33992.33992,0,0,1,.10547-.25537.3633.3633,0,0,1,.5039,0,.34268.34268,0,0,1,.10449.25537.35388.35388,0,0,1-.10449.25928.35483.35483,0,0,1-.5039,0Zm.4961.82617v3.82177h-.49023V60.16357Z" fill="#fff"/><path d="M260.49023,63.7998a1.74057,1.74057,0,0,1-.67871-.686,2.10184,2.10184,0,0,1-.249-1.03955,2.07329,2.07329,0,0,1,.252-1.03955,1.76289,1.76289,0,0,1,.68652-.686,2.09152,2.09152,0,0,1,1.95019,0,1.74138,1.74138,0,0,1,.68555.686,2.27923,2.27923,0,0,1-.0039,2.07569,1.73788,1.73788,0,0,1-.69336.68945,2.00018,2.00018,0,0,1-.97949.2417A1.94682,1.94682,0,0,1,260.49023,63.7998Zm1.66993-.35693a1.30662,1.30662,0,0,0,.52148-.51807,1.68258,1.68258,0,0,0,.19922-.85059,1.71461,1.71461,0,0,0-.19531-.85059,1.28667,1.28667,0,0,0-.51855-.51758,1.51017,1.51017,0,0,0-1.39942,0,1.26829,1.26829,0,0,0-.51562.51758,1.98564,1.98564,0,0,0,0,1.70118,1.27271,1.27271,0,0,0,.51172.51807,1.44733,1.44733,0,0,0,.69629.17139A1.46815,1.46815,0,0,0,262.16016,63.44287Z" fill="#fff"/><path d="M267.19336,60.51709a1.64023,1.64023,0,0,1,.43359,1.228v2.24022h-.48242V61.80126a1.32909,1.32909,0,0,0-.3125-.95215,1.11225,1.11225,0,0,0-.84961-.32861,1.15579,1.15579,0,0,0-.88281.34961,1.45338,1.45338,0,0,0-.32812,1.0293v2.08593h-.49024V60.16357h.49023v.65088a1.24487,1.24487,0,0,1,.52539-.53564,1.60355,1.60355,0,0,1,.77637-.18555A1.53525,1.53525,0,0,1,267.19336,60.51709Z" fill="#fff"/></g><g id="Livello_1-7" data-name="Livello 1"><path d="M310.01476,38.00666A39.82607,39.82607,0,0,0,320,39.2688a39.82843,39.82843,0,0,0,9.98667-1.26249,11.35333,11.35333,0,0,0,8.02047-8.02249,40.12856,40.12856,0,0,0-.00072-19.97025A11.35333,11.35333,0,0,0,329.98405,1.993a40.126,40.126,0,0,0-19.97049.00071,11.3534,11.3534,0,0,0-8.02047,8.02237,40.122,40.122,0,0,0,.00072,19.97037A11.35364,11.35364,0,0,0,310.01476,38.00666Z" fill="#38382c" opacity="0.5" style="isolation:isolate"/><g opacity="0.5"><path d="M320,39.99988a40.55458,40.55458,0,0,1-10.16968-1.28582l-.00262-.00071a12.0876,12.0876,0,0,1-8.54093-8.54094,40.853,40.853,0,0,1-.00072-20.34233,12.08878,12.08878,0,0,1,8.54165-8.54343,40.85612,40.85612,0,0,1,20.34222-.00071,12.08874,12.08874,0,0,1,8.54355,8.54165,40.85977,40.85977,0,0,1,.00071,20.34221,12.08874,12.08874,0,0,1-8.54165,8.54355A40.56146,40.56146,0,0,1,320,39.99988Zm-9.98524-1.99322A39.82607,39.82607,0,0,0,320,39.2688a39.82843,39.82843,0,0,0,9.98667-1.26249,11.35333,11.35333,0,0,0,8.02047-8.02249,40.12856,40.12856,0,0,0-.00072-19.97025A11.35333,11.35333,0,0,0,329.98405,1.993a40.126,40.126,0,0,0-19.97049.00071,11.3534,11.3534,0,0,0-8.02047,8.02237,40.122,40.122,0,0,0,.00072,19.97037A11.35364,11.35364,0,0,0,310.01476,38.00666Z" fill="url(#Sfumatura_senza_nome_3-5)"/></g><g clip-path="url(#clip-path-16)"><path d="M309.819,25.61251a1.59251,1.59251,0,0,1-1.26137-.62407L310.53128,21.57l2.74967,1.58752-1.41744,2.45506h-2.03506Zm-.23752-5.82416a.6.6,0,0,1,.36575-.52543l4.25754-1.85507a.605.605,0,0,1,.54926.031.60492.60492,0,0,1,.30144.46014l.52225,4.6147a.61064.61064,0,0,1-.912.59756l-4.77984-2.75968A.59972.59972,0,0,1,309.5815,19.78835Zm5.29429,5.82426h-2.16647l1.206-2.08883.38416.22179a1.34316,1.34316,0,0,0,2.00615-1.31426l-.5223-4.61465a1.34321,1.34321,0,0,0-1.87114-1.08031l-4.25754,1.85507a1.34313,1.34313,0,0,0-.13507,2.39451l.37737.21789-2.08712,3.61492a2.32681,2.32681,0,0,0,0,2.32024l1.128,1.95361a2.32645,2.32645,0,0,0,2.00918,1.16h.41717a.36624.36624,0,1,0,0-.73248H310.947a1.59187,1.59187,0,0,1-1.37481-.79376l-1.128-1.95361a1.59114,1.59114,0,0,1-.19318-1.0387,2.32657,2.32657,0,0,0,1.55773.61093l.0103.00015h5.05672a1.58752,1.58752,0,0,1,0,3.175h-2.04668a.36624.36624,0,0,0,0,.73248h2.04668a2.32,2.32,0,0,0,0-4.64Z" fill="#8e917e"/></g><g clip-path="url(#clip-path-16)"><path d="M317.32133,15.2294a1.58751,1.58751,0,0,1-1.78568-2.32718l1.9644-3.40245a1.592,1.592,0,0,1,1.37481-.79376h2.25588a1.59131,1.59131,0,0,1,.99612.352,2.32668,2.32668,0,0,0-1.30781,1.04334l-.00542.00908-2.52836,4.37923A1.5771,1.5771,0,0,1,317.32133,15.2294Zm4.52182-.527-1.41744-2.45506,1.01736-1.76214.005-.00835a1.59241,1.59241,0,0,1,1.17113-.78033l1.97363,3.41842Zm-2.92356.15362,1.08323-1.87621,1.206,2.08883-.37732.21784a1.34309,1.34309,0,0,0,.13507,2.39446l1.34824.58745a.36625.36625,0,1,0,.29265-.67149l-1.34824-.58745a.61064.61064,0,0,1-.06137-1.08865l4.77985-2.75963a.61064.61064,0,0,1,.912.59756l-.52225,4.61465a.61065.61065,0,0,1-.85065.4912l-1.56628-.68247a.36625.36625,0,0,0-.29265.67149l1.56628.68247a1.331,1.331,0,0,0,1.208-.06817,1.33088,1.33088,0,0,0,.66309-1.01213l.52225-4.6147a1.34316,1.34316,0,0,0-2.00615-1.31426l-.38416.22179-2.08707-3.61492a2.32646,2.32646,0,0,0-2.00938-1.1601h-2.25588a2.32653,2.32653,0,0,0-2.00917,1.16L314.90134,12.536a2.32,2.32,0,1,0,4.01825,2.32Z" fill="#8e917e"/></g><g clip-path="url(#clip-path-16)"><path d="M331.55574,26.7664,330.42782,28.72a1.59164,1.59164,0,0,1-.80294.68667,2.32683,2.32683,0,0,0-.24958-1.65412l-.00523-.00938L326.84171,23.364a1.5875,1.5875,0,1,1,2.74961-1.58753l1.96441,3.40245A1.59191,1.59191,0,0,1,331.55574,26.7664Zm-6.67716-.42752h2.83488l1.01731,1.762.00479.00859a1.59264,1.59264,0,0,1,.09024,1.4044h-3.94727v-3.175Zm-.73248,4.34325a.6106.6106,0,0,1-.97346.49114l-3.73533-2.75963a.61068.61068,0,0,1,0-.9823l3.73533-2.75963a.60458.60458,0,0,1,.36082-.1213.61422.61422,0,0,1,.27707.06724.6.6,0,0,1,.33557.54521Zm8.044-5.86948-1.96441-3.40245a2.32,2.32,0,1,0-4.01827,2.32l1.08324,1.87621h-2.412v-.44359a1.34309,1.34309,0,0,0-2.14122-1.08025l-3.73533,2.75963a1.34313,1.34313,0,0,0,0,2.16056l3.73533,2.75963a1.3431,1.3431,0,0,0,2.14122-1.08026V30.2464h4.17418a2.32675,2.32675,0,0,0,2.00938-1.16014l1.12792-1.95361A2.32649,2.32649,0,0,0,332.19006,24.81265Z" fill="#8e917e"/></g><path d="M303.585,53.11426A1.75957,1.75957,0,0,1,302.3457,53.5h-.98633v2.08594h-.49023V50.69239h1.47656a1.76306,1.76306,0,0,1,1.23633.38574,1.45736,1.45736,0,0,1,.00293,2.03613Zm-.09082-1.01465a.95941.95941,0,0,0-.27344-.74219,1.26235,1.26235,0,0,0-.875-.252h-.98633v1.97461h.98633Q303.49415,53.08008,303.49414,52.09961Z" fill="#fff"/><path d="M305.30664,50.40527v5.18066h-.49023V50.40527Z" fill="#fff"/><path d="M306.42969,52.63477a1.68006,1.68006,0,0,1,.65234-.68555,1.83815,1.83815,0,0,1,.94141-.24121,1.71643,1.71643,0,0,1,.94141.252,1.47126,1.47126,0,0,1,.57031.64355v-.83984h.49023v3.82227h-.49023v-.84766a1.53014,1.53014,0,0,1-.57813.64746,1.69165,1.69165,0,0,1-.94141.25586,1.79642,1.79642,0,0,1-.93359-.24512,1.698,1.698,0,0,1-.65234-.69238,2.40094,2.40094,0,0,1,0-2.06933Zm2.916.22753a1.35374,1.35374,0,0,0-.51367-.53906,1.40848,1.40848,0,0,0-.71875-.18848,1.45748,1.45748,0,0,0-.72754.18164,1.297,1.297,0,0,0-.50684.52832,1.71914,1.71914,0,0,0-.18555.82324,1.73956,1.73956,0,0,0,.18555.82227,1.30755,1.30755,0,0,0,.50684.53906,1.43,1.43,0,0,0,.72754.18555,1.40937,1.40937,0,0,0,.71875-.18945,1.34735,1.34735,0,0,0,.51367-.53906,1.83494,1.83494,0,0,0,0-1.624Z" fill="#fff"/><path d="M311.38672,55.33691a1.1096,1.1096,0,0,1-.46582-.8291h.50391a.72271.72271,0,0,0,.30469.52148,1.192,1.192,0,0,0,.72461.19922.95032.95032,0,0,0,.626-.18848.58554.58554,0,0,0,.22852-.46973.43645.43645,0,0,0-.12695-.32129.90054.90054,0,0,0-.31836-.2002,5.037,5.037,0,0,0-.5215-.15721,5.31237,5.31237,0,0,1-.69336-.22363,1.18846,1.18846,0,0,1-.45117-.333.958.958,0,0,1-.01758-1.10937,1.15872,1.15872,0,0,1,.47656-.37793,1.68024,1.68024,0,0,1,.69922-.13965,1.51057,1.51057,0,0,1,.99414.31152,1.12952,1.12952,0,0,1,.40625.85742h-.49023a.74525.74525,0,0,0-.26172-.543.988.988,0,0,0-.66211-.206.97309.97309,0,0,0-.60156.1748.526.526,0,0,0-.23145.43359.514.514,0,0,0,.13672.36816.93774.93774,0,0,0,.33887.22363q.20361.08056.54688.17871a5.07986,5.07986,0,0,1,.6582.21681,1.16452,1.16452,0,0,1,.41992.30762.82954.82954,0,0,1,.18164.53905.94341.94341,0,0,1-.168.54981,1.14991,1.14991,0,0,1-.46875.38184,1.63682,1.63682,0,0,1-.69336.13964A1.77348,1.77348,0,0,1,311.38672,55.33691Z" fill="#fff"/><path d="M315.35156,52.17676v2.373a.68028.68028,0,0,0,.13281.48242.65566.65566,0,0,0,.46875.13379h.44922V55.586H315.877a1.07426,1.07426,0,0,1-.76954-.2422,1.062,1.062,0,0,1-.252-.794v-2.373h-.53319v-.41309h.53319v-.959h.49609v.959h1.05079v.41309Z" fill="#fff"/><path d="M317.2002,50.9375a.349.349,0,0,1-.10449-.25879.34093.34093,0,0,1,.10449-.25586.3633.3633,0,0,1,.5039,0,.34456.34456,0,0,1,.10449.25586.35276.35276,0,0,1-.10449.25879.35367.35367,0,0,1-.5039,0Zm.49707.82617v3.82227H317.207V51.76367Z" fill="#fff"/><path d="M318.82422,52.63477a1.69134,1.69134,0,0,1,.65723-.68555,1.888,1.888,0,0,1,.959-.24121,1.86147,1.86147,0,0,1,1.165.34961,1.57742,1.57742,0,0,1,.5918.95215h-.52539a1.07033,1.07033,0,0,0-.42285-.64747,1.347,1.347,0,0,0-.80859-.23437,1.37893,1.37893,0,0,0-.69238.1748,1.21243,1.21243,0,0,0-.48633.52148,2.11,2.11,0,0,0,0,1.70411,1.21174,1.21174,0,0,0,.48633.52539,1.379,1.379,0,0,0,.69238.1748,1.34687,1.34687,0,0,0,.80859-.23438,1.07226,1.07226,0,0,0,.42285-.6543h.52539a1.60361,1.60361,0,0,1-.59473.94531,1.84737,1.84737,0,0,1-1.16211.35645,1.88806,1.88806,0,0,1-.959-.24121,1.688,1.688,0,0,1-.65723-.68652,2.38675,2.38675,0,0,1,0-2.07909Z" fill="#fff"/><path d="M325.47363,52.78613v.41211H322.75v-.41211Z" fill="#fff"/><path d="M328.23828,52.17676h-.88867v3.40918h-.49023V52.17676h-.53125v-.41309h.53125v-.26562a1.1912,1.1912,0,0,1,.31836-.917,1.49608,1.49608,0,0,1,1.0332-.294V50.707a.9645.9645,0,0,0-.668.18164.80838.80838,0,0,0-.19336.60937v.26563h.88867Z" fill="#fff"/><path d="M329.99219,51.88965a1.58061,1.58061,0,0,1,.81543-.19629v.51172h-.13282a1.074,1.074,0,0,0-1.17676,1.24609v2.13477h-.48926V51.76367h.48926v.67871A1.203,1.203,0,0,1,329.99219,51.88965Z" fill="#fff"/><path d="M334.98633,53.86328h-3.1709a1.54323,1.54323,0,0,0,.21.74219,1.231,1.231,0,0,0,.49707.46582,1.45778,1.45778,0,0,0,.67188.15723,1.35437,1.35437,0,0,0,.80176-.23047,1.08421,1.08421,0,0,0,.42969-.623h.51855a1.61485,1.61485,0,0,1-.59863.91309,1.83178,1.83178,0,0,1-1.15137.35352,1.9266,1.9266,0,0,1-.96582-.24121,1.69432,1.69432,0,0,1-.668-.68652,2.12992,2.12992,0,0,1-.24219-1.03906,2.19725,2.19725,0,0,1,.23828-1.043,1.6557,1.6557,0,0,1,.66406-.68652,1.97212,1.97212,0,0,1,.97363-.23731,1.87417,1.87417,0,0,1,.95605.23731,1.651,1.651,0,0,1,.62891.64062,1.82409,1.82409,0,0,1,.2207.89257A3.82783,3.82783,0,0,1,334.98633,53.86328Zm-.6543-1.127a1.16775,1.16775,0,0,0-.48633-.45508,1.48276,1.48276,0,0,0-.67188-.15332,1.3358,1.3358,0,0,0-.93164.34961,1.403,1.403,0,0,0-.42676.9873h2.68848A1.36549,1.36549,0,0,0,334.332,52.73633Z" fill="#fff"/><path d="M339.33984,53.86328h-3.16992a1.54288,1.54288,0,0,0,.209.74219,1.23957,1.23957,0,0,0,.49805.46582,1.45778,1.45778,0,0,0,.67188.15723,1.35333,1.35333,0,0,0,.80078-.23047,1.08567,1.08567,0,0,0,.43066-.623h.51855a1.61635,1.61635,0,0,1-.59961.91309,1.8289,1.8289,0,0,1-1.15039.35352,1.93033,1.93033,0,0,1-.9668-.24121,1.70053,1.70053,0,0,1-.668-.68652,2.14085,2.14085,0,0,1-.24219-1.03906,2.19725,2.19725,0,0,1,.23828-1.043,1.65794,1.65794,0,0,1,.665-.68652,1.96947,1.96947,0,0,1,.97363-.23731,1.87306,1.87306,0,0,1,.95508.23731,1.65345,1.65345,0,0,1,.62988.64062,1.82409,1.82409,0,0,1,.2207.89257A3.76289,3.76289,0,0,1,339.33984,53.86328Zm-.65429-1.127a1.16775,1.16775,0,0,0-.48633-.45508,1.48276,1.48276,0,0,0-.67188-.15332,1.33918,1.33918,0,0,0-.93164.34961,1.39826,1.39826,0,0,0-.42578.9873h2.6875A1.36549,1.36549,0,0,0,338.68555,52.73633Z" fill="#fff"/><path d="M316.07031,60.16406,314.873,63.98535h-.49023l-1.05664-3.206-1.05762,3.206h-.49707l-1.19727-3.82129h.49805l.95117,3.32422,1.07129-3.32422h.49023l1.05664,3.331.94531-3.331Z" fill="#fff"/><path d="M317.43848,63.7998a1.74253,1.74253,0,0,1-.67871-.68555,2.09332,2.09332,0,0,1-.249-1.04,2.07007,2.07007,0,0,1,.252-1.03906,1.764,1.764,0,0,1,.68652-.68652,1.97336,1.97336,0,0,1,.97266-.24122,1.9963,1.9963,0,0,1,.97656.24122,1.74253,1.74253,0,0,1,.68555.68652,2.08951,2.08951,0,0,1,.249,1.03906,2.067,2.067,0,0,1-.25293,1.03613,1.74176,1.74176,0,0,1-.69238.68946,2.00317,2.00317,0,0,1-.97949.24218A1.94449,1.94449,0,0,1,317.43848,63.7998Zm1.66894-.35644a1.30485,1.30485,0,0,0,.52148-.51855,1.68137,1.68137,0,0,0,.19922-.85059,1.70413,1.70413,0,0,0-.19531-.85059,1.2874,1.2874,0,0,0-.51758-.51758,1.51207,1.51207,0,0,0-1.40039,0,1.26324,1.26324,0,0,0-.51465.51758,1.97659,1.97659,0,0,0,0,1.70118,1.26872,1.26872,0,0,0,.51074.51855,1.51186,1.51186,0,0,0,1.39649,0Z" fill="#fff"/><path d="M322.21191,60.29a1.57814,1.57814,0,0,1,.81543-.19629v.51074h-.13281a1.075,1.075,0,0,0-1.17579,1.24609v2.13477h-.49023V60.16406h.49023v.67871A1.19142,1.19142,0,0,1,322.21191,60.29Z" fill="#fff"/><path d="M324.252,58.80566v5.17969h-.48925V58.80566Z" fill="#fff"/><path d="M325.37988,61.03516a1.69982,1.69982,0,0,1,.6543-.68653,1.84785,1.84785,0,0,1,.94141-.24121,1.72951,1.72951,0,0,1,.91016.24512,1.50026,1.50026,0,0,1,.59473.63672V58.80567h.49023v5.17969h-.49023v-.85352a1.47217,1.47217,0,0,1-.57422.65429,1.70237,1.70237,0,0,1-.9375.25586,1.82419,1.82419,0,0,1-.94141-.24511,1.7048,1.7048,0,0,1-.65137-.69336,2.20237,2.20237,0,0,1-.23438-1.03614A2.14764,2.14764,0,0,1,325.37988,61.03516Zm2.91114.22754a1.34091,1.34091,0,0,0-.51367-.53906,1.40583,1.40583,0,0,0-.71777-.18945,1.45544,1.45544,0,0,0-.72754.18261,1.28131,1.28131,0,0,0-.50781.52832,1.72657,1.72657,0,0,0-.18555.82228,1.75133,1.75133,0,0,0,.18555.82227,1.29184,1.29184,0,0,0,.50781.53906,1.42735,1.42735,0,0,0,.72754.18555,1.40492,1.40492,0,0,0,.71777-.18848,1.34085,1.34085,0,0,0,.51367-.53906,1.835,1.835,0,0,0,0-1.624Z" fill="#fff"/></g><g id="Livello_1-8" data-name="Livello 1"><path d="M385.01476,38.00666A39.82618,39.82618,0,0,0,395,39.26879a39.82851,39.82851,0,0,0,9.98668-1.26249,11.35336,11.35336,0,0,0,8.02047-8.02249,40.12883,40.12883,0,0,0-.00072-19.97024A11.35335,11.35335,0,0,0,404.98406,1.993a40.12593,40.12593,0,0,0-19.97048.00071,11.3534,11.3534,0,0,0-8.02047,8.02237,40.12165,40.12165,0,0,0,.0007,19.97037A11.35364,11.35364,0,0,0,385.01476,38.00666Z" fill="#38382c" opacity="0.5" style="isolation:isolate"/><g opacity="0.5"><path d="M395,39.99988a40.55458,40.55458,0,0,1-10.16968-1.28582l-.00262-.00071a12.08762,12.08762,0,0,1-8.54093-8.54094,40.853,40.853,0,0,1-.00072-20.34233,12.08878,12.08878,0,0,1,8.54165-8.54343,40.85612,40.85612,0,0,1,20.34222-.00071,12.08874,12.08874,0,0,1,8.54355,8.54165,40.85981,40.85981,0,0,1,.00071,20.34222,12.08874,12.08874,0,0,1-8.54165,8.54355A40.56185,40.56185,0,0,1,395,39.99988Zm-9.98524-1.99322A39.82618,39.82618,0,0,0,395,39.26879a39.82851,39.82851,0,0,0,9.98668-1.26249,11.35336,11.35336,0,0,0,8.02047-8.02249,40.12883,40.12883,0,0,0-.00072-19.97024A11.35335,11.35335,0,0,0,404.98406,1.993a40.12593,40.12593,0,0,0-19.97048.00071,11.3534,11.3534,0,0,0-8.02047,8.02237,40.12165,40.12165,0,0,0,.0007,19.97037A11.35364,11.35364,0,0,0,385.01476,38.00666Z" fill="url(#Sfumatura_senza_nome_3-6)"/></g><g clip-path="url(#clip-path-19)"><circle cx="388.39464" cy="27.2766" r="0.3662" fill="#8e917e"/></g><g clip-path="url(#clip-path-19)"><circle cx="396.38411" cy="25.14566" r="0.3662" fill="#8e917e"/></g><g clip-path="url(#clip-path-19)"><circle cx="400.73665" cy="27.2766" r="0.3662" fill="#8e917e"/></g><g clip-path="url(#clip-path-19)"><circle cx="393.33986" cy="26.9103" r="0.3662" fill="#8e917e"/></g><g clip-path="url(#clip-path-19)"><path d="M393.25526,19.32214a7.72064,7.72064,0,0,0-2.73589-3.289,5.33637,5.33637,0,0,1,3.62317,2.998,9.90793,9.90793,0,0,1,.83879,2.82872,4.93318,4.93318,0,0,0-.88371.09683A13.12441,13.12441,0,0,0,393.25526,19.32214Zm1.44451-.8592a9.6958,9.6958,0,0,1,.99792-2.53852,5.33545,5.33545,0,0,1,3.84035-2.71426,7.72071,7.72071,0,0,0-2.97775,3.07184,13.33718,13.33718,0,0,0-1.2965,3.58112,8.8152,8.8152,0,0,0-.46373-1.15481c-.03584-.07305-.07256-.14434-.10972-.2147Zm5.8673-7.06639a5.17477,5.17477,0,0,1,2.68037.72663,4.87365,4.87365,0,0,1,1.8474,1.84188.08427.08427,0,0,1-.034.115c-.76182.41314-3.37437,1.72-5.00376,1.19221a1.73237,1.73237,0,0,1-1.0176-.834,6.419,6.419,0,0,1,2.15009-1.14773.3662.3662,0,0,0-.00811-.71349,5.31,5.31,0,0,0-2.35185.02622A1.63365,1.63365,0,0,1,400.56707,11.39655ZM407.44928,28.22a2.67047,2.67047,0,0,0-3.5923-1.5239,3.42932,3.42932,0,0,0-4.0974-1.55257,4.98369,4.98369,0,0,0-4.01121-3.23971,12.37,12.37,0,0,1,1.457-5.275,7.01212,7.01212,0,0,1,1.27536-1.699,2.45246,2.45246,0,0,0,1.35061,1.03913,3.52912,3.52912,0,0,0,1.0883.15747,10.65213,10.65213,0,0,0,4.49032-1.40262.81939.81939,0,0,0,.33077-1.10417,5.98347,5.98347,0,0,0-5.19058-2.95548,2.37974,2.37974,0,0,0-2.51655,2.19491,6.18565,6.18565,0,0,0-2.96715,2.69356,9.79647,9.79647,0,0,0-.89846,2.09306,5.823,5.823,0,0,0-2.12226-1.84862c-.0001-.00513.00019-.01021-.00014-.01543a2.57576,2.57576,0,0,0-.49479-1.44329,2.52179,2.52179,0,0,0-1.8476-.92082,5.83584,5.83584,0,0,0-3.11842.5902.36621.36621,0,1,0,.31983.6589,5.17673,5.17673,0,0,1,2.72618-.52023,1.6353,1.6353,0,0,1,1.64037,1.335,5.30968,5.30968,0,0,0-2.34262-.20459.36634.36634,0,0,0-.063.71061,6.41992,6.41992,0,0,1,2.05756,1.308,1.73316,1.73316,0,0,1-1.0841.75573,2.5987,2.5987,0,0,1-.60368.06636,9.57463,9.57463,0,0,1-4.28909-1.63651.08434.08434,0,0,1-.025-.11738,4.24854,4.24854,0,0,1,.74577-.8696.36623.36623,0,1,0-.4901-.54434,4.98091,4.98091,0,0,0-.8736,1.02062.81949.81949,0,0,0,.2459,1.12619,10.01678,10.01678,0,0,0,4.69374,1.75213,3.29754,3.29754,0,0,0,.76608-.08506,2.4537,2.4537,0,0,0,1.43377-.93551,7.01189,7.01189,0,0,1,1.14265,1.79085,12.40452,12.40452,0,0,1,.80544,2.53726,5.001,5.001,0,0,0-3.05333,3.16813,3.40056,3.40056,0,0,0-1.54246-.3668,3.44891,3.44891,0,0,0-2.92037,1.63563,2.67265,2.67265,0,0,0-3.324,1.62679.82993.82993,0,0,0,.77774,1.11681h10.01093a.36622.36622,0,1,0,0-.73243H383.3287a.092.092,0,0,1-.07817-.04058.09841.09841,0,0,1-.01157-.09248,1.94407,1.94407,0,0,1,1.82015-1.27273,1.92,1.92,0,0,1,.82541.18438.36622.36622,0,0,0,.48585-.17168,2.7096,2.7096,0,0,1,2.4249-1.52127,2.67305,2.67305,0,0,1,1.55965.49859.36617.36617,0,0,0,.571-.22374,4.24322,4.24322,0,0,1,8.25061-.23482.36625.36625,0,0,0,.515.23389,2.69366,2.69366,0,0,1,3.66673,1.37625.36621.36621,0,0,0,.5358.16606,1.93721,1.93721,0,0,1,2.86709.96517.09865.09865,0,0,1-.01162.09252.09193.09193,0,0,1-.07817.04059H394.80451a.36622.36622,0,1,0,0,.73243h11.867a.83.83,0,0,0,.77779-1.117Z" fill="#8e917e"/></g><path d="M389.95114,55.46631a1.38787,1.38787,0,0,1-.57715-.46875,1.2306,1.2306,0,0,1-.22412-.67188h.51807a.98093.98093,0,0,0,.31494.62646,1.13544,1.13544,0,0,0,.81885.26953,1.15036,1.15036,0,0,0,.78761-.25586.8253.8253,0,0,0,.29053-.64746.76428.76428,0,0,0-.16113-.50732.98512.98512,0,0,0-.39893-.28711,6.18722,6.18722,0,0,0-.6582-.20654,5.71861,5.71861,0,0,1-.77686-.25879,1.23575,1.23575,0,0,1-.48975-.39209,1.15767,1.15767,0,0,1-.20312-.72119,1.20159,1.20159,0,0,1,.1958-.67529,1.31191,1.31191,0,0,1,.55322-.46532,1.89622,1.89622,0,0,1,.81885-.16847,1.70747,1.70747,0,0,1,1.0957.33252,1.25124,1.25124,0,0,1,.47949.85791h-.53223a.87835.87835,0,0,0-.3291-.53564,1.30217,1.30217,0,0,0-1.49072,0,.774.774,0,0,0-.29395.64062.73873.73873,0,0,0,.16064.49658,1.01875,1.01875,0,0,0,.40283.28711,5.814,5.814,0,0,0,.6543.21,5.91093,5.91093,0,0,1,.77.2627,1.25346,1.25346,0,0,1,.49707.39551,1.1487,1.1487,0,0,1,.20312.71387,1.26033,1.26033,0,0,1-.18213.65088,1.32675,1.32675,0,0,1-.53906.49707,1.80166,1.80166,0,0,1-.854.189A2.02345,2.02345,0,0,1,389.95114,55.46631Z" fill="#fff"/><path d="M394.02536,55.3999a1.74494,1.74494,0,0,1-.6792-.686,2.09658,2.09658,0,0,1-.24854-1.03955,2.07334,2.07334,0,0,1,.252-1.03955,1.76487,1.76487,0,0,1,.686-.686,2.09053,2.09053,0,0,1,1.9497,0,1.73949,1.73949,0,0,1,.686.686,2.09778,2.09778,0,0,1,.24854,1.03955,2.07324,2.07324,0,0,1-.25244,1.03613,1.74286,1.74286,0,0,1-.69287.68945,2.00473,2.00473,0,0,1-.98.2417A1.94365,1.94365,0,0,1,394.02536,55.3999Zm1.66943-.35693a1.31271,1.31271,0,0,0,.52148-.51807,1.68263,1.68263,0,0,0,.19922-.85059,1.70937,1.70937,0,0,0-.1958-.85059,1.28553,1.28553,0,0,0-.51807-.51758,1.51117,1.51117,0,0,0-1.39991,0,1.26328,1.26328,0,0,0-.51465.51758,1.97659,1.97659,0,0,0,0,1.70118,1.27163,1.27163,0,0,0,.51123.51807,1.446,1.446,0,0,0,.69629.17139A1.4682,1.4682,0,0,0,395.69479,55.043Z" fill="#fff"/><path d="M397.80905,50.9375a.35048.35048,0,0,1-.105-.25928.33951.33951,0,0,1,.105-.25537.3633.3633,0,0,1,.5039,0,.34131.34131,0,0,1,.105.25537.35238.35238,0,0,1-.105.25928.35483.35483,0,0,1-.5039,0Zm.49658.82617v3.82178h-.48975V51.76367Z" fill="#fff"/><path d="M399.90866,50.40527v5.18018h-.48975V50.40527Z" fill="#fff"/><path d="M376.62741,60.36279a1.69655,1.69655,0,0,1,.94141-.25537,1.8331,1.8331,0,0,1,.93457.24121,1.68425,1.68425,0,0,1,.65088.68605,2.39986,2.39986,0,0,1,0,2.06884,1.70231,1.70231,0,0,1-.65088.69287,1.80731,1.80731,0,0,1-.93457.24511,1.70112,1.70112,0,0,1-.938-.25586,1.53538,1.53538,0,0,1-.58105-.64013v2.646h-.48291V60.16357h.48291v.83985A1.54409,1.54409,0,0,1,376.62741,60.36279Zm2.0791.88184a1.29318,1.29318,0,0,0-.50781-.52832,1.45562,1.45562,0,0,0-.728-.18213,1.40241,1.40241,0,0,0-.71729.189,1.3495,1.3495,0,0,0-.51465.53906,1.83919,1.83919,0,0,0,0,1.624,1.34632,1.34632,0,0,0,.51465.53907,1.40237,1.40237,0,0,0,.71729.189,1.428,1.428,0,0,0,.728-.18554,1.30391,1.30391,0,0,0,.50781-.53907,1.74527,1.74527,0,0,0,.18506-.82227A1.72271,1.72271,0,0,0,378.70651,61.24463Z" fill="#fff"/><path d="M383.603,60.16357v3.82177h-.49023v-.67188a1.17413,1.17413,0,0,1-.51807.5459,1.62311,1.62311,0,0,1-.78369.189,1.53691,1.53691,0,0,1-1.12012-.42334,1.639,1.639,0,0,1-.43408-1.22853V60.16354h.48291V62.3403a1.33373,1.33373,0,0,0,.31152.95215,1.11547,1.11547,0,0,0,.85059.3291,1.15222,1.15222,0,0,0,.88184-.3501,1.44907,1.44907,0,0,0,.3291-1.02929V60.16354h.49023Z" fill="#fff"/><path d="M385.706,60.28955a1.57937,1.57937,0,0,1,.81543-.19629v.51123h-.13281a1.0745,1.0745,0,0,0-1.17627,1.2461v2.13477h-.48975V60.16358h.48975v.67871A1.19706,1.19706,0,0,1,385.706,60.28955Z" fill="#fff"/><path d="M387.25,59.3374a.35048.35048,0,0,1-.105-.25928.33951.33951,0,0,1,.105-.25537.3633.3633,0,0,1,.5039,0,.3413.3413,0,0,1,.105.25537.35238.35238,0,0,1-.105.25928.35483.35483,0,0,1-.5039,0Zm.49658.82617v3.82177h-.48975V60.16357Z" fill="#fff"/><path d="M390.36471,60.57617h-.88916v3.40918h-.48975V60.57617h-.53223v-.4126h.53223v-.26611a1.19079,1.19079,0,0,1,.31836-.917,1.49467,1.49467,0,0,1,1.03271-.294v.41992a.965.965,0,0,0-.66846.18213.80984.80984,0,0,0-.19287.60889v.26611h.88916v.41259Z" fill="#fff"/><path d="M391.1279,59.3374a.35048.35048,0,0,1-.105-.25928.33951.33951,0,0,1,.105-.25537.3633.3633,0,0,1,.5039,0,.3413.3413,0,0,1,.105.25537.35238.35238,0,0,1-.105.25928.35483.35483,0,0,1-.5039,0Zm.49658.82617v3.82177h-.48975V60.16357Z" fill="#fff"/><path d="M392.75192,61.03467a1.697,1.697,0,0,1,.65771-.686,1.893,1.893,0,0,1,.959-.24122,1.86606,1.86606,0,0,1,1.16553.3501,1.58518,1.58518,0,0,1,.59181.95166h-.5254a1.078,1.078,0,0,0-.42334-.64746,1.347,1.347,0,0,0-.80859-.23438,1.3808,1.3808,0,0,0-.69287.1748,1.2235,1.2235,0,0,0-.48632.52147,1.84152,1.84152,0,0,0-.17872.8506,1.86182,1.86182,0,0,0,.17872.854,1.21614,1.21614,0,0,0,.48632.5249,1.37609,1.37609,0,0,0,.69287.1753,1.34678,1.34678,0,0,0,.80859-.23439,1.07826,1.07826,0,0,0,.42334-.65479h.5254a1.60521,1.60521,0,0,1-.59522.94531,1.84552,1.84552,0,0,1-1.16211.35694,1.88835,1.88835,0,0,1-.959-.2417,1.69385,1.69385,0,0,1-.65771-.686,2.38671,2.38671,0,0,1,0-2.07905Z" fill="#fff"/><path d="M397.03854,61.03467a1.68225,1.68225,0,0,1,.65137-.686,1.84427,1.84427,0,0,1,.94141-.24122,1.71519,1.71519,0,0,1,.94141.252,1.46674,1.46674,0,0,1,.57031.644v-.83984h.49023v3.82177H400.143v-.84716a1.52769,1.52769,0,0,1-.57715.64746,1.6973,1.6973,0,0,1-.94189.25586,1.8042,1.8042,0,0,1-.93408-.24512,1.70022,1.70022,0,0,1-.65137-.69287,2.39986,2.39986,0,0,1,0-2.06884Zm2.91553.22754a1.35167,1.35167,0,0,0-.51416-.53907,1.40542,1.40542,0,0,0-.71777-.18895,1.457,1.457,0,0,0-.728.18213,1.292,1.292,0,0,0-.50732.52832,1.7227,1.7227,0,0,0-.18555.82274,1.74548,1.74548,0,0,0,.18555.82228,1.30281,1.30281,0,0,0,.50732.53906,1.42926,1.42926,0,0,0,.728.18555,1.40541,1.40541,0,0,0,.71777-.189,1.34855,1.34855,0,0,0,.51416-.53906,1.83923,1.83923,0,0,0,0-1.624Z" fill="#fff"/><path d="M402.3901,60.57617v2.373a.67762.67762,0,0,0,.1333.48291.65341.65341,0,0,0,.46875.1333h.44824v.41992h-.5249a1.07546,1.07546,0,0,1-.77-.2417,1.06324,1.06324,0,0,1-.25195-.79443v-2.373h-.53223v-.4126h.53223v-.959h.49658v.959h1.05029v.4126Z" fill="#fff"/><path d="M404.23825,59.3374a.35048.35048,0,0,1-.105-.25928.33951.33951,0,0,1,.105-.25537.3633.3633,0,0,1,.5039,0,.3413.3413,0,0,1,.105.25537.35238.35238,0,0,1-.105.25928.35483.35483,0,0,1-.5039,0Zm.49658.82617v3.82177h-.48975V60.16357Z" fill="#fff"/><path d="M406.55172,63.7998a1.745,1.745,0,0,1-.6792-.686,2.09655,2.09655,0,0,1-.24854-1.03955,2.07329,2.07329,0,0,1,.25195-1.03955,1.76487,1.76487,0,0,1,.686-.686,2.09053,2.09053,0,0,1,1.9497,0,1.73949,1.73949,0,0,1,.686.686,2.09778,2.09778,0,0,1,.24854,1.03955,2.0733,2.0733,0,0,1-.25244,1.03614,1.74292,1.74292,0,0,1-.69287.68945,2.00473,2.00473,0,0,1-.98.2417A1.94368,1.94368,0,0,1,406.55172,63.7998Zm1.66944-.35693a1.31271,1.31271,0,0,0,.52148-.51807,1.68258,1.68258,0,0,0,.19922-.85059,1.70937,1.70937,0,0,0-.1958-.85059,1.28553,1.28553,0,0,0-.51807-.51758,1.51117,1.51117,0,0,0-1.39991,0,1.26328,1.26328,0,0,0-.51465.51758,1.97659,1.97659,0,0,0,0,1.70118,1.27157,1.27157,0,0,0,.51123.51807,1.446,1.446,0,0,0,.69629.17139A1.46823,1.46823,0,0,0,408.22116,63.44287Z" fill="#fff"/><path d="M413.25436,60.51709a1.64023,1.64023,0,0,1,.43359,1.228v2.24022H413.205V61.80126a1.33318,1.33318,0,0,0-.31152-.95215,1.11482,1.11482,0,0,0-.8501-.32861,1.154,1.154,0,0,0-.88232.34961,1.45134,1.45134,0,0,0-.3291,1.0293v2.08593h-.48975V60.16357h.48975v.65088a1.25028,1.25028,0,0,1,.52539-.53564,1.60681,1.60681,0,0,1,.77686-.18555A1.536,1.536,0,0,1,413.25436,60.51709Z" fill="#fff"/></g><g id="Livello_1-9" data-name="Livello 1"><path d="M460.49951,38.00666a39.8262,39.8262,0,0,0,9.98525,1.26213,39.82855,39.82855,0,0,0,9.98667-1.26249,11.35335,11.35335,0,0,0,8.02047-8.02249,40.12867,40.12867,0,0,0-.00071-19.97024A11.35335,11.35335,0,0,0,480.46882,1.993a40.126,40.126,0,0,0-19.97049.00071,11.35341,11.35341,0,0,0-8.02047,8.02237,40.12165,40.12165,0,0,0,.0007,19.97037A11.35366,11.35366,0,0,0,460.49951,38.00666Z" fill="#38382c" opacity="0.5" style="isolation:isolate"/><g opacity="0.5"><path d="M470.48476,39.99988a40.55447,40.55447,0,0,1-10.16968-1.28582l-.00262-.00071a12.08758,12.08758,0,0,1-8.54093-8.54094,40.853,40.853,0,0,1-.00072-20.34233,12.08878,12.08878,0,0,1,8.54165-8.54343,40.85608,40.85608,0,0,1,20.34221-.00071,12.08874,12.08874,0,0,1,8.54355,8.54165,40.85981,40.85981,0,0,1,.00071,20.34222,12.08874,12.08874,0,0,1-8.54165,8.54355A40.56178,40.56178,0,0,1,470.48476,39.99988Zm-9.98525-1.99322a39.8262,39.8262,0,0,0,9.98525,1.26213,39.82855,39.82855,0,0,0,9.98667-1.26249,11.35335,11.35335,0,0,0,8.02047-8.02249,40.12867,40.12867,0,0,0-.00071-19.97024A11.35335,11.35335,0,0,0,480.46882,1.993a40.126,40.126,0,0,0-19.97049.00071,11.35341,11.35341,0,0,0-8.02047,8.02237,40.12165,40.12165,0,0,0,.0007,19.97037A11.35366,11.35366,0,0,0,460.49951,38.00666Z" fill="url(#Sfumatura_senza_nome_3-7)"/></g><g clip-path="url(#clip-path-24)"><path d="M471.94,25.48458a2.7207,2.7207,0,1,1-5.38038,0,2.7207,2.7207,0,1,1,5.38038,0Zm-7.11,0a4.0088,4.0088,0,0,0-1.43107-3.127h2.94333l.65565.23237a4.05687,4.05687,0,0,0-1.17074,2.89464,4.00876,4.00876,0,0,0,1.4312,3.12711h-3.85952A4.009,4.009,0,0,0,464.83,25.48458Zm-1.83638-8.395A3.39773,3.39773,0,0,1,464.516,15.2656a2.66755,2.66755,0,0,1,1.29244-.34808,2.35254,2.35254,0,0,1,.78784.13495l.00039.00014.00039.00014a2.46679,2.46679,0,0,1,1.46514,1.46967,3.33867,3.33867,0,0,1-.00576,2.36149,2.96664,2.96664,0,0,1-3.60274,2.03708A2.89984,2.89984,0,0,1,462.99361,17.08955Zm11.91505-4.64917a4.46364,4.46364,0,0,1,2.7061-1.05347c.03761,0,.071.00135.09971.00395a4.27268,4.27268,0,0,1-1.06524,2.76446,1.85946,1.85946,0,0,1-1.781.694,5.066,5.066,0,0,1,1.27628-1.43315.35744.35744,0,0,0,.08993-.50208.36955.36955,0,0,0-.50991-.0891,5.64753,5.64753,0,0,0-1.43452,1.55622C473.97785,13.85809,474.19884,13.13971,474.90866,12.44038Zm4.65377,9.19558h-.88633a3.46948,3.46948,0,0,0-2.12788-3.823l-2.27359-.80585a3.918,3.918,0,0,1,.27354-1.50565,1.78923,1.78923,0,0,0,.65133.1209,1.95957,1.95957,0,0,0,.24165-.01511,3.08259,3.08259,0,0,0,1.726-.94161,4.72352,4.72352,0,0,0,1.12779-2.11223c.10337-.39826.30674-1.361-.03613-1.69877-.34287-.33783-1.32-.13745-1.72422-.0356a4.84487,4.84487,0,0,0-2.1438,1.11115,3.01156,3.01156,0,0,0-.95572,1.70055,1.72111,1.72111,0,0,0,.48643,1.45452,4.66549,4.66549,0,0,0-.37671,1.66317l-1.83857-.65165a.3676.3676,0,0,0-.46856.21736.35938.35938,0,0,0,.22066.46162l4.84205,1.71618a2.77227,2.77227,0,0,1,1.63711,3.144h-5.01251l-3.615-1.28122a.36762.36762,0,0,0-.46856.21736.35937.35937,0,0,0,.22067.46162l1.69916.60224h-1.51128l-.001.00005a3.10117,3.10117,0,0,0-1.56718.42943l-1.35138-.47894a4.05125,4.05125,0,0,0,2.4152-2.45828,4.30686,4.30686,0,0,0,.23905-1.0348l3.405,1.20684a.37.37,0,0,0,.12392.02141.36613.36613,0,0,0,.34463-.23877.35937.35937,0,0,0-.22065-.46162l-3.64522-1.29195a3.81926,3.81926,0,0,0-.24683-1.06646,3.55511,3.55511,0,0,0-.2687-.54374l1.34195.47562a.37.37,0,0,0,.12393.02141.36613.36613,0,0,0,.34463-.23877.35937.35937,0,0,0-.22065-.46162L466.845,14.37384l-.00073-.00029a3.2488,3.2488,0,0,0-2.68711.26307,4.12163,4.12163,0,0,0-1.85269,2.20873,3.61587,3.61587,0,0,0,1.88526,4.74847l.00371.00168.01475.00548.01206.00452.08589.03045h-2.89849l-.00078,0a3.65858,3.65858,0,0,0-3.42208,3.84857,4.24377,4.24377,0,0,0,.41392,1.83737.36869.36869,0,0,0,.48814.1706.35854.35854,0,0,0,.17314-.48091,3.52638,3.52638,0,0,1-.34277-1.52706,2.7207,2.7207,0,1,1,5.38038,0,2.93673,2.93673,0,0,1-2.69019,3.127,2.40637,2.40637,0,0,1-1.37964-.44305.36966.36966,0,0,0-.51045.08612.35742.35742,0,0,0,.0874.50294,3.14226,3.14226,0,0,0,1.79917.57554l.00371.00019h15.38894a.36086.36086,0,1,0,0-.72165h-5.55523a3.77149,3.77149,0,0,0,1.02021-1.30013h2.78008a.36086.36086,0,1,0,0-.72165h-2.51368a4.27933,4.27933,0,0,0,.14453-1.10533,4.00882,4.00882,0,0,0-1.43106-3.127h8.32106a2.64753,2.64753,0,0,1,2.31948,1.546h-6.27769a.36086.36086,0,1,0,0,.72165h6.5441a3.589,3.589,0,0,1,.104.859,2.93693,2.93693,0,0,1-2.69,3.12749H478.5044a.36086.36086,0,1,0,0,.72165h1.05806a3.65882,3.65882,0,0,0,3.42237-3.84915A3.65826,3.65826,0,0,0,479.56243,21.636Z" fill="#8e917e"/></g><g clip-path="url(#clip-path-24)"><path d="M476.10327,20.61628a.37.37,0,0,0,.12393.02141.36613.36613,0,0,0,.34463-.23877.35938.35938,0,0,0-.22065-.46162l-2.03277-.7205a.36772.36772,0,0,0-.46856.21736.35936.35936,0,0,0,.22066.46162Z" fill="#8e917e"/></g><g clip-path="url(#clip-path-24)"><path d="M480.80064,26.95071a.36356.36356,0,0,0-.36622-.36083h-2.85215a.36086.36086,0,1,0,0,.72165h2.85215A.36356.36356,0,0,0,480.80064,26.95071Z" fill="#8e917e"/></g><g clip-path="url(#clip-path-24)"><path d="M464.32866,18.85023a1.98816,1.98816,0,0,1,.04346-1.27222c.30654-.83967,1.1144-1.38514,1.72847-1.16754a1.05994,1.05994,0,0,1,.621.71261,1.98856,1.98856,0,0,1-.04345,1.27222c-.30655.83962-1.11421,1.38509-1.72847,1.16754A1.06,1.06,0,0,1,464.32866,18.85023Zm.899,1.48083a2.44644,2.44644,0,0,0,2.13971-1.69141,2.675,2.675,0,0,0,.05155-1.7373,1.78969,1.78969,0,0,0-1.07035-1.17081A2.2684,2.2684,0,0,0,463.683,17.3338a2.6751,2.6751,0,0,0-.05156,1.73735,1.78958,1.78958,0,0,0,1.07037,1.17081A1.56887,1.56887,0,0,0,465.22763,20.33106Z" fill="#8e917e"/></g><g clip-path="url(#clip-path-24)"><path d="M469.20531,27.18929c-.65273,0-1.22534-.78511-1.22534-1.6801,0-.895.57261-1.68015,1.22534-1.68015.65279,0,1.22535.78511,1.22535,1.68015C470.43067,26.40418,469.8581,27.18929,469.20531,27.18929Zm0-4.08186a2.2444,2.2444,0,0,0-1.95776,2.40176,1.9988,1.9988,0,1,0,3.91553,0A2.24436,2.24436,0,0,0,469.20531,23.10743Z" fill="#8e917e"/></g><g clip-path="url(#clip-path-24)"><path d="M461.43226,23.829c.65278,0,1.22534.78511,1.22534,1.68015,0,.895-.57262,1.6801-1.22534,1.6801s-1.22534-.78511-1.22534-1.6801S460.77952,23.829,461.43226,23.829Zm0,4.08191A2.24437,2.24437,0,0,0,463.39,25.50919a1.99881,1.99881,0,1,0-3.91554,0A2.24446,2.24446,0,0,0,461.43226,27.91094Z" fill="#8e917e"/></g><path d="M463.43042,55.46631a1.38787,1.38787,0,0,1-.57715-.46875,1.23051,1.23051,0,0,1-.22411-.67188h.51807a.98092.98092,0,0,0,.31493.62646,1.13546,1.13546,0,0,0,.81885.26953,1.15028,1.15028,0,0,0,.7876-.25586.82528.82528,0,0,0,.29054-.64746.76433.76433,0,0,0-.16113-.50732.98512.98512,0,0,0-.39893-.28711,6.18722,6.18722,0,0,0-.6582-.20654,5.71861,5.71861,0,0,1-.77686-.25879,1.23575,1.23575,0,0,1-.48975-.39209,1.15767,1.15767,0,0,1-.20312-.72119,1.20159,1.20159,0,0,1,.1958-.67529,1.31191,1.31191,0,0,1,.55322-.46532,1.89622,1.89622,0,0,1,.81885-.16847,1.70747,1.70747,0,0,1,1.0957.33252,1.25124,1.25124,0,0,1,.47949.85791H465.282a.87837.87837,0,0,0-.32911-.53564,1.30217,1.30217,0,0,0-1.49072,0,.774.774,0,0,0-.29394.64062.73873.73873,0,0,0,.16064.49658,1.01875,1.01875,0,0,0,.40283.28711,5.814,5.814,0,0,0,.6543.21,5.91093,5.91093,0,0,1,.77.2627,1.25346,1.25346,0,0,1,.49707.39551,1.1487,1.1487,0,0,1,.20312.71387,1.26033,1.26033,0,0,1-.18213.65088,1.32675,1.32675,0,0,1-.53906.49707,1.80166,1.80166,0,0,1-.854.189A2.02348,2.02348,0,0,1,463.43042,55.46631Z" fill="#fff"/><path d="M467.43775,52.17627v2.373a.67762.67762,0,0,0,.1333.48291.65341.65341,0,0,0,.46875.1333h.44824v.41992h-.5249a1.0755,1.0755,0,0,1-.77-.2417,1.06325,1.06325,0,0,1-.252-.79443v-2.373h-.53223v-.4126h.53223v-.959h.49658v.959H468.488v.4126Z" fill="#fff"/><path d="M469.99683,55.3999a1.74487,1.74487,0,0,1-.6792-.686,2.09647,2.09647,0,0,1-.24854-1.03955,2.07324,2.07324,0,0,1,.25195-1.03955,1.76487,1.76487,0,0,1,.686-.686,2.09051,2.09051,0,0,1,1.94969,0,1.73949,1.73949,0,0,1,.686.686,2.09778,2.09778,0,0,1,.24854,1.03955,2.07324,2.07324,0,0,1-.25244,1.03613,1.74286,1.74286,0,0,1-.69287.68945,2.00473,2.00473,0,0,1-.98.2417A1.94361,1.94361,0,0,1,469.99683,55.3999Zm1.66944-.35693a1.31271,1.31271,0,0,0,.52148-.51807,1.68263,1.68263,0,0,0,.19922-.85059,1.70926,1.70926,0,0,0-.19581-.85059,1.28541,1.28541,0,0,0-.51807-.51758,1.51117,1.51117,0,0,0-1.39991,0,1.26319,1.26319,0,0,0-.51464.51758,1.97659,1.97659,0,0,0,0,1.70118,1.27151,1.27151,0,0,0,.51123.51807,1.446,1.446,0,0,0,.69629.17139A1.46823,1.46823,0,0,0,471.66627,55.043Z" fill="#fff"/><path d="M474.84741,51.96289a1.69661,1.69661,0,0,1,.94142-.25537,1.83312,1.83312,0,0,1,.93457.24121,1.6842,1.6842,0,0,1,.65087.686,2.39986,2.39986,0,0,1,0,2.06884,1.70222,1.70222,0,0,1-.65087.69287,1.80723,1.80723,0,0,1-.93457.24512,1.70112,1.70112,0,0,1-.938-.25586,1.53541,1.53541,0,0,1-.58105-.64014v2.646h-.48291V51.76367h.48291v.83984A1.54417,1.54417,0,0,1,474.84741,51.96289Zm2.07911.88184a1.29318,1.29318,0,0,0-.50781-.52832,1.45573,1.45573,0,0,0-.728-.18213,1.40241,1.40241,0,0,0-.71729.189,1.34957,1.34957,0,0,0-.51465.53906,1.83919,1.83919,0,0,0,0,1.624,1.34623,1.34623,0,0,0,.51465.53906,1.40228,1.40228,0,0,0,.71729.189,1.42791,1.42791,0,0,0,.728-.18555,1.30382,1.30382,0,0,0,.50781-.53906,1.74523,1.74523,0,0,0,.18506-.82226A1.72261,1.72261,0,0,0,476.92652,52.84473Z" fill="#fff"/><path d="M447.39771,61.03467a1.70171,1.70171,0,0,1,.65429-.686,1.84429,1.84429,0,0,1,.94141-.24122,1.72631,1.72631,0,0,1,.91016.24512,1.49764,1.49764,0,0,1,.59474.63672V58.80517h.49023v5.18018h-.49023v-.854a1.46836,1.46836,0,0,1-.57374.65429,1.70108,1.70108,0,0,1-.938.25586,1.81818,1.81818,0,0,1-.94141-.24512,1.70009,1.70009,0,0,1-.65137-.69287,2.20373,2.20373,0,0,1-.23438-1.03613A2.15529,2.15529,0,0,1,447.39771,61.03467Zm2.91162.22754a1.35174,1.35174,0,0,0-.51416-.53907,1.40545,1.40545,0,0,0-.71777-.18895,1.457,1.457,0,0,0-.728.18213,1.292,1.292,0,0,0-.50733.52832,1.7227,1.7227,0,0,0-.18554.82274,1.74548,1.74548,0,0,0,.18554.82228,1.30277,1.30277,0,0,0,.50733.53906,1.42926,1.42926,0,0,0,.728.18555,1.40541,1.40541,0,0,0,.71777-.189,1.34862,1.34862,0,0,0,.51416-.53906,1.83932,1.83932,0,0,0,0-1.624Z" fill="#fff"/><path d="M455.5525,62.26318h-3.17091a1.53945,1.53945,0,0,0,.21.74219,1.23276,1.23276,0,0,0,.49707.46533,1.45348,1.45348,0,0,0,.67188.15771,1.35219,1.35219,0,0,0,.80176-.231,1.08564,1.08564,0,0,0,.43018-.623h.51807a1.61841,1.61841,0,0,1-.59863.91356,1.83186,1.83186,0,0,1-1.15137.35353,1.92559,1.92559,0,0,1-.96582-.2417,1.70347,1.70347,0,0,1-.66846-.686,2.14239,2.14239,0,0,1-.2417-1.03955,2.19159,2.19159,0,0,1,.23828-1.043,1.65259,1.65259,0,0,1,.66455-.686,1.96513,1.96513,0,0,1,.97314-.23779,1.86643,1.86643,0,0,1,.95557.23779,1.6469,1.6469,0,0,1,.62988.64062,1.82811,1.82811,0,0,1,.2207.89258Q455.56666,62.13039,455.5525,62.26318Zm-.6543-1.127a1.16,1.16,0,0,0-.48682-.45508,1.48163,1.48163,0,0,0-.67188-.15381,1.33587,1.33587,0,0,0-.93116.3501,1.39871,1.39871,0,0,0-.42675.98682h2.688A1.36371,1.36371,0,0,0,454.8982,61.13623Z" fill="#fff"/><path d="M457.96754,60.57617h-.88916v3.40918h-.48975V60.57617h-.53223v-.4126h.53223v-.26611a1.19079,1.19079,0,0,1,.31836-.917,1.49466,1.49466,0,0,1,1.0327-.294v.41992a.965.965,0,0,0-.66846.18213.80984.80984,0,0,0-.19287.60889v.26611h.88916v.41259Z" fill="#fff"/><path d="M459.44116,63.7998a1.745,1.745,0,0,1-.67919-.686,2.09644,2.09644,0,0,1-.24855-1.03955,2.0734,2.0734,0,0,1,.252-1.03955,1.76483,1.76483,0,0,1,.686-.686,1.97138,1.97138,0,0,1,.97314-.24121,1.9912,1.9912,0,0,1,.97656.24121,1.73949,1.73949,0,0,1,.686.686,2.09778,2.09778,0,0,1,.24854,1.03955,2.0733,2.0733,0,0,1-.25244,1.03614,1.74292,1.74292,0,0,1-.69287.68945,2.00473,2.00473,0,0,1-.98.2417A1.94372,1.94372,0,0,1,459.44116,63.7998Zm1.66943-.35693a1.31279,1.31279,0,0,0,.52149-.51807,1.68258,1.68258,0,0,0,.19922-.85059,1.70937,1.70937,0,0,0-.1958-.85059,1.28555,1.28555,0,0,0-.51808-.51758,1.51117,1.51117,0,0,0-1.39991,0,1.26334,1.26334,0,0,0-.51465.51758,1.97659,1.97659,0,0,0,0,1.70118,1.27159,1.27159,0,0,0,.51124.51807,1.44591,1.44591,0,0,0,.69628.17139A1.4682,1.4682,0,0,0,461.11059,63.44287Z" fill="#fff"/><path d="M464.2146,60.28955a1.57939,1.57939,0,0,1,.81544-.19629v.51123h-.13281a1.0745,1.0745,0,0,0-1.17627,1.2461v2.13477h-.48975V60.16358h.48975v.67871A1.197,1.197,0,0,1,464.2146,60.28955Z" fill="#fff"/><path d="M469.20924,62.26318h-3.1709a1.53945,1.53945,0,0,0,.21.74219,1.23276,1.23276,0,0,0,.49707.46533,1.45348,1.45348,0,0,0,.67188.15771,1.35219,1.35219,0,0,0,.80176-.231,1.08564,1.08564,0,0,0,.43018-.623h.51807a1.61841,1.61841,0,0,1-.59863.91356,1.83186,1.83186,0,0,1-1.15137.35353,1.92559,1.92559,0,0,1-.96582-.2417,1.70347,1.70347,0,0,1-.66846-.686,2.14251,2.14251,0,0,1-.2417-1.03955,2.19159,2.19159,0,0,1,.23828-1.043,1.65265,1.65265,0,0,1,.66455-.686,1.96513,1.96513,0,0,1,.97314-.23779,1.86643,1.86643,0,0,1,.95557.23779,1.6469,1.6469,0,0,1,.62988.64062,1.82811,1.82811,0,0,1,.2207.89258Q469.2234,62.13039,469.20924,62.26318Zm-.65431-1.127a1.16,1.16,0,0,0-.48682-.45508,1.48155,1.48155,0,0,0-.67187-.15381,1.33583,1.33583,0,0,0-.93115.3501,1.39867,1.39867,0,0,0-.42676.98682h2.688A1.36344,1.36344,0,0,0,468.55493,61.13623Z" fill="#fff"/><path d="M470.36059,63.73682a1.11064,1.11064,0,0,1-.46532-.82959h.50391a.72268.72268,0,0,0,.30469.52147,1.18879,1.18879,0,0,0,.72461.19971.95276.95276,0,0,0,.62646-.189.58711.58711,0,0,0,.22754-.46924.436.436,0,0,0-.126-.32177.89955.89955,0,0,0-.31885-.19971,4.9572,4.9572,0,0,0-.52149-.15723,5.29086,5.29086,0,0,1-.69287-.22412,1.185,1.185,0,0,1-.45166-.33252.8896.8896,0,0,1-.18555-.59131.87755.87755,0,0,1,.16846-.51806,1.14477,1.14477,0,0,1,.47559-.37793,1.67719,1.67719,0,0,1,.7002-.14014,1.51406,1.51406,0,0,1,.99414.31153,1.12993,1.12993,0,0,1,.40577.85742h-.48975a.74419.74419,0,0,0-.2627-.54248.985.985,0,0,0-.66163-.20655.97468.97468,0,0,0-.60205.1748.52752.52752,0,0,0-.231.43408.51287.51287,0,0,0,.13672.36769.93657.93657,0,0,0,.33936.22412q.20289.08057.5459.17822a5.12093,5.12093,0,0,1,.6582.21729,1.14127,1.14127,0,0,1,.41992.30762.82713.82713,0,0,1,.18213.53906.941.941,0,0,1-.168.5498,1.14718,1.14718,0,0,1-.46924.38135,1.62731,1.62731,0,0,1-.69287.14013A1.77621,1.77621,0,0,1,470.36059,63.73682Z" fill="#fff"/><path d="M474.32593,60.57617v2.373a.67757.67757,0,0,0,.13331.48291.6534.6534,0,0,0,.46875.1333h.44823v.41992h-.52489a1.07544,1.07544,0,0,1-.77-.2417,1.06324,1.06324,0,0,1-.25195-.79443v-2.373h-.53223v-.4126h.53223v-.959h.49657v.959h1.05029v.4126Z" fill="#fff"/><path d="M476.19166,61.03467a1.68225,1.68225,0,0,1,.65137-.686,1.84427,1.84427,0,0,1,.94141-.24122,1.71519,1.71519,0,0,1,.94141.252,1.46674,1.46674,0,0,1,.57031.644v-.83984h.49023v3.82177h-.49023v-.84716a1.52769,1.52769,0,0,1-.57715.64746,1.6973,1.6973,0,0,1-.94189.25586,1.8042,1.8042,0,0,1-.93408-.24512,1.70016,1.70016,0,0,1-.65137-.69287,2.3999,2.3999,0,0,1,0-2.06884Zm2.91552.22754a1.35167,1.35167,0,0,0-.51416-.53907,1.40537,1.40537,0,0,0-.71777-.18895,1.457,1.457,0,0,0-.728.18213,1.292,1.292,0,0,0-.50732.52832,1.7227,1.7227,0,0,0-.18555.82274,1.74548,1.74548,0,0,0,.18555.82228,1.30281,1.30281,0,0,0,.50732.53906,1.42926,1.42926,0,0,0,.728.18555,1.40538,1.40538,0,0,0,.71777-.189,1.34855,1.34855,0,0,0,.51416-.53906,1.83914,1.83914,0,0,0,0-1.624Z" fill="#fff"/><path d="M481.54272,60.57617v2.373a.67762.67762,0,0,0,.1333.48291.65343.65343,0,0,0,.46875.1333h.44824v.41992h-.5249a1.07546,1.07546,0,0,1-.77-.2417,1.06328,1.06328,0,0,1-.25194-.79443v-2.373h-.53223v-.4126h.53223v-.959h.49657v.959H482.593v.4126Z" fill="#fff"/><path d="M483.39136,59.3374a.35052.35052,0,0,1-.105-.25928.33955.33955,0,0,1,.105-.25537.3633.3633,0,0,1,.5039,0,.3413.3413,0,0,1,.105.25537.35238.35238,0,0,1-.105.25928.35483.35483,0,0,1-.5039,0Zm.49659.82617v3.82177h-.48975V60.16357Z" fill="#fff"/><path d="M485.70434,63.7998a1.74494,1.74494,0,0,1-.67919-.686,2.09644,2.09644,0,0,1-.24854-1.03955,2.07329,2.07329,0,0,1,.252-1.03955,1.76485,1.76485,0,0,1,.686-.686,2.09053,2.09053,0,0,1,1.9497,0,1.73949,1.73949,0,0,1,.686.686,2.09778,2.09778,0,0,1,.24854,1.03955,2.0733,2.0733,0,0,1-.25244,1.03614,1.74292,1.74292,0,0,1-.69287.68945,2.00473,2.00473,0,0,1-.98.2417A1.94368,1.94368,0,0,1,485.70434,63.7998Zm1.66945-.35693a1.31271,1.31271,0,0,0,.52148-.51807,1.68257,1.68257,0,0,0,.19922-.85058,1.70926,1.70926,0,0,0-.19581-.85059,1.28535,1.28535,0,0,0-.51807-.51758,1.51109,1.51109,0,0,0-1.39991,0,1.26349,1.26349,0,0,0-.51464.51758,1.97661,1.97661,0,0,0,0,1.70119,1.27163,1.27163,0,0,0,.51123.51807,1.44608,1.44608,0,0,0,.69629.17138A1.46826,1.46826,0,0,0,487.37379,63.44287Z" fill="#fff"/><path d="M492.407,60.51709a1.64027,1.64027,0,0,1,.43359,1.228v2.24022h-.48291V61.80126a1.33318,1.33318,0,0,0-.31152-.95215,1.11485,1.11485,0,0,0-.85011-.32861,1.154,1.154,0,0,0-.88232.34961,1.45139,1.45139,0,0,0-.3291,1.0293v2.08593h-.48975V60.16357h.48975v.65088a1.25028,1.25028,0,0,1,.52539-.53564,1.60681,1.60681,0,0,1,.77686-.18555A1.53605,1.53605,0,0,1,492.407,60.51709Z" fill="#fff"/></g></g></g></svg>