<svg width="178" height="43" viewBox="0 0 178 43" fill="none" xmlns="http://www.w3.org/2000/svg">
<path fill-rule="evenodd" clip-rule="evenodd" d="M100.374 8.16029H104.802V9.40426H101.955V11.3735H104.697V12.6168H101.955V16.0373H100.374V8.16029ZM107.439 12.0988C107.439 10.7512 108.071 9.30066 109.653 9.30066C111.234 9.30066 111.973 10.7512 111.973 12.0988C111.973 13.55 111.34 15.0005 109.653 15.0005C107.966 15.0005 107.439 13.5493 107.439 12.0988ZM105.752 12.0988C105.752 14.4825 107.122 16.2445 109.653 16.2445C112.184 16.2445 113.66 14.4825 113.66 12.0988C113.66 9.71509 112.184 8.05667 109.653 8.05667C107.122 8.05667 105.752 9.71443 105.752 12.0988ZM116.612 9.40426H117.139C117.877 9.40426 118.826 9.50787 118.826 10.4404C118.826 11.4765 117.877 11.5807 117.139 11.5807H116.612V9.40426ZM114.925 16.0373H116.612V12.8247H117.034C117.772 12.8247 117.983 13.0313 118.194 13.6536L119.143 16.0373H120.936L119.67 13.0313C119.565 12.6168 119.249 12.2024 118.827 12.2024V12.0988C119.881 11.9952 120.515 11.2699 120.515 10.3368C120.515 8.05667 118.405 8.16029 116.718 8.16029H114.926V16.0373H114.925ZM122.095 8.16029H126.946V9.40426H123.782V11.3735H126.629V12.6168H123.782V14.7933H126.946V16.0373H122.095V8.16029ZM132.85 9.61149C132.429 9.40427 131.796 9.30066 131.269 9.30066C130.742 9.30066 130.003 9.50788 130.003 10.3368C130.003 11.788 133.484 11.1663 133.484 13.8608C133.484 15.5192 132.112 16.2445 130.531 16.2445C129.583 16.2445 129.265 16.1409 128.422 15.9337L128.528 14.4825C129.16 14.7933 129.792 15.0012 130.425 15.0012C131.057 15.0012 131.796 14.6897 131.796 13.9644C131.796 12.4103 128.316 13.0313 128.316 10.441C128.316 8.67899 129.687 8.05733 131.163 8.05733C131.795 8.05733 132.429 8.16095 133.061 8.26456L132.85 9.61149ZM136.435 9.40426H134.116V8.16029H140.336V9.40426H138.016V16.0373H136.435V9.40426ZM104.697 21.4263C104.17 21.2191 103.537 21.0119 103.01 21.0119C102.483 21.0119 101.745 21.3221 101.745 22.1523C101.745 23.4992 105.33 22.9811 105.33 25.572C105.33 27.3341 103.853 27.9564 102.272 27.9564C101.429 27.9564 101.007 27.8521 100.163 27.6442L100.374 26.2973C100.901 26.5045 101.534 26.7124 102.166 26.7124C102.799 26.7124 103.643 26.4003 103.643 25.6763C103.643 24.2251 100.058 24.8461 100.058 22.2552C100.058 20.4938 101.429 19.7679 102.905 19.7679C103.537 19.7679 104.17 19.8715 104.803 20.0787L104.697 21.4263ZM108.177 21.2191H105.857V19.9751H112.184V21.2191H109.863V27.8515H108.177V21.2191ZM113.132 19.9751H117.877V21.2191H114.819V23.0841H117.667V24.4323H114.819V26.6081H117.983V27.8515H113.132V19.9751ZM118.721 19.9751H120.514L121.989 26.2973L123.361 19.9751H125.574L126.946 26.2973H127.051L128.527 19.9751H130.109L128 27.8515H125.891L124.415 21.5293L123.043 27.8515H120.935L118.721 19.9751ZM135.065 24.7425H132.745L133.905 21.5293L135.065 24.7425ZM129.898 27.8515H131.584L132.217 25.9865H135.485L136.224 27.8515H138.016L134.853 19.9751H133.061L129.898 27.8515ZM140.548 21.2191H141.075C141.813 21.2191 142.763 21.2191 142.763 22.2552C142.763 23.1884 141.813 23.2913 141.075 23.2913H140.548V21.2191ZM138.86 27.8515H140.548V24.5353H141.075C141.707 24.5353 141.918 24.7425 142.129 25.3642L143.183 27.8521H144.976L143.605 24.7432C143.499 24.4323 143.183 24.0172 142.762 23.9143C143.816 23.81 144.449 22.9811 144.449 22.048C144.449 19.8722 142.34 19.9758 140.652 19.9758H138.86V27.8515ZM147.718 21.2191H148.666C149.931 21.2191 151.302 22.1523 151.302 23.9143C151.302 25.572 149.931 26.6081 148.666 26.6081H147.718V21.2191ZM146.137 27.8515H148.35C150.775 27.8515 152.99 27.0226 152.99 23.9136C152.99 20.7004 150.775 19.9751 148.35 19.9751H146.137V27.8515ZM158.789 21.4263C158.262 21.2191 157.735 21.0119 157.102 21.0119C156.575 21.0119 155.836 21.3221 155.836 22.1523C155.836 23.4992 159.422 22.9811 159.422 25.572C159.422 27.3341 157.945 27.9564 156.364 27.9564C155.52 27.9564 155.098 27.8521 154.255 27.6442L154.465 26.2973C154.993 26.5045 155.625 26.7124 156.258 26.7124C156.89 26.7124 157.733 26.4003 157.733 25.6763C157.733 24.2251 154.149 24.8461 154.149 22.2552C154.149 20.4938 155.52 19.7679 156.995 19.7679C157.733 19.7679 158.366 19.8715 158.893 20.0787L158.789 21.4263ZM160.898 19.9751H162.48V23.0841H165.748V19.9751H167.329V27.8515H165.748V24.4323H162.48V27.8515H160.898V19.9751ZM169.017 19.9751H170.704V27.8515H169.017V19.9751ZM173.868 21.2191H174.5C175.238 21.2191 175.976 21.5299 175.976 22.4631C175.976 23.292 175.238 23.6028 174.5 23.6028H173.868V21.2191ZM172.285 27.8515H173.867V24.8455H174.605C176.293 24.8455 177.663 24.2245 177.663 22.3588C177.663 20.3889 176.082 19.9745 174.289 19.9745H172.285V27.8515H172.285ZM106.173 39.4598C105.646 39.667 105.013 39.7706 104.381 39.7706C101.745 39.7706 99.9519 38.5266 99.9519 35.8314C99.9519 33.0346 101.639 31.5828 104.381 31.5828C104.908 31.5828 105.646 31.6857 106.173 31.8936L106.068 33.2405C105.435 32.9297 104.908 32.8267 104.276 32.8267C102.694 32.8267 101.64 34.0707 101.64 35.7278C101.64 37.282 102.589 38.5259 104.381 38.5259C105.014 38.5259 105.752 38.423 106.174 38.2151V39.4598H106.173ZM108.704 35.6255C108.704 34.2773 109.336 32.8274 110.918 32.8274C112.499 32.8274 113.238 34.2773 113.238 35.6255C113.238 37.0754 112.605 38.5266 110.918 38.5266C109.336 38.5266 108.704 37.0754 108.704 35.6255ZM107.017 35.6255C107.017 38.1122 108.388 39.7706 110.918 39.7706C113.449 39.7706 114.924 38.0086 114.924 35.6255C114.924 33.2412 113.448 31.5834 110.918 31.5834C108.388 31.5834 107.017 33.2405 107.017 35.6255ZM116.295 31.6864H117.877V36.2465C117.877 37.5935 118.404 38.5266 119.565 38.5266C120.83 38.5266 121.253 37.5935 121.253 36.2465V31.6864H122.939V36.7646C122.939 38.8374 121.674 39.7706 119.565 39.7706C117.562 39.7706 116.296 38.8374 116.296 36.7646V31.6864H116.295ZM124.625 31.6864H126.629L129.687 37.5935V31.6864H131.268V39.6676H129.265L126.208 33.6556V39.6676H124.625V31.6864ZM138.86 39.4598C138.333 39.667 137.7 39.7706 137.068 39.7706C134.431 39.7706 132.638 38.5266 132.638 35.8314C132.638 33.0346 134.326 31.5828 137.068 31.5828C137.595 31.5828 138.333 31.6857 138.86 31.8936L138.755 33.2405C138.123 32.9297 137.595 32.8267 137.068 32.8267C135.38 32.8267 134.326 34.0707 134.326 35.7278C134.326 37.282 135.38 38.5259 137.068 38.5259C137.7 38.5259 138.439 38.423 138.86 38.2151V39.4598ZM139.915 31.6864H141.602V39.6676H139.915V31.6864ZM143.29 31.6864H144.871V38.4237H148.034V39.6676H143.29V31.6864ZM90.6729 7.2278C91.8324 7.2278 92.8872 6.29464 92.8872 5.05132C92.8872 3.808 91.8324 2.87485 90.6729 2.87485C89.408 2.87485 88.3532 3.808 88.3532 5.05132C88.3532 6.29464 89.408 7.2278 90.6729 7.2278ZM90.6729 6.8127C89.6181 6.8127 88.7748 6.08742 88.7748 5.05066C88.7748 4.11751 89.6181 3.28929 90.6729 3.28929C91.6216 3.28929 92.4649 4.11817 92.4649 5.05066C92.4656 6.08742 91.6223 6.8127 90.6729 6.8127ZM91.3054 5.46577C91.2 5.7766 90.9891 5.88021 90.7783 5.88021C90.2513 5.88021 90.0404 5.46576 90.0404 5.05132C90.0404 4.63688 90.2513 4.22244 90.6729 4.22244C90.9891 4.22244 91.2 4.32605 91.3054 4.63688H91.727C91.727 4.11883 91.3054 3.80801 90.6729 3.80801C89.935 3.80801 89.5127 4.32605 89.5127 5.05132C89.5127 5.77725 89.9343 6.2953 90.7776 6.2953C91.1993 6.2953 91.727 5.98448 91.727 5.46643H91.3054V5.46577ZM69.5844 36.3495C70.8494 36.3495 71.3764 36.3495 71.5879 37.4905H71.9042C71.9042 36.5574 71.9042 35.6255 72.0096 34.6924H71.6933C71.3764 35.6255 70.7439 35.7285 69.6898 35.7285H68.635V32.9303H69.5844C70.9554 32.9303 72.0096 32.9303 72.0096 34.3815H72.4312L72.7474 32.4123H65.2612V32.7231C66.7376 32.9303 66.9484 32.8274 66.9484 34.796V37.2839C66.9484 39.2532 66.7376 39.1502 65.2612 39.3568V39.669H70.6385V39.3568C68.5296 39.2539 68.635 38.7358 68.635 37.2839V36.3508H69.5844V36.3495ZM79.4958 32.7225C78.8634 32.4116 78.1248 32.3087 77.3869 32.3087C75.8051 32.3087 74.2239 33.0346 74.2239 34.4845C74.2239 36.5574 78.4417 36.4537 78.4417 38.2158C78.4417 38.9417 77.8093 39.3555 76.966 39.3555C75.4895 39.3555 74.5408 38.2158 74.1185 37.1797H73.6968L74.1185 39.3555C74.8564 39.6676 75.8057 39.8735 76.649 39.8735C78.3363 39.8735 80.0229 39.2525 80.0229 37.6977C80.0229 35.4176 75.9105 35.6249 75.9105 33.8628C75.9105 33.2405 76.4375 32.7218 77.1754 32.7218C78.5465 32.7218 78.7573 33.7579 79.0735 34.5881H79.3898L79.4958 32.7225ZM89.7242 32.8267C88.7755 32.4116 87.7207 32.3087 86.6666 32.3087C83.9252 32.3087 81.2892 33.6556 81.2892 36.1436C81.2892 38.6302 83.8198 39.8735 86.5612 39.8735C87.5105 39.8735 88.4592 39.6676 89.4086 39.3555L90.2519 37.1797L89.8303 37.0754C89.1978 38.2164 88.3538 39.3555 86.6672 39.3555C84.5583 39.3555 83.3981 37.4905 83.3981 35.9357C83.3981 34.3809 84.4529 32.7225 86.5612 32.7225C88.143 32.7225 88.9863 33.6556 89.3025 34.8996H89.7242V32.8267ZM82.2372 25.5714C82.1318 28.5774 82.6589 29.9243 80.9723 29.8207C73.2752 29.5099 74.2239 31.1677 74.1185 24.9497L70.5338 25.4678C69.1628 25.5707 68.214 23.0834 70.6392 22.8769C77.0714 22.2545 76.8605 20.8033 76.7551 27.2298H79.6019V22.8769C79.6019 22.1509 80.4452 21.6329 81.0777 21.6329C82.3433 21.6329 82.2379 23.7058 84.9793 23.7058C86.7713 23.6015 88.0369 22.2545 88.0369 20.4925C88.0369 16.9685 85.4009 18.316 85.4009 16.4504C85.4009 16.036 85.6118 15.7251 85.7172 15.4143C86.3497 13.8602 85.928 11.8909 84.557 10.8541C83.7137 10.1289 82.1318 10.0253 82.0264 9.19573C81.921 7.64158 81.6048 6.81204 79.9175 5.87955C78.7573 5.25789 76.9653 5.36149 75.8051 6.08676C71.7987 8.47045 68.7404 20.2853 67.6863 25.1569C67.4755 26.1931 67.3701 27.7479 66.1051 27.7479C65.4727 27.7479 65.1558 27.3328 64.7341 26.919C63.2583 25.3635 62.2035 24.3267 60.9386 22.8769C60.4109 22.3588 59.7784 21.8408 59.673 21.0106C59.5676 20.3889 60.3054 19.7666 61.044 19.7666C61.7819 19.7666 62.0981 20.3882 63.2583 21.528C64.1016 22.5641 64.207 22.669 65.3672 23.808C65.5781 23.0821 65.6835 22.4611 65.8943 21.8401C66.7383 18.5233 67.5816 15.2064 68.9526 11.9939C70.4284 8.26324 72.8542 2.87354 77.9153 2.87354C79.6026 2.87354 81.1838 3.49519 82.5548 4.6349C83.3981 5.36083 83.9258 6.18972 84.3468 7.32943C84.3468 7.43304 84.3468 7.43303 84.4522 7.84747C84.5576 7.95108 84.6631 7.95109 84.8739 8.0547C85.0847 8.15831 85.4009 8.26191 85.6118 8.46913C87.5099 9.71245 88.6701 11.3709 88.564 13.7546C88.564 15.2051 88.4586 15.2051 88.3532 15.8274C88.4586 15.931 89.1965 16.4491 89.5134 16.8642C90.3567 17.9003 90.6736 19.1443 90.6736 20.4919C90.6736 23.6002 88.143 26.1924 84.8739 26.1924C83.9252 26.1944 83.0812 26.0894 82.2372 25.5714Z" fill="white"/>
<path d="M43.188 24.225L46.6629 22.0408L42.9894 20.2537L45.9679 17.3745L41.9966 16.3817L44.3794 13.006L40.2095 12.8075L41.798 8.93545L37.7274 9.53114L38.5217 5.46055L34.6497 6.94979V2.77992L31.1748 4.96414L30.2812 0.992827L27.3028 3.87203L25.7142 0L23.3314 3.37561L20.9487 0L19.3601 3.77274L16.3817 0.893545L15.4881 4.96414L12.0132 2.77992V6.94979L8.14118 5.55983L8.93545 9.53114L4.86485 8.93545L6.45338 12.7082L2.38279 12.9068L4.76557 16.2824L0.794262 17.2752L3.77274 20.1544L0 22.0408L3.4749 24.225L0.198565 26.8063L4.07059 28.2956L1.38996 31.4726L5.46055 32.0683L3.4749 35.6425L7.64477 35.4439C7.94262 35.3447 8.14118 35.2454 8.43903 35.0468C5.85768 31.7705 4.36844 27.6999 4.36844 23.3314C4.36844 12.8075 12.9068 4.36844 23.3314 4.36844C33.8554 4.36844 42.2944 12.9068 42.2944 23.3314C42.2944 27.7992 40.8052 31.8698 38.2239 35.0468C38.5217 35.1461 38.7203 35.2454 39.0181 35.4439L43.188 35.6425L41.2023 32.0683L45.2729 31.4726L42.5923 28.2956L46.4643 26.8063L43.188 24.225Z" fill="white"/>
<path d="M7.14838 21.9415L8.04192 22.3386V21.7429L7.14838 21.9415Z" fill="white"/>
<path d="M15.6867 8.63737L15.9845 9.33235H16.0838C16.2824 9.23306 16.4809 9.0345 16.3817 8.73665C16.1831 8.4388 15.8852 8.53809 15.6867 8.63737Z" fill="white"/>
<path d="M12.7082 10.7224C12.4103 11.0203 12.311 11.5167 12.6089 11.8145C12.9067 12.2116 13.4031 12.2117 13.8003 11.9138C14.0981 11.616 14.1974 11.1195 13.8996 10.7224C13.6017 10.4246 13.1053 10.4246 12.7082 10.7224Z" fill="white"/>
<path d="M29.6855 9.33267V8.33984L29.0898 9.03482L29.6855 9.33267Z" fill="white"/>
<path d="M16.1831 40.2094C18.3673 41.1029 20.7501 41.5993 23.3315 41.5993C25.9128 41.5993 28.2956 41.1029 30.4798 40.1101C28.097 39.5144 25.8135 39.2166 23.4307 39.2166C21.048 39.3158 18.5659 39.6137 16.1831 40.2094Z" fill="white"/>
<path d="M37.6281 34.8482C40.2095 31.6712 41.6987 27.6999 41.6987 23.3314C41.6987 13.1053 33.4583 4.96411 23.3314 4.96411C13.2046 4.96411 4.96411 13.1053 4.96411 23.3314C4.96411 27.6999 6.45335 31.6712 9.0347 34.8482C10.8218 34.1532 12.7082 33.5575 14.5945 33.0611C11.9139 30.6783 10.3254 27.2034 10.3254 23.3314C10.3254 20.9486 11.0204 18.6651 12.1125 16.6795C11.9139 16.3816 11.9139 15.9845 12.0132 15.6866C12.1125 15.3888 12.311 15.1902 12.6089 15.091C12.8074 14.9917 13.006 14.9917 13.2046 14.9917C13.8003 14.2967 14.396 13.6017 15.091 13.1053C15.1902 13.006 15.3888 12.8074 15.4881 12.8074C17.6723 11.1196 20.4522 10.2261 23.3314 10.2261C30.5791 10.2261 36.4367 16.0838 36.4367 23.3314C36.4367 27.2034 34.7489 30.6783 32.0683 33.0611C34.054 33.4583 35.841 34.054 37.6281 34.8482ZM6.25479 21.5443L9.23327 20.7501L9.13399 21.5443L8.63757 21.6436L8.53829 22.6364L9.0347 22.835L8.93542 23.6293L6.1555 22.3386L6.25479 21.5443ZM6.55263 26.707L6.35407 25.6149C6.25479 25.0192 6.45335 24.6221 7.04905 24.5228C7.44618 24.4235 7.84331 24.6221 7.94259 25.0192L8.93542 23.9271L9.0347 24.8207L8.04188 25.6149L9.13399 25.4164L9.23327 26.1113L6.55263 26.707ZM9.43183 20.0551L6.65192 19.3601L6.85048 18.6651L9.6304 19.3601L9.43183 20.0551ZM10.7225 16.5802L8.53829 17.0766L10.1268 17.8709L9.82897 18.5658L7.24761 17.3745L7.54546 16.6795L9.72968 16.1831L8.14116 15.3888L8.43901 14.6938L11.0204 15.8852L10.7225 16.5802ZM11.5168 15.1902L9.23327 13.4031L10.2261 12.1125L10.7225 12.5096L10.1268 13.2046L10.5239 13.5024L11.0204 12.9067L11.5168 13.3039L11.0204 13.8996L11.9139 14.5945L11.5168 15.1902ZM14.1974 12.4103C13.5024 13.006 12.6089 12.9067 12.0132 12.2118C11.4175 11.5168 11.6161 10.6232 12.311 10.0275C12.9067 9.53112 13.8996 9.43183 14.4953 10.1268C14.9917 10.9211 14.8924 11.9139 14.1974 12.4103ZM17.2752 10.3254L16.1831 9.6304L16.6795 10.6232L15.9845 10.9211L14.6938 8.33972L15.6866 7.84331C16.1831 7.54546 16.6795 7.64475 16.9773 8.14116C17.1759 8.53829 17.0766 8.93542 16.7788 9.13399L18.0694 9.72968L17.2752 10.3254ZM18.6651 9.82897L17.8709 7.04905L19.4594 6.65192L19.658 7.24761L18.7644 7.44618L18.963 7.94259L19.7572 7.74403L19.9558 8.33972L19.1615 8.53829L19.2608 8.93542L20.1544 8.73686L20.3529 9.33255L18.6651 9.82897ZM22.7357 8.83614C22.5372 9.0347 22.2393 9.13399 21.9415 9.13399C21.5443 9.13399 21.2465 9.0347 20.9486 8.93542L21.2465 8.33972C21.445 8.43901 21.6436 8.63757 21.9415 8.53829C22.14 8.53829 22.3386 8.43901 22.2393 8.24044C22.14 8.04188 21.8422 7.94259 21.7429 7.94259C21.2465 7.84331 20.9486 7.74403 20.8493 7.24761C20.7501 6.65192 21.1472 6.25479 21.7429 6.1555C22.0407 6.1555 22.4379 6.1555 22.6364 6.35407L22.4379 6.94977C22.3386 6.85048 22.14 6.7512 21.9415 6.85048C21.8422 6.85048 21.6436 6.94977 21.6436 7.14833C21.6436 7.3469 21.8422 7.3469 22.0407 7.3469H22.2393C22.6364 7.44618 22.9343 7.64475 23.0336 8.04188C23.0336 8.33973 22.9343 8.63757 22.7357 8.83614ZM40.2095 26.8063L39.6138 26.707L39.7131 25.8135L39.2167 25.7142L39.1174 26.5085L38.5217 26.4092L38.621 25.6149L38.1245 25.5156L38.0253 26.4092L37.4296 26.3099L37.6281 24.7214L40.4081 25.1185L40.2095 26.8063ZM40.4081 23.8278H39.5145C39.7131 23.6293 39.8124 23.4307 39.8124 23.1329C39.8124 22.6364 39.4152 22.3386 39.0181 22.4379C38.5217 22.4379 38.2238 22.7357 38.2238 23.2321C38.2238 23.4307 38.3231 23.7285 38.5217 23.8278H37.6281C37.5289 23.6293 37.5289 23.4307 37.4296 23.1329C37.4296 22.7357 37.5288 22.3386 37.8267 22.0407C38.1245 21.7429 38.4224 21.5443 38.9188 21.5443C39.3159 21.5443 39.7131 21.6436 40.0109 21.9415C40.3088 22.2393 40.5073 22.6364 40.5073 23.0336C40.6066 23.3314 40.5073 23.6293 40.4081 23.8278ZM39.7131 18.1687L38.4224 19.9558L40.1102 19.4594L40.3088 20.1544L37.5288 20.8493L37.3303 20.1544L38.621 18.3673L36.9332 18.8637L36.7346 18.1687L39.5145 17.4737L39.7131 18.1687ZM25.7142 6.94977L25.1185 6.85048L24.9199 9.0347L24.225 8.93542L24.4235 6.7512H23.8278V6.1555L25.8135 6.35407L25.7142 6.94977ZM30.2812 10.7225L29.5862 10.4247V9.92825L28.6927 9.53112L28.2956 9.92825L27.6006 9.6304L29.6855 7.44618L30.4798 7.74403L30.2812 10.7225ZM32.5647 11.5168L32.1676 12.0132L30.7776 11.1196L32.3661 8.73686L32.9618 9.13399L31.7705 11.0204L32.5647 11.5168ZM32.664 12.4103L34.6497 10.3254L35.1461 10.8218L33.6568 12.4103L34.3518 13.006L33.9547 13.5024L32.664 12.4103ZM34.2525 13.9988L36.4367 12.2118L36.9332 12.8074L34.7489 14.5945L34.2525 13.9988ZM36.1389 16.9773L36.4367 16.5802L35.9403 15.6866L35.4439 15.7859L35.0468 15.091L38.0253 14.6938L38.4224 15.3888L36.4367 17.6723L36.1389 16.9773Z" fill="white"/>
<path d="M7.24762 25.2178C6.94977 25.3171 6.94977 25.6149 6.94977 25.8135V25.9128L7.64475 25.8135V25.7142C7.64475 25.5156 7.54547 25.2178 7.24762 25.2178Z" fill="white"/>
<path d="M37.5289 15.3889L36.6353 15.5875L36.9332 16.0839L37.5289 15.3889Z" fill="white"/>
<path d="M26.4092 32.6642C26.3099 32.7635 26.1114 32.8628 26.0121 32.8628C25.6149 32.9621 25.2178 32.8628 24.92 32.5649C24.92 32.5649 24.92 32.5649 24.8207 32.5649C24.3243 32.5649 23.8279 32.5649 23.3314 32.5649H23.2322C23.53 32.8628 23.6293 33.2599 23.4307 33.6571C23.3314 33.9549 23.0336 34.1535 22.7357 34.2527V34.5506H21.9415L22.14 37.4298L21.1472 37.5291L20.9487 34.6499H20.1544V33.8556L21.5444 33.7563C21.4451 33.6571 21.4451 33.5578 21.3458 33.3592C21.3458 33.1606 21.3458 32.9621 21.1472 32.5649C15.9845 32.8628 10.9211 34.2527 6.3541 36.5363C7.04907 38.6212 8.0419 40.5076 9.43186 42.1954C13.8996 39.9119 18.7644 38.7205 23.53 38.7205C28.1963 38.7205 32.8626 39.9119 37.3303 42.1954C38.7203 40.5076 39.7131 38.6212 40.4081 36.5363C36.0396 34.352 31.2741 33.0614 26.4092 32.6642ZM13.006 39.4155C12.5096 39.614 12.0132 39.614 11.5168 39.4155C11.0204 39.2169 10.6233 38.8198 10.4247 38.3233C10.2261 37.8269 10.2261 37.3305 10.4247 36.8341C10.6233 36.3377 11.0204 35.9406 11.5168 35.742C11.8146 35.6427 12.1125 35.6427 12.4103 35.6427L12.8075 36.7348C12.5096 36.5363 12.2118 36.5363 11.9139 36.6355C11.3182 36.8341 11.1197 37.4298 11.3182 37.9262C11.5168 38.5219 12.0132 38.7205 12.6089 38.5219C12.9068 38.4226 13.1053 38.1248 13.2046 37.8269L13.6017 38.919C13.5025 39.1176 13.3039 39.2169 13.006 39.4155ZM14.4953 38.7205L13.5025 35.1463L15.5874 34.5506L15.786 35.3449L14.5946 35.742L14.7931 36.3377L15.8852 36.0398L16.0838 36.8341L14.9917 37.132L15.1903 37.7276L16.2824 37.4298L16.4809 38.2241L14.4953 38.7205ZM19.0623 37.7276L17.9702 36.437L18.1687 37.8269L17.1759 38.0255L16.5802 34.352L17.9702 34.1535C18.6652 34.0542 19.2608 34.2527 19.4594 35.047C19.5587 35.5434 19.3601 36.0398 18.8637 36.2384L20.2537 37.5291L19.0623 37.7276ZM24.3243 37.4298H23.3314L23.4307 33.7563H24.4236L24.3243 37.4298ZM27.5013 34.7492L26.3099 34.6499L26.2106 35.2456L27.3027 35.3449L27.2035 36.1391L26.1114 36.0398L26.0121 37.5291L25.0192 37.4298L25.3171 33.7563L27.402 33.9549L27.5013 34.7492ZM28.792 37.9262L27.7992 37.8269L28.3949 34.1535L29.3877 34.2527L28.792 37.9262ZM32.0683 36.2384L31.8698 37.0327L30.7776 36.8341L30.6784 37.4298L31.7705 37.7276L31.5719 38.5219L29.487 38.0255L30.2812 34.4513L32.3662 34.9477L32.1676 35.742L31.0755 35.4441L30.9762 36.0398L32.0683 36.2384ZM36.0396 37.9262C35.7418 38.919 34.6497 39.4155 33.6568 39.1176L32.3662 38.7205L33.5576 35.1463L34.8482 35.5434C35.7418 35.8413 36.3375 36.9334 36.0396 37.9262Z" fill="white"/>
<path d="M34.3518 36.2382L34.1533 36.1389L33.5576 38.1246L33.7561 38.2238C34.3518 38.4224 34.8482 38.2238 35.0468 37.5289C35.2454 36.9332 34.9475 36.4368 34.3518 36.2382Z" fill="white"/>
<path d="M17.7716 34.9475L17.8709 35.841H17.9702C18.2681 35.7417 18.6652 35.6425 18.5659 35.2453C18.4666 34.8482 18.0695 34.8482 17.7716 34.9475Z" fill="white"/>
<path d="M32.4655 21.6437C32.4655 21.5444 32.4655 21.5444 32.4655 21.5444C32.3662 21.5444 32.2669 21.5444 32.0684 21.5444C31.9691 21.5444 31.7705 21.5444 31.6712 21.5444C31.6712 21.6437 31.6712 21.6437 31.6712 21.6437C31.7705 21.6437 31.8698 21.6437 31.9691 21.6437C31.9691 21.743 31.9691 21.743 31.9691 21.9416C31.9691 22.1401 31.9691 22.3387 31.9691 22.5373C32.0684 22.5373 32.0684 22.5373 32.1676 22.5373C32.1676 22.438 32.1676 22.3387 32.1676 21.9416C32.1676 21.8423 32.1676 21.743 32.1676 21.6437C32.2669 21.6437 32.2669 21.6437 32.4655 21.6437Z" fill="white"/>
<path d="M33.4583 22.5372C33.5576 22.5372 33.5576 22.5372 33.6569 22.5372C33.6569 22.14 33.6569 21.8422 33.6569 21.4451C33.5576 21.4451 33.5576 21.4451 33.4583 21.4451C33.4583 21.5444 33.4583 21.5444 33.359 21.7429L33.1605 22.3386L32.9619 21.8422C32.9619 21.7429 32.8626 21.6436 32.8626 21.5444C32.7633 21.5444 32.7633 21.5444 32.6641 21.5444C32.6641 21.6436 32.6641 21.7429 32.6641 21.9415C32.6641 22.14 32.6641 22.3386 32.6641 22.4379V22.5372C32.7633 22.5372 32.7633 22.5372 32.7633 22.5372C32.7633 22.4379 32.7633 22.3386 32.7633 22.2393V21.9415C32.7633 21.7429 32.7633 21.7429 32.7633 21.6436C32.7633 21.7429 32.7633 21.7429 32.8626 21.9415L32.9619 22.14L33.0612 22.4379V22.5372C33.1605 22.5372 33.1605 22.5372 33.2598 22.5372C33.2598 22.4379 33.359 22.3386 33.359 22.2393L33.4583 22.0408C33.5576 21.8422 33.5576 21.7429 33.5576 21.6436C33.5576 21.7429 33.5576 21.9415 33.5576 22.0408V22.2393C33.4583 22.3386 33.4583 22.3386 33.4583 22.5372Z" fill="white"/>
<path d="M22.7357 33.9546C22.9343 33.8553 23.1329 33.7561 23.2321 33.5575C23.4307 33.1604 23.1329 32.6639 22.7357 32.4654C22.2393 32.2668 22.2393 32.0682 22.2393 31.7704C22.835 31.3733 24.3243 31.7704 25.0192 32.3661C25.4164 32.7632 26.2106 32.6639 26.5085 32.0682C26.6078 31.7704 26.5085 31.274 26.0121 31.0754C25.5156 30.8769 25.1185 31.1747 24.8207 31.1747C24.1257 31.1747 23.4307 30.7776 23.1329 30.579C23.1329 30.4797 23.2321 29.9833 24.0264 30.0826C24.4235 30.0826 24.8207 29.884 24.9199 29.3876C24.9199 29.1891 24.8207 28.8912 24.5228 28.7919C24.225 28.6926 23.9271 28.7919 23.7286 28.9905C23.53 29.1891 23.53 29.4869 23.0336 29.6855C22.6364 29.884 22.4379 29.9833 21.9415 29.884C21.7429 29.884 21.1472 29.6855 20.9486 29.4869C20.8494 29.3876 20.8494 29.0898 20.8494 29.0898C20.7501 29.0898 23.1329 28.5934 23.6293 27.8984C24.0264 27.402 24.0264 27.0048 23.8278 26.707C23.2321 26.1113 22.4379 26.707 21.8422 26.5084C21.2465 26.3098 21.3458 25.5156 19.7572 25.4163C20.8494 25.317 21.8422 25.4163 22.7357 25.8134C22.835 25.9127 23.0336 25.9127 23.1329 26.012C23.0336 25.9127 22.9343 25.9127 22.7357 25.8134C23.53 25.4163 24.7214 24.5228 25.2178 23.9271C25.3171 23.9271 25.4164 24.622 25.5156 24.8206L25.6149 25.9127C25.9128 26.9055 27.0049 26.012 27.8984 26.2106C28.6927 26.3098 28.9905 26.4091 29.3877 26.9055C29.6855 27.1041 29.7848 27.6005 29.9834 27.8984C30.0826 28.0969 30.2812 28.1962 30.5791 28.1962C30.9762 28.1962 31.3733 27.8984 31.3733 27.5012C31.3733 27.2034 31.1748 26.8063 30.8769 26.707C30.1819 26.6077 29.487 26.1113 30.0826 25.7142C30.6783 25.317 31.4726 25.4163 31.6712 25.4163C31.6712 25.4163 32.0683 25.6149 32.2669 25.6149C32.664 25.7142 33.1604 25.5156 33.2597 25.1185C33.4583 24.7213 33.2597 24.1256 32.7633 24.0263C32.3661 23.8278 31.969 24.0263 31.6712 24.3242C31.3733 24.622 30.3805 25.1185 29.7848 24.8206C29.5862 24.4235 29.9834 24.2249 30.2812 24.0263C30.7776 23.7285 30.8769 23.2321 30.4798 22.835C30.3805 22.7357 30.0826 22.6364 29.8841 22.6364C29.5862 22.7357 29.3877 22.9342 29.2884 23.3314C29.2884 23.6292 29.0898 24.4235 28.097 24.5228C27.402 24.622 27.1042 24.7213 27.1042 24.2249C27.1042 23.7285 27.2035 23.2321 27.402 22.7357C27.7991 21.7428 28.2956 21.445 28.9905 20.75L30.2812 19.6579C30.6783 19.2608 31.274 18.9629 31.5719 18.3672C31.6712 18.0694 31.7705 17.6723 31.6712 17.3744C31.969 16.9773 32.3661 16.3816 32.3661 16.0837C32.4654 15.3887 32.2669 14.6938 31.6712 14.5945H31.5719C30.9762 14.3959 30.2812 14.4952 29.6855 14.2966C28.6927 13.8995 28.5934 13.1052 27.3027 13.006C26.4092 12.9067 25.9128 13.4031 25.4164 14.1974C25.2178 14.4952 25.0192 14.7931 24.7214 14.9916C24.1257 15.3887 23.3314 15.3887 22.7357 15.488C20.9486 15.6866 19.8565 16.4809 19.0623 17.1758C18.6651 17.573 16.5802 19.5586 16.0838 19.9558C15.4881 19.9558 14.9917 19.5586 15.2895 18.7644C15.5874 17.6723 16.3816 17.573 16.7788 17.6723C17.6723 17.7715 17.8709 17.0766 17.8709 17.0766C17.9702 16.878 17.8709 16.3816 17.4737 16.183C16.7788 15.8852 16.4809 16.4809 16.3816 16.5801C16.2824 16.6794 15.9845 17.2751 15.4881 17.1758C15.3888 16.9773 15.1902 16.5801 15.4881 16.0837C16.0838 14.7931 16.5802 14.5945 16.7788 13.9988C16.878 13.6017 16.7788 13.1052 16.2824 12.9067C15.7859 12.7081 15.2895 13.006 15.1902 13.5024C14.9917 13.8995 15.091 14.9916 14.7931 15.9844C14.6938 16.3816 14.396 17.3744 13.9989 16.878C13.8003 16.5801 13.701 16.2823 13.8003 15.9844C13.8003 15.6866 13.701 15.3887 13.4032 15.1902C13.006 14.9916 12.5096 15.1902 12.311 15.6866C12.2118 16.0837 12.311 16.4809 12.5096 16.5801C12.8075 16.878 13.4032 16.5801 13.6017 17.3744C13.8003 17.9701 13.8003 18.3672 13.5024 19.2608C13.006 20.4522 13.006 21.8421 13.5024 22.4378C14.0981 23.2321 14.5945 23.1328 14.5945 23.1328C14.2967 24.0263 14.1974 24.7213 15.3888 25.6149C15.5874 25.8134 16.5802 26.2106 16.9773 26.2106C16.5802 27.3027 15.5874 26.707 15.2895 27.6998C14.7931 29.189 17.3745 29.884 18.6651 30.3804C20.2537 30.9761 20.6508 31.0754 21.1472 31.7704C21.5443 32.3661 21.6436 32.7632 21.6436 33.0611C21.6436 33.2596 21.7429 33.3589 21.9415 33.4582L22.835 33.3589L22.7357 33.9546ZM27.1042 16.7787C27.402 16.2823 27.6999 16.0837 28.097 15.9844C28.5934 15.8852 28.8913 15.9844 29.0898 16.0837C29.6855 16.4809 29.6855 17.2751 29.1891 17.6723C28.792 17.9701 27.9977 17.9701 27.402 17.6723C27.3027 17.8708 27.2035 17.8708 27.0049 17.8708C26.9056 17.8708 26.9056 17.8708 26.9056 17.7715C26.9056 17.573 26.9056 17.1758 27.1042 16.7787ZM16.6795 22.835C16.5802 22.9342 16.4809 22.7357 16.4809 22.7357C17.573 21.2464 18.8637 19.1615 20.6508 18.0694C22.4379 16.9773 24.5228 16.7787 24.5228 16.7787C24.5228 16.7787 22.7357 17.2751 20.5515 18.8636C18.963 20.055 17.3745 22.3385 16.6795 22.835Z" fill="white"/>
<path d="M22.7357 33.9548V33.657L21.8422 33.7563C21.9415 33.8555 22.0408 33.9548 22.14 33.9548C22.3386 34.0541 22.5372 34.0541 22.7357 33.9548Z" fill="white"/>
<path d="M28.8913 17.1758L29.0898 17.2751C29.1891 16.8779 29.0898 16.5801 28.792 16.4808C28.5934 16.3815 27.8984 16.4808 27.7992 17.0765C27.7992 17.0765 27.7992 17.1758 27.8984 17.1758C28.097 16.9772 28.4941 16.8779 28.8913 17.1758Z" fill="white"/>
</svg>
