<svg width="43" height="73" viewBox="0 0 43 73" fill="none" xmlns="http://www.w3.org/2000/svg">
<path d="M11.3829 39.7089C7.19755 38.5921 3.92898 35.3236 2.81223 31.1382C1.95118 27.8165 1.49999 24.3714 1.5 20.7605C1.5 17.1497 1.95118 13.7046 2.81223 10.3829C3.92896 6.19752 7.19753 2.92895 11.3829 1.81222C14.7046 0.951176 18.1497 0.499989 21.7605 0.499989C25.3714 0.49999 28.8165 0.951178 32.1382 1.81223C36.3236 2.92897 39.5922 6.19754 40.7089 10.3829C41.5698 13.7044 42.0211 17.191 42.0211 20.7605C42.0211 24.3301 41.5698 27.8167 40.7089 31.1382C39.5921 35.3236 36.3236 38.5921 32.1382 39.7089C28.8167 40.5698 25.3301 41.0211 21.7605 41.0211C18.191 41.0211 14.7044 40.5698 11.3829 39.7089Z" stroke="#7C756F" stroke-opacity="0.5"/>
<path d="M31.0368 32.0149C30.875 31.8844 30.7027 31.7747 30.5565 31.6286C28.5467 29.624 26.5369 27.6141 24.5271 25.6043C24.4696 25.5469 24.4331 25.4686 24.3757 25.385C23.9372 26.1159 23.2429 26.3769 22.5799 26.6745C21.3218 27.2435 20.1107 27.0451 18.9465 26.4082C18.461 26.142 18.0016 25.8288 17.5057 25.5208C17.4692 25.5573 17.4065 25.6095 17.3491 25.6669C15.8718 27.1443 14.3892 28.6217 12.9118 30.1042C12.7239 30.2922 12.5255 30.4174 12.2436 30.3548C11.8051 30.2608 11.6067 29.7545 11.8625 29.389C11.92 29.3107 11.9878 29.2429 12.0557 29.175C13.5122 27.7133 14.9739 26.2568 16.4303 24.7952C16.4878 24.7377 16.5556 24.6855 16.6339 24.6177C16.493 24.4193 16.3625 24.247 16.2372 24.0643C15.7882 23.4065 15.428 22.7122 15.2192 21.9344C15.0156 21.1566 15.0991 20.3996 15.4019 19.674C15.5794 19.2407 15.7987 18.8179 16.044 18.4159C16.1954 18.1706 16.4356 17.9774 16.6809 17.7164C16.6496 17.6955 16.5713 17.6642 16.5139 17.6068C14.6084 15.6857 12.6874 13.7594 10.7663 11.8435C10.5627 11.6399 10.427 11.4207 10.5209 11.1231C10.6514 10.7055 11.1265 10.5436 11.4815 10.7994C11.5598 10.8569 11.6276 10.9247 11.6955 10.9978C13.768 13.0703 15.8404 15.1428 17.9129 17.2152C17.9703 17.2727 18.0121 17.351 18.0643 17.4188C18.2627 16.949 18.4297 16.5261 18.6176 16.1137C18.7168 15.8945 18.8421 15.6857 18.9778 15.4821C19.385 14.8609 20.0793 14.5894 20.8102 14.7617C20.8519 14.7721 20.8885 14.7773 20.9564 14.793C20.9929 14.6364 21.0242 14.485 21.066 14.3336C21.2487 13.6915 21.5306 13.0964 21.9065 12.5535C22.6112 11.5303 24.0885 11.5825 24.7359 12.6422C24.929 12.9554 25.0908 13.2843 25.284 13.6236C25.3727 13.5088 25.4563 13.3887 25.5502 13.2791C26.0827 12.6318 26.7979 12.2768 27.5705 12.021C27.8263 11.9375 28.0873 11.8592 28.3536 11.8122C29.5856 11.5877 30.5826 12.59 30.3373 13.8116C30.1493 14.7408 29.8257 15.6178 29.1627 16.3278C28.9748 16.5314 28.7503 16.6932 28.5363 16.8811C28.8234 17.0377 29.1209 17.1944 29.4133 17.3614C30.6453 18.0766 30.6401 19.6479 29.4081 20.3683C28.7712 20.7442 28.1082 21.0522 27.3774 21.1827C27.3982 21.4072 27.44 21.616 27.4296 21.8248C27.4087 22.4356 27.1111 22.8897 26.5995 23.2082C26.0514 23.5423 25.4876 23.8294 24.8612 23.9912C24.8298 24.0017 24.7985 24.0173 24.6837 24.0643C24.7829 24.1322 24.8664 24.1635 24.9238 24.2261C27.1007 26.3978 29.2776 28.5747 31.4492 30.7568C31.5954 30.9029 31.705 31.0752 31.8355 31.237C31.8355 31.3467 31.8355 31.4615 31.8355 31.5711C31.6841 31.7225 31.5275 31.8791 31.3761 32.0305C31.2613 32.0149 31.1464 32.0149 31.0368 32.0149ZM17.4901 23.6362C17.9442 23.0202 18.3357 22.399 18.508 21.6734C18.5811 21.3706 18.602 21.0365 18.5602 20.7285C18.4715 20.1073 18.1791 19.5592 17.8346 19.0423C17.6414 18.7552 17.2812 18.7918 17.1038 19.105C16.9158 19.4339 16.7331 19.7732 16.5869 20.123C16.3364 20.7129 16.3155 21.3184 16.54 21.9292C16.7592 22.54 17.0881 23.0881 17.4901 23.6362ZM25.6077 16.5261C26.4638 16.3852 27.2677 16.2077 27.9516 15.7066C28.1708 15.5447 28.3536 15.3255 28.5049 15.101C28.8182 14.6364 28.9748 14.0987 29.1001 13.561C29.1784 13.2217 28.9017 12.9607 28.5571 13.0442C28.3797 13.0859 28.2074 13.1277 28.0351 13.1851C27.4139 13.3939 26.8031 13.6341 26.4116 14.2031C25.9313 14.8817 25.7486 15.6752 25.6077 16.5261ZM23.3055 17.8834C23.5717 17.4188 23.8328 17.0012 24.0572 16.5627C24.2817 16.1137 24.4383 15.6335 24.3809 15.1219C24.3078 14.4276 23.9998 13.822 23.6239 13.2478C23.4412 12.9711 23.0758 12.9972 22.9035 13.3C22.7104 13.6445 22.5224 13.9943 22.3711 14.3545C22.1831 14.8087 22.11 15.2837 22.2301 15.7796C22.4128 16.547 22.8148 17.1944 23.3055 17.8834ZM24.2504 18.8701C24.6889 19.1259 25.0804 19.3817 25.4928 19.5905C26.0253 19.8567 26.5839 20.0499 27.1946 19.9298C27.8106 19.8097 28.364 19.5435 28.8808 19.199C29.1523 19.0215 29.1314 18.6717 28.8547 18.4838C28.6929 18.3741 28.5258 18.2802 28.3483 18.1914C27.9307 17.9826 27.5079 17.7842 27.0328 17.7581C25.9522 17.6955 25.1274 18.275 24.2504 18.8701ZM18.4871 24.6385C19.0979 25.0875 19.7087 25.4686 20.4134 25.6565C20.6692 25.7244 20.9511 25.7661 21.2121 25.74C21.9065 25.6774 22.512 25.3642 23.0862 24.9883C23.3473 24.8213 23.3525 24.4715 23.0967 24.3044C22.5381 23.9338 21.9482 23.6101 21.2696 23.5527C20.1785 23.464 19.3485 24.0643 18.4871 24.6385ZM22.0213 21.3184C22.4389 21.736 22.8565 22.1223 23.2376 22.5452C23.4621 22.7958 23.7179 22.8741 24.0311 22.848C24.7724 22.7905 25.4145 22.4669 26.0148 22.0597C26.255 21.8979 26.2289 21.5585 25.9783 21.3863C25.8217 21.2766 25.6494 21.1775 25.4772 21.0939C24.9395 20.8277 24.3913 20.5771 23.7753 20.6398C23.1437 20.7024 22.5851 20.9843 22.0213 21.3184ZM20.8154 20.1073C21.1599 19.5122 21.4784 18.9275 21.4888 18.2384C21.4993 17.4345 21.1391 16.7506 20.7006 16.1085C20.5387 15.8684 20.1942 15.8945 20.0271 16.1503C19.6722 16.6984 19.3746 17.2831 19.2911 17.9409C19.2597 18.1706 19.2441 18.489 19.3694 18.6404C19.8183 19.1572 20.3195 19.6166 20.8154 20.1073Z" fill="#7C756F"/>
<path d="M7.53148 52.06C7.29948 51.572 6.96348 51.196 6.52348 50.932C6.08348 50.66 5.57148 50.524 4.98748 50.524C4.40348 50.524 3.87548 50.66 3.40348 50.932C2.93948 51.196 2.57148 51.58 2.29948 52.084C2.03548 52.58 1.90348 53.156 1.90348 53.812C1.90348 54.468 2.03548 55.044 2.29948 55.54C2.57148 56.036 2.93948 56.42 3.40348 56.692C3.87548 56.956 4.40348 57.088 4.98748 57.088C5.80348 57.088 6.47548 56.844 7.00348 56.356C7.53148 55.868 7.83948 55.208 7.92748 54.376H4.59148V53.488H9.09148V54.328C9.02748 55.016 8.81149 55.648 8.44349 56.224C8.07548 56.792 7.59148 57.244 6.99148 57.58C6.39148 57.908 5.72348 58.072 4.98748 58.072C4.21148 58.072 3.50348 57.892 2.86348 57.532C2.22348 57.164 1.71548 56.656 1.33948 56.008C0.971484 55.36 0.787484 54.628 0.787484 53.812C0.787484 52.996 0.971484 52.264 1.33948 51.616C1.71548 50.96 2.22348 50.452 2.86348 50.092C3.50348 49.724 4.21148 49.54 4.98748 49.54C5.87548 49.54 6.65948 49.76 7.33948 50.2C8.02748 50.64 8.52748 51.26 8.83948 52.06H7.53148ZM11.6273 49.12V58H10.5353V49.12H11.6273ZM19.3205 51.424V58H18.2285V57.028C18.0205 57.364 17.7285 57.628 17.3525 57.82C16.9845 58.004 16.5765 58.096 16.1285 58.096C15.6165 58.096 15.1565 57.992 14.7485 57.784C14.3405 57.568 14.0165 57.248 13.7765 56.824C13.5445 56.4 13.4285 55.884 13.4285 55.276V51.424H14.5085V55.132C14.5085 55.78 14.6725 56.28 15.0005 56.632C15.3285 56.976 15.7765 57.148 16.3445 57.148C16.9285 57.148 17.3885 56.968 17.7245 56.608C18.0605 56.248 18.2285 55.724 18.2285 55.036V51.424H19.3205ZM22.4962 52.324V56.2C22.4962 56.52 22.5642 56.748 22.7002 56.884C22.8362 57.012 23.0722 57.076 23.4082 57.076H24.2122V58H23.2282C22.6202 58 22.1642 57.86 21.8602 57.58C21.5562 57.3 21.4042 56.84 21.4042 56.2V52.324H20.5522V51.424H21.4042V49.768H22.4962V51.424H24.2122V52.324H22.4962ZM31.5353 54.46C31.5353 54.668 31.5233 54.888 31.4993 55.12H26.2433C26.2833 55.768 26.5033 56.276 26.9033 56.644C27.3113 57.004 27.8033 57.184 28.3793 57.184C28.8513 57.184 29.2433 57.076 29.5553 56.86C29.8753 56.636 30.0993 56.34 30.2273 55.972H31.4033C31.2273 56.604 30.8753 57.12 30.3473 57.52C29.8193 57.912 29.1633 58.108 28.3793 58.108C27.7553 58.108 27.1953 57.968 26.6993 57.688C26.2113 57.408 25.8273 57.012 25.5473 56.5C25.2673 55.98 25.1273 55.38 25.1273 54.7C25.1273 54.02 25.2633 53.424 25.5353 52.912C25.8073 52.4 26.1873 52.008 26.6753 51.736C27.1713 51.456 27.7393 51.316 28.3793 51.316C29.0033 51.316 29.5553 51.452 30.0353 51.724C30.5153 51.996 30.8833 52.372 31.1393 52.852C31.4033 53.324 31.5353 53.86 31.5353 54.46ZM30.4073 54.232C30.4073 53.816 30.3153 53.46 30.1313 53.164C29.9473 52.86 29.6953 52.632 29.3753 52.48C29.0633 52.32 28.7153 52.24 28.3313 52.24C27.7793 52.24 27.3073 52.416 26.9153 52.768C26.5313 53.12 26.3113 53.608 26.2553 54.232H30.4073ZM36.1807 51.304C36.9807 51.304 37.6287 51.548 38.1247 52.036C38.6207 52.516 38.8687 53.212 38.8687 54.124V58H37.7887V54.28C37.7887 53.624 37.6247 53.124 37.2967 52.78C36.9687 52.428 36.5207 52.252 35.9527 52.252C35.3767 52.252 34.9167 52.432 34.5727 52.792C34.2367 53.152 34.0687 53.676 34.0687 54.364V58H32.9767V51.424H34.0687V52.36C34.2847 52.024 34.5767 51.764 34.9447 51.58C35.3207 51.396 35.7327 51.304 36.1807 51.304ZM11.9457 65.324H10.5657V71H9.4737V65.324H8.6217V64.424H9.4737V63.956C9.4737 63.22 9.6617 62.684 10.0377 62.348C10.4217 62.004 11.0337 61.832 11.8737 61.832V62.744C11.3937 62.744 11.0537 62.84 10.8537 63.032C10.6617 63.216 10.5657 63.524 10.5657 63.956V64.424H11.9457V65.324ZM14.3109 65.492C14.5029 65.116 14.7749 64.824 15.1269 64.616C15.4869 64.408 15.9229 64.304 16.4349 64.304V65.432H16.1469C14.9229 65.432 14.3109 66.096 14.3109 67.424V71H13.2189V64.424H14.3109V65.492ZM23.6955 67.46C23.6955 67.668 23.6835 67.888 23.6595 68.12H18.4035C18.4435 68.768 18.6635 69.276 19.0635 69.644C19.4715 70.004 19.9635 70.184 20.5395 70.184C21.0115 70.184 21.4035 70.076 21.7155 69.86C22.0355 69.636 22.2595 69.34 22.3875 68.972H23.5635C23.3875 69.604 23.0355 70.12 22.5075 70.52C21.9795 70.912 21.3235 71.108 20.5395 71.108C19.9155 71.108 19.3555 70.968 18.8595 70.688C18.3715 70.408 17.9875 70.012 17.7075 69.5C17.4275 68.98 17.2875 68.38 17.2875 67.7C17.2875 67.02 17.4235 66.424 17.6955 65.912C17.9675 65.4 18.3475 65.008 18.8355 64.736C19.3315 64.456 19.8995 64.316 20.5395 64.316C21.1635 64.316 21.7155 64.452 22.1955 64.724C22.6755 64.996 23.0435 65.372 23.2995 65.852C23.5635 66.324 23.6955 66.86 23.6955 67.46ZM22.5675 67.232C22.5675 66.816 22.4755 66.46 22.2915 66.164C22.1075 65.86 21.8555 65.632 21.5355 65.48C21.2235 65.32 20.8755 65.24 20.4915 65.24C19.9395 65.24 19.4675 65.416 19.0755 65.768C18.6915 66.12 18.4715 66.608 18.4155 67.232H22.5675ZM31.1369 67.46C31.1369 67.668 31.1249 67.888 31.1009 68.12H25.8449C25.8849 68.768 26.1049 69.276 26.5049 69.644C26.9129 70.004 27.4049 70.184 27.9809 70.184C28.4529 70.184 28.8449 70.076 29.1569 69.86C29.4769 69.636 29.7009 69.34 29.8289 68.972H31.0049C30.8289 69.604 30.4769 70.12 29.9489 70.52C29.4209 70.912 28.7649 71.108 27.9809 71.108C27.3569 71.108 26.7969 70.968 26.3009 70.688C25.8129 70.408 25.4289 70.012 25.1489 69.5C24.8689 68.98 24.7289 68.38 24.7289 67.7C24.7289 67.02 24.8649 66.424 25.1369 65.912C25.4089 65.4 25.7889 65.008 26.2769 64.736C26.7729 64.456 27.3409 64.316 27.9809 64.316C28.6049 64.316 29.1569 64.452 29.6369 64.724C30.1169 64.996 30.4849 65.372 30.7409 65.852C31.0049 66.324 31.1369 66.86 31.1369 67.46ZM30.0089 67.232C30.0089 66.816 29.9169 66.46 29.7329 66.164C29.5489 65.86 29.2969 65.632 28.9769 65.48C28.6649 65.32 28.3169 65.24 27.9329 65.24C27.3809 65.24 26.9089 65.416 26.5169 65.768C26.1329 66.12 25.9129 66.608 25.8569 67.232H30.0089Z" fill="#7C756F"/>
</svg>
