<svg width="375" height="136" viewBox="0 0 375 136" fill="none" xmlns="http://www.w3.org/2000/svg">
<g filter="url(#filter0_bd_322:8)">
<rect x="367" y="108" width="358" height="88" rx="20" transform="rotate(-180 367 108)" fill="#65605B" fill-opacity="0.7"/>
</g>
<g filter="url(#filter1_d_322:8)">
<path d="M44.9008 67.9009C41.3455 66.9522 38.5689 64.1756 37.6201 60.6203C36.8851 57.7845 36.4999 54.8434 36.4999 51.7606C36.4999 48.6777 36.8851 45.7367 37.6201 42.9009C38.5689 39.3455 41.3454 36.569 44.9008 35.6203C47.7365 34.8852 50.6776 34.5 53.7605 34.5C56.8433 34.5 59.7844 34.8852 62.6201 35.6203C66.1755 36.569 68.9521 39.3456 69.9008 42.9009C70.6357 45.7365 71.021 48.713 71.021 51.7606C71.021 54.8082 70.6357 57.7847 69.9008 60.6202C68.952 64.1756 66.1755 66.9522 62.6201 67.9009C59.7846 68.6359 56.808 69.0211 53.7604 69.0211C50.7129 69.0211 47.7363 68.6359 44.9008 67.9009Z" stroke="white" stroke-opacity="0.5"/>
</g>
<g clip-path="url(#clip0_322:8)">
<path d="M55.9383 60.8702C55.8185 59.8391 55.6453 58.9137 55.632 57.9751C55.6187 55.9526 56.431 54.3001 58.1221 53.1236C58.8145 52.6477 59.5335 52.2115 60.2526 51.7885C61.2779 51.1804 61.9037 50.3079 62.3432 49.2239C62.463 48.9199 62.7959 48.5365 63.0622 48.5233C63.3285 48.4968 63.7413 48.8273 63.8745 49.1049C64.9663 51.2993 65.6721 53.5995 65.3525 56.098C64.9397 59.2574 62.3432 61.5972 59.0409 61.7559C58.2685 61.7955 57.4962 61.6766 56.7239 61.6501C56.4976 61.6369 56.2446 61.6766 56.0182 61.7427C55.419 61.9013 54.8331 62.126 54.2339 62.2582C54.0475 62.2979 53.8078 62.0864 53.5947 61.9938C53.7412 61.8088 53.861 61.5311 54.0475 61.4651C54.6866 61.2139 55.3524 61.042 55.9383 60.8702ZM58.2685 60.6719C58.2819 60.738 58.3085 60.7909 58.3218 60.857C58.4017 60.8702 58.4816 60.8966 58.5482 60.8966C60.9716 61.042 63.3685 59.4954 64.1674 57.2349C65.1128 54.5645 64.2872 52.0925 63.2353 49.6337C63.1288 49.6998 63.0755 49.713 63.0622 49.7527C63.0089 49.8188 62.969 49.8981 62.9424 49.9906C62.4497 51.1143 61.6374 51.9603 60.5722 52.5816C59.9463 52.9518 59.3205 53.3351 58.708 53.7317C56.3644 55.2387 56.0315 58.3453 56.937 60.4207C57.2565 60.2621 57.5628 60.0902 57.8691 59.9448C58.3085 59.7465 58.4416 59.4821 58.3618 58.9666C58.2286 58.0809 58.202 57.1688 58.2153 56.2698C58.2153 56.0187 58.4949 55.7675 58.6414 55.5031C58.7879 55.7543 59.0142 56.0054 59.0409 56.2698C59.1207 57.1027 59.1341 57.9487 59.174 58.7947C59.2406 58.8212 59.3205 58.8476 59.3871 58.8608C59.7998 58.4114 60.2126 57.9751 60.5988 57.5125C60.6787 57.4199 60.6787 57.2216 60.6521 57.0762C60.5588 56.2037 60.4257 55.3313 60.3591 54.4588C60.3325 54.0754 60.1993 53.4805 60.8118 53.4805C61.3844 53.4805 61.2113 54.049 61.2379 54.4191C61.2646 54.7232 61.2513 55.0404 61.2779 55.3445C61.2912 55.556 61.3445 55.7675 61.3844 55.979C61.4776 55.9922 61.5708 55.9922 61.6774 56.0054C61.957 55.0008 62.21 53.9961 62.5163 53.0046C62.5828 52.7799 62.8358 52.6213 62.9956 52.4362C63.1155 52.6609 63.3418 52.9121 63.3152 53.1236C63.2087 53.7978 63.0223 54.4456 62.8491 55.1065C62.7959 55.3313 62.716 55.556 62.6494 55.7939C62.7027 55.8204 62.7559 55.8468 62.8092 55.8733C63.0089 55.6882 63.1954 55.4502 63.435 55.318C63.6481 55.1991 63.9144 55.1991 64.1674 55.1462C64.1275 55.3974 64.1807 55.7543 64.0209 55.8733C63.3152 56.4681 62.5562 56.9969 61.8372 57.5653C61.4909 57.8429 61.198 58.1734 60.8784 58.4907C60.9317 58.5436 60.9849 58.5964 61.0249 58.6625C61.2779 58.5304 61.5043 58.3453 61.7706 58.266C61.9836 58.1999 62.2366 58.2527 62.4763 58.2527C62.3964 58.4907 62.3698 58.8608 62.21 58.9402C61.3312 59.35 60.4257 59.6804 59.5335 60.0638C59.1207 60.2489 58.6946 60.4736 58.2685 60.6719Z" fill="white"/>
<path d="M45.1809 49.8379C45.4872 49.9436 45.6869 50.0097 45.9 50.0758C49.3354 51.1334 50.8934 53.1956 50.9733 56.778C50.9733 57.0689 50.9866 57.3465 50.9733 57.6373C50.92 58.9725 51.3328 60.1358 52.225 61.1537C52.4114 61.3652 52.5578 61.8146 52.4513 62.0129C52.3182 62.2509 51.9054 62.502 51.6257 62.4888C49.1623 62.3434 46.7921 61.8146 44.7682 60.3208C42.3181 58.4966 41.4659 55.6147 42.5578 52.7858C42.9306 51.834 43.5697 51.0012 44.0891 50.1022C44.1956 49.9172 44.3154 49.7321 44.3687 49.5338C44.5152 48.9786 44.6084 48.4102 44.7682 47.8682C44.8614 47.5509 44.888 47.075 45.4073 47.2204C45.8867 47.3526 45.6736 47.7492 45.607 48.0532C45.4739 48.6349 45.3274 49.2033 45.1809 49.8379ZM51.3328 61.5238C50.3075 60.2415 50.0944 58.7742 50.0545 57.2539C50.0412 56.5269 50.0412 55.7998 49.9347 55.086C49.6284 52.9709 47.2449 50.8954 45.141 50.869C45.1011 51.0673 45.0611 51.2788 45.0345 51.5035C44.9679 52.1512 45.0345 52.6404 45.8334 52.9048C46.6856 53.1824 47.4712 53.6847 48.2436 54.1474C48.39 54.2399 48.4033 54.5704 48.4832 54.7819C48.2702 54.8083 48.0438 54.8877 47.8308 54.848C47.631 54.8083 47.4446 54.6365 47.2449 54.5307C46.6057 54.2003 45.9799 53.883 45.3407 53.5525C45.2875 53.6054 45.2475 53.645 45.1943 53.6979C45.3274 54.1342 45.4739 54.5572 45.5671 55.0066C45.6736 55.4693 45.9533 55.6544 46.3927 55.813C47.2183 56.1303 48.0172 56.5269 48.7762 56.9631C48.9759 57.0689 49.2023 57.4919 49.1357 57.6505C48.9626 58.0471 48.6297 57.8224 48.3501 57.677C47.7775 57.3861 47.2049 57.0953 46.619 56.8045C46.5658 56.8838 46.4992 56.9631 46.4459 57.0292C47.1384 57.7563 47.8441 58.4833 48.5365 59.1972C48.7762 59.4483 49.3221 59.6334 48.936 60.0564C48.5898 60.453 48.2569 60.03 47.9772 59.8185C47.7509 59.6466 47.5245 59.4616 47.3248 59.2501C46.912 58.827 46.5258 58.3908 46.1264 57.9678C46.0997 58.3511 46.2329 58.6816 46.2462 59.0253C46.2462 59.2633 46.0864 59.5012 46.0065 59.726C45.8201 59.5805 45.5138 59.4484 45.4739 59.2765C45.3008 58.3511 45.2209 57.4258 45.0744 56.5004C45.0078 56.1038 44.8747 55.7073 44.7815 55.3239C44.7016 55.3371 44.6217 55.3503 44.5418 55.3768C44.5418 55.5883 44.5418 55.7866 44.5418 55.9981C44.5418 56.3418 44.5418 56.7516 44.0757 56.6855C43.9026 56.6591 43.6363 56.236 43.6496 56.0113C43.7295 55.0992 43.916 54.187 44.0491 53.2881C44.1157 52.8122 44.1423 52.3363 44.1823 51.834C43.9958 51.8604 43.9426 51.8472 43.916 51.8736C43.876 51.9001 43.8494 51.9397 43.8361 51.9662C42.9173 53.6847 42.611 55.4825 43.4233 57.3465C44.169 59.0782 45.607 60.0829 47.3115 60.7438C48.5898 61.2462 49.908 61.537 51.3328 61.5238Z" fill="white"/>
<path d="M60.2256 46.2627C59.6663 46.7386 59.187 47.2013 58.641 47.5714C56.5638 49.0124 54.3667 49.3164 52.0631 48.1399C51.4106 47.8094 50.7714 47.4657 50.1323 47.1088C49.1203 46.5403 48.0417 46.4742 46.9099 46.6329C46.5903 46.6725 46.0843 46.58 45.9511 46.3685C45.8047 46.1437 45.8712 45.6414 46.0443 45.377C46.9365 43.9625 48.0417 42.7331 49.3999 41.7417C53.2748 38.8731 57.7355 39.8117 59.9992 44.0551C60.5585 45.0994 61.1444 46.038 62.0632 46.7915C62.3295 47.003 62.8621 47.2938 62.396 47.7301C61.9699 48.1399 61.7436 47.6111 61.4906 47.3864C61.0645 47.0294 60.6384 46.6461 60.2256 46.2627ZM52.7555 42.9579C52.2761 42.8125 51.9299 42.7464 51.6236 42.6009C51.4239 42.4952 51.3041 42.2572 51.1576 42.0854C51.3706 41.9929 51.6369 41.7549 51.7967 41.8078C52.6756 42.1118 53.5145 42.482 54.38 42.8125C54.8194 42.9843 55.2855 43.1033 55.7382 43.2487C55.7648 43.1694 55.8048 43.1033 55.8314 43.024C55.5518 42.8653 55.2455 42.7331 55.0191 42.5216C54.8727 42.3762 54.846 42.0986 54.7661 41.8871C54.9792 41.8607 55.2721 41.7153 55.4053 41.8078C56.1909 42.3366 56.9366 42.9182 57.6956 43.4866C58.135 43.8171 58.5744 44.1344 59.0005 44.4517C58.4679 42.2705 55.5784 40.618 53.2615 40.9882C50.332 41.4509 48.5211 43.4338 46.7234 45.8133C48.561 45.4563 50.0124 45.9851 51.3839 46.8047C51.8367 47.0823 52.316 47.3071 52.7954 47.5318C53.7275 47.9548 54.6862 48.1267 55.7116 47.9416C57.2295 47.664 58.428 46.8708 59.4799 45.7075C59.2003 45.5224 58.9872 45.4035 58.7875 45.258C58.2549 44.8482 57.8154 44.7821 57.2295 45.2977C56.5638 45.8661 55.7648 46.2892 54.9925 46.7122C54.8194 46.8047 54.4998 46.6593 54.2601 46.6329C54.3667 46.4214 54.4332 46.1834 54.593 46.0116C54.7395 45.8529 54.9659 45.7868 55.1523 45.6678C55.7382 45.2977 56.3241 44.9143 57.0698 44.4252C56.4706 44.2666 56.0977 44.1741 55.7249 44.0683C55.1789 43.9097 54.7661 44.0022 54.3001 44.412C53.621 45.0069 52.822 45.4431 52.0364 45.9058C51.8899 45.9851 51.6236 45.8661 51.4106 45.8265C51.4772 45.6282 51.4905 45.377 51.6103 45.2184C51.7435 45.0598 51.9832 44.9804 52.1696 44.8615C52.569 44.5971 52.9818 44.3327 53.3813 44.0815C53.3414 43.989 53.3014 43.8832 53.2481 43.7907C52.2495 44.0419 51.2508 44.2798 50.2654 44.5442C49.9459 44.6235 49.5996 44.8747 49.4265 44.412C49.2534 43.9758 49.6529 43.8436 49.9725 43.7378C50.8114 43.4734 51.6902 43.2487 52.7555 42.9579Z" fill="white"/>
</g>
<path d="M111.901 67.9009C108.345 66.9522 105.569 64.1756 104.62 60.6203C103.885 57.7845 103.5 54.8434 103.5 51.7606C103.5 48.6777 103.885 45.7367 104.62 42.9009C105.569 39.3455 108.345 36.569 111.901 35.6203C114.737 34.8852 117.678 34.5 120.76 34.5C123.843 34.5 126.784 34.8852 129.62 35.6203C133.175 36.569 135.952 39.3456 136.901 42.9009C137.636 45.7365 138.021 48.713 138.021 51.7606C138.021 54.8082 137.636 57.7847 136.901 60.6202C135.952 64.1756 133.175 66.9522 129.62 67.9009C126.785 68.6359 123.808 69.0211 120.76 69.0211C117.713 69.0211 114.736 68.6359 111.901 67.9009Z" stroke="white" stroke-opacity="0.5"/>
<path d="M128.696 61.3886C128.558 61.2769 128.411 61.1831 128.285 61.0581C126.566 59.3432 124.847 57.6238 123.127 55.9044C123.078 55.8552 123.047 55.7882 122.998 55.7168C122.623 56.342 122.029 56.5653 121.462 56.8199C120.385 57.3067 119.349 57.137 118.353 56.5921C117.938 56.3644 117.545 56.0964 117.121 55.8329C117.089 55.8642 117.036 55.9088 116.987 55.958C115.723 57.2218 114.454 58.4857 113.191 59.754C113.03 59.9148 112.86 60.022 112.619 59.9684C112.244 59.888 112.074 59.4548 112.293 59.1422C112.342 59.0752 112.4 59.0171 112.458 58.9591C113.704 57.7086 114.955 56.4626 116.201 55.2121C116.25 55.163 116.308 55.1184 116.375 55.0603C116.254 54.8906 116.143 54.7432 116.035 54.5869C115.651 54.0242 115.343 53.4302 115.165 52.7648C114.99 52.0994 115.062 51.4518 115.321 50.831C115.473 50.4603 115.66 50.0986 115.87 49.7547C116 49.5448 116.205 49.3796 116.415 49.1563C116.388 49.1384 116.321 49.1116 116.272 49.0625C114.642 47.419 112.999 45.7711 111.355 44.1321C111.181 43.9579 111.065 43.7703 111.145 43.5158C111.257 43.1585 111.663 43.02 111.967 43.2389C112.034 43.288 112.092 43.3461 112.15 43.4086C113.923 45.1816 115.696 46.9546 117.469 48.7276C117.518 48.7767 117.554 48.8437 117.598 48.9017C117.768 48.4998 117.911 48.138 118.072 47.7852C118.157 47.5977 118.264 47.419 118.38 47.2449C118.728 46.7134 119.322 46.4812 119.948 46.6285C119.983 46.6375 120.015 46.6419 120.073 46.6553C120.104 46.5214 120.131 46.3919 120.166 46.2623C120.323 45.713 120.564 45.2039 120.885 44.7394C121.488 43.8641 122.752 43.9088 123.306 44.8154C123.471 45.0833 123.61 45.3647 123.775 45.655C123.851 45.5567 123.922 45.454 124.003 45.3602C124.458 44.8064 125.07 44.5027 125.731 44.2839C125.95 44.2125 126.173 44.1455 126.401 44.1053C127.455 43.9132 128.308 44.7707 128.098 45.8157C127.937 46.6107 127.66 47.361 127.093 47.9683C126.932 48.1425 126.74 48.281 126.557 48.4417C126.803 48.5757 127.057 48.7097 127.307 48.8526C128.361 49.4644 128.357 50.8087 127.303 51.425C126.758 51.7465 126.191 52.01 125.566 52.1217C125.584 52.3137 125.619 52.4924 125.61 52.671C125.593 53.1935 125.338 53.5821 124.9 53.8545C124.431 54.1403 123.949 54.3859 123.413 54.5244C123.386 54.5333 123.36 54.5467 123.261 54.5869C123.346 54.645 123.418 54.6718 123.467 54.7253C125.329 56.5832 127.191 58.4455 129.049 60.3123C129.174 60.4373 129.268 60.5847 129.38 60.7231C129.38 60.8169 129.38 60.9152 129.38 61.009C129.25 61.1385 129.116 61.2725 128.987 61.402C128.888 61.3886 128.79 61.3886 128.696 61.3886ZM117.107 54.2207C117.496 53.6937 117.831 53.1623 117.978 52.5415C118.041 52.2825 118.058 51.9966 118.023 51.7331C117.947 51.2017 117.697 50.7328 117.402 50.2906C117.237 50.045 116.929 50.0763 116.777 50.3442C116.616 50.6256 116.46 50.9159 116.335 51.2151C116.12 51.7197 116.102 52.2378 116.294 52.7603C116.482 53.2828 116.763 53.7518 117.107 54.2207ZM124.052 48.138C124.784 48.0175 125.472 47.8656 126.057 47.4369C126.245 47.2984 126.401 47.1109 126.53 46.9188C126.798 46.5214 126.932 46.0614 127.039 45.6014C127.106 45.3111 126.87 45.0878 126.575 45.1592C126.423 45.195 126.276 45.2307 126.128 45.2798C125.597 45.4585 125.074 45.6639 124.74 46.1507C124.329 46.7313 124.172 47.4101 124.052 48.138ZM122.082 49.2992C122.31 48.9017 122.533 48.5444 122.725 48.1693C122.917 47.7852 123.051 47.3744 123.002 46.9367C122.94 46.3427 122.676 45.8247 122.355 45.3334C122.198 45.0967 121.886 45.1191 121.738 45.3781C121.573 45.6728 121.412 45.972 121.283 46.2802C121.122 46.6687 121.06 47.0751 121.162 47.4994C121.319 48.1559 121.662 48.7097 122.082 49.2992ZM122.891 50.1433C123.266 50.3621 123.601 50.5809 123.954 50.7596C124.409 50.9873 124.887 51.1526 125.409 51.0499C125.936 50.9471 126.41 50.7194 126.852 50.4246C127.084 50.2728 127.066 49.9736 126.83 49.8128C126.691 49.719 126.548 49.6386 126.396 49.5627C126.039 49.384 125.677 49.2143 125.271 49.192C124.347 49.1384 123.641 49.6341 122.891 50.1433ZM117.96 55.0782C118.483 55.4622 119.005 55.7882 119.608 55.949C119.827 56.0071 120.068 56.0428 120.291 56.0205C120.885 55.9669 121.403 55.6989 121.895 55.3774C122.118 55.2345 122.122 54.9352 121.904 54.7923C121.426 54.4753 120.921 54.1984 120.341 54.1492C119.407 54.0733 118.697 54.5869 117.96 55.0782ZM120.984 52.2378C121.341 52.5951 121.698 52.9256 122.024 53.2873C122.216 53.5017 122.435 53.5687 122.703 53.5463C123.337 53.4972 123.887 53.2203 124.4 52.872C124.606 52.7335 124.583 52.4432 124.369 52.2959C124.235 52.2021 124.087 52.1172 123.94 52.0458C123.48 51.818 123.011 51.6036 122.484 51.6572C121.944 51.7108 121.466 51.952 120.984 52.2378ZM119.952 51.2017C120.247 50.6926 120.519 50.1924 120.528 49.6029C120.537 48.9151 120.229 48.3301 119.854 47.7808C119.715 47.5753 119.421 47.5977 119.278 47.8165C118.974 48.2854 118.719 48.7856 118.648 49.3483C118.621 49.5448 118.608 49.8172 118.715 49.9468C119.099 50.3889 119.528 50.7819 119.952 51.2017Z" fill="white"/>
<path d="M40.0508 82H39.3228L36.3948 77.56V82H35.6668V76.416H36.3948L39.3228 80.848V76.416H40.0508V82ZM41.0198 79.792C41.0198 79.344 41.1104 78.952 41.2918 78.616C41.4731 78.2747 41.7211 78.0107 42.0358 77.824C42.3558 77.6373 42.7104 77.544 43.0998 77.544C43.4838 77.544 43.8171 77.6267 44.0998 77.792C44.3824 77.9573 44.5931 78.1653 44.7318 78.416V77.616H45.4678V82H44.7318V81.184C44.5878 81.44 44.3718 81.6533 44.0838 81.824C43.8011 81.9893 43.4704 82.072 43.0918 82.072C42.7024 82.072 42.3504 81.976 42.0358 81.784C41.7211 81.592 41.4731 81.3227 41.2918 80.976C41.1104 80.6293 41.0198 80.2347 41.0198 79.792ZM44.7318 79.8C44.7318 79.4693 44.6651 79.1813 44.5318 78.936C44.3984 78.6907 44.2171 78.504 43.9878 78.376C43.7638 78.2427 43.5158 78.176 43.2438 78.176C42.9718 78.176 42.7238 78.24 42.4998 78.368C42.2758 78.496 42.0971 78.6827 41.9638 78.928C41.8304 79.1733 41.7638 79.4613 41.7638 79.792C41.7638 80.128 41.8304 80.4213 41.9638 80.672C42.0971 80.9173 42.2758 81.1067 42.4998 81.24C42.7238 81.368 42.9718 81.432 43.2438 81.432C43.5158 81.432 43.7638 81.368 43.9878 81.24C44.2171 81.1067 44.3984 80.9173 44.5318 80.672C44.6651 80.4213 44.7318 80.1307 44.7318 79.8ZM47.586 78.216V80.8C47.586 81.0133 47.6314 81.1653 47.722 81.256C47.8127 81.3413 47.97 81.384 48.194 81.384H48.73V82H48.074C47.6687 82 47.3647 81.9067 47.162 81.72C46.9594 81.5333 46.858 81.2267 46.858 80.8V78.216H46.29V77.616H46.858V76.512H47.586V77.616H48.73V78.216H47.586ZM53.5001 77.616V82H52.7721V81.352C52.6334 81.576 52.4388 81.752 52.1881 81.88C51.9428 82.0027 51.6708 82.064 51.3721 82.064C51.0308 82.064 50.7241 81.9947 50.4521 81.856C50.1801 81.712 49.9641 81.4987 49.8041 81.216C49.6494 80.9333 49.5721 80.5893 49.5721 80.184V77.616H50.2921V80.088C50.2921 80.52 50.4014 80.8533 50.6201 81.088C50.8388 81.3173 51.1374 81.432 51.5161 81.432C51.9054 81.432 52.2121 81.312 52.4361 81.072C52.6601 80.832 52.7721 80.4827 52.7721 80.024V77.616H53.5001ZM55.4573 78.328C55.5853 78.0773 55.7666 77.8827 56.0013 77.744C56.2413 77.6053 56.5319 77.536 56.8733 77.536V78.288H56.6813C55.8653 78.288 55.4573 78.7307 55.4573 79.616V82H54.7293V77.616H55.4573V78.328ZM57.4417 79.792C57.4417 79.344 57.5323 78.952 57.7137 78.616C57.895 78.2747 58.143 78.0107 58.4577 77.824C58.7777 77.6373 59.1323 77.544 59.5217 77.544C59.9057 77.544 60.239 77.6267 60.5217 77.792C60.8043 77.9573 61.015 78.1653 61.1537 78.416V77.616H61.8897V82H61.1537V81.184C61.0097 81.44 60.7937 81.6533 60.5057 81.824C60.223 81.9893 59.8923 82.072 59.5137 82.072C59.1243 82.072 58.7723 81.976 58.4577 81.784C58.143 81.592 57.895 81.3227 57.7137 80.976C57.5323 80.6293 57.4417 80.2347 57.4417 79.792ZM61.1537 79.8C61.1537 79.4693 61.087 79.1813 60.9537 78.936C60.8203 78.6907 60.639 78.504 60.4097 78.376C60.1857 78.2427 59.9377 78.176 59.6657 78.176C59.3937 78.176 59.1457 78.24 58.9217 78.368C58.6977 78.496 58.519 78.6827 58.3857 78.928C58.2523 79.1733 58.1857 79.4613 58.1857 79.792C58.1857 80.128 58.2523 80.4213 58.3857 80.672C58.519 80.9173 58.6977 81.1067 58.9217 81.24C59.1457 81.368 59.3937 81.432 59.6657 81.432C59.9377 81.432 60.1857 81.368 60.4097 81.24C60.639 81.1067 60.8203 80.9173 60.9537 80.672C61.087 80.4213 61.1537 80.1307 61.1537 79.8ZM63.8479 76.08V82H63.1199V76.08H63.8479ZM65.8167 76.08V82H65.0887V76.08H65.8167ZM70.8334 77.616L68.1934 84.064H67.4414L68.3054 81.952L66.5374 77.616H67.3454L68.7214 81.168L70.0814 77.616H70.8334ZM38.2581 88.792C38.2581 88.344 38.3487 87.952 38.5301 87.616C38.7114 87.2747 38.9594 87.0107 39.2741 86.824C39.5941 86.6373 39.9514 86.544 40.3461 86.544C40.6874 86.544 41.0047 86.624 41.2981 86.784C41.5914 86.9387 41.8154 87.144 41.9701 87.4V85.08H42.7061V91H41.9701V90.176C41.8261 90.4373 41.6127 90.6533 41.3301 90.824C41.0474 90.9893 40.7167 91.072 40.3381 91.072C39.9487 91.072 39.5941 90.976 39.2741 90.784C38.9594 90.592 38.7114 90.3227 38.5301 89.976C38.3487 89.6293 38.2581 89.2347 38.2581 88.792ZM41.9701 88.8C41.9701 88.4693 41.9034 88.1813 41.7701 87.936C41.6367 87.6907 41.4554 87.504 41.2261 87.376C41.0021 87.2427 40.7541 87.176 40.4821 87.176C40.2101 87.176 39.9621 87.24 39.7381 87.368C39.5141 87.496 39.3354 87.6827 39.2021 87.928C39.0687 88.1733 39.0021 88.4613 39.0021 88.792C39.0021 89.128 39.0687 89.4213 39.2021 89.672C39.3354 89.9173 39.5141 90.1067 39.7381 90.24C39.9621 90.368 40.2101 90.432 40.4821 90.432C40.7541 90.432 41.0021 90.368 41.2261 90.24C41.4554 90.1067 41.6367 89.9173 41.7701 89.672C41.9034 89.4213 41.9701 89.1307 41.9701 88.8ZM47.9363 88.64C47.9363 88.7787 47.9283 88.9253 47.9123 89.08H44.4083C44.435 89.512 44.5816 89.8507 44.8483 90.096C45.1203 90.336 45.4483 90.456 45.8323 90.456C46.147 90.456 46.4083 90.384 46.6163 90.24C46.8296 90.0907 46.979 89.8933 47.0643 89.648H47.8483C47.731 90.0693 47.4963 90.4133 47.1443 90.68C46.7923 90.9413 46.355 91.072 45.8323 91.072C45.4163 91.072 45.043 90.9787 44.7123 90.792C44.387 90.6053 44.131 90.3413 43.9443 90C43.7576 89.6533 43.6643 89.2533 43.6643 88.8C43.6643 88.3467 43.755 87.9493 43.9363 87.608C44.1176 87.2667 44.371 87.0053 44.6963 86.824C45.027 86.6373 45.4056 86.544 45.8323 86.544C46.2483 86.544 46.6163 86.6347 46.9363 86.816C47.2563 86.9973 47.5016 87.248 47.6723 87.568C47.8483 87.8827 47.9363 88.24 47.9363 88.64ZM47.1843 88.488C47.1843 88.2107 47.123 87.9733 47.0003 87.776C46.8776 87.5733 46.7096 87.4213 46.4963 87.32C46.2883 87.2133 46.0563 87.16 45.8003 87.16C45.4323 87.16 45.1176 87.2773 44.8563 87.512C44.6003 87.7467 44.4536 88.072 44.4163 88.488H47.1843ZM49.6253 87.328C49.7533 87.0773 49.9346 86.8827 50.1693 86.744C50.4093 86.6053 50.6999 86.536 51.0413 86.536V87.288H50.8493C50.0333 87.288 49.6253 87.7307 49.6253 88.616V91H48.8973V86.616H49.6253V87.328ZM52.2576 85.904C52.119 85.904 52.0016 85.856 51.9056 85.76C51.8096 85.664 51.7616 85.5467 51.7616 85.408C51.7616 85.2693 51.8096 85.152 51.9056 85.056C52.0016 84.96 52.119 84.912 52.2576 84.912C52.391 84.912 52.503 84.96 52.5936 85.056C52.6896 85.152 52.7376 85.2693 52.7376 85.408C52.7376 85.5467 52.6896 85.664 52.5936 85.76C52.503 85.856 52.391 85.904 52.2576 85.904ZM52.6096 86.616V91H51.8816V86.616H52.6096ZM55.4824 90.328L56.8424 86.616H57.6184L55.8984 91H55.0504L53.3304 86.616H54.1144L55.4824 90.328ZM62.3348 88.64C62.3348 88.7787 62.3268 88.9253 62.3108 89.08H58.8068C58.8334 89.512 58.9801 89.8507 59.2468 90.096C59.5188 90.336 59.8468 90.456 60.2308 90.456C60.5454 90.456 60.8068 90.384 61.0148 90.24C61.2281 90.0907 61.3774 89.8933 61.4628 89.648H62.2468C62.1294 90.0693 61.8948 90.4133 61.5428 90.68C61.1908 90.9413 60.7534 91.072 60.2308 91.072C59.8148 91.072 59.4414 90.9787 59.1108 90.792C58.7854 90.6053 58.5294 90.3413 58.3428 90C58.1561 89.6533 58.0628 89.2533 58.0628 88.8C58.0628 88.3467 58.1534 87.9493 58.3348 87.608C58.5161 87.2667 58.7694 87.0053 59.0948 86.824C59.4254 86.6373 59.8041 86.544 60.2308 86.544C60.6468 86.544 61.0148 86.6347 61.3348 86.816C61.6548 86.9973 61.9001 87.248 62.0708 87.568C62.2468 87.8827 62.3348 88.24 62.3348 88.64ZM61.5828 88.488C61.5828 88.2107 61.5214 87.9733 61.3988 87.776C61.2761 87.5733 61.1081 87.4213 60.8948 87.32C60.6868 87.2133 60.4548 87.16 60.1988 87.16C59.8308 87.16 59.5161 87.2773 59.2548 87.512C58.9988 87.7467 58.8521 88.072 58.8148 88.488H61.5828ZM63.0237 88.792C63.0237 88.344 63.1144 87.952 63.2957 87.616C63.477 87.2747 63.725 87.0107 64.0397 86.824C64.3597 86.6373 64.717 86.544 65.1117 86.544C65.453 86.544 65.7704 86.624 66.0637 86.784C66.357 86.9387 66.581 87.144 66.7357 87.4V85.08H67.4717V91H66.7357V90.176C66.5917 90.4373 66.3784 90.6533 66.0957 90.824C65.813 90.9893 65.4824 91.072 65.1037 91.072C64.7144 91.072 64.3597 90.976 64.0397 90.784C63.725 90.592 63.477 90.3227 63.2957 89.976C63.1144 89.6293 63.0237 89.2347 63.0237 88.792ZM66.7357 88.8C66.7357 88.4693 66.669 88.1813 66.5357 87.936C66.4024 87.6907 66.221 87.504 65.9917 87.376C65.7677 87.2427 65.5197 87.176 65.2477 87.176C64.9757 87.176 64.7277 87.24 64.5037 87.368C64.2797 87.496 64.101 87.6827 63.9677 87.928C63.8344 88.1733 63.7677 88.4613 63.7677 88.792C63.7677 89.128 63.8344 89.4213 63.9677 89.672C64.101 89.9173 64.2797 90.1067 64.5037 90.24C64.7277 90.368 64.9757 90.432 65.2477 90.432C65.5197 90.432 65.7677 90.368 65.9917 90.24C66.221 90.1067 66.4024 89.9173 66.5357 89.672C66.669 89.4213 66.7357 89.1307 66.7357 88.8Z" fill="white"/>
<path d="M113.188 78.04C113.033 77.7147 112.809 77.464 112.516 77.288C112.222 77.1067 111.881 77.016 111.492 77.016C111.102 77.016 110.75 77.1067 110.436 77.288C110.126 77.464 109.881 77.72 109.7 78.056C109.524 78.3867 109.436 78.7707 109.436 79.208C109.436 79.6453 109.524 80.0293 109.7 80.36C109.881 80.6907 110.126 80.9467 110.436 81.128C110.75 81.304 111.102 81.392 111.492 81.392C112.036 81.392 112.484 81.2293 112.836 80.904C113.188 80.5787 113.393 80.1387 113.452 79.584H111.228V78.992H114.228V79.552C114.185 80.0107 114.041 80.432 113.796 80.816C113.55 81.1947 113.228 81.496 112.828 81.72C112.428 81.9387 111.982 82.048 111.492 82.048C110.974 82.048 110.502 81.928 110.076 81.688C109.649 81.4427 109.31 81.104 109.06 80.672C108.814 80.24 108.692 79.752 108.692 79.208C108.692 78.664 108.814 78.176 109.06 77.744C109.31 77.3067 109.649 76.968 110.076 76.728C110.502 76.4827 110.974 76.36 111.492 76.36C112.084 76.36 112.606 76.5067 113.06 76.8C113.518 77.0933 113.852 77.5067 114.06 78.04H113.188ZM115.918 76.08V82H115.19V76.08H115.918ZM121.047 77.616V82H120.319V81.352C120.18 81.576 119.986 81.752 119.735 81.88C119.49 82.0027 119.218 82.064 118.919 82.064C118.578 82.064 118.271 81.9947 117.999 81.856C117.727 81.712 117.511 81.4987 117.351 81.216C117.196 80.9333 117.119 80.5893 117.119 80.184V77.616H117.839V80.088C117.839 80.52 117.948 80.8533 118.167 81.088C118.386 81.3173 118.684 81.432 119.063 81.432C119.452 81.432 119.759 81.312 119.983 81.072C120.207 80.832 120.319 80.4827 120.319 80.024V77.616H121.047ZM123.164 78.216V80.8C123.164 81.0133 123.209 81.1653 123.3 81.256C123.391 81.3413 123.548 81.384 123.772 81.384H124.308V82H123.652C123.247 82 122.943 81.9067 122.74 81.72C122.537 81.5333 122.436 81.2267 122.436 80.8V78.216H121.868V77.616H122.436V76.512H123.164V77.616H124.308V78.216H123.164ZM129.19 79.64C129.19 79.7787 129.182 79.9253 129.166 80.08H125.662C125.689 80.512 125.836 80.8507 126.102 81.096C126.374 81.336 126.702 81.456 127.086 81.456C127.401 81.456 127.662 81.384 127.87 81.24C128.084 81.0907 128.233 80.8933 128.318 80.648H129.102C128.985 81.0693 128.75 81.4133 128.398 81.68C128.046 81.9413 127.609 82.072 127.086 82.072C126.67 82.072 126.297 81.9787 125.966 81.792C125.641 81.6053 125.385 81.3413 125.198 81C125.012 80.6533 124.918 80.2533 124.918 79.8C124.918 79.3467 125.009 78.9493 125.19 78.608C125.372 78.2667 125.625 78.0053 125.95 77.824C126.281 77.6373 126.66 77.544 127.086 77.544C127.502 77.544 127.87 77.6347 128.19 77.816C128.51 77.9973 128.756 78.248 128.926 78.568C129.102 78.8827 129.19 79.24 129.19 79.64ZM128.438 79.488C128.438 79.2107 128.377 78.9733 128.254 78.776C128.132 78.5733 127.964 78.4213 127.75 78.32C127.542 78.2133 127.31 78.16 127.054 78.16C126.686 78.16 126.372 78.2773 126.11 78.512C125.854 78.7467 125.708 79.072 125.67 79.488H128.438ZM132.287 77.536C132.82 77.536 133.252 77.6987 133.583 78.024C133.914 78.344 134.079 78.808 134.079 79.416V82H133.359V79.52C133.359 79.0827 133.25 78.7493 133.031 78.52C132.812 78.2853 132.514 78.168 132.135 78.168C131.751 78.168 131.444 78.288 131.215 78.528C130.991 78.768 130.879 79.1173 130.879 79.576V82H130.151V77.616H130.879V78.24C131.023 78.016 131.218 77.8427 131.463 77.72C131.714 77.5973 131.988 77.536 132.287 77.536ZM116.13 87.216H115.21V91H114.482V87.216H113.914V86.616H114.482V86.304C114.482 85.8133 114.608 85.456 114.858 85.232C115.114 85.0027 115.522 84.888 116.082 84.888V85.496C115.762 85.496 115.536 85.56 115.402 85.688C115.274 85.8107 115.21 86.016 115.21 86.304V86.616H116.13V87.216ZM117.707 87.328C117.835 87.0773 118.017 86.8827 118.251 86.744C118.491 86.6053 118.782 86.536 119.123 86.536V87.288H118.931C118.115 87.288 117.707 87.7307 117.707 88.616V91H116.979V86.616H117.707V87.328ZM123.964 88.64C123.964 88.7787 123.956 88.9253 123.94 89.08H120.436C120.462 89.512 120.609 89.8507 120.876 90.096C121.148 90.336 121.476 90.456 121.86 90.456C122.174 90.456 122.436 90.384 122.644 90.24C122.857 90.0907 123.006 89.8933 123.092 89.648H123.876C123.758 90.0693 123.524 90.4133 123.172 90.68C122.82 90.9413 122.382 91.072 121.86 91.072C121.444 91.072 121.07 90.9787 120.74 90.792C120.414 90.6053 120.158 90.3413 119.972 90C119.785 89.6533 119.692 89.2533 119.692 88.8C119.692 88.3467 119.782 87.9493 119.964 87.608C120.145 87.2667 120.398 87.0053 120.724 86.824C121.054 86.6373 121.433 86.544 121.86 86.544C122.276 86.544 122.644 86.6347 122.964 86.816C123.284 86.9973 123.529 87.248 123.7 87.568C123.876 87.8827 123.964 88.24 123.964 88.64ZM123.212 88.488C123.212 88.2107 123.15 87.9733 123.028 87.776C122.905 87.5733 122.737 87.4213 122.524 87.32C122.316 87.2133 122.084 87.16 121.828 87.16C121.46 87.16 121.145 87.2773 120.884 87.512C120.628 87.7467 120.481 88.072 120.444 88.488H123.212ZM128.925 88.64C128.925 88.7787 128.917 88.9253 128.901 89.08H125.397C125.423 89.512 125.57 89.8507 125.837 90.096C126.109 90.336 126.437 90.456 126.821 90.456C127.135 90.456 127.397 90.384 127.605 90.24C127.818 90.0907 127.967 89.8933 128.053 89.648H128.837C128.719 90.0693 128.485 90.4133 128.133 90.68C127.781 90.9413 127.343 91.072 126.821 91.072C126.405 91.072 126.031 90.9787 125.701 90.792C125.375 90.6053 125.119 90.3413 124.933 90C124.746 89.6533 124.653 89.2533 124.653 88.8C124.653 88.3467 124.743 87.9493 124.925 87.608C125.106 87.2667 125.359 87.0053 125.685 86.824C126.015 86.6373 126.394 86.544 126.821 86.544C127.237 86.544 127.605 86.6347 127.925 86.816C128.245 86.9973 128.49 87.248 128.661 87.568C128.837 87.8827 128.925 88.24 128.925 88.64ZM128.173 88.488C128.173 88.2107 128.111 87.9733 127.989 87.776C127.866 87.5733 127.698 87.4213 127.485 87.32C127.277 87.2133 127.045 87.16 126.789 87.16C126.421 87.16 126.106 87.2773 125.845 87.512C125.589 87.7467 125.442 88.072 125.405 88.488H128.173Z" fill="white"/>
<path d="M240.661 82.056C240.293 82.056 239.963 81.992 239.669 81.864C239.381 81.7307 239.155 81.5493 238.989 81.32C238.824 81.0853 238.739 80.816 238.733 80.512H239.509C239.536 80.7733 239.643 80.9947 239.829 81.176C240.021 81.352 240.299 81.44 240.661 81.44C241.008 81.44 241.28 81.3547 241.477 81.184C241.68 81.008 241.781 80.784 241.781 80.512C241.781 80.2987 241.723 80.1253 241.605 79.992C241.488 79.8587 241.341 79.7573 241.165 79.688C240.989 79.6187 240.752 79.544 240.453 79.464C240.085 79.368 239.789 79.272 239.565 79.176C239.347 79.08 239.157 78.9307 238.997 78.728C238.843 78.52 238.765 78.2427 238.765 77.896C238.765 77.592 238.843 77.3227 238.997 77.088C239.152 76.8533 239.368 76.672 239.645 76.544C239.928 76.416 240.251 76.352 240.613 76.352C241.136 76.352 241.563 76.4827 241.893 76.744C242.229 77.0053 242.419 77.352 242.461 77.784H241.661C241.635 77.5707 241.523 77.384 241.325 77.224C241.128 77.0587 240.867 76.976 240.541 76.976C240.237 76.976 239.989 77.056 239.797 77.216C239.605 77.3707 239.509 77.5893 239.509 77.872C239.509 78.0747 239.565 78.24 239.677 78.368C239.795 78.496 239.936 78.5947 240.101 78.664C240.272 78.728 240.509 78.8027 240.813 78.888C241.181 78.9893 241.477 79.0907 241.701 79.192C241.925 79.288 242.117 79.44 242.277 79.648C242.437 79.8507 242.517 80.128 242.517 80.48C242.517 80.752 242.445 81.008 242.301 81.248C242.157 81.488 241.944 81.6827 241.661 81.832C241.379 81.9813 241.045 82.056 240.661 82.056ZM247.589 79.64C247.589 79.7787 247.581 79.9253 247.565 80.08H244.061C244.087 80.512 244.234 80.8507 244.501 81.096C244.773 81.336 245.101 81.456 245.485 81.456C245.799 81.456 246.061 81.384 246.269 81.24C246.482 81.0907 246.631 80.8933 246.717 80.648H247.501C247.383 81.0693 247.149 81.4133 246.797 81.68C246.445 81.9413 246.007 82.072 245.485 82.072C245.069 82.072 244.695 81.9787 244.365 81.792C244.039 81.6053 243.783 81.3413 243.597 81C243.41 80.6533 243.317 80.2533 243.317 79.8C243.317 79.3467 243.407 78.9493 243.589 78.608C243.77 78.2667 244.023 78.0053 244.349 77.824C244.679 77.6373 245.058 77.544 245.485 77.544C245.901 77.544 246.269 77.6347 246.589 77.816C246.909 77.9973 247.154 78.248 247.325 78.568C247.501 78.8827 247.589 79.24 247.589 79.64ZM246.837 79.488C246.837 79.2107 246.775 78.9733 246.653 78.776C246.53 78.5733 246.362 78.4213 246.149 78.32C245.941 78.2133 245.709 78.16 245.453 78.16C245.085 78.16 244.77 78.2773 244.509 78.512C244.253 78.7467 244.106 79.072 244.069 79.488H246.837ZM250.102 82.072C249.766 82.072 249.464 82.016 249.198 81.904C248.931 81.7867 248.72 81.6267 248.566 81.424C248.411 81.216 248.326 80.9787 248.31 80.712H249.062C249.083 80.9307 249.184 81.1093 249.366 81.248C249.552 81.3867 249.795 81.456 250.094 81.456C250.371 81.456 250.59 81.3947 250.75 81.272C250.91 81.1493 250.99 80.9947 250.99 80.808C250.99 80.616 250.904 80.4747 250.734 80.384C250.563 80.288 250.299 80.1947 249.942 80.104C249.616 80.0187 249.35 79.9333 249.142 79.848C248.939 79.7573 248.763 79.6267 248.614 79.456C248.47 79.28 248.398 79.0507 248.398 78.768C248.398 78.544 248.464 78.3387 248.598 78.152C248.731 77.9653 248.92 77.8187 249.166 77.712C249.411 77.6 249.691 77.544 250.006 77.544C250.491 77.544 250.883 77.6667 251.182 77.912C251.48 78.1573 251.64 78.4933 251.662 78.92H250.934C250.918 78.6907 250.824 78.5067 250.654 78.368C250.488 78.2293 250.264 78.16 249.982 78.16C249.72 78.16 249.512 78.216 249.358 78.328C249.203 78.44 249.126 78.5867 249.126 78.768C249.126 78.912 249.171 79.032 249.262 79.128C249.358 79.2187 249.475 79.2933 249.614 79.352C249.758 79.4053 249.955 79.4667 250.206 79.536C250.52 79.6213 250.776 79.7067 250.974 79.792C251.171 79.872 251.339 79.9947 251.478 80.16C251.622 80.3253 251.696 80.5413 251.702 80.808C251.702 81.048 251.635 81.264 251.502 81.456C251.368 81.648 251.179 81.8 250.934 81.912C250.694 82.0187 250.416 82.072 250.102 82.072ZM252.457 79.792C252.457 79.344 252.548 78.952 252.729 78.616C252.911 78.2747 253.159 78.0107 253.473 77.824C253.793 77.6373 254.148 77.544 254.537 77.544C254.921 77.544 255.255 77.6267 255.537 77.792C255.82 77.9573 256.031 78.1653 256.169 78.416V77.616H256.905V82H256.169V81.184C256.025 81.44 255.809 81.6533 255.521 81.824C255.239 81.9893 254.908 82.072 254.529 82.072C254.14 82.072 253.788 81.976 253.473 81.784C253.159 81.592 252.911 81.3227 252.729 80.976C252.548 80.6293 252.457 80.2347 252.457 79.792ZM256.169 79.8C256.169 79.4693 256.103 79.1813 255.969 78.936C255.836 78.6907 255.655 78.504 255.425 78.376C255.201 78.2427 254.953 78.176 254.681 78.176C254.409 78.176 254.161 78.24 253.937 78.368C253.713 78.496 253.535 78.6827 253.401 78.928C253.268 79.1733 253.201 79.4613 253.201 79.792C253.201 80.128 253.268 80.4213 253.401 80.672C253.535 80.9173 253.713 81.1067 253.937 81.24C254.161 81.368 254.409 81.432 254.681 81.432C254.953 81.432 255.201 81.368 255.425 81.24C255.655 81.1067 255.836 80.9173 255.969 80.672C256.103 80.4213 256.169 80.1307 256.169 79.8ZM263.408 77.536C263.749 77.536 264.053 77.608 264.32 77.752C264.586 77.8907 264.797 78.1013 264.952 78.384C265.106 78.6667 265.184 79.0107 265.184 79.416V82H264.464V79.52C264.464 79.0827 264.354 78.7493 264.136 78.52C263.922 78.2853 263.632 78.168 263.264 78.168C262.885 78.168 262.584 78.2907 262.36 78.536C262.136 78.776 262.024 79.1253 262.024 79.584V82H261.304V79.52C261.304 79.0827 261.194 78.7493 260.976 78.52C260.762 78.2853 260.472 78.168 260.104 78.168C259.725 78.168 259.424 78.2907 259.2 78.536C258.976 78.776 258.864 79.1253 258.864 79.584V82H258.136V77.616H258.864V78.248C259.008 78.0187 259.2 77.8427 259.44 77.72C259.685 77.5973 259.954 77.536 260.248 77.536C260.616 77.536 260.941 77.6187 261.224 77.784C261.506 77.9493 261.717 78.192 261.856 78.512C261.978 78.2027 262.181 77.9627 262.464 77.792C262.746 77.6213 263.061 77.536 263.408 77.536ZM270.378 79.64C270.378 79.7787 270.37 79.9253 270.354 80.08H266.85C266.876 80.512 267.023 80.8507 267.29 81.096C267.562 81.336 267.89 81.456 268.274 81.456C268.588 81.456 268.85 81.384 269.058 81.24C269.271 81.0907 269.42 80.8933 269.506 80.648H270.29C270.172 81.0693 269.938 81.4133 269.586 81.68C269.234 81.9413 268.796 82.072 268.274 82.072C267.858 82.072 267.484 81.9787 267.154 81.792C266.828 81.6053 266.572 81.3413 266.386 81C266.199 80.6533 266.106 80.2533 266.106 79.8C266.106 79.3467 266.196 78.9493 266.378 78.608C266.559 78.2667 266.812 78.0053 267.138 77.824C267.468 77.6373 267.847 77.544 268.274 77.544C268.69 77.544 269.058 77.6347 269.378 77.816C269.698 77.9973 269.943 78.248 270.114 78.568C270.29 78.8827 270.378 79.24 270.378 79.64ZM269.626 79.488C269.626 79.2107 269.564 78.9733 269.442 78.776C269.319 78.5733 269.151 78.4213 268.938 78.32C268.73 78.2133 268.498 78.16 268.242 78.16C267.874 78.16 267.559 78.2773 267.298 78.512C267.042 78.7467 266.895 79.072 266.858 79.488H269.626ZM249.13 87.216H248.21V91H247.482V87.216H246.914V86.616H247.482V86.304C247.482 85.8133 247.608 85.456 247.858 85.232C248.114 85.0027 248.522 84.888 249.082 84.888V85.496C248.762 85.496 248.536 85.56 248.402 85.688C248.274 85.8107 248.21 86.016 248.21 86.304V86.616H249.13V87.216ZM250.707 87.328C250.835 87.0773 251.017 86.8827 251.251 86.744C251.491 86.6053 251.782 86.536 252.123 86.536V87.288H251.931C251.115 87.288 250.707 87.7307 250.707 88.616V91H249.979V86.616H250.707V87.328ZM256.964 88.64C256.964 88.7787 256.956 88.9253 256.94 89.08H253.436C253.462 89.512 253.609 89.8507 253.876 90.096C254.148 90.336 254.476 90.456 254.86 90.456C255.174 90.456 255.436 90.384 255.644 90.24C255.857 90.0907 256.006 89.8933 256.092 89.648H256.876C256.758 90.0693 256.524 90.4133 256.172 90.68C255.82 90.9413 255.382 91.072 254.86 91.072C254.444 91.072 254.07 90.9787 253.74 90.792C253.414 90.6053 253.158 90.3413 252.972 90C252.785 89.6533 252.692 89.2533 252.692 88.8C252.692 88.3467 252.782 87.9493 252.964 87.608C253.145 87.2667 253.398 87.0053 253.724 86.824C254.054 86.6373 254.433 86.544 254.86 86.544C255.276 86.544 255.644 86.6347 255.964 86.816C256.284 86.9973 256.529 87.248 256.7 87.568C256.876 87.8827 256.964 88.24 256.964 88.64ZM256.212 88.488C256.212 88.2107 256.15 87.9733 256.028 87.776C255.905 87.5733 255.737 87.4213 255.524 87.32C255.316 87.2133 255.084 87.16 254.828 87.16C254.46 87.16 254.145 87.2773 253.884 87.512C253.628 87.7467 253.481 88.072 253.444 88.488H256.212ZM261.925 88.64C261.925 88.7787 261.917 88.9253 261.901 89.08H258.397C258.423 89.512 258.57 89.8507 258.837 90.096C259.109 90.336 259.437 90.456 259.821 90.456C260.135 90.456 260.397 90.384 260.605 90.24C260.818 90.0907 260.967 89.8933 261.053 89.648H261.837C261.719 90.0693 261.485 90.4133 261.133 90.68C260.781 90.9413 260.343 91.072 259.821 91.072C259.405 91.072 259.031 90.9787 258.701 90.792C258.375 90.6053 258.119 90.3413 257.933 90C257.746 89.6533 257.653 89.2533 257.653 88.8C257.653 88.3467 257.743 87.9493 257.925 87.608C258.106 87.2667 258.359 87.0053 258.685 86.824C259.015 86.6373 259.394 86.544 259.821 86.544C260.237 86.544 260.605 86.6347 260.925 86.816C261.245 86.9973 261.49 87.248 261.661 87.568C261.837 87.8827 261.925 88.24 261.925 88.64ZM261.173 88.488C261.173 88.2107 261.111 87.9733 260.989 87.776C260.866 87.5733 260.698 87.4213 260.485 87.32C260.277 87.2133 260.045 87.16 259.789 87.16C259.421 87.16 259.106 87.2773 258.845 87.512C258.589 87.7467 258.442 88.072 258.405 88.488H261.173Z" fill="white"/>
<path d="M321.629 82H320.901L317.973 77.56V82H317.245V76.416H317.973L320.901 80.848V76.416H321.629V82ZM324.782 82.072C324.371 82.072 323.998 81.9787 323.662 81.792C323.331 81.6053 323.07 81.3413 322.878 81C322.691 80.6533 322.598 80.2533 322.598 79.8C322.598 79.352 322.694 78.9573 322.886 78.616C323.083 78.2693 323.35 78.0053 323.686 77.824C324.022 77.6373 324.398 77.544 324.814 77.544C325.23 77.544 325.606 77.6373 325.942 77.824C326.278 78.0053 326.542 78.2667 326.734 78.608C326.931 78.9493 327.03 79.3467 327.03 79.8C327.03 80.2533 326.929 80.6533 326.726 81C326.529 81.3413 326.259 81.6053 325.918 81.792C325.577 81.9787 325.198 82.072 324.782 82.072ZM324.782 81.432C325.043 81.432 325.289 81.3707 325.518 81.248C325.747 81.1253 325.931 80.9413 326.07 80.696C326.214 80.4507 326.286 80.152 326.286 79.8C326.286 79.448 326.217 79.1493 326.078 78.904C325.939 78.6587 325.758 78.4773 325.534 78.36C325.31 78.2373 325.067 78.176 324.806 78.176C324.539 78.176 324.294 78.2373 324.07 78.36C323.851 78.4773 323.675 78.6587 323.542 78.904C323.409 79.1493 323.342 79.448 323.342 79.8C323.342 80.1573 323.406 80.4587 323.534 80.704C323.667 80.9493 323.843 81.1333 324.062 81.256C324.281 81.3733 324.521 81.432 324.782 81.432ZM299.793 87.056C299.793 87.52 299.633 87.9067 299.313 88.216C298.999 88.52 298.516 88.672 297.865 88.672H296.793V91H296.065V85.424H297.865C298.495 85.424 298.972 85.576 299.297 85.88C299.628 86.184 299.793 86.576 299.793 87.056ZM297.865 88.072C298.271 88.072 298.569 87.984 298.761 87.808C298.953 87.632 299.049 87.3813 299.049 87.056C299.049 86.368 298.655 86.024 297.865 86.024H296.793V88.072H297.865ZM301.426 87.328C301.554 87.0773 301.735 86.8827 301.97 86.744C302.21 86.6053 302.501 86.536 302.842 86.536V87.288H302.65C301.834 87.288 301.426 87.7307 301.426 88.616V91H300.698V86.616H301.426V87.328ZM307.682 88.64C307.682 88.7787 307.674 88.9253 307.658 89.08H304.154C304.181 89.512 304.328 89.8507 304.594 90.096C304.866 90.336 305.194 90.456 305.578 90.456C305.893 90.456 306.154 90.384 306.362 90.24C306.576 90.0907 306.725 89.8933 306.81 89.648H307.594C307.477 90.0693 307.242 90.4133 306.89 90.68C306.538 90.9413 306.101 91.072 305.578 91.072C305.162 91.072 304.789 90.9787 304.458 90.792C304.133 90.6053 303.877 90.3413 303.69 90C303.504 89.6533 303.41 89.2533 303.41 88.8C303.41 88.3467 303.501 87.9493 303.682 87.608C303.864 87.2667 304.117 87.0053 304.442 86.824C304.773 86.6373 305.152 86.544 305.578 86.544C305.994 86.544 306.362 86.6347 306.682 86.816C307.002 86.9973 307.248 87.248 307.418 87.568C307.594 87.8827 307.682 88.24 307.682 88.64ZM306.93 88.488C306.93 88.2107 306.869 87.9733 306.746 87.776C306.624 87.5733 306.456 87.4213 306.242 87.32C306.034 87.2133 305.802 87.16 305.546 87.16C305.178 87.16 304.864 87.2773 304.602 87.512C304.346 87.7467 304.2 88.072 304.162 88.488H306.93ZM310.195 91.072C309.859 91.072 309.558 91.016 309.291 90.904C309.025 90.7867 308.814 90.6267 308.659 90.424C308.505 90.216 308.419 89.9787 308.403 89.712H309.155C309.177 89.9307 309.278 90.1093 309.459 90.248C309.646 90.3867 309.889 90.456 310.187 90.456C310.465 90.456 310.683 90.3947 310.843 90.272C311.003 90.1493 311.083 89.9947 311.083 89.808C311.083 89.616 310.998 89.4747 310.827 89.384C310.657 89.288 310.393 89.1947 310.035 89.104C309.71 89.0187 309.443 88.9333 309.235 88.848C309.033 88.7573 308.857 88.6267 308.707 88.456C308.563 88.28 308.491 88.0507 308.491 87.768C308.491 87.544 308.558 87.3387 308.691 87.152C308.825 86.9653 309.014 86.8187 309.259 86.712C309.505 86.6 309.785 86.544 310.099 86.544C310.585 86.544 310.977 86.6667 311.275 86.912C311.574 87.1573 311.734 87.4933 311.755 87.92H311.027C311.011 87.6907 310.918 87.5067 310.747 87.368C310.582 87.2293 310.358 87.16 310.075 87.16C309.814 87.16 309.606 87.216 309.451 87.328C309.297 87.44 309.219 87.5867 309.219 87.768C309.219 87.912 309.265 88.032 309.355 88.128C309.451 88.2187 309.569 88.2933 309.707 88.352C309.851 88.4053 310.049 88.4667 310.299 88.536C310.614 88.6213 310.87 88.7067 311.067 88.792C311.265 88.872 311.433 88.9947 311.571 89.16C311.715 89.3253 311.79 89.5413 311.795 89.808C311.795 90.048 311.729 90.264 311.595 90.456C311.462 90.648 311.273 90.8 311.027 90.912C310.787 91.0187 310.51 91.072 310.195 91.072ZM316.823 88.64C316.823 88.7787 316.815 88.9253 316.799 89.08H313.295C313.322 89.512 313.468 89.8507 313.735 90.096C314.007 90.336 314.335 90.456 314.719 90.456C315.034 90.456 315.295 90.384 315.503 90.24C315.716 90.0907 315.866 89.8933 315.951 89.648H316.735C316.618 90.0693 316.383 90.4133 316.031 90.68C315.679 90.9413 315.242 91.072 314.719 91.072C314.303 91.072 313.93 90.9787 313.599 90.792C313.274 90.6053 313.018 90.3413 312.831 90C312.644 89.6533 312.551 89.2533 312.551 88.8C312.551 88.3467 312.642 87.9493 312.823 87.608C313.004 87.2667 313.258 87.0053 313.583 86.824C313.914 86.6373 314.292 86.544 314.719 86.544C315.135 86.544 315.503 86.6347 315.823 86.816C316.143 86.9973 316.388 87.248 316.559 87.568C316.735 87.8827 316.823 88.24 316.823 88.64ZM316.071 88.488C316.071 88.2107 316.01 87.9733 315.887 87.776C315.764 87.5733 315.596 87.4213 315.383 87.32C315.175 87.2133 314.943 87.16 314.687 87.16C314.319 87.16 314.004 87.2773 313.743 87.512C313.487 87.7467 313.34 88.072 313.303 88.488H316.071ZM318.512 87.328C318.64 87.0773 318.821 86.8827 319.056 86.744C319.296 86.6053 319.587 86.536 319.928 86.536V87.288H319.736C318.92 87.288 318.512 87.7307 318.512 88.616V91H317.784V86.616H318.512V87.328ZM322.4 90.328L323.76 86.616H324.536L322.816 91H321.968L320.248 86.616H321.032L322.4 90.328ZM324.981 88.792C324.981 88.344 325.071 87.952 325.253 87.616C325.434 87.2747 325.682 87.0107 325.997 86.824C326.317 86.6373 326.671 86.544 327.061 86.544C327.445 86.544 327.778 86.6267 328.061 86.792C328.343 86.9573 328.554 87.1653 328.693 87.416V86.616H329.429V91H328.693V90.184C328.549 90.44 328.333 90.6533 328.045 90.824C327.762 90.9893 327.431 91.072 327.053 91.072C326.663 91.072 326.311 90.976 325.997 90.784C325.682 90.592 325.434 90.3227 325.253 89.976C325.071 89.6293 324.981 89.2347 324.981 88.792ZM328.693 88.8C328.693 88.4693 328.626 88.1813 328.493 87.936C328.359 87.6907 328.178 87.504 327.949 87.376C327.725 87.2427 327.477 87.176 327.205 87.176C326.933 87.176 326.685 87.24 326.461 87.368C326.237 87.496 326.058 87.6827 325.925 87.928C325.791 88.1733 325.725 88.4613 325.725 88.792C325.725 89.128 325.791 89.4213 325.925 89.672C326.058 89.9173 326.237 90.1067 326.461 90.24C326.685 90.368 326.933 90.432 327.205 90.432C327.477 90.432 327.725 90.368 327.949 90.24C328.178 90.1067 328.359 89.9173 328.493 89.672C328.626 89.4213 328.693 89.1307 328.693 88.8ZM331.547 87.216V89.8C331.547 90.0133 331.592 90.1653 331.683 90.256C331.774 90.3413 331.931 90.384 332.155 90.384H332.691V91H332.035C331.63 91 331.326 90.9067 331.123 90.72C330.92 90.5333 330.819 90.2267 330.819 89.8V87.216H330.251V86.616H330.819V85.512H331.547V86.616H332.691V87.216H331.547ZM333.949 85.904C333.81 85.904 333.693 85.856 333.597 85.76C333.501 85.664 333.453 85.5467 333.453 85.408C333.453 85.2693 333.501 85.152 333.597 85.056C333.693 84.96 333.81 84.912 333.949 84.912C334.082 84.912 334.194 84.96 334.285 85.056C334.381 85.152 334.429 85.2693 334.429 85.408C334.429 85.5467 334.381 85.664 334.285 85.76C334.194 85.856 334.082 85.904 333.949 85.904ZM334.301 86.616V91H333.573V86.616H334.301ZM337.174 90.328L338.534 86.616H339.31L337.59 91H336.742L335.022 86.616H335.806L337.174 90.328ZM344.026 88.64C344.026 88.7787 344.018 88.9253 344.002 89.08H340.498C340.525 89.512 340.671 89.8507 340.938 90.096C341.21 90.336 341.538 90.456 341.922 90.456C342.237 90.456 342.498 90.384 342.706 90.24C342.919 90.0907 343.069 89.8933 343.154 89.648H343.938C343.821 90.0693 343.586 90.4133 343.234 90.68C342.882 90.9413 342.445 91.072 341.922 91.072C341.506 91.072 341.133 90.9787 340.802 90.792C340.477 90.6053 340.221 90.3413 340.034 90C339.847 89.6533 339.754 89.2533 339.754 88.8C339.754 88.3467 339.845 87.9493 340.026 87.608C340.207 87.2667 340.461 87.0053 340.786 86.824C341.117 86.6373 341.495 86.544 341.922 86.544C342.338 86.544 342.706 86.6347 343.026 86.816C343.346 86.9973 343.591 87.248 343.762 87.568C343.938 87.8827 344.026 88.24 344.026 88.64ZM343.274 88.488C343.274 88.2107 343.213 87.9733 343.09 87.776C342.967 87.5733 342.799 87.4213 342.586 87.32C342.378 87.2133 342.146 87.16 341.89 87.16C341.522 87.16 341.207 87.2773 340.946 87.512C340.69 87.7467 340.543 88.072 340.506 88.488H343.274ZM346.539 91.072C346.203 91.072 345.902 91.016 345.635 90.904C345.368 90.7867 345.158 90.6267 345.003 90.424C344.848 90.216 344.763 89.9787 344.747 89.712H345.499C345.52 89.9307 345.622 90.1093 345.803 90.248C345.99 90.3867 346.232 90.456 346.531 90.456C346.808 90.456 347.027 90.3947 347.187 90.272C347.347 90.1493 347.427 89.9947 347.427 89.808C347.427 89.616 347.342 89.4747 347.171 89.384C347 89.288 346.736 89.1947 346.379 89.104C346.054 89.0187 345.787 88.9333 345.579 88.848C345.376 88.7573 345.2 88.6267 345.051 88.456C344.907 88.28 344.835 88.0507 344.835 87.768C344.835 87.544 344.902 87.3387 345.035 87.152C345.168 86.9653 345.358 86.8187 345.603 86.712C345.848 86.6 346.128 86.544 346.443 86.544C346.928 86.544 347.32 86.6667 347.619 86.912C347.918 87.1573 348.078 87.4933 348.099 87.92H347.371C347.355 87.6907 347.262 87.5067 347.091 87.368C346.926 87.2293 346.702 87.16 346.419 87.16C346.158 87.16 345.95 87.216 345.795 87.328C345.64 87.44 345.563 87.5867 345.563 87.768C345.563 87.912 345.608 88.032 345.699 88.128C345.795 88.2187 345.912 88.2933 346.051 88.352C346.195 88.4053 346.392 88.4667 346.643 88.536C346.958 88.6213 347.214 88.7067 347.411 88.792C347.608 88.872 347.776 88.9947 347.915 89.16C348.059 89.3253 348.134 89.5413 348.139 89.808C348.139 90.048 348.072 90.264 347.939 90.456C347.806 90.648 347.616 90.8 347.371 90.912C347.131 91.0187 346.854 91.072 346.539 91.072Z" fill="white"/>
<path d="M245.901 67.9009C242.345 66.9522 239.569 64.1756 238.62 60.6203C237.885 57.7845 237.5 54.8434 237.5 51.7606C237.5 48.6777 237.885 45.7367 238.62 42.9009C239.569 39.3455 242.345 36.569 245.901 35.6203C248.737 34.8852 251.678 34.5 254.76 34.5C257.843 34.5 260.784 34.8852 263.62 35.6203C267.175 36.569 269.952 39.3456 270.901 42.9009C271.636 45.7365 272.021 48.713 272.021 51.7606C272.021 54.8082 271.636 57.7847 270.901 60.6202C269.952 64.1756 267.175 66.9522 263.62 67.9009C260.785 68.6359 257.808 69.0211 254.76 69.0211C251.713 69.0211 248.736 68.6359 245.901 67.9009Z" stroke="white" stroke-opacity="0.5"/>
<path d="M246.351 47.1126L246.351 47.1126C246.896 46.8048 247.351 46.3506 247.665 45.8038C247.979 45.2561 248.147 44.6393 248.141 44.0131C248.136 43.4644 248.005 42.9252 247.76 42.4389C247.217 42.4724 246.683 42.6274 246.211 42.8985L246.21 42.8992L246.21 42.8992C245.665 43.2069 245.21 43.6611 244.89 44.2087C244.576 44.7562 244.409 45.3728 244.414 45.9988L246.351 47.1126ZM246.351 47.1126L246.349 47.1134C245.877 47.3846 245.343 47.5396 244.795 47.5731M246.351 47.1126L244.795 47.5731M244.795 47.5731C244.55 47.0868 244.419 46.5475 244.414 45.9989L244.795 47.5731ZM248.121 42.0201L248.063 41.9186L247.946 41.9191C246.551 41.9251 245.198 42.6525 244.447 43.945L244.447 43.945L244.446 43.946C243.701 45.2447 243.749 46.7779 244.44 47.9917L244.498 48.0933L244.615 48.0928C246.01 48.0868 247.363 47.3593 248.114 46.0668C248.866 44.7727 248.811 43.2332 248.121 42.0201Z" fill="white" stroke="white" stroke-width="0.4"/>
<path d="M253.345 47.113L253.345 47.113C253.891 46.8051 254.345 46.3509 254.659 45.8041C254.974 45.2563 255.141 44.6395 255.136 44.0132C255.131 43.4645 254.999 42.9252 254.755 42.4389C254.212 42.4724 253.677 42.6273 253.2 42.8987C252.653 43.2131 252.198 43.6623 251.885 44.2082C251.57 44.7559 251.403 45.3728 251.408 45.999L253.345 47.113ZM253.345 47.113L253.344 47.1138C252.872 47.3849 252.338 47.54 251.789 47.5735M253.345 47.113L251.789 47.5735M251.789 47.5735C251.545 47.0871 251.413 46.5478 251.408 45.9992L251.789 47.5735ZM255.115 42.0201L255.057 41.9186L254.941 41.9191C253.546 41.9251 252.193 42.6526 251.441 43.9452C250.689 45.2392 250.744 46.779 251.435 47.9868L251.493 48.088L251.609 48.0875C253.004 48.0815 254.357 47.354 255.109 46.0614C255.861 44.7672 255.806 43.2333 255.115 42.0201Z" fill="white" stroke="white" stroke-width="0.4"/>
<path d="M260.345 47.113L260.345 47.113C260.89 46.8051 261.345 46.3509 261.659 45.8041C261.973 45.2563 262.141 44.6395 262.135 44.0132C262.13 43.4645 261.999 42.9252 261.754 42.4389C261.211 42.4724 260.677 42.6273 260.199 42.8987C259.652 43.2131 259.198 43.6623 258.884 44.2082C258.57 44.7559 258.402 45.3728 258.408 45.999L260.345 47.113ZM260.345 47.113L260.343 47.1138C259.871 47.3849 259.337 47.54 258.789 47.5735M260.345 47.113L258.789 47.5735M258.789 47.5735C258.544 47.0871 258.413 46.5478 258.408 45.9992L258.789 47.5735ZM262.115 42.0201L262.057 41.9186L261.94 41.9191C260.545 41.9251 259.192 42.6526 258.441 43.9452L258.441 43.9452L258.44 43.9458C257.694 45.239 257.743 46.7784 258.434 47.9868L258.492 48.088L258.609 48.0875C260.003 48.0815 261.356 47.354 262.108 46.0614L262.108 46.0608C262.854 44.7674 262.806 43.2339 262.115 42.0201Z" fill="white" stroke="white" stroke-width="0.4"/>
<path d="M249.324 50.1607L249.324 50.161C249.87 50.4689 250.325 50.9231 250.639 51.4699C250.953 52.0177 251.12 52.6345 251.115 53.2608C251.11 53.8094 250.979 54.3488 250.734 54.8351C250.191 54.8016 249.656 54.6466 249.179 54.375L249.178 54.3747C248.632 54.0668 248.178 53.6126 247.864 53.0658C247.549 52.5181 247.382 51.9012 247.387 51.275C247.392 50.7314 247.524 50.1875 247.769 49.7006C248.312 49.7341 248.846 49.8892 249.324 50.1607ZM247.583 49.1808L247.466 49.1803L247.408 49.2818C246.717 50.4956 246.668 52.0291 247.414 53.3225C248.16 54.616 249.52 55.3432 250.914 55.3492L251.031 55.3497L251.089 55.2481C251.78 54.0344 251.828 52.5009 251.082 51.2075C250.336 49.914 248.977 49.1868 247.583 49.1808Z" fill="white" stroke="white" stroke-width="0.4"/>
<path d="M254.384 51.275C254.39 50.7314 254.521 50.1875 254.766 49.7006C255.309 49.7341 255.843 49.8892 256.321 50.1607L256.322 50.161C256.867 50.4689 257.322 50.9231 257.636 51.4699C257.95 52.0177 258.118 52.6345 258.112 53.2608C258.107 53.8094 257.976 54.3488 257.731 54.8351C257.188 54.8016 256.653 54.6466 256.176 54.375L256.175 54.3747C255.63 54.0668 255.175 53.6126 254.861 53.0658C254.546 52.5181 254.379 51.9012 254.384 51.275ZM254.58 49.1808L254.463 49.1803L254.405 49.2818C253.714 50.4956 253.665 52.0291 254.411 53.3225C255.157 54.616 256.517 55.3432 257.911 55.3492L258.028 55.3497L258.086 55.2481C258.777 54.0344 258.825 52.5009 258.079 51.2075C257.333 49.914 255.974 49.1868 254.58 49.1808Z" fill="white" stroke="white" stroke-width="0.4"/>
<path d="M263.319 50.1607L263.319 50.161C263.865 50.4689 264.319 50.9231 264.633 51.4699C264.948 52.0177 265.115 52.6345 265.11 53.2608C265.105 53.8094 264.973 54.3488 264.729 54.8351C264.185 54.8016 263.651 54.6466 263.173 54.375L263.173 54.3747C262.627 54.0668 262.173 53.6126 261.859 53.0658C261.544 52.5181 261.377 51.9012 261.382 51.275C261.387 50.7314 261.519 50.1875 261.763 49.7006C262.306 49.7341 262.841 49.8892 263.319 50.1607ZM261.577 49.1808L261.461 49.1803L261.403 49.2818C260.712 50.4956 260.663 52.0291 261.409 53.3225C262.155 54.616 263.514 55.3432 264.909 55.3492L265.025 55.3497L265.083 55.2481C265.774 54.0344 265.823 52.5009 265.077 51.2075L265.077 51.2069C264.325 49.9143 262.972 49.1868 261.577 49.1808Z" fill="white" stroke="white" stroke-width="0.4"/>
<path d="M246.351 61.6366L246.351 61.6366C246.896 61.3287 247.351 60.8746 247.665 60.3278C247.979 59.7801 248.147 59.1633 248.141 58.5371C248.136 57.9884 248.005 57.4491 247.76 56.9628C247.217 56.9964 246.683 57.1513 246.205 57.4227C245.658 57.737 245.204 58.1862 244.89 58.732C244.576 59.2797 244.409 59.8966 244.414 60.5228L246.351 61.6366ZM246.351 61.6366L246.349 61.6374C245.877 61.9085 245.343 62.0636 244.795 62.097M246.351 61.6366L244.795 62.097M244.795 62.097C244.55 61.6108 244.419 61.0715 244.414 60.5229L244.795 62.097ZM248.121 56.5441L248.063 56.4426L247.946 56.4431C246.551 56.4491 245.198 57.1765 244.447 58.469L244.447 58.469L244.446 58.47C243.701 59.7686 243.749 61.3019 244.44 62.5157L244.498 62.6173L244.615 62.6168C246.01 62.6107 247.363 61.8833 248.114 60.5908C248.866 59.2967 248.811 57.7572 248.121 56.5441Z" fill="white" stroke="white" stroke-width="0.4"/>
<path d="M253.344 61.6378L253.344 61.6377C253.891 61.3234 254.346 60.874 254.659 60.3281C254.974 59.7803 255.141 59.1634 255.136 58.5372C255.131 57.9885 254.999 57.4492 254.755 56.9629C254.212 56.9964 253.677 57.1513 253.2 57.4227C252.653 57.7371 252.198 58.1863 251.885 58.7322C251.57 59.2799 251.403 59.8968 251.408 60.523L253.344 61.6378ZM253.344 61.6378C252.872 61.9089 252.338 62.064 251.789 62.0975M253.344 61.6378L251.789 62.0975M251.789 62.0975C251.545 61.6111 251.413 61.0718 251.408 60.5231L251.789 62.0975ZM255.115 56.5441L255.057 56.4426L254.941 56.4431C253.546 56.4491 252.193 57.1766 251.441 58.4692C250.689 59.7632 250.744 61.303 251.435 62.5108L251.493 62.612L251.609 62.6115C253.004 62.6054 254.357 61.878 255.109 60.5854C255.861 59.2912 255.806 57.7573 255.115 56.5441Z" fill="white" stroke="white" stroke-width="0.4"/>
<path d="M258.789 62.0975C259.337 62.064 259.871 61.9089 260.343 61.6378L260.343 61.6377C260.891 61.3234 261.345 60.874 261.659 60.3281C261.973 59.7803 262.141 59.1634 262.135 58.5372C262.13 57.9885 261.999 57.4492 261.754 56.9629C261.211 56.9964 260.677 57.1513 260.199 57.4227C259.652 57.7371 259.198 58.1863 258.884 58.7322C258.57 59.2799 258.402 59.8968 258.408 60.523L258.789 62.0975ZM258.789 62.0975C258.544 61.6111 258.413 61.0718 258.408 60.5231L258.789 62.0975ZM262.115 56.5441L262.057 56.4426L261.94 56.4431C260.545 56.4491 259.192 57.1766 258.441 58.4692L258.441 58.4692L258.44 58.4698C257.694 59.763 257.743 61.3024 258.434 62.5108L258.492 62.612L258.609 62.6115C260.003 62.6054 261.356 61.878 262.108 60.5854L262.108 60.5848C262.854 59.2914 262.806 57.7578 262.115 56.5441Z" fill="white" stroke="white" stroke-width="0.4"/>
<path d="M312.901 67.9009C309.345 66.9522 306.569 64.1756 305.62 60.6203C304.885 57.7845 304.5 54.8434 304.5 51.7606C304.5 48.6777 304.885 45.7367 305.62 42.9009C306.569 39.3455 309.345 36.569 312.901 35.6203C315.737 34.8852 318.678 34.5 321.76 34.5C324.843 34.5 327.784 34.8852 330.62 35.6203C334.175 36.569 336.952 39.3456 337.901 42.9009C338.636 45.7365 339.021 48.713 339.021 51.7606C339.021 54.8082 338.636 57.7847 337.901 60.6202C336.952 64.1756 334.175 66.9522 330.62 67.9009C327.785 68.6359 324.808 69.0211 321.76 69.0211C318.713 69.0211 315.736 68.6359 312.901 67.9009Z" stroke="white" stroke-opacity="0.5"/>
<path d="M323.424 42.1191V47.9038C323.424 49.5543 324.078 51.1394 325.246 52.3077L329.92 56.9813C331.815 58.8768 330.475 62.1124 327.796 62.1124H317.419" stroke="white" stroke-miterlimit="10"/>
<path d="M319.503 42.1191V47.9038C319.503 49.5543 318.849 51.1394 317.681 52.3077L313.007 56.9813C311.112 58.8768 312.452 62.1124 315.131 62.1124H325.508" stroke="white" stroke-miterlimit="10"/>
<path d="M326.342 53.4271C326.138 53.4107 325.925 53.3944 325.688 53.3944C322.69 53.3944 322.69 55.0285 319.691 55.0285C317.82 55.0285 317.117 54.3912 316.121 53.9092" stroke="white" stroke-miterlimit="10"/>
<line x1="310.443" y1="39.7357" x2="334.801" y2="64.0931" stroke="white"/>
<path d="M178.901 67.9009C175.345 66.9522 172.569 64.1756 171.62 60.6203C170.885 57.7845 170.5 54.8434 170.5 51.7606C170.5 48.6777 170.885 45.7367 171.62 42.9009C172.569 39.3455 175.345 36.569 178.901 35.6203C181.737 34.8852 184.678 34.5 187.76 34.5C190.843 34.5 193.784 34.8852 196.62 35.6203C200.175 36.569 202.952 39.3456 203.901 42.9009C204.636 45.7365 205.021 48.713 205.021 51.7606C205.021 54.8082 204.636 57.7847 203.901 60.6202C202.952 64.1756 200.175 66.9522 196.62 67.9009C193.785 68.6359 190.808 69.0211 187.76 69.0211C184.713 69.0211 181.736 68.6359 178.901 67.9009Z" stroke="white" stroke-opacity="0.5"/>
<path d="M187.381 59.6833C187.381 58.9688 187.381 58.2543 187.381 57.5266C187.381 56.4284 187.367 55.317 187.381 54.2188C187.381 53.8615 187.3 53.6366 186.922 53.4646C184.412 52.3002 183.372 50.2229 183.939 47.5369C184.506 44.8906 185.842 42.6016 187.367 40.4052C187.597 40.0744 187.921 39.9421 188.177 40.3126C189.864 42.7471 191.403 45.2479 191.767 48.2117C192.064 50.5934 191.012 52.3928 188.812 53.4116C188.366 53.6233 188.245 53.8615 188.245 54.3114C188.272 56.0976 188.258 57.8839 188.258 59.7892C188.474 59.6304 188.623 59.551 188.731 59.4452C189.486 58.7174 190.215 57.9765 190.985 57.2487C191.241 57.0106 191.308 56.7989 191.187 56.4416C190.553 54.4305 191.079 52.8559 192.847 51.6519C194.656 50.4214 196.748 49.8789 198.88 49.4819C199.312 49.4025 199.623 49.5613 199.528 50.0376C199.137 52.0356 198.597 53.9938 197.477 55.7404C196.788 56.8253 195.87 57.6854 194.521 57.8309C193.846 57.8971 193.131 57.8045 192.469 57.6457C192.051 57.5531 191.821 57.606 191.538 57.8839C190.593 58.8365 189.608 59.7362 188.69 60.7021C188.447 60.9535 188.299 61.3769 188.272 61.7342C188.204 62.409 188.299 63.097 188.231 63.7851C188.204 64.0232 187.934 64.2217 187.772 64.4466C187.637 64.2349 187.394 64.0232 187.381 63.7983C187.327 63.0706 187.394 62.3428 187.354 61.6151C187.34 61.3372 187.219 61.0065 187.03 60.808C186.031 59.7892 185.019 58.7836 183.98 57.8177C183.818 57.6721 183.453 57.5928 183.237 57.6457C181.105 58.2543 179.431 57.6721 178.217 55.8595C177.083 54.1526 176.516 52.2076 176.125 50.1964C176.003 49.5878 176.192 49.3893 176.813 49.5084C178.837 49.8789 180.795 50.4346 182.549 51.5196C184.452 52.6972 185.059 54.3643 184.439 56.4813C184.385 56.6798 184.398 56.9974 184.533 57.1164C185.383 58.0162 186.274 58.8894 187.165 59.7627C187.232 59.7495 187.313 59.723 187.381 59.6833ZM188.272 52.6442C189.756 52.2473 190.89 50.7521 190.944 49.2041C191.012 47.1135 190.134 45.3008 189.19 43.5146C188.798 42.7868 188.339 42.0856 187.907 41.3579C187.772 41.4637 187.691 41.4902 187.664 41.5431C186.504 43.3029 185.478 45.142 184.925 47.1797C184.655 48.1852 184.52 49.2173 184.898 50.2361C185.329 51.4137 186.153 52.1811 187.34 52.7104C187.597 50.3684 187.597 50.3684 186.045 48.8204C185.95 48.7277 185.802 48.6483 185.775 48.5293C185.707 48.3176 185.707 48.0926 185.68 47.8809C185.91 47.9074 186.207 47.8545 186.369 47.9735C186.706 48.1985 186.976 48.516 187.286 48.8071C187.637 47.8015 187.178 47.1797 186.517 46.6107C186.382 46.4916 186.409 46.2005 186.355 45.9888C186.585 45.9888 186.828 45.9756 187.057 45.9888C187.151 45.9888 187.232 46.0682 187.394 46.1344C187.394 45.7374 187.34 45.3934 187.408 45.0759C187.462 44.8774 187.691 44.7186 187.853 44.5334C187.988 44.7054 188.218 44.8509 188.258 45.0494C188.326 45.3537 188.272 45.6845 188.272 45.883C188.677 45.9227 188.987 45.9624 189.311 45.9888C189.163 46.2932 189.014 46.6107 188.866 46.915C188.839 46.968 188.771 47.0209 188.717 47.0473C188.096 47.4972 188.245 48.0794 188.488 48.7674C188.812 48.5425 189.001 48.1985 189.284 47.9603C189.432 47.8412 189.743 47.8942 189.986 47.8677C189.945 48.0926 189.986 48.3837 189.851 48.5425C189.554 48.9262 189.163 49.2305 188.825 49.5878C188.636 49.7862 188.339 50.0244 188.326 50.2493C188.231 51.0565 188.272 51.8371 188.272 52.6442ZM192.685 56.7989C194.116 57.3678 195.452 56.9841 196.41 55.7668C197.382 54.5363 197.868 53.0941 198.273 51.6254C198.381 51.2549 198.448 50.8844 198.57 50.3023C197.193 50.7654 195.951 51.0829 194.791 51.5857C193.994 51.9297 193.212 52.4458 192.577 53.0412C191.7 53.8615 191.592 54.9465 191.983 56.0844C193.09 55.3699 193.36 54.9068 193.36 53.7821C193.36 53.544 193.32 53.2793 193.387 53.0544C193.427 52.8956 193.616 52.7765 193.738 52.6442C193.886 52.7765 194.102 52.8824 194.17 53.0544C194.251 53.2529 194.21 53.5043 194.237 53.8747C194.494 53.6498 194.656 53.5043 194.804 53.3587C195.223 52.9353 195.627 52.4722 196.073 52.0885C196.194 51.9827 196.491 52.062 196.707 52.062C196.694 52.2605 196.734 52.4722 196.667 52.6442C196.586 52.8162 196.397 52.9353 196.262 53.0809C195.857 53.5043 195.452 53.9144 194.953 54.4437C195.331 54.4834 195.56 54.4437 195.722 54.5231C195.87 54.6025 196.059 54.7877 196.059 54.9333C196.059 55.0656 195.843 55.264 195.695 55.3037C195.439 55.3699 195.155 55.317 194.885 55.3434C194.561 55.3699 194.156 55.3302 193.927 55.5022C193.508 55.8595 193.144 56.3225 192.685 56.7989ZM182.846 56.8253C181.982 55.5816 181.604 55.3699 180.201 55.3567C180.039 55.3567 179.863 55.3964 179.742 55.3302C179.593 55.2508 179.391 55.0788 179.391 54.9597C179.391 54.8142 179.58 54.6289 179.728 54.5628C179.904 54.4834 180.133 54.4966 180.525 54.4569C179.863 53.7954 179.31 53.2793 178.797 52.7104C178.689 52.5781 178.757 52.3002 178.743 52.0885C178.945 52.0885 179.161 52.0488 179.337 52.1017C179.485 52.1547 179.607 52.3267 179.728 52.4458C180.187 52.8824 180.633 53.319 181.199 53.8615C181.226 53.5043 181.199 53.2926 181.28 53.1338C181.361 52.9618 181.537 52.8295 181.658 52.6707C181.807 52.8295 182.023 52.9618 182.077 53.1602C182.158 53.3984 182.131 53.6895 182.09 53.9409C181.928 55.092 182.9 55.4625 183.548 56.1108C184.088 54.8539 183.777 53.5837 182.711 52.7104C181.145 51.4269 179.229 50.8844 177.245 50.5007C177.218 50.5007 177.177 50.5404 177.083 50.6066C177.528 52.4722 178.028 54.3378 179.296 55.8991C180.214 56.9973 181.523 57.3281 182.846 56.8253Z" fill="white"/>
<path d="M179.576 81.424L177.472 87H176.632L174.528 81.424H175.304L177.056 86.232L178.808 81.424H179.576ZM184.374 84.64C184.374 84.7787 184.366 84.9253 184.35 85.08H180.846C180.872 85.512 181.019 85.8507 181.286 86.096C181.558 86.336 181.886 86.456 182.27 86.456C182.584 86.456 182.846 86.384 183.054 86.24C183.267 86.0907 183.416 85.8933 183.502 85.648H184.286C184.168 86.0693 183.934 86.4133 183.582 86.68C183.23 86.9413 182.792 87.072 182.27 87.072C181.854 87.072 181.48 86.9787 181.15 86.792C180.824 86.6053 180.568 86.3413 180.382 86C180.195 85.6533 180.102 85.2533 180.102 84.8C180.102 84.3467 180.192 83.9493 180.374 83.608C180.555 83.2667 180.808 83.0053 181.134 82.824C181.464 82.6373 181.843 82.544 182.27 82.544C182.686 82.544 183.054 82.6347 183.374 82.816C183.694 82.9973 183.939 83.248 184.11 83.568C184.286 83.8827 184.374 84.24 184.374 84.64ZM183.622 84.488C183.622 84.2107 183.56 83.9733 183.438 83.776C183.315 83.5733 183.147 83.4213 182.934 83.32C182.726 83.2133 182.494 83.16 182.238 83.16C181.87 83.16 181.555 83.2773 181.294 83.512C181.038 83.7467 180.891 84.072 180.854 84.488H183.622ZM187.143 82.544C187.521 82.544 187.852 82.6267 188.135 82.792C188.423 82.9573 188.636 83.1653 188.775 83.416V82.616H189.511V87.096C189.511 87.496 189.425 87.8507 189.255 88.16C189.084 88.4747 188.839 88.72 188.519 88.896C188.204 89.072 187.836 89.16 187.415 89.16C186.839 89.16 186.359 89.024 185.975 88.752C185.591 88.48 185.364 88.1093 185.295 87.64H186.015C186.095 87.9067 186.26 88.12 186.511 88.28C186.761 88.4453 187.063 88.528 187.415 88.528C187.815 88.528 188.14 88.4027 188.391 88.152C188.647 87.9013 188.775 87.5493 188.775 87.096V86.176C188.631 86.432 188.417 86.6453 188.135 86.816C187.852 86.9867 187.521 87.072 187.143 87.072C186.753 87.072 186.399 86.976 186.079 86.784C185.764 86.592 185.516 86.3227 185.335 85.976C185.153 85.6293 185.063 85.2347 185.063 84.792C185.063 84.344 185.153 83.952 185.335 83.616C185.516 83.2747 185.764 83.0107 186.079 82.824C186.399 82.6373 186.753 82.544 187.143 82.544ZM188.775 84.8C188.775 84.4693 188.708 84.1813 188.575 83.936C188.441 83.6907 188.26 83.504 188.031 83.376C187.807 83.2427 187.559 83.176 187.287 83.176C187.015 83.176 186.767 83.24 186.543 83.368C186.319 83.496 186.14 83.6827 186.007 83.928C185.873 84.1733 185.807 84.4613 185.807 84.792C185.807 85.128 185.873 85.4213 186.007 85.672C186.14 85.9173 186.319 86.1067 186.543 86.24C186.767 86.368 187.015 86.432 187.287 86.432C187.559 86.432 187.807 86.368 188.031 86.24C188.26 86.1067 188.441 85.9173 188.575 85.672C188.708 85.4213 188.775 85.1307 188.775 84.8ZM190.469 84.792C190.469 84.344 190.56 83.952 190.741 83.616C190.922 83.2747 191.17 83.0107 191.485 82.824C191.805 82.6373 192.16 82.544 192.549 82.544C192.933 82.544 193.266 82.6267 193.549 82.792C193.832 82.9573 194.042 83.1653 194.181 83.416V82.616H194.917V87H194.181V86.184C194.037 86.44 193.821 86.6533 193.533 86.824C193.25 86.9893 192.92 87.072 192.541 87.072C192.152 87.072 191.8 86.976 191.485 86.784C191.17 86.592 190.922 86.3227 190.741 85.976C190.56 85.6293 190.469 85.2347 190.469 84.792ZM194.181 84.8C194.181 84.4693 194.114 84.1813 193.981 83.936C193.848 83.6907 193.666 83.504 193.437 83.376C193.213 83.2427 192.965 83.176 192.693 83.176C192.421 83.176 192.173 83.24 191.949 83.368C191.725 83.496 191.546 83.6827 191.413 83.928C191.28 84.1733 191.213 84.4613 191.213 84.792C191.213 85.128 191.28 85.4213 191.413 85.672C191.546 85.9173 191.725 86.1067 191.949 86.24C192.173 86.368 192.421 86.432 192.693 86.432C192.965 86.432 193.213 86.368 193.437 86.24C193.666 86.1067 193.848 85.9173 193.981 85.672C194.114 85.4213 194.181 85.1307 194.181 84.8ZM198.283 82.536C198.817 82.536 199.249 82.6987 199.579 83.024C199.91 83.344 200.075 83.808 200.075 84.416V87H199.355V84.52C199.355 84.0827 199.246 83.7493 199.027 83.52C198.809 83.2853 198.51 83.168 198.131 83.168C197.747 83.168 197.441 83.288 197.211 83.528C196.987 83.768 196.875 84.1173 196.875 84.576V87H196.147V82.616H196.875V83.24C197.019 83.016 197.214 82.8427 197.459 82.72C197.71 82.5973 197.985 82.536 198.283 82.536Z" fill="white"/>
<defs>
<filter id="filter0_bd_322:8" x="-15" y="0" width="406" height="136" filterUnits="userSpaceOnUse" color-interpolation-filters="sRGB">
<feFlood flood-opacity="0" result="BackgroundImageFix"/>
<feGaussianBlur in="BackgroundImage" stdDeviation="4"/>
<feComposite in2="SourceAlpha" operator="in" result="effect1_backgroundBlur_322:8"/>
<feColorMatrix in="SourceAlpha" type="matrix" values="0 0 0 0 0 0 0 0 0 0 0 0 0 0 0 0 0 0 127 0" result="hardAlpha"/>
<feOffset dy="4"/>
<feGaussianBlur stdDeviation="12"/>
<feColorMatrix type="matrix" values="0 0 0 0 0.396078 0 0 0 0 0.376471 0 0 0 0 0.356863 0 0 0 0.5 0"/>
<feBlend mode="normal" in2="effect1_backgroundBlur_322:8" result="effect2_dropShadow_322:8"/>
<feBlend mode="normal" in="SourceGraphic" in2="effect2_dropShadow_322:8" result="shape"/>
</filter>
<filter id="filter1_d_322:8" x="22" y="24" width="63.521" height="63.5211" filterUnits="userSpaceOnUse" color-interpolation-filters="sRGB">
<feFlood flood-opacity="0" result="BackgroundImageFix"/>
<feColorMatrix in="SourceAlpha" type="matrix" values="0 0 0 0 0 0 0 0 0 0 0 0 0 0 0 0 0 0 127 0" result="hardAlpha"/>
<feOffset dy="4"/>
<feGaussianBlur stdDeviation="7"/>
<feColorMatrix type="matrix" values="0 0 0 0 0.647059 0 0 0 0 0.611765 0 0 0 0 0.580392 0 0 0 0.7 0"/>
<feBlend mode="normal" in2="BackgroundImageFix" result="effect1_dropShadow_322:8"/>
<feBlend mode="normal" in="SourceGraphic" in2="effect1_dropShadow_322:8" result="shape"/>
</filter>
<clipPath id="clip0_322:8">
<rect width="23.3424" height="22.3275" fill="white" transform="translate(42.0898 40.0893)"/>
</clipPath>
</defs>
</svg>
