<svg width="70" height="83" viewBox="0 0 70 83" fill="none" xmlns="http://www.w3.org/2000/svg">
<g filter="url(#filter0_d_456:256)">
<path d="M24.3829 49.7089C20.1975 48.5921 16.929 45.3236 15.8122 41.1382C14.9512 37.8165 14.5 34.3714 14.5 30.7605C14.5 27.1497 14.9512 23.7046 15.8122 20.3829C16.929 16.1975 20.1975 12.929 24.3829 11.8122C27.7046 10.9512 31.1497 10.5 34.7605 10.5C38.3714 10.5 41.8165 10.9512 45.1382 11.8122C49.3236 12.929 52.5921 16.1975 53.7089 20.3829C54.5698 23.7044 55.0211 27.191 55.0211 30.7605C55.0211 34.3301 54.5698 37.8167 53.7089 41.1382C52.5921 45.3236 49.3236 48.5921 45.1382 49.7089C41.8167 50.5698 38.3301 51.0211 34.7605 51.0211C31.191 51.0211 27.7044 50.5698 24.3829 49.7089Z" stroke="#7C756F" stroke-opacity="0.5"/>
</g>
<g clip-path="url(#clip0_456:256)">
<path d="M37.3063 41.4089C37.1663 40.2036 36.9639 39.122 36.9483 38.0248C36.9328 35.6606 37.8822 33.7291 39.859 32.3538C40.6684 31.7976 41.5089 31.2876 42.3494 30.7932C43.5479 30.0824 44.2794 29.0625 44.7931 27.7954C44.9331 27.44 45.3223 26.9919 45.6336 26.9764C45.9449 26.9455 46.4274 27.3318 46.583 27.6563C47.8594 30.2214 48.6843 32.9101 48.3107 35.8306C47.8282 39.5237 44.7931 42.2588 40.933 42.4442C40.0302 42.4906 39.1274 42.3515 38.2247 42.3206C37.9601 42.3051 37.6643 42.3515 37.3997 42.4288C36.6993 42.6142 36.0144 42.8769 35.314 43.0314C35.0961 43.0777 34.8159 42.8305 34.5669 42.7223C34.7381 42.506 34.8782 42.1815 35.0961 42.1043C35.8432 41.8107 36.6215 41.6098 37.3063 41.4089ZM40.0302 41.1771C40.0458 41.2544 40.0769 41.3162 40.0925 41.3934C40.1858 41.4089 40.2792 41.4398 40.3571 41.4398C43.1899 41.6098 45.9916 39.8019 46.9255 37.1595C48.0306 34.0381 47.0655 31.1486 45.8359 28.2744C45.7114 28.3517 45.6491 28.3672 45.6336 28.4135C45.5713 28.4908 45.5246 28.5835 45.4935 28.6916C44.9176 30.0051 43.9681 30.994 42.7229 31.7203C41.9914 32.153 41.2598 32.6011 40.5438 33.0647C37.8044 34.8262 37.4153 38.4575 38.4737 40.8835C38.8473 40.6981 39.2053 40.4972 39.5632 40.3272C40.0769 40.0955 40.2325 39.7864 40.1392 39.1838C39.9835 38.1485 39.9524 37.0823 39.9679 36.0315C39.9679 35.7379 40.2948 35.4443 40.466 35.1353C40.6372 35.4289 40.9018 35.7225 40.933 36.0315C41.0264 37.005 41.0419 37.9939 41.0886 38.9829C41.1664 39.0138 41.2598 39.0447 41.3377 39.0601C41.8202 38.5348 42.3027 38.0248 42.7541 37.484C42.8474 37.3758 42.8474 37.1441 42.8163 36.9741C42.7074 35.9542 42.5517 34.9344 42.4739 33.9145C42.4428 33.4664 42.2871 32.7711 43.0031 32.7711C43.6724 32.7711 43.47 33.4355 43.5012 33.8682C43.5323 34.2236 43.5167 34.5944 43.5479 34.9498C43.5634 35.1971 43.6257 35.4443 43.6724 35.6915C43.7813 35.707 43.8903 35.707 44.0148 35.7225C44.3417 34.5481 44.6374 33.3737 44.9954 32.2148C45.0732 31.9521 45.369 31.7667 45.5557 31.5503C45.6958 31.813 45.9604 32.1066 45.9293 32.3538C45.8048 33.1419 45.5869 33.8991 45.3845 34.6717C45.3223 34.9344 45.2289 35.1971 45.1511 35.4752C45.2133 35.5061 45.2756 35.537 45.3378 35.5679C45.5713 35.3516 45.7892 35.0735 46.0694 34.9189C46.3184 34.7799 46.6297 34.7799 46.9255 34.7181C46.8788 35.0116 46.941 35.4289 46.7542 35.5679C45.9293 36.2633 45.0421 36.8814 44.2016 37.5458C43.7969 37.8703 43.4545 38.2566 43.0809 38.6275C43.1432 38.6893 43.2054 38.7511 43.2521 38.8284C43.5479 38.6738 43.8125 38.4575 44.1238 38.3648C44.3728 38.2875 44.6685 38.3493 44.9487 38.3493C44.8553 38.6275 44.8242 39.0602 44.6374 39.1529C43.6101 39.6319 42.5517 40.0182 41.5089 40.4663C41.0264 40.6826 40.5283 40.9453 40.0302 41.1771Z" fill="#7C756F"/>
<path d="M24.732 28.5131C25.09 28.6367 25.3234 28.714 25.5725 28.7912C29.5882 30.0274 31.4093 32.438 31.5027 36.6256C31.5027 36.9655 31.5183 37.29 31.5027 37.63C31.4404 39.1907 31.923 40.5505 32.9658 41.7403C33.1837 41.9875 33.3549 42.5129 33.2304 42.7447C33.0748 43.0228 32.5922 43.3164 32.2654 43.301C29.3859 43.131 26.6153 42.5129 24.2494 40.7668C21.3855 38.6344 20.3894 35.2658 21.6657 31.959C22.1015 30.8464 22.8486 29.8729 23.4556 28.8222C23.5802 28.6058 23.7202 28.3895 23.7825 28.1577C23.9537 27.5087 24.0627 26.8443 24.2494 26.2107C24.3584 25.8399 24.3895 25.2836 24.9966 25.4535C25.5569 25.6081 25.3079 26.0716 25.23 26.427C25.0744 27.1069 24.9032 27.7714 24.732 28.5131ZM31.923 42.173C30.7245 40.6741 30.4754 38.9589 30.4287 37.1819C30.4132 36.332 30.4132 35.4821 30.2886 34.6477C29.9306 32.1753 27.1445 29.7493 24.6853 29.7184C24.6386 29.9502 24.5919 30.1974 24.5607 30.4601C24.4829 31.2173 24.5607 31.789 25.4946 32.098C26.4908 32.4225 27.4091 33.0097 28.3119 33.5506C28.4831 33.6587 28.4987 34.045 28.5921 34.2923C28.343 34.3232 28.0784 34.4159 27.8294 34.3695C27.5959 34.3232 27.378 34.1223 27.1445 33.9987C26.3974 33.6124 25.6659 33.2415 24.9187 32.8552C24.8565 32.917 24.8098 32.9634 24.7475 33.0252C24.9032 33.5351 25.0744 34.0296 25.1833 34.555C25.3079 35.0958 25.6347 35.3121 26.1484 35.4976C27.1134 35.8684 28.0473 36.332 28.9345 36.8419C29.168 36.9655 29.4326 37.46 29.3547 37.6454C29.1524 38.109 28.7633 37.8463 28.4364 37.6763C27.7671 37.3364 27.0978 36.9964 26.413 36.6565C26.3507 36.7492 26.2729 36.8419 26.2106 36.9192C27.02 37.769 27.8449 38.6189 28.6543 39.4533C28.9345 39.7469 29.5726 39.9633 29.1213 40.4577C28.7166 40.9213 28.3275 40.4268 28.0006 40.1796C27.736 39.9787 27.4714 39.7624 27.2379 39.5152C26.7554 39.0207 26.304 38.5108 25.8371 38.0163C25.8059 38.4644 25.9616 38.8507 25.9772 39.2525C25.9772 39.5306 25.7904 39.8088 25.697 40.0714C25.4791 39.9015 25.1211 39.7469 25.0744 39.5461C24.872 38.4644 24.7787 37.3827 24.6074 36.3011C24.5296 35.8375 24.374 35.3739 24.265 34.9258C24.1716 34.9413 24.0782 34.9567 23.9848 34.9876C23.9848 35.2349 23.9848 35.4666 23.9848 35.7139C23.9848 36.1156 23.9848 36.5947 23.4401 36.5174C23.2377 36.4865 22.9264 35.992 22.942 35.7293C23.0354 34.6631 23.2533 33.5969 23.4089 32.5462C23.4868 31.9899 23.5179 31.4336 23.5646 30.8464C23.3467 30.8773 23.2844 30.8619 23.2533 30.8928C23.2066 30.9237 23.1755 30.97 23.1599 31.0009C22.0859 33.0097 21.7279 35.1112 22.6774 37.29C23.549 39.3143 25.23 40.4887 27.2223 41.2613C28.7166 41.8485 30.2575 42.1884 31.923 42.173Z" fill="#7C756F"/>
<path d="M42.3181 24.3341C41.6644 24.8904 41.104 25.4312 40.4659 25.8639C38.0377 27.5482 35.4695 27.9036 32.7768 26.5283C32.0141 26.142 31.267 25.7403 30.5199 25.323C29.3369 24.6586 28.0762 24.5813 26.7532 24.7668C26.3796 24.8131 25.7881 24.7049 25.6325 24.4577C25.4613 24.195 25.5391 23.6078 25.7414 23.2988C26.7843 21.6454 28.0762 20.2083 29.6638 19.0494C34.1932 15.6962 39.4074 16.7934 42.0535 21.7536C42.7072 22.9743 43.3921 24.0714 44.466 24.9522C44.7773 25.1994 45.3999 25.5394 44.8552 26.0493C44.3571 26.5283 44.0925 25.9102 43.7968 25.6475C43.2987 25.2303 42.8006 24.7822 42.3181 24.3341ZM33.5862 20.471C33.0258 20.301 32.6211 20.2238 32.2631 20.0538C32.0297 19.9302 31.8896 19.652 31.7184 19.4512C31.9674 19.343 32.2787 19.0649 32.4655 19.1267C33.4928 19.4821 34.4734 19.9147 35.4851 20.301C35.9987 20.5019 36.5435 20.641 37.0727 20.811C37.1038 20.7182 37.1505 20.641 37.1817 20.5483C36.8548 20.3628 36.4968 20.2083 36.2322 19.9611C36.061 19.7911 36.0299 19.4666 35.9365 19.2194C36.1855 19.1885 36.5279 19.0185 36.6836 19.1267C37.6019 19.7448 38.4735 20.4247 39.3607 21.0891C39.8744 21.4754 40.388 21.8463 40.8861 22.2171C40.2635 19.6675 36.8859 17.736 34.1776 18.1686C30.7534 18.7094 28.6365 21.0273 26.5353 23.8087C28.6832 23.3915 30.3798 24.0096 31.983 24.9676C32.5122 25.2921 33.0725 25.5548 33.6329 25.8175C34.7224 26.312 35.8431 26.5129 37.0416 26.2965C38.816 25.972 40.2168 25.0449 41.4464 23.6851C41.1196 23.4688 40.8705 23.3297 40.6371 23.1597C40.0145 22.6807 39.5008 22.6034 38.816 23.2061C38.0377 23.8705 37.1038 24.365 36.2011 24.8595C35.9987 24.9676 35.6252 24.7977 35.345 24.7668C35.4695 24.5195 35.5473 24.2414 35.7341 24.0405C35.9053 23.8551 36.1699 23.7778 36.3879 23.6387C37.0727 23.2061 37.7576 22.758 38.6292 22.1862C37.9288 22.0008 37.493 21.8926 37.0571 21.769C36.419 21.5836 35.9365 21.6917 35.3917 22.1708C34.5979 22.8661 33.664 23.376 32.7457 23.9169C32.5744 24.0096 32.2631 23.8705 32.0141 23.8242C32.0919 23.5924 32.1075 23.2988 32.2476 23.1134C32.4032 22.9279 32.6834 22.8352 32.9013 22.6961C33.3683 22.3871 33.8508 22.0781 34.3177 21.7845C34.271 21.6763 34.2243 21.5527 34.1621 21.4445C32.9947 21.7381 31.8273 22.0162 30.6755 22.3253C30.302 22.418 29.8973 22.7116 29.6949 22.1708C29.4926 21.6608 29.9595 21.5063 30.3331 21.3827C31.3137 21.0737 32.341 20.811 33.5862 20.471Z" fill="#7C756F"/>
</g>
<path d="M15.5762 68H14.4842L10.0922 61.34V68H9.00017V59.624H10.0922L14.4842 66.272V59.624H15.5762V68ZM17.0297 64.688C17.0297 64.016 17.1657 63.428 17.4377 62.924C17.7097 62.412 18.0817 62.016 18.5537 61.736C19.0337 61.456 19.5657 61.316 20.1497 61.316C20.7257 61.316 21.2257 61.44 21.6497 61.688C22.0737 61.936 22.3897 62.248 22.5977 62.624V61.424H23.7017V68H22.5977V66.776C22.3817 67.16 22.0577 67.48 21.6257 67.736C21.2017 67.984 20.7057 68.108 20.1377 68.108C19.5537 68.108 19.0257 67.964 18.5537 67.676C18.0817 67.388 17.7097 66.984 17.4377 66.464C17.1657 65.944 17.0297 65.352 17.0297 64.688ZM22.5977 64.7C22.5977 64.204 22.4977 63.772 22.2977 63.404C22.0977 63.036 21.8257 62.756 21.4817 62.564C21.1457 62.364 20.7737 62.264 20.3657 62.264C19.9577 62.264 19.5857 62.36 19.2497 62.552C18.9137 62.744 18.6457 63.024 18.4457 63.392C18.2457 63.76 18.1457 64.192 18.1457 64.688C18.1457 65.192 18.2457 65.632 18.4457 66.008C18.6457 66.376 18.9137 66.66 19.2497 66.86C19.5857 67.052 19.9577 67.148 20.3657 67.148C20.7737 67.148 21.1457 67.052 21.4817 66.86C21.8257 66.66 22.0977 66.376 22.2977 66.008C22.4977 65.632 22.5977 65.196 22.5977 64.7ZM26.879 62.324V66.2C26.879 66.52 26.947 66.748 27.083 66.884C27.219 67.012 27.455 67.076 27.791 67.076H28.595V68H27.611C27.003 68 26.547 67.86 26.243 67.58C25.939 67.3 25.787 66.84 25.787 66.2V62.324H24.935V61.424H25.787V59.768H26.879V61.424H28.595V62.324H26.879ZM35.7501 61.424V68H34.6581V67.028C34.4501 67.364 34.1581 67.628 33.7821 67.82C33.4141 68.004 33.0061 68.096 32.5581 68.096C32.0461 68.096 31.5861 67.992 31.1781 67.784C30.7701 67.568 30.4461 67.248 30.2061 66.824C29.9741 66.4 29.8581 65.884 29.8581 65.276V61.424H30.9381V65.132C30.9381 65.78 31.1021 66.28 31.4301 66.632C31.7581 66.976 32.2061 67.148 32.7741 67.148C33.3581 67.148 33.8181 66.968 34.1541 66.608C34.4901 66.248 34.6581 65.724 34.6581 65.036V61.424H35.7501ZM38.6859 62.492C38.8779 62.116 39.1499 61.824 39.5019 61.616C39.8619 61.408 40.2979 61.304 40.8099 61.304V62.432H40.5219C39.2979 62.432 38.6859 63.096 38.6859 64.424V68H37.5939V61.424H38.6859V62.492ZM41.6625 64.688C41.6625 64.016 41.7985 63.428 42.0705 62.924C42.3425 62.412 42.7145 62.016 43.1865 61.736C43.6665 61.456 44.1985 61.316 44.7825 61.316C45.3585 61.316 45.8585 61.44 46.2825 61.688C46.7065 61.936 47.0225 62.248 47.2305 62.624V61.424H48.3345V68H47.2305V66.776C47.0145 67.16 46.6905 67.48 46.2585 67.736C45.8345 67.984 45.3385 68.108 44.7705 68.108C44.1865 68.108 43.6585 67.964 43.1865 67.676C42.7145 67.388 42.3425 66.984 42.0705 66.464C41.7985 65.944 41.6625 65.352 41.6625 64.688ZM47.2305 64.7C47.2305 64.204 47.1305 63.772 46.9305 63.404C46.7305 63.036 46.4585 62.756 46.1145 62.564C45.7785 62.364 45.4065 62.264 44.9985 62.264C44.5905 62.264 44.2185 62.36 43.8825 62.552C43.5465 62.744 43.2785 63.024 43.0785 63.392C42.8785 63.76 42.7785 64.192 42.7785 64.688C42.7785 65.192 42.8785 65.632 43.0785 66.008C43.2785 66.376 43.5465 66.66 43.8825 66.86C44.2185 67.052 44.5905 67.148 44.9985 67.148C45.4065 67.148 45.7785 67.052 46.1145 66.86C46.4585 66.66 46.7305 66.376 46.9305 66.008C47.1305 65.632 47.2305 65.196 47.2305 64.7ZM51.2719 59.12V68H50.1799V59.12H51.2719ZM54.225 59.12V68H53.133V59.12H54.225ZM61.7501 61.424L57.7901 71.096H56.6621L57.9581 67.928L55.3061 61.424H56.5181L58.5821 66.752L60.6221 61.424H61.7501ZM12.8871 77.688C12.8871 77.016 13.0231 76.428 13.2951 75.924C13.5671 75.412 13.9391 75.016 14.4111 74.736C14.8911 74.456 15.4271 74.316 16.0191 74.316C16.5311 74.316 17.0071 74.436 17.4471 74.676C17.8871 74.908 18.2231 75.216 18.4551 75.6V72.12H19.5591V81H18.4551V79.764C18.2391 80.156 17.9191 80.48 17.4951 80.736C17.0711 80.984 16.5751 81.108 16.0071 81.108C15.4231 81.108 14.8911 80.964 14.4111 80.676C13.9391 80.388 13.5671 79.984 13.2951 79.464C13.0231 78.944 12.8871 78.352 12.8871 77.688ZM18.4551 77.7C18.4551 77.204 18.3551 76.772 18.1551 76.404C17.9551 76.036 17.6831 75.756 17.3391 75.564C17.0031 75.364 16.6311 75.264 16.2231 75.264C15.8151 75.264 15.4431 75.36 15.1071 75.552C14.7711 75.744 14.5031 76.024 14.3031 76.392C14.1031 76.76 14.0031 77.192 14.0031 77.688C14.0031 78.192 14.1031 78.632 14.3031 79.008C14.5031 79.376 14.7711 79.66 15.1071 79.86C15.4431 80.052 15.8151 80.148 16.2231 80.148C16.6311 80.148 17.0031 80.052 17.3391 79.86C17.6831 79.66 17.9551 79.376 18.1551 79.008C18.3551 78.632 18.4551 78.196 18.4551 77.7ZM27.4045 77.46C27.4045 77.668 27.3925 77.888 27.3685 78.12H22.1125C22.1525 78.768 22.3725 79.276 22.7725 79.644C23.1805 80.004 23.6725 80.184 24.2485 80.184C24.7205 80.184 25.1125 80.076 25.4245 79.86C25.7445 79.636 25.9685 79.34 26.0965 78.972H27.2725C27.0965 79.604 26.7445 80.12 26.2165 80.52C25.6885 80.912 25.0325 81.108 24.2485 81.108C23.6245 81.108 23.0645 80.968 22.5685 80.688C22.0805 80.408 21.6965 80.012 21.4165 79.5C21.1365 78.98 20.9965 78.38 20.9965 77.7C20.9965 77.02 21.1325 76.424 21.4045 75.912C21.6765 75.4 22.0565 75.008 22.5445 74.736C23.0405 74.456 23.6085 74.316 24.2485 74.316C24.8725 74.316 25.4245 74.452 25.9045 74.724C26.3845 74.996 26.7525 75.372 27.0085 75.852C27.2725 76.324 27.4045 76.86 27.4045 77.46ZM26.2765 77.232C26.2765 76.816 26.1845 76.46 26.0005 76.164C25.8165 75.86 25.5645 75.632 25.2445 75.48C24.9325 75.32 24.5845 75.24 24.2005 75.24C23.6485 75.24 23.1765 75.416 22.7845 75.768C22.4005 76.12 22.1805 76.608 22.1245 77.232H26.2765ZM29.9379 75.492C30.1299 75.116 30.4019 74.824 30.7539 74.616C31.1139 74.408 31.5499 74.304 32.0619 74.304V75.432H31.7739C30.5499 75.432 29.9379 76.096 29.9379 77.424V81H28.8459V74.424H29.9379V75.492ZM33.8864 73.356C33.6784 73.356 33.5024 73.284 33.3584 73.14C33.2144 72.996 33.1424 72.82 33.1424 72.612C33.1424 72.404 33.2144 72.228 33.3584 72.084C33.5024 71.94 33.6784 71.868 33.8864 71.868C34.0864 71.868 34.2544 71.94 34.3904 72.084C34.5344 72.228 34.6064 72.404 34.6064 72.612C34.6064 72.82 34.5344 72.996 34.3904 73.14C34.2544 73.284 34.0864 73.356 33.8864 73.356ZM34.4144 74.424V81H33.3224V74.424H34.4144ZM38.7236 79.992L40.7636 74.424H41.9276L39.3476 81H38.0756L35.4956 74.424H36.6716L38.7236 79.992ZM49.0021 77.46C49.0021 77.668 48.9901 77.888 48.9661 78.12H43.7101C43.7501 78.768 43.9701 79.276 44.3701 79.644C44.7781 80.004 45.2701 80.184 45.8461 80.184C46.3181 80.184 46.7101 80.076 47.0221 79.86C47.3421 79.636 47.5661 79.34 47.6941 78.972H48.8701C48.6941 79.604 48.3421 80.12 47.8141 80.52C47.2861 80.912 46.6301 81.108 45.8461 81.108C45.2221 81.108 44.6621 80.968 44.1661 80.688C43.6781 80.408 43.2941 80.012 43.0141 79.5C42.7341 78.98 42.5941 78.38 42.5941 77.7C42.5941 77.02 42.7301 76.424 43.0021 75.912C43.2741 75.4 43.6541 75.008 44.1421 74.736C44.6381 74.456 45.2061 74.316 45.8461 74.316C46.4701 74.316 47.0221 74.452 47.5021 74.724C47.9821 74.996 48.3501 75.372 48.6061 75.852C48.8701 76.324 49.0021 76.86 49.0021 77.46ZM47.8741 77.232C47.8741 76.816 47.7821 76.46 47.5981 76.164C47.4141 75.86 47.1621 75.632 46.8421 75.48C46.5301 75.32 46.1821 75.24 45.7981 75.24C45.2461 75.24 44.7741 75.416 44.3821 75.768C43.9981 76.12 43.7781 76.608 43.7221 77.232H47.8741ZM50.0355 77.688C50.0355 77.016 50.1715 76.428 50.4435 75.924C50.7155 75.412 51.0875 75.016 51.5595 74.736C52.0395 74.456 52.5755 74.316 53.1675 74.316C53.6795 74.316 54.1555 74.436 54.5955 74.676C55.0355 74.908 55.3715 75.216 55.6035 75.6V72.12H56.7075V81H55.6035V79.764C55.3875 80.156 55.0675 80.48 54.6435 80.736C54.2195 80.984 53.7235 81.108 53.1555 81.108C52.5715 81.108 52.0395 80.964 51.5595 80.676C51.0875 80.388 50.7155 79.984 50.4435 79.464C50.1715 78.944 50.0355 78.352 50.0355 77.688ZM55.6035 77.7C55.6035 77.204 55.5035 76.772 55.3035 76.404C55.1035 76.036 54.8315 75.756 54.4875 75.564C54.1515 75.364 53.7795 75.264 53.3715 75.264C52.9635 75.264 52.5915 75.36 52.2555 75.552C51.9195 75.744 51.6515 76.024 51.4515 76.392C51.2515 76.76 51.1515 77.192 51.1515 77.688C51.1515 78.192 51.2515 78.632 51.4515 79.008C51.6515 79.376 51.9195 79.66 52.2555 79.86C52.5915 80.052 52.9635 80.148 53.3715 80.148C53.7795 80.148 54.1515 80.052 54.4875 79.86C54.8315 79.66 55.1035 79.376 55.3035 79.008C55.5035 78.632 55.6035 78.196 55.6035 77.7Z" fill="#7C756F"/>
<defs>
<filter id="filter0_d_456:256" x="0" y="0" width="69.5211" height="69.5211" filterUnits="userSpaceOnUse" color-interpolation-filters="sRGB">
<feFlood flood-opacity="0" result="BackgroundImageFix"/>
<feColorMatrix in="SourceAlpha" type="matrix" values="0 0 0 0 0 0 0 0 0 0 0 0 0 0 0 0 0 0 127 0" result="hardAlpha"/>
<feOffset dy="4"/>
<feGaussianBlur stdDeviation="7"/>
<feColorMatrix type="matrix" values="0 0 0 0 0.647059 0 0 0 0 0.611765 0 0 0 0 0.580392 0 0 0 0.7 0"/>
<feBlend mode="normal" in2="BackgroundImageFix" result="effect1_dropShadow_456:256"/>
<feBlend mode="normal" in="SourceGraphic" in2="effect1_dropShadow_456:256" result="shape"/>
</filter>
<clipPath id="clip0_456:256">
<rect width="27.2853" height="26.099" fill="white" transform="translate(21.1187 17.1179)"/>
</clipPath>
</defs>
</svg>
