<svg width="80" height="73" viewBox="0 0 80 73" fill="none" xmlns="http://www.w3.org/2000/svg">
<path d="M39.4434 58H38.3514L33.9594 51.34V58H32.8674V49.624H33.9594L38.3514 56.272V49.624H39.4434V58ZM44.1729 58.108C43.5569 58.108 42.9969 57.968 42.4929 57.688C41.9969 57.408 41.6049 57.012 41.3169 56.5C41.0369 55.98 40.8969 55.38 40.8969 54.7C40.8969 54.028 41.0409 53.436 41.3289 52.924C41.6249 52.404 42.0249 52.008 42.5289 51.736C43.0329 51.456 43.5969 51.316 44.2209 51.316C44.8449 51.316 45.4089 51.456 45.9129 51.736C46.4169 52.008 46.8129 52.4 47.1009 52.912C47.3969 53.424 47.5449 54.02 47.5449 54.7C47.5449 55.38 47.3929 55.98 47.0889 56.5C46.7929 57.012 46.3889 57.408 45.8769 57.688C45.3649 57.968 44.7969 58.108 44.1729 58.108ZM44.1729 57.148C44.5649 57.148 44.9329 57.056 45.2769 56.872C45.6209 56.688 45.8969 56.412 46.1049 56.044C46.3209 55.676 46.4289 55.228 46.4289 54.7C46.4289 54.172 46.3249 53.724 46.1169 53.356C45.9089 52.988 45.6369 52.716 45.3009 52.54C44.9649 52.356 44.6009 52.264 44.2089 52.264C43.8089 52.264 43.4409 52.356 43.1049 52.54C42.7769 52.716 42.5129 52.988 42.3129 53.356C42.1129 53.724 42.0129 54.172 42.0129 54.7C42.0129 55.236 42.1089 55.688 42.3009 56.056C42.5009 56.424 42.7649 56.7 43.0929 56.884C43.4209 57.06 43.7809 57.148 44.1729 57.148ZM6.68983 65.084C6.68983 65.78 6.44983 66.36 5.96983 66.824C5.49783 67.28 4.77383 67.508 3.79783 67.508H2.18983V71H1.09783V62.636H3.79783C4.74183 62.636 5.45783 62.864 5.94583 63.32C6.44183 63.776 6.68983 64.364 6.68983 65.084ZM3.79783 66.608C4.40583 66.608 4.85383 66.476 5.14183 66.212C5.42983 65.948 5.57383 65.572 5.57383 65.084C5.57383 64.052 4.98183 63.536 3.79783 63.536H2.18983V66.608H3.79783ZM9.13905 65.492C9.33105 65.116 9.60305 64.824 9.95505 64.616C10.315 64.408 10.751 64.304 11.263 64.304V65.432H10.975C9.75105 65.432 9.13905 66.096 9.13905 67.424V71H8.04705V64.424H9.13905V65.492ZM18.5236 67.46C18.5236 67.668 18.5116 67.888 18.4876 68.12H13.2316C13.2716 68.768 13.4916 69.276 13.8916 69.644C14.2996 70.004 14.7916 70.184 15.3676 70.184C15.8396 70.184 16.2316 70.076 16.5436 69.86C16.8636 69.636 17.0876 69.34 17.2156 68.972H18.3916C18.2156 69.604 17.8636 70.12 17.3356 70.52C16.8076 70.912 16.1516 71.108 15.3676 71.108C14.7436 71.108 14.1836 70.968 13.6876 70.688C13.1996 70.408 12.8156 70.012 12.5356 69.5C12.2556 68.98 12.1156 68.38 12.1156 67.7C12.1156 67.02 12.2516 66.424 12.5236 65.912C12.7956 65.4 13.1756 65.008 13.6636 64.736C14.1596 64.456 14.7276 64.316 15.3676 64.316C15.9916 64.316 16.5436 64.452 17.0236 64.724C17.5036 64.996 17.8716 65.372 18.1276 65.852C18.3916 66.324 18.5236 66.86 18.5236 67.46ZM17.3956 67.232C17.3956 66.816 17.3036 66.46 17.1196 66.164C16.9356 65.86 16.6836 65.632 16.3636 65.48C16.0516 65.32 15.7036 65.24 15.3196 65.24C14.7676 65.24 14.2956 65.416 13.9036 65.768C13.5196 66.12 13.2996 66.608 13.2436 67.232H17.3956ZM22.293 71.108C21.789 71.108 21.337 71.024 20.937 70.856C20.537 70.68 20.221 70.44 19.989 70.136C19.757 69.824 19.629 69.468 19.605 69.068H20.733C20.765 69.396 20.917 69.664 21.189 69.872C21.469 70.08 21.833 70.184 22.281 70.184C22.697 70.184 23.025 70.092 23.265 69.908C23.505 69.724 23.625 69.492 23.625 69.212C23.625 68.924 23.497 68.712 23.241 68.576C22.985 68.432 22.589 68.292 22.053 68.156C21.565 68.028 21.165 67.9 20.853 67.772C20.549 67.636 20.285 67.44 20.061 67.184C19.845 66.92 19.737 66.576 19.737 66.152C19.737 65.816 19.837 65.508 20.037 65.228C20.237 64.948 20.521 64.728 20.889 64.568C21.257 64.4 21.677 64.316 22.149 64.316C22.877 64.316 23.465 64.5 23.913 64.868C24.361 65.236 24.601 65.74 24.633 66.38H23.541C23.517 66.036 23.377 65.76 23.121 65.552C22.873 65.344 22.537 65.24 22.113 65.24C21.721 65.24 21.409 65.324 21.177 65.492C20.945 65.66 20.829 65.88 20.829 66.152C20.829 66.368 20.897 66.548 21.033 66.692C21.177 66.828 21.353 66.94 21.561 67.028C21.777 67.108 22.073 67.2 22.449 67.304C22.921 67.432 23.305 67.56 23.601 67.688C23.897 67.808 24.149 67.992 24.357 68.24C24.573 68.488 24.685 68.812 24.693 69.212C24.693 69.572 24.593 69.896 24.393 70.184C24.193 70.472 23.909 70.7 23.541 70.868C23.181 71.028 22.765 71.108 22.293 71.108ZM32.2345 67.46C32.2345 67.668 32.2225 67.888 32.1985 68.12H26.9425C26.9825 68.768 27.2025 69.276 27.6025 69.644C28.0105 70.004 28.5025 70.184 29.0785 70.184C29.5505 70.184 29.9425 70.076 30.2545 69.86C30.5745 69.636 30.7985 69.34 30.9265 68.972H32.1025C31.9265 69.604 31.5745 70.12 31.0465 70.52C30.5185 70.912 29.8625 71.108 29.0785 71.108C28.4545 71.108 27.8945 70.968 27.3985 70.688C26.9105 70.408 26.5265 70.012 26.2465 69.5C25.9665 68.98 25.8265 68.38 25.8265 67.7C25.8265 67.02 25.9625 66.424 26.2345 65.912C26.5065 65.4 26.8865 65.008 27.3745 64.736C27.8705 64.456 28.4385 64.316 29.0785 64.316C29.7025 64.316 30.2545 64.452 30.7345 64.724C31.2145 64.996 31.5825 65.372 31.8385 65.852C32.1025 66.324 32.2345 66.86 32.2345 67.46ZM31.1065 67.232C31.1065 66.816 31.0145 66.46 30.8305 66.164C30.6465 65.86 30.3945 65.632 30.0745 65.48C29.7625 65.32 29.4145 65.24 29.0305 65.24C28.4785 65.24 28.0065 65.416 27.6145 65.768C27.2305 66.12 27.0105 66.608 26.9545 67.232H31.1065ZM34.768 65.492C34.96 65.116 35.232 64.824 35.584 64.616C35.944 64.408 36.38 64.304 36.892 64.304V65.432H36.604C35.38 65.432 34.768 66.096 34.768 67.424V71H33.676V64.424H34.768V65.492ZM40.6005 69.992L42.6405 64.424H43.8045L41.2245 71H39.9525L37.3725 64.424H38.5485L40.6005 69.992ZM44.4711 67.688C44.4711 67.016 44.6071 66.428 44.8791 65.924C45.1511 65.412 45.5231 65.016 45.9951 64.736C46.4751 64.456 47.0071 64.316 47.5911 64.316C48.1671 64.316 48.6671 64.44 49.0911 64.688C49.5151 64.936 49.8311 65.248 50.0391 65.624V64.424H51.1431V71H50.0391V69.776C49.8231 70.16 49.4991 70.48 49.0671 70.736C48.6431 70.984 48.1471 71.108 47.5791 71.108C46.9951 71.108 46.4671 70.964 45.9951 70.676C45.5231 70.388 45.1511 69.984 44.8791 69.464C44.6071 68.944 44.4711 68.352 44.4711 67.688ZM50.0391 67.7C50.0391 67.204 49.9391 66.772 49.7391 66.404C49.5391 66.036 49.2671 65.756 48.9231 65.564C48.5871 65.364 48.2151 65.264 47.8071 65.264C47.3991 65.264 47.0271 65.36 46.6911 65.552C46.3551 65.744 46.0871 66.024 45.8871 66.392C45.6871 66.76 45.5871 67.192 45.5871 67.688C45.5871 68.192 45.6871 68.632 45.8871 69.008C46.0871 69.376 46.3551 69.66 46.6911 69.86C47.0271 70.052 47.3991 70.148 47.8071 70.148C48.2151 70.148 48.5871 70.052 48.9231 69.86C49.2671 69.66 49.5391 69.376 49.7391 69.008C49.9391 68.632 50.0391 68.196 50.0391 67.7ZM54.3205 65.324V69.2C54.3205 69.52 54.3885 69.748 54.5245 69.884C54.6605 70.012 54.8965 70.076 55.2325 70.076H56.0365V71H55.0525C54.4445 71 53.9885 70.86 53.6845 70.58C53.3805 70.3 53.2285 69.84 53.2285 69.2V65.324H52.3765V64.424H53.2285V62.768H54.3205V64.424H56.0365V65.324H54.3205ZM57.9235 63.356C57.7155 63.356 57.5395 63.284 57.3955 63.14C57.2515 62.996 57.1795 62.82 57.1795 62.612C57.1795 62.404 57.2515 62.228 57.3955 62.084C57.5395 61.94 57.7155 61.868 57.9235 61.868C58.1235 61.868 58.2915 61.94 58.4275 62.084C58.5715 62.228 58.6435 62.404 58.6435 62.612C58.6435 62.82 58.5715 62.996 58.4275 63.14C58.2915 63.284 58.1235 63.356 57.9235 63.356ZM58.4515 64.424V71H57.3595V64.424H58.4515ZM62.7607 69.992L64.8007 64.424H65.9647L63.3847 71H62.1127L59.5327 64.424H60.7087L62.7607 69.992ZM73.0392 67.46C73.0392 67.668 73.0272 67.888 73.0032 68.12H67.7472C67.7872 68.768 68.0072 69.276 68.4072 69.644C68.8152 70.004 69.3072 70.184 69.8832 70.184C70.3552 70.184 70.7472 70.076 71.0592 69.86C71.3792 69.636 71.6032 69.34 71.7312 68.972H72.9072C72.7312 69.604 72.3792 70.12 71.8512 70.52C71.3232 70.912 70.6672 71.108 69.8832 71.108C69.2592 71.108 68.6992 70.968 68.2032 70.688C67.7152 70.408 67.3312 70.012 67.0512 69.5C66.7712 68.98 66.6312 68.38 66.6312 67.7C66.6312 67.02 66.7672 66.424 67.0392 65.912C67.3112 65.4 67.6912 65.008 68.1792 64.736C68.6752 64.456 69.2432 64.316 69.8832 64.316C70.5072 64.316 71.0592 64.452 71.5392 64.724C72.0192 64.996 72.3872 65.372 72.6432 65.852C72.9072 66.324 73.0392 66.86 73.0392 67.46ZM71.9112 67.232C71.9112 66.816 71.8192 66.46 71.6352 66.164C71.4512 65.86 71.1992 65.632 70.8792 65.48C70.5672 65.32 70.2192 65.24 69.8352 65.24C69.2832 65.24 68.8112 65.416 68.4192 65.768C68.0352 66.12 67.8152 66.608 67.7592 67.232H71.9112ZM76.8086 71.108C76.3046 71.108 75.8526 71.024 75.4526 70.856C75.0526 70.68 74.7366 70.44 74.5046 70.136C74.2726 69.824 74.1446 69.468 74.1206 69.068H75.2486C75.2806 69.396 75.4326 69.664 75.7046 69.872C75.9846 70.08 76.3486 70.184 76.7966 70.184C77.2126 70.184 77.5406 70.092 77.7806 69.908C78.0206 69.724 78.1406 69.492 78.1406 69.212C78.1406 68.924 78.0126 68.712 77.7566 68.576C77.5006 68.432 77.1046 68.292 76.5686 68.156C76.0806 68.028 75.6806 67.9 75.3686 67.772C75.0646 67.636 74.8006 67.44 74.5766 67.184C74.3606 66.92 74.2526 66.576 74.2526 66.152C74.2526 65.816 74.3526 65.508 74.5526 65.228C74.7526 64.948 75.0366 64.728 75.4046 64.568C75.7726 64.4 76.1926 64.316 76.6646 64.316C77.3926 64.316 77.9806 64.5 78.4286 64.868C78.8766 65.236 79.1166 65.74 79.1486 66.38H78.0566C78.0326 66.036 77.8926 65.76 77.6366 65.552C77.3886 65.344 77.0526 65.24 76.6286 65.24C76.2366 65.24 75.9246 65.324 75.6926 65.492C75.4606 65.66 75.3446 65.88 75.3446 66.152C75.3446 66.368 75.4126 66.548 75.5486 66.692C75.6926 66.828 75.8686 66.94 76.0766 67.028C76.2926 67.108 76.5886 67.2 76.9646 67.304C77.4366 67.432 77.8206 67.56 78.1166 67.688C78.4126 67.808 78.6646 67.992 78.8726 68.24C79.0886 68.488 79.2006 68.812 79.2086 69.212C79.2086 69.572 79.1086 69.896 78.9086 70.184C78.7086 70.472 78.4246 70.7 78.0566 70.868C77.6966 71.028 77.2806 71.108 76.8086 71.108Z" fill="#7C756F"/>
<path d="M31.3829 39.7089C27.1976 38.5922 23.929 35.3236 22.8123 31.1383C21.9512 27.8165 21.5 24.3714 21.5 20.7606C21.5 17.1497 21.9512 13.7047 22.8123 10.3829C23.929 6.19755 27.1976 2.92898 31.3829 1.81225C34.7047 0.951208 38.1497 0.500021 41.7606 0.500021C45.3714 0.500021 48.8165 0.951209 52.1383 1.81226C56.3236 2.929 59.5922 6.19757 60.7089 10.3829C61.5699 13.7045 62.0211 17.191 62.0211 20.7606C62.0211 24.3302 61.5699 27.8167 60.7089 31.1382C59.5922 35.3236 56.3236 38.5922 52.1382 39.7089C48.8167 40.5699 45.3302 41.0211 41.7606 41.0211C38.191 41.0211 34.7045 40.5699 31.3829 39.7089Z" stroke="#7C756F" stroke-opacity="0.5"/>
<path d="M43.7056 9.49051V16.2524C43.7056 18.1816 44.4697 20.0344 45.8354 21.4002L51.2984 26.8631C53.5141 29.0789 51.9478 32.8609 48.8152 32.8609H36.6859" stroke="#7C756F" stroke-miterlimit="10"/>
<path d="M39.1213 9.49051V16.2524C39.1213 18.1816 38.3572 20.0344 36.9915 21.4002L31.5285 26.8631C29.3128 29.0789 30.8791 32.8609 34.0117 32.8609H46.141" stroke="#7C756F" stroke-miterlimit="10"/>
<path d="M47.1159 22.7085C46.8772 22.6894 46.6288 22.6703 46.3519 22.6703C42.8468 22.6703 42.8468 24.5804 39.3417 24.5804C37.1546 24.5804 36.3332 23.8355 35.1681 23.272" stroke="#7C756F" stroke-miterlimit="10"/>
<line x1="28.4723" y1="6.76431" x2="56.9439" y2="35.2359" stroke="#7C756F"/>
</svg>
