<svg width="49" height="73" viewBox="0 0 49 73" fill="none" xmlns="http://www.w3.org/2000/svg">
<path d="M3.74202 58.084C3.19002 58.084 2.69402 57.988 2.25402 57.796C1.82202 57.596 1.48202 57.324 1.23402 56.98C0.986016 56.628 0.858016 56.224 0.850016 55.768H2.01402C2.05402 56.16 2.21402 56.492 2.49402 56.764C2.78202 57.028 3.19802 57.16 3.74202 57.16C4.26202 57.16 4.67002 57.032 4.96602 56.776C5.27002 56.512 5.42202 56.176 5.42202 55.768C5.42202 55.448 5.33402 55.188 5.15802 54.988C4.98202 54.788 4.76202 54.636 4.49802 54.532C4.23402 54.428 3.87802 54.316 3.43002 54.196C2.87802 54.052 2.43402 53.908 2.09802 53.764C1.77002 53.62 1.48602 53.396 1.24602 53.092C1.01402 52.78 0.898016 52.364 0.898016 51.844C0.898016 51.388 1.01402 50.984 1.24602 50.632C1.47802 50.28 1.80202 50.008 2.21802 49.816C2.64202 49.624 3.12602 49.528 3.67002 49.528C4.45402 49.528 5.09402 49.724 5.59002 50.116C6.09402 50.508 6.37802 51.028 6.44202 51.676H5.24202C5.20202 51.356 5.03402 51.076 4.73802 50.836C4.44202 50.588 4.05002 50.464 3.56202 50.464C3.10602 50.464 2.73402 50.584 2.44602 50.824C2.15802 51.056 2.01402 51.384 2.01402 51.808C2.01402 52.112 2.09802 52.36 2.26602 52.552C2.44202 52.744 2.65402 52.892 2.90202 52.996C3.15802 53.092 3.51402 53.204 3.97002 53.332C4.52202 53.484 4.96602 53.636 5.30202 53.788C5.63802 53.932 5.92602 54.16 6.16602 54.472C6.40602 54.776 6.52602 55.192 6.52602 55.72C6.52602 56.128 6.41802 56.512 6.20202 56.872C5.98602 57.232 5.66602 57.524 5.24202 57.748C4.81802 57.972 4.31802 58.084 3.74202 58.084ZM14.133 54.46C14.133 54.668 14.121 54.888 14.097 55.12H8.84098C8.88098 55.768 9.10098 56.276 9.50098 56.644C9.90898 57.004 10.401 57.184 10.977 57.184C11.449 57.184 11.841 57.076 12.153 56.86C12.473 56.636 12.697 56.34 12.825 55.972H14.001C13.825 56.604 13.473 57.12 12.945 57.52C12.417 57.912 11.761 58.108 10.977 58.108C10.353 58.108 9.79298 57.968 9.29698 57.688C8.80898 57.408 8.42498 57.012 8.14498 56.5C7.86498 55.98 7.72498 55.38 7.72498 54.7C7.72498 54.02 7.86098 53.424 8.13298 52.912C8.40498 52.4 8.78498 52.008 9.27298 51.736C9.76898 51.456 10.337 51.316 10.977 51.316C11.601 51.316 12.153 51.452 12.633 51.724C13.113 51.996 13.481 52.372 13.737 52.852C14.001 53.324 14.133 53.86 14.133 54.46ZM13.005 54.232C13.005 53.816 12.913 53.46 12.729 53.164C12.545 52.86 12.293 52.632 11.973 52.48C11.661 52.32 11.313 52.24 10.929 52.24C10.377 52.24 9.90498 52.416 9.51298 52.768C9.12898 53.12 8.90898 53.608 8.85298 54.232H13.005ZM17.9024 58.108C17.3984 58.108 16.9464 58.024 16.5464 57.856C16.1464 57.68 15.8304 57.44 15.5984 57.136C15.3664 56.824 15.2384 56.468 15.2144 56.068H16.3424C16.3744 56.396 16.5264 56.664 16.7984 56.872C17.0784 57.08 17.4424 57.184 17.8904 57.184C18.3064 57.184 18.6344 57.092 18.8744 56.908C19.1144 56.724 19.2344 56.492 19.2344 56.212C19.2344 55.924 19.1064 55.712 18.8504 55.576C18.5944 55.432 18.1984 55.292 17.6624 55.156C17.1744 55.028 16.7744 54.9 16.4624 54.772C16.1584 54.636 15.8944 54.44 15.6704 54.184C15.4544 53.92 15.3464 53.576 15.3464 53.152C15.3464 52.816 15.4464 52.508 15.6464 52.228C15.8464 51.948 16.1304 51.728 16.4984 51.568C16.8664 51.4 17.2864 51.316 17.7584 51.316C18.4864 51.316 19.0744 51.5 19.5224 51.868C19.9704 52.236 20.2104 52.74 20.2424 53.38H19.1504C19.1264 53.036 18.9864 52.76 18.7304 52.552C18.4824 52.344 18.1464 52.24 17.7224 52.24C17.3304 52.24 17.0184 52.324 16.7864 52.492C16.5544 52.66 16.4384 52.88 16.4384 53.152C16.4384 53.368 16.5064 53.548 16.6424 53.692C16.7864 53.828 16.9624 53.94 17.1704 54.028C17.3864 54.108 17.6824 54.2 18.0584 54.304C18.5304 54.432 18.9144 54.56 19.2104 54.688C19.5064 54.808 19.7584 54.992 19.9664 55.24C20.1824 55.488 20.2944 55.812 20.3024 56.212C20.3024 56.572 20.2024 56.896 20.0024 57.184C19.8024 57.472 19.5184 57.7 19.1504 57.868C18.7904 58.028 18.3744 58.108 17.9024 58.108ZM21.4359 54.688C21.4359 54.016 21.5719 53.428 21.8439 52.924C22.1159 52.412 22.4879 52.016 22.9599 51.736C23.4399 51.456 23.9719 51.316 24.5559 51.316C25.1319 51.316 25.6319 51.44 26.0559 51.688C26.4799 51.936 26.7959 52.248 27.0039 52.624V51.424H28.1079V58H27.0039V56.776C26.7879 57.16 26.4639 57.48 26.0319 57.736C25.6079 57.984 25.1119 58.108 24.5439 58.108C23.9599 58.108 23.4319 57.964 22.9599 57.676C22.4879 57.388 22.1159 56.984 21.8439 56.464C21.5719 55.944 21.4359 55.352 21.4359 54.688ZM27.0039 54.7C27.0039 54.204 26.9039 53.772 26.7039 53.404C26.5039 53.036 26.2319 52.756 25.8879 52.564C25.5519 52.364 25.1799 52.264 24.7719 52.264C24.3639 52.264 23.9919 52.36 23.6559 52.552C23.3199 52.744 23.0519 53.024 22.8519 53.392C22.6519 53.76 22.5519 54.192 22.5519 54.688C22.5519 55.192 22.6519 55.632 22.8519 56.008C23.0519 56.376 23.3199 56.66 23.6559 56.86C23.9919 57.052 24.3639 57.148 24.7719 57.148C25.1799 57.148 25.5519 57.052 25.8879 56.86C26.2319 56.66 26.5039 56.376 26.7039 56.008C26.9039 55.632 27.0039 55.196 27.0039 54.7ZM37.8613 51.304C38.3733 51.304 38.8293 51.412 39.2293 51.628C39.6293 51.836 39.9453 52.152 40.1773 52.576C40.4093 53 40.5253 53.516 40.5253 54.124V58H39.4453V54.28C39.4453 53.624 39.2813 53.124 38.9533 52.78C38.6333 52.428 38.1973 52.252 37.6453 52.252C37.0773 52.252 36.6253 52.436 36.2893 52.804C35.9533 53.164 35.7853 53.688 35.7853 54.376V58H34.7053V54.28C34.7053 53.624 34.5413 53.124 34.2133 52.78C33.8933 52.428 33.4573 52.252 32.9053 52.252C32.3373 52.252 31.8853 52.436 31.5493 52.804C31.2133 53.164 31.0453 53.688 31.0453 54.376V58H29.9533V51.424H31.0453V52.372C31.2613 52.028 31.5493 51.764 31.9093 51.58C32.2773 51.396 32.6813 51.304 33.1213 51.304C33.6733 51.304 34.1613 51.428 34.5853 51.676C35.0093 51.924 35.3253 52.288 35.5333 52.768C35.7173 52.304 36.0213 51.944 36.4453 51.688C36.8693 51.432 37.3413 51.304 37.8613 51.304ZM48.3166 54.46C48.3166 54.668 48.3046 54.888 48.2806 55.12H43.0246C43.0646 55.768 43.2846 56.276 43.6846 56.644C44.0926 57.004 44.5846 57.184 45.1606 57.184C45.6326 57.184 46.0246 57.076 46.3366 56.86C46.6566 56.636 46.8806 56.34 47.0086 55.972H48.1846C48.0086 56.604 47.6566 57.12 47.1286 57.52C46.6006 57.912 45.9446 58.108 45.1606 58.108C44.5366 58.108 43.9766 57.968 43.4806 57.688C42.9926 57.408 42.6086 57.012 42.3286 56.5C42.0486 55.98 41.9086 55.38 41.9086 54.7C41.9086 54.02 42.0446 53.424 42.3166 52.912C42.5886 52.4 42.9686 52.008 43.4566 51.736C43.9526 51.456 44.5206 51.316 45.1606 51.316C45.7846 51.316 46.3366 51.452 46.8166 51.724C47.2966 51.996 47.6646 52.372 47.9206 52.852C48.1846 53.324 48.3166 53.86 48.3166 54.46ZM47.1886 54.232C47.1886 53.816 47.0966 53.46 46.9126 53.164C46.7286 52.86 46.4766 52.632 46.1566 52.48C45.8446 52.32 45.4966 52.24 45.1126 52.24C44.5606 52.24 44.0886 52.416 43.6966 52.768C43.3126 53.12 43.0926 53.608 43.0366 54.232H47.1886ZM16.4457 65.324H15.0657V71H13.9737V65.324H13.1217V64.424H13.9737V63.956C13.9737 63.22 14.1617 62.684 14.5377 62.348C14.9217 62.004 15.5337 61.832 16.3737 61.832V62.744C15.8937 62.744 15.5537 62.84 15.3537 63.032C15.1617 63.216 15.0657 63.524 15.0657 63.956V64.424H16.4457V65.324ZM18.8109 65.492C19.0029 65.116 19.2749 64.824 19.6269 64.616C19.9869 64.408 20.4229 64.304 20.9349 64.304V65.432H20.6469C19.4229 65.432 18.8109 66.096 18.8109 67.424V71H17.7189V64.424H18.8109V65.492ZM28.1955 67.46C28.1955 67.668 28.1835 67.888 28.1595 68.12H22.9035C22.9435 68.768 23.1635 69.276 23.5635 69.644C23.9715 70.004 24.4635 70.184 25.0395 70.184C25.5115 70.184 25.9035 70.076 26.2155 69.86C26.5355 69.636 26.7595 69.34 26.8875 68.972H28.0635C27.8875 69.604 27.5355 70.12 27.0075 70.52C26.4795 70.912 25.8235 71.108 25.0395 71.108C24.4155 71.108 23.8555 70.968 23.3595 70.688C22.8715 70.408 22.4875 70.012 22.2075 69.5C21.9275 68.98 21.7875 68.38 21.7875 67.7C21.7875 67.02 21.9235 66.424 22.1955 65.912C22.4675 65.4 22.8475 65.008 23.3355 64.736C23.8315 64.456 24.3995 64.316 25.0395 64.316C25.6635 64.316 26.2155 64.452 26.6955 64.724C27.1755 64.996 27.5435 65.372 27.7995 65.852C28.0635 66.324 28.1955 66.86 28.1955 67.46ZM27.0675 67.232C27.0675 66.816 26.9755 66.46 26.7915 66.164C26.6075 65.86 26.3555 65.632 26.0355 65.48C25.7235 65.32 25.3755 65.24 24.9915 65.24C24.4395 65.24 23.9675 65.416 23.5755 65.768C23.1915 66.12 22.9715 66.608 22.9155 67.232H27.0675ZM35.6369 67.46C35.6369 67.668 35.6249 67.888 35.6009 68.12H30.3449C30.3849 68.768 30.6049 69.276 31.0049 69.644C31.4129 70.004 31.9049 70.184 32.4809 70.184C32.9529 70.184 33.3449 70.076 33.6569 69.86C33.9769 69.636 34.2009 69.34 34.3289 68.972H35.5049C35.3289 69.604 34.9769 70.12 34.4489 70.52C33.9209 70.912 33.2649 71.108 32.4809 71.108C31.8569 71.108 31.2969 70.968 30.8009 70.688C30.3129 70.408 29.9289 70.012 29.6489 69.5C29.3689 68.98 29.2289 68.38 29.2289 67.7C29.2289 67.02 29.3649 66.424 29.6369 65.912C29.9089 65.4 30.2889 65.008 30.7769 64.736C31.2729 64.456 31.8409 64.316 32.4809 64.316C33.1049 64.316 33.6569 64.452 34.1369 64.724C34.6169 64.996 34.9849 65.372 35.2409 65.852C35.5049 66.324 35.6369 66.86 35.6369 67.46ZM34.5089 67.232C34.5089 66.816 34.4169 66.46 34.2329 66.164C34.0489 65.86 33.7969 65.632 33.4769 65.48C33.1649 65.32 32.8169 65.24 32.4329 65.24C31.8809 65.24 31.4089 65.416 31.0169 65.768C30.6329 66.12 30.4129 66.608 30.3569 67.232H34.5089Z" fill="#7C756F"/>
<path d="M16.3829 39.7089C12.1975 38.5922 8.92897 35.3236 7.81223 31.1383C6.95118 27.8165 6.49999 24.3714 6.49999 20.7606C6.49999 17.1497 6.95118 13.7047 7.81223 10.3829C8.92896 6.19755 12.1975 2.92898 16.3829 1.81225C19.7046 0.951208 23.1497 0.500021 26.7605 0.500021C30.3714 0.500021 33.8165 0.951209 37.1382 1.81226C41.3236 2.929 44.5921 6.19757 45.7089 10.3829C46.5698 13.7045 47.0211 17.191 47.0211 20.7606C47.0211 24.3302 46.5698 27.8167 45.7089 31.1382C44.5921 35.3236 41.3236 38.5922 37.1382 39.7089C33.8167 40.5699 30.3301 41.0211 26.7605 41.0211C23.191 41.0211 19.7044 40.5699 16.3829 39.7089Z" stroke="#7C756F" stroke-opacity="0.5"/>
<path d="M16.9469 15.357L16.9469 15.357C17.59 14.9941 18.1255 14.4587 18.4955 13.8145C18.866 13.1692 19.0633 12.4423 19.057 11.7041C19.051 11.0502 18.8926 10.4075 18.5979 9.82928C17.9502 9.86591 17.3132 10.049 16.7506 10.3722L16.7492 10.373L16.7492 10.373C16.1065 10.7358 15.5705 11.2711 15.1936 11.9161C14.8233 12.5612 14.6261 13.2879 14.6325 14.0258L16.9469 15.357ZM16.9469 15.357L16.9456 15.3577C16.3827 15.681 15.7453 15.8643 15.0916 15.9008M16.9469 15.357L15.0916 15.9008M15.0916 15.9008C14.7969 15.3226 14.6385 14.6799 14.6325 14.026L15.0916 15.9008ZM18.9697 9.39156L18.9119 9.29001L18.795 9.29051C17.1763 9.29749 15.6062 10.1418 14.734 11.6419L14.734 11.6419L14.7335 11.6428C13.8682 13.1501 13.9244 14.9296 14.7264 16.3384L14.7842 16.44L14.9011 16.4395C16.5198 16.4325 18.09 15.5882 18.9621 14.0881C19.8352 12.5864 19.7714 10.7997 18.9697 9.39156Z" fill="#7C756F" stroke="#7C756F" stroke-width="0.4"/>
<path d="M25.1227 15.3574L25.1227 15.3574C25.7659 14.9945 26.3015 14.4591 26.6715 13.8148C27.0421 13.1695 27.2393 12.4425 27.233 11.7042C27.227 11.0502 27.0686 10.4075 26.7739 9.82929C26.1263 9.86591 25.4887 10.049 24.9193 10.3725C24.2745 10.7429 23.7391 11.2723 23.3696 11.9157C22.9991 12.561 22.8018 13.2879 22.8081 14.0262L25.1227 15.3574ZM25.1227 15.3574L25.1214 15.3582C24.5585 15.6815 23.9211 15.8647 23.2673 15.9012M25.1227 15.3574L23.2673 15.9012M23.2673 15.9012C22.9725 15.323 22.8141 14.6803 22.8081 14.0263L23.2673 15.9012ZM27.1457 9.39156L27.0879 9.29001L26.971 9.29051C25.3522 9.29749 23.7819 10.1418 22.9097 11.642C22.0366 13.1437 22.1002 14.9307 22.9023 16.3326L22.9602 16.4338L23.0768 16.4333C24.6956 16.4263 26.2659 15.5819 27.1381 14.0817C28.0112 12.5799 27.9474 10.7998 27.1457 9.39156Z" fill="#7C756F" stroke="#7C756F" stroke-width="0.4"/>
<path d="M33.3041 15.3574L33.3041 15.3574C33.9472 14.9945 34.4828 14.4591 34.8528 13.8148C35.2234 13.1695 35.4207 12.4425 35.4143 11.7043C35.4083 11.0503 35.25 10.4075 34.9552 9.82929C34.3077 9.86591 33.67 10.049 33.1006 10.3725C32.4558 10.7429 31.9204 11.2723 31.551 11.9157C31.1804 12.561 30.9831 13.2879 30.9895 14.0262L33.3041 15.3574ZM33.3041 15.3574L33.3028 15.3582C32.7399 15.6815 32.1024 15.8647 31.4486 15.9012M33.3041 15.3574L31.4486 15.9012M31.4486 15.9012C31.1539 15.323 30.9955 14.6803 30.9895 14.0263L31.4486 15.9012ZM35.327 9.39156L35.2692 9.29001L35.1524 9.29051C33.5336 9.29749 31.9633 10.1418 31.091 11.642L31.0907 11.6426C30.2251 13.1435 30.2813 14.9301 31.0837 16.3326L31.1416 16.4338L31.2581 16.4333C32.8769 16.4263 34.4472 15.5819 35.3194 14.0817L35.3198 14.0811C36.1855 12.5802 36.1291 10.8003 35.327 9.39156Z" fill="#7C756F" stroke="#7C756F" stroke-width="0.4"/>
<path d="M20.4219 18.861L20.4225 18.8613C21.0656 19.2242 21.6012 19.7596 21.9712 20.4039C22.3418 21.0492 22.5391 21.7761 22.5327 22.5144C22.5267 23.1684 22.3684 23.8111 22.0736 24.3894C21.4259 24.3528 20.7881 24.1696 20.2186 23.8459L20.2181 23.8456C19.575 23.4827 19.0394 22.9473 18.6694 22.303C18.2988 21.6577 18.1015 20.9308 18.1079 20.1925C18.1139 19.5446 18.2723 18.8963 18.567 18.3175C19.2147 18.3541 19.8525 18.5373 20.4219 18.861ZM18.3698 17.7787L18.253 17.7782L18.1952 17.8798C17.3931 19.2886 17.3367 21.0684 18.2024 22.5694C19.0682 24.0705 20.6457 24.9145 22.2641 24.9215L22.3809 24.922L22.4387 24.8204C23.2408 23.4116 23.2972 21.6318 22.4315 20.1308C21.5657 18.6297 19.9882 17.7857 18.3698 17.7787Z" fill="#7C756F" stroke="#7C756F" stroke-width="0.4"/>
<path d="M28.6011 18.861L28.6017 18.8613C29.2448 19.2242 29.7804 19.7596 30.1504 20.4039C30.521 21.0492 30.7183 21.7761 30.7119 22.5144C30.7059 23.1684 30.5476 23.8111 30.2528 24.3894C29.6051 24.3528 28.9673 24.1696 28.3978 23.8459L28.3973 23.8456C27.7542 23.4827 27.2186 22.9473 26.8486 22.303C26.478 21.6577 26.2807 20.9308 26.2871 20.1925C26.2931 19.5446 26.4515 18.8963 26.7462 18.3175C27.3939 18.3541 28.0317 18.5373 28.6011 18.861ZM26.549 17.7787L26.4322 17.7782L26.3744 17.8798C25.5723 19.2886 25.5159 21.0684 26.3816 22.5694C27.2474 24.0705 28.8249 24.9145 30.4433 24.9215L30.5601 24.922L30.6179 24.8204C31.42 23.4116 31.4764 21.6318 30.6107 20.1308C29.7449 18.6297 28.1674 17.7857 26.549 17.7787Z" fill="#7C756F" stroke="#7C756F" stroke-width="0.4"/>
<path d="M36.7803 18.861L36.7809 18.8613C37.424 19.2242 37.9596 19.7596 38.3296 20.4039C38.7002 21.0492 38.8975 21.7761 38.8911 22.5144C38.8851 23.1684 38.7267 23.8111 38.432 24.3894C37.7843 24.3528 37.1465 24.1696 36.577 23.8459L36.5765 23.8456C35.9334 23.4827 35.3978 22.9473 35.0278 22.303C34.6572 21.6577 34.4599 20.9308 34.4663 20.1925C34.4723 19.5446 34.6307 18.8963 34.9254 18.3175C35.5731 18.3541 36.2109 18.5373 36.7803 18.861ZM34.7282 17.7787L34.6114 17.7782L34.5536 17.8798C33.7515 19.2886 33.6951 21.0684 34.5608 22.5694C35.4266 24.0705 37.0041 24.9145 38.6225 24.9215L38.7393 24.922L38.7971 24.8204C39.5992 23.4116 39.6556 21.6318 38.7899 20.1308L38.7895 20.1302C37.9173 18.63 36.347 17.7857 34.7282 17.7787Z" fill="#7C756F" stroke="#7C756F" stroke-width="0.4"/>
<path d="M16.9467 32.3342L16.9467 32.3342C17.5898 31.9713 18.1253 31.436 18.4953 30.7917C18.8659 30.1465 19.0631 29.4196 19.0568 28.6814C19.0508 28.0274 18.8924 27.3848 18.5977 26.8065C17.9502 26.8432 17.3126 27.0262 16.7433 27.3497C16.0985 27.7201 15.5632 28.2494 15.1938 28.8928C14.8232 29.538 14.6259 30.2649 14.6323 31.0031L16.9467 32.3342ZM16.9467 32.3342L16.9454 32.335C16.3826 32.6583 15.7451 32.8415 15.0914 32.878M16.9467 32.3342L15.0914 32.878M15.0914 32.878C14.7967 32.2998 14.6383 31.6572 14.6323 31.0032L15.0914 32.878ZM18.9695 26.3688L18.9117 26.2673L18.7949 26.2678C17.1762 26.2748 15.606 27.119 14.7338 28.6191L14.7338 28.6191L14.7333 28.6201C13.868 30.1273 13.9242 31.9068 14.7262 33.3157L14.784 33.4172L14.9009 33.4167C16.5196 33.4097 18.0898 32.5655 18.9619 31.0654C19.835 29.5637 19.7712 27.777 18.9695 26.3688Z" fill="#7C756F" stroke="#7C756F" stroke-width="0.4"/>
<path d="M25.1214 32.3354L25.1214 32.3354C25.7664 31.965 26.3019 31.4356 26.6715 30.7921C27.0421 30.1467 27.2393 29.4197 27.233 28.6814C27.227 28.0275 27.0686 27.3848 26.7739 26.8065C26.1263 26.8432 25.4887 27.0262 24.9193 27.3498C24.2745 27.7201 23.7391 28.2495 23.3696 28.8929C22.9991 29.5382 22.8018 30.2652 22.8081 31.0034L25.1214 32.3354ZM25.1214 32.3354C24.5585 32.6588 23.9211 32.842 23.2673 32.8785M25.1214 32.3354L23.2673 32.8785M23.2673 32.8785C22.9725 32.3003 22.8141 31.6575 22.8081 31.0035L23.2673 32.8785ZM27.1457 26.3688L27.0879 26.2673L26.971 26.2678C25.3522 26.2748 23.7819 27.1191 22.9097 28.6193C22.0366 30.121 22.1002 31.9079 22.9023 33.3098L22.9602 33.411L23.0768 33.4105C24.6956 33.4035 26.2659 32.5592 27.1381 31.059C28.0112 29.5572 27.9474 27.7771 27.1457 26.3688Z" fill="#7C756F" stroke="#7C756F" stroke-width="0.4"/>
<path d="M33.3028 32.3354L33.3028 32.3354C33.9477 31.965 34.4833 31.4356 34.8528 30.7921C35.2234 30.1468 35.4207 29.4198 35.4143 28.6816C35.4083 28.0275 35.25 27.3848 34.9552 26.8065C34.3077 26.8432 33.67 27.0262 33.1006 27.3498C32.4558 27.7202 31.9204 28.2496 31.551 28.8929C31.1804 29.5382 30.9831 30.2652 30.9895 31.0034L33.3028 32.3354ZM33.3028 32.3354C32.7399 32.6588 32.1024 32.842 31.4486 32.8785M33.3028 32.3354L31.4486 32.8785M31.4486 32.8785C31.1539 32.3003 30.9955 31.6575 30.9895 31.0035L31.4486 32.8785ZM35.327 26.3688L35.2692 26.2673L35.1524 26.2678C33.5336 26.2748 31.9633 27.1191 31.091 28.6193L31.0907 28.6199C30.2251 30.1207 30.2813 31.9074 31.0837 33.3098L31.1416 33.411L31.2581 33.4105C32.8769 33.4035 34.4472 32.5592 35.3194 31.059L35.3198 31.0584C36.1855 29.5574 36.1291 27.7776 35.327 26.3688Z" fill="#7C756F" stroke="#7C756F" stroke-width="0.4"/>
</svg>
