<svg width="44" height="69" viewBox="0 0 44 69" fill="none" xmlns="http://www.w3.org/2000/svg">
<path d="M12.3829 39.7089C8.19755 38.5921 4.92897 35.3236 3.81223 31.1382C2.95118 27.8165 2.49999 24.3714 2.49999 20.7605C2.49999 17.1497 2.95118 13.7046 3.81223 10.3829C4.92896 6.19752 8.19752 2.92895 12.3829 1.81222C15.7046 0.951177 19.1497 0.49999 22.7605 0.499991C26.3714 0.499991 29.8165 0.951178 33.1382 1.81223C37.3236 2.92897 40.5921 6.19754 41.7089 10.3829C42.5698 13.7044 43.0211 17.191 43.0211 20.7605C43.0211 24.3301 42.5698 27.8167 41.7089 31.1382C40.5921 35.3236 37.3236 38.5921 33.1382 39.7089C29.8167 40.5698 26.3301 41.0211 22.7605 41.0211C19.191 41.0211 15.7044 40.5698 12.3829 39.7089Z" stroke="#7C756F" stroke-opacity="0.5"/>
<path d="M22.3171 30.0216C22.3171 29.1864 22.3171 28.3512 22.3171 27.5006C22.3171 26.2169 22.3013 24.9177 22.3171 23.634C22.3171 23.2164 22.2224 22.9535 21.7807 22.7524C18.8462 21.3914 17.6314 18.9631 18.294 15.8235C18.9567 12.7302 20.5185 10.0545 22.3013 7.48712C22.5695 7.10046 22.9481 6.94579 23.2479 7.37885C25.2199 10.2247 27.0185 13.1478 27.4444 16.6123C27.7915 19.3962 26.561 21.4996 23.9894 22.6905C23.4687 22.938 23.3268 23.2164 23.3268 23.7422C23.3583 25.8302 23.3425 27.9182 23.3425 30.1453C23.595 29.9597 23.7685 29.8669 23.8947 29.7432C24.7782 28.8925 25.6301 28.0264 26.5294 27.1758C26.8292 26.8974 26.908 26.6499 26.7661 26.2323C26.0246 23.8814 26.6398 22.041 28.7066 20.6335C30.8206 19.1951 33.266 18.561 35.7587 18.097C36.2635 18.0042 36.6264 18.1898 36.516 18.7466C36.0584 21.082 35.4274 23.3711 34.1179 25.4126C33.3133 26.6809 32.2405 27.6862 30.6629 27.8563C29.874 27.9336 29.0379 27.8254 28.2648 27.6398C27.7758 27.5315 27.5075 27.5934 27.1762 27.9182C26.0719 29.0317 24.9202 30.0835 23.8474 31.2125C23.5634 31.5064 23.3899 32.0013 23.3583 32.4189C23.2794 33.2077 23.3899 34.0119 23.311 34.8162C23.2794 35.0945 22.9639 35.3265 22.7746 35.5895C22.6168 35.342 22.3328 35.0946 22.3171 34.8316C22.254 33.981 22.3328 33.1303 22.2855 32.2797C22.2697 31.9549 22.1277 31.5682 21.9069 31.3362C20.7394 30.1453 19.5562 28.9699 18.3414 27.8408C18.152 27.6707 17.7261 27.5779 17.4737 27.6398C14.981 28.3512 13.0247 27.6707 11.6048 25.5518C10.2795 23.5567 9.61693 21.2831 9.15941 18.9322C9.01742 18.2208 9.23829 17.9888 9.96401 18.128C12.3305 18.561 14.6181 19.2106 16.6691 20.4789C18.8935 21.8554 19.6035 23.8041 18.8778 26.2787C18.8147 26.5107 18.8304 26.8819 18.9882 27.0211C19.9821 28.0728 21.0234 29.0936 22.0646 30.1144C22.1435 30.0989 22.2382 30.068 22.3171 30.0216ZM23.3583 21.7935C25.0937 21.3295 26.419 19.5818 26.4821 17.7722C26.561 15.3286 25.5355 13.2097 24.4311 11.1217C23.9736 10.2711 23.4372 9.45134 22.9323 8.60069C22.7746 8.72442 22.6799 8.75536 22.6484 8.81722C21.2916 10.8742 20.0926 13.0241 19.4457 15.4059C19.1302 16.5813 18.9724 17.7877 19.4142 18.9786C19.919 20.3551 20.8814 21.2522 22.2697 21.8708C22.5695 19.1333 22.5695 19.1333 20.7552 17.3237C20.6447 17.2155 20.4712 17.1227 20.4396 16.9835C20.3608 16.736 20.3608 16.4731 20.3292 16.2256C20.5974 16.2565 20.9445 16.1947 21.1338 16.3339C21.5282 16.5968 21.8438 16.968 22.2066 17.3082C22.6168 16.1328 22.0804 15.4059 21.3074 14.7408C21.1496 14.6016 21.1811 14.2614 21.118 14.0139C21.3862 14.0139 21.6702 13.9984 21.9384 14.0139C22.0489 14.0139 22.1435 14.1067 22.3328 14.184C22.3328 13.7201 22.2697 13.3179 22.3486 12.9467C22.4117 12.7147 22.6799 12.5291 22.8692 12.3126C23.027 12.5137 23.2952 12.6838 23.3425 12.9158C23.4214 13.2715 23.3583 13.6582 23.3583 13.8902C23.8316 13.9366 24.1945 13.983 24.5731 14.0139C24.3996 14.3696 24.226 14.7408 24.0525 15.0966C24.0209 15.1584 23.942 15.2203 23.8789 15.2512C23.1532 15.7771 23.3268 16.4576 23.6107 17.2618C23.9894 16.9989 24.2102 16.5968 24.5416 16.3184C24.7151 16.1792 25.078 16.2411 25.3619 16.2101C25.3146 16.4731 25.3619 16.8133 25.2042 16.9989C24.8571 17.4474 24.3996 17.8032 24.0052 18.2208C23.7843 18.4528 23.4372 18.7312 23.4214 18.9941C23.311 19.9375 23.3583 20.85 23.3583 21.7935ZM28.5173 26.6499C30.1896 27.315 31.7514 26.8665 32.8716 25.4435C34.0075 24.0052 34.5755 22.3193 35.0487 20.6026C35.175 20.1695 35.2538 19.7365 35.3958 19.0559C33.7866 19.5973 32.3352 19.9685 30.9784 20.5562C30.0476 20.9583 29.1325 21.5615 28.391 22.2575C27.3656 23.2164 27.2393 24.4846 27.6969 25.8147C28.9905 24.9796 29.3061 24.4382 29.3061 23.1236C29.3061 22.8452 29.2588 22.5359 29.3376 22.2729C29.385 22.0874 29.6058 21.9482 29.7478 21.7935C29.9214 21.9482 30.1738 22.0719 30.2527 22.2729C30.3473 22.5049 30.3 22.7988 30.3316 23.2319C30.6313 22.9689 30.8206 22.7988 30.9942 22.6287C31.4832 22.1337 31.9565 21.5924 32.4772 21.1439C32.6192 21.0202 32.9662 21.113 33.2187 21.113C33.2029 21.345 33.2502 21.5924 33.1713 21.7935C33.0767 21.9946 32.8558 22.1337 32.698 22.3039C32.2247 22.7988 31.7514 23.2783 31.1677 23.8969C31.6095 23.9433 31.8777 23.8969 32.067 23.9897C32.2405 24.0825 32.4614 24.299 32.4614 24.4692C32.4614 24.6238 32.209 24.8558 32.0354 24.9022C31.7357 24.9796 31.4044 24.9177 31.0888 24.9486C30.7102 24.9796 30.2369 24.9332 29.9687 25.1342C29.4796 25.5518 29.0537 26.0931 28.5173 26.6499ZM17.0161 26.6809C16.0064 25.227 15.5647 24.9796 13.9239 24.9641C13.7346 24.9641 13.5295 25.0105 13.3875 24.9332C13.214 24.8404 12.9773 24.6393 12.9773 24.5001C12.9773 24.33 13.1982 24.1134 13.3717 24.0361C13.5768 23.9433 13.845 23.9588 14.3026 23.9124C13.5295 23.1391 12.8827 22.5359 12.2832 21.8708C12.157 21.7162 12.2358 21.3914 12.2201 21.1439C12.4567 21.1439 12.7091 21.0975 12.9142 21.1594C13.0878 21.2212 13.2298 21.4223 13.3717 21.5615C13.9082 22.0719 14.4288 22.5823 15.0914 23.2164C15.1229 22.7988 15.0914 22.5513 15.1861 22.3657C15.2807 22.1647 15.4858 22.01 15.6278 21.8244C15.8013 22.01 16.0538 22.1647 16.1169 22.3967C16.2115 22.6751 16.18 23.0153 16.1326 23.3092C15.9433 24.6548 17.0792 25.0878 17.8365 25.8457C18.4676 24.3764 18.1047 22.8916 16.8584 21.8708C15.0283 20.3706 12.788 19.7365 10.4689 19.2879C10.4373 19.2879 10.39 19.3343 10.2795 19.4117C10.8002 21.5924 11.3839 23.7732 12.8669 25.5982C13.9397 26.8819 15.47 27.2686 17.0161 26.6809Z" fill="#7C756F"/>
<path d="M8.11334 56.636L4.95734 65H3.69734L0.541344 56.636H1.70534L4.33334 63.848L6.96134 56.636H8.11334ZM15.3107 61.46C15.3107 61.668 15.2987 61.888 15.2747 62.12H10.0187C10.0587 62.768 10.2787 63.276 10.6787 63.644C11.0867 64.004 11.5787 64.184 12.1547 64.184C12.6267 64.184 13.0187 64.076 13.3307 63.86C13.6507 63.636 13.8747 63.34 14.0027 62.972H15.1787C15.0027 63.604 14.6507 64.12 14.1227 64.52C13.5947 64.912 12.9387 65.108 12.1547 65.108C11.5307 65.108 10.9707 64.968 10.4747 64.688C9.98672 64.408 9.60272 64.012 9.32272 63.5C9.04272 62.98 8.90272 62.38 8.90272 61.7C8.90272 61.02 9.03872 60.424 9.31072 59.912C9.58272 59.4 9.96272 59.008 10.4507 58.736C10.9467 58.456 11.5147 58.316 12.1547 58.316C12.7787 58.316 13.3307 58.452 13.8107 58.724C14.2907 58.996 14.6587 59.372 14.9147 59.852C15.1787 60.324 15.3107 60.86 15.3107 61.46ZM14.1827 61.232C14.1827 60.816 14.0907 60.46 13.9067 60.164C13.7227 59.86 13.4707 59.632 13.1507 59.48C12.8387 59.32 12.4907 59.24 12.1067 59.24C11.5547 59.24 11.0827 59.416 10.6907 59.768C10.3067 60.12 10.0867 60.608 10.0307 61.232H14.1827ZM19.4641 58.316C20.0321 58.316 20.5281 58.44 20.9521 58.688C21.3841 58.936 21.7041 59.248 21.9121 59.624V58.424H23.0161V65.144C23.0161 65.744 22.8881 66.276 22.6321 66.74C22.3761 67.212 22.0081 67.58 21.5281 67.844C21.0561 68.108 20.5041 68.24 19.8721 68.24C19.0081 68.24 18.2881 68.036 17.7121 67.628C17.1361 67.22 16.7961 66.664 16.6921 65.96H17.7721C17.8921 66.36 18.1401 66.68 18.5161 66.92C18.8921 67.168 19.3441 67.292 19.8721 67.292C20.4721 67.292 20.9601 67.104 21.3361 66.728C21.7201 66.352 21.9121 65.824 21.9121 65.144V63.764C21.6961 64.148 21.3761 64.468 20.9521 64.724C20.5281 64.98 20.0321 65.108 19.4641 65.108C18.8801 65.108 18.3481 64.964 17.8681 64.676C17.3961 64.388 17.0241 63.984 16.7521 63.464C16.4801 62.944 16.3441 62.352 16.3441 61.688C16.3441 61.016 16.4801 60.428 16.7521 59.924C17.0241 59.412 17.3961 59.016 17.8681 58.736C18.3481 58.456 18.8801 58.316 19.4641 58.316ZM21.9121 61.7C21.9121 61.204 21.8121 60.772 21.6121 60.404C21.4121 60.036 21.1401 59.756 20.7961 59.564C20.4601 59.364 20.0881 59.264 19.6801 59.264C19.2721 59.264 18.9001 59.36 18.5641 59.552C18.2281 59.744 17.9601 60.024 17.7601 60.392C17.5601 60.76 17.4601 61.192 17.4601 61.688C17.4601 62.192 17.5601 62.632 17.7601 63.008C17.9601 63.376 18.2281 63.66 18.5641 63.86C18.9001 64.052 19.2721 64.148 19.6801 64.148C20.0881 64.148 20.4601 64.052 20.7961 63.86C21.1401 63.66 21.4121 63.376 21.6121 63.008C21.8121 62.632 21.9121 62.196 21.9121 61.7ZM24.4535 61.688C24.4535 61.016 24.5895 60.428 24.8615 59.924C25.1335 59.412 25.5055 59.016 25.9775 58.736C26.4575 58.456 26.9895 58.316 27.5735 58.316C28.1495 58.316 28.6495 58.44 29.0735 58.688C29.4975 58.936 29.8135 59.248 30.0215 59.624V58.424H31.1255V65H30.0215V63.776C29.8055 64.16 29.4815 64.48 29.0495 64.736C28.6255 64.984 28.1295 65.108 27.5615 65.108C26.9775 65.108 26.4495 64.964 25.9775 64.676C25.5055 64.388 25.1335 63.984 24.8615 63.464C24.5895 62.944 24.4535 62.352 24.4535 61.688ZM30.0215 61.7C30.0215 61.204 29.9215 60.772 29.7215 60.404C29.5215 60.036 29.2495 59.756 28.9055 59.564C28.5695 59.364 28.1975 59.264 27.7895 59.264C27.3815 59.264 27.0095 59.36 26.6735 59.552C26.3375 59.744 26.0695 60.024 25.8695 60.392C25.6695 60.76 25.5695 61.192 25.5695 61.688C25.5695 62.192 25.6695 62.632 25.8695 63.008C26.0695 63.376 26.3375 63.66 26.6735 63.86C27.0095 64.052 27.3815 64.148 27.7895 64.148C28.1975 64.148 28.5695 64.052 28.9055 63.86C29.2495 63.66 29.5215 63.376 29.7215 63.008C29.9215 62.632 30.0215 62.196 30.0215 61.7ZM36.1749 58.304C36.9749 58.304 37.6229 58.548 38.1189 59.036C38.6149 59.516 38.8629 60.212 38.8629 61.124V65H37.7829V61.28C37.7829 60.624 37.6189 60.124 37.2909 59.78C36.9629 59.428 36.5149 59.252 35.9469 59.252C35.3709 59.252 34.9109 59.432 34.5669 59.792C34.2309 60.152 34.0629 60.676 34.0629 61.364V65H32.9709V58.424H34.0629V59.36C34.2789 59.024 34.5709 58.764 34.9389 58.58C35.3149 58.396 35.7269 58.304 36.1749 58.304Z" fill="#7C756F"/>
</svg>
