<?xml version="1.0" encoding="utf-8"?>
<!-- Generator: Adobe Illustrator 25.2.0, SVG Export Plug-In . SVG Version: 6.00 Build 0)  -->
<!DOCTYPE svg PUBLIC "-//W3C//DTD SVG 1.1//EN" "http://www.w3.org/Graphics/SVG/1.1/DTD/svg11.dtd" [
	<!ENTITY ns_extend "http://ns.adobe.com/Extensibility/1.0/">
	<!ENTITY ns_ai "http://ns.adobe.com/AdobeIllustrator/10.0/">
	<!ENTITY ns_graphs "http://ns.adobe.com/Graphs/1.0/">
	<!ENTITY ns_vars "http://ns.adobe.com/Variables/1.0/">
	<!ENTITY ns_imrep "http://ns.adobe.com/ImageReplacement/1.0/">
	<!ENTITY ns_sfw "http://ns.adobe.com/SaveForWeb/1.0/">
	<!ENTITY ns_custom "http://ns.adobe.com/GenericCustomNamespace/1.0/">
	<!ENTITY ns_adobe_xpath "http://ns.adobe.com/XPath/1.0/">
]>
<svg version="1.1" id="Livello_1" xmlns:x="&ns_extend;" xmlns:i="&ns_ai;" xmlns:graph="&ns_graphs;"
	 xmlns="http://www.w3.org/2000/svg" xmlns:xlink="http://www.w3.org/1999/xlink" x="0px" y="0px" viewBox="0 0 343.18945 73.42285"
	 enable-background="new 0 0 343.18945 73.42285" xml:space="preserve">
<metadata>
	<sfw  xmlns="&ns_sfw;">
		<slices></slices>
		<sliceSourceBounds  bottomLeftOrigin="true" height="70.28322" width="342.75977" x="0.42969" y="3.13964"></sliceSourceBounds>
	</sfw>
</metadata>
<g id="Livello_2_1_">
	<g id="Livello_1-2">
		<g opacity="0.5">
			<path fill="#FFFFFF" d="M323.18945,40c-3.43063,0.0033-6.84784-0.4288-10.16968-1.28594l-0.00262-0.00071
				c-4.16733-1.1184-7.42245-4.37349-8.54092-8.54081c-1.71545-6.67229-1.7157-13.67005-0.0007-20.34246
				c1.11801-4.16837,4.3735-7.42453,8.54163-8.54343c6.67224-1.71529,13.66986-1.71554,20.34222-0.00071
				c4.16843,1.11807,7.42462,4.37358,8.54355,8.54176c1.71512,6.67225,1.71539,13.66985,0.00073,20.34222
				c-1.11804,4.16838-4.3735,7.42453-8.54166,8.54343C330.03925,39.57088,326.62109,40.00322,323.18945,40z M313.20422,38.00666
				c3.26163,0.84141,6.61682,1.26555,9.98523,1.26226c3.3689,0.00326,6.72461-0.421,9.98669-1.26261
				c3.91364-1.05108,6.97031-4.10849,8.02045-8.02237c1.68262-6.55046,1.68237-13.41992-0.0007-19.97026
				c-1.05106-3.9137-4.10846-6.97046-8.02237-8.0207c-6.55051-1.68277-13.4201-1.68253-19.97049,0.00071
				c-3.91354,1.05122-6.97018,4.10857-8.02048,8.02237c-1.68292,6.55049-1.68268,13.42012,0.00073,19.97049
				C306.23425,33.89966,309.29102,36.95609,313.20422,38.00666z"/>
		</g>
		<polygon fill="#FFFFFF" points="314.03699,15.205 314.03699,18.096 314.99301,18.096 314.99301,13.198 314.01501,13.198 
			312.42499,16.763 310.82901,13.198 309.84299,13.198 309.84299,18.096 310.79999,18.096 310.79999,15.203 312.09399,18.096 
			312.74899,18.096 		"/>
		<path fill="#FFFFFF" d="M316.85248,17.133h1.84509l0.33936,0.9635h1.00854l-1.733-4.84473l-0.02191-0.06055h-1.02426
			l-1.75488,4.90528h1.00201L316.85248,17.133z M317.13403,16.31921l0.64392-1.82458l0.63831,1.82458H317.13403z"/>
		<path fill="#FFFFFF" d="M323.54926,17.8053c0.38181-0.18531,0.69983-0.48001,0.91364-0.84662
			c0.22052-0.39515,0.33136-0.84209,0.32101-1.2945c0.00949-0.45534-0.10117-0.90515-0.3208-1.30413
			c-0.21225-0.3719-0.53003-0.67249-0.91315-0.86377c-0.42365-0.20579-0.89011-0.30802-1.36099-0.29828h-1.63184v4.8985h1.63187
			C322.65884,18.10616,323.12454,18.00647,323.54926,17.8053z M323.80725,15.66418c0.02768,0.43876-0.12173,0.87029-0.41479,1.198
			c-0.327,0.29848-0.76175,0.45039-1.20349,0.42053h-0.6756V14.0119h0.6756c0.4437-0.02976,0.87964,0.12722,1.20251,0.433
			C323.68448,14.78115,323.83377,15.21897,323.80725,15.66418z"/>
		<polygon fill="#FFFFFF" points="328.15601,17.283 326.32401,17.283 326.32401,16.02 327.952,16.02 327.952,15.206 
			326.32401,15.206 326.32401,14.005 328.15601,14.005 328.15601,13.191 325.36801,13.191 325.36801,18.096 328.15601,18.096 		"/>
		<rect x="330.68732" y="13.198" fill="#FFFFFF" width="0.95618" height="4.8985"/>
		<polygon fill="#FFFFFF" points="333.435,14.788 335.59399,18.055 335.621,18.096 336.535,18.096 336.535,13.191 335.57901,13.191 
			335.57901,16.494 333.392,13.191 332.478,13.191 332.478,18.096 333.435,18.096 		"/>
		<rect x="309.73419" y="19.14777" fill="#FFFFFF" width="1.4093" height="7.66101"/>
		<polygon fill="#FFFFFF" points="312.18701,20.331 314.189,20.331 314.189,26.809 315.59799,26.809 315.59799,20.331 
			317.58899,20.331 317.58899,19.148 312.18701,19.148 		"/>
		<path fill="#FFFFFF" d="M322.45764,19.13708h-1.54901l-2.74463,7.6717h1.47473l0.53809-1.528h3.00171l0.53799,1.528h1.48578
			l-2.72278-7.61115L322.45764,19.13708z M322.77014,24.09741h-2.18445l1.09686-3.1084L322.77014,24.09741z"/>
		<polygon fill="#FFFFFF" points="327.55301,19.148 326.14301,19.148 326.14301,26.809 330.08099,26.809 330.08099,25.636 
			327.55301,25.636 		"/>
		<polygon fill="#FFFFFF" points="335.14001,19.148 333.465,22.694 331.79099,19.148 330.216,19.148 332.76001,24.028 
			332.76001,26.809 334.17001,26.809 334.17001,24.028 336.70401,19.148 		"/>
		<g enable-background="new    ">
			<path fill="#FFFFFF" d="M316.86426,48.7832v6.91992h-0.90918v-5.16016l-2.30078,5.16016h-0.63965l-2.30957-5.16992v5.16992
				h-0.91016V48.7832h0.97949l2.56055,5.71973l2.55957-5.71973H316.86426z"/>
			<path fill="#FFFFFF" d="M318.4043,51.46777c0.22656-0.42285,0.53809-0.75098,0.93555-0.98438
				c0.39648-0.2334,0.83789-0.35059,1.32422-0.35059c0.48047,0,0.89746,0.10352,1.25,0.31055
				c0.35352,0.20605,0.61719,0.4668,0.79004,0.7793v-1h0.9209v5.48047h-0.9209v-1.01953
				c-0.17969,0.31934-0.44824,0.58496-0.80469,0.79492s-0.77148,0.31445-1.24512,0.31445
				c-0.48633,0-0.92676-0.12012-1.31934-0.35938c-0.39355-0.24023-0.7041-0.57715-0.93066-1.01074
				c-0.22656-0.43262-0.33984-0.92676-0.33984-1.47949C318.06445,52.38281,318.17773,51.8916,318.4043,51.46777z M322.4541,51.87305
				c-0.16602-0.30664-0.3916-0.54102-0.6748-0.70508c-0.2832-0.16309-0.59473-0.24512-0.93457-0.24512
				s-0.65039,0.08008-0.93066,0.24023c-0.2793,0.16016-0.50293,0.39355-0.66992,0.7002c-0.16602,0.30664-0.25,0.66699-0.25,1.08008
				c0,0.41992,0.08398,0.78516,0.25,1.09473c0.16699,0.30957,0.39062,0.54688,0.66992,0.70996
				c0.28027,0.16309,0.59082,0.24512,0.93066,0.24512s0.65137-0.08203,0.93457-0.24512s0.50879-0.40039,0.6748-0.70996
				c0.16699-0.30957,0.25-0.67188,0.25-1.08496S322.62109,52.17969,322.4541,51.87305z"/>
			<path fill="#FFFFFF" d="M325.16504,51.46777c0.22656-0.42285,0.53809-0.75098,0.93457-0.98438s0.8418-0.35059,1.33496-0.35059
				c0.42676,0,0.82324,0.09863,1.19043,0.29492c0.36621,0.19727,0.64648,0.45508,0.83984,0.77539v-2.90039h0.91992v7.40039h-0.91992
				v-1.03027c-0.17969,0.32715-0.44727,0.5957-0.7998,0.80566c-0.35352,0.20996-0.7666,0.31445-1.24023,0.31445
				c-0.48633,0-0.92871-0.12012-1.3252-0.35938c-0.39648-0.24023-0.70801-0.57715-0.93457-1.01074
				c-0.22656-0.43262-0.33984-0.92676-0.33984-1.47949C324.8252,52.38281,324.93848,51.8916,325.16504,51.46777z
				 M329.21484,51.87305c-0.16699-0.30664-0.3916-0.54102-0.6748-0.70508c-0.28418-0.16309-0.5957-0.24512-0.93555-0.24512
				s-0.64941,0.08008-0.92969,0.24023s-0.50391,0.39355-0.66992,0.7002c-0.16699,0.30664-0.25,0.66699-0.25,1.08008
				c0,0.41992,0.08301,0.78516,0.25,1.09473c0.16602,0.30957,0.38965,0.54688,0.66992,0.70996s0.58984,0.24512,0.92969,0.24512
				s0.65137-0.08203,0.93555-0.24512c0.2832-0.16309,0.50781-0.40039,0.6748-0.70996c0.16602-0.30957,0.25-0.67188,0.25-1.08496
				S329.38086,52.17969,329.21484,51.87305z"/>
			<path fill="#FFFFFF" d="M336.89453,53.30273h-4.37988c0.0332,0.54004,0.21777,0.96191,0.55469,1.26562
				c0.33691,0.30273,0.74512,0.45508,1.22559,0.45508c0.39258,0,0.7207-0.0918,0.98438-0.27539s0.44824-0.42773,0.55566-0.73535
				h0.97949c-0.14648,0.52734-0.43945,0.95508-0.87988,1.28516s-0.98633,0.49512-1.63965,0.49512
				c-0.52051,0-0.98535-0.11621-1.39551-0.34961s-0.73145-0.56543-0.96484-0.99512s-0.34961-0.92871-0.34961-1.49512
				s0.11328-1.06348,0.33984-1.49023s0.54492-0.75488,0.95508-0.98438c0.40918-0.23047,0.88086-0.3457,1.41504-0.3457
				c0.51953,0,0.97949,0.11328,1.37988,0.33984c0.39941,0.22754,0.70801,0.53906,0.9248,0.93555s0.3252,0.84473,0.3252,1.34473
				C336.9248,52.92676,336.91406,53.10938,336.89453,53.30273z M335.75488,51.66797c-0.15332-0.25-0.3623-0.43945-0.625-0.57031
				c-0.26367-0.12988-0.55566-0.19434-0.875-0.19434c-0.45996,0-0.85254,0.14648-1.17578,0.43945
				c-0.32324,0.29395-0.50781,0.7002-0.55469,1.2207h3.45996C335.98438,52.2168,335.9082,51.91797,335.75488,51.66797z"/>
		</g>
		<g enable-background="new    ">
			<path fill="#FFFFFF" d="M307.75,61.15332c-0.12012-0.12012-0.17969-0.2666-0.17969-0.44043
				c0-0.17285,0.05957-0.31934,0.17969-0.43945s0.2666-0.18066,0.44043-0.18066c0.16602,0,0.30762,0.06055,0.4248,0.18066
				c0.11621,0.12012,0.1748,0.2666,0.1748,0.43945c0,0.17383-0.05859,0.32031-0.1748,0.44043
				c-0.11719,0.12012-0.25879,0.17969-0.4248,0.17969C308.0166,61.33301,307.87012,61.27344,307.75,61.15332z M308.62988,62.22266
				v5.48047h-0.91016v-5.48047C307.71973,62.22266,308.62988,62.22266,308.62988,62.22266z"/>
			<path fill="#FFFFFF" d="M314.46973,62.72852c0.41309,0.40332,0.62012,0.98438,0.62012,1.74414v3.23047h-0.90039v-3.09961
				c0-0.54688-0.13672-0.96582-0.40918-1.25586c-0.27344-0.28906-0.64746-0.43457-1.12012-0.43457
				c-0.48047,0-0.8623,0.15039-1.14551,0.4502s-0.4248,0.73633-0.4248,1.30957v3.03027h-0.91016v-5.48047h0.91016v0.78027
				c0.17969-0.28027,0.4248-0.49609,0.73535-0.64941c0.30957-0.15332,0.65137-0.23047,1.02441-0.23047
				C313.5166,62.12305,314.05664,62.3252,314.46973,62.72852z"/>
			<path fill="#FFFFFF" d="M320.16016,60.7334v6.96973H319.25V60.7334H320.16016z"/>
			<path fill="#FFFFFF" d="M322.81934,62.97266v3.23047c0,0.2666,0.05664,0.45508,0.16992,0.56543
				c0.11328,0.10938,0.31055,0.16504,0.59082,0.16504H324.25v0.76953h-0.82031c-0.50684,0-0.88672-0.11621-1.13965-0.34961
				c-0.25391-0.2334-0.37988-0.61719-0.37988-1.15039v-3.23047h-0.71094v-0.75h0.71094v-1.37988h0.90918v1.37988H324.25v0.75
				C324.25,62.97266,322.81934,62.97266,322.81934,62.97266z"/>
			<path fill="#FFFFFF" d="M325.34961,63.46777c0.22656-0.42285,0.53809-0.75098,0.93555-0.98438
				c0.39648-0.2334,0.83789-0.35059,1.32422-0.35059c0.48047,0,0.89746,0.10352,1.25,0.31055
				c0.35352,0.20605,0.61719,0.4668,0.79004,0.7793v-1h0.9209v5.48047h-0.9209v-1.01953
				c-0.17969,0.31934-0.44824,0.58496-0.80469,0.79492s-0.77148,0.31445-1.24512,0.31445
				c-0.48633,0-0.92676-0.12012-1.31934-0.35938c-0.39355-0.24023-0.7041-0.57715-0.93066-1.01074
				c-0.22656-0.43262-0.33984-0.92676-0.33984-1.47949C325.00977,64.38281,325.12305,63.8916,325.34961,63.46777z
				 M329.39941,63.87305c-0.16602-0.30664-0.3916-0.54102-0.6748-0.70508c-0.2832-0.16309-0.59473-0.24512-0.93457-0.24512
				s-0.65039,0.08008-0.93066,0.24023c-0.2793,0.16016-0.50293,0.39355-0.66992,0.7002c-0.16602,0.30664-0.25,0.66699-0.25,1.08008
				c0,0.41992,0.08398,0.78516,0.25,1.09473c0.16699,0.30957,0.39062,0.54688,0.66992,0.70996
				c0.28027,0.16309,0.59082,0.24512,0.93066,0.24512s0.65137-0.08203,0.93457-0.24512s0.50879-0.40039,0.6748-0.70996
				c0.16699-0.30957,0.25-0.67188,0.25-1.08496S329.56641,64.17969,329.39941,63.87305z"/>
			<path fill="#FFFFFF" d="M333.01953,60.30273v7.40039h-0.91016v-7.40039
				C332.10938,60.30273,333.01953,60.30273,333.01953,60.30273z"/>
			<path fill="#FFFFFF" d="M339.29004,62.22266l-3.30078,8.06055h-0.93945l1.08008-2.63965l-2.20996-5.4209h1.00977l1.71973,4.44043
				l1.7002-4.44043C338.34961,62.22266,339.29004,62.22266,339.29004,62.22266z"/>
		</g>
		<g opacity="0.5">
			<path fill="#FFFFFF" d="M173.18945,39.99988c-3.43063,0.00326-6.84781-0.4288-10.16968-1.28582l-0.00262-0.00071
				c-4.16731-1.11853-7.42239-4.37362-8.54092-8.54093c-1.71545-6.67225-1.7157-13.66997-0.00072-20.34234
				c1.1181-4.16833,4.37355-7.42446,8.54164-8.54343c6.67223-1.71529,13.66988-1.71554,20.34222-0.00071
				c4.16838,1.11805,7.42456,4.37351,8.54355,8.54164c1.71513,6.67225,1.71538,13.66985,0.00072,20.34222
				c-1.11806,4.16838-4.37352,7.42457-8.54166,8.54355C180.03922,39.57078,176.62106,40.00308,173.18945,39.99988z
				 M163.20421,38.00666c3.26164,0.84129,6.61685,1.26538,9.98524,1.26214c3.3689,0.00323,6.72458-0.42099,9.98668-1.26249
				c3.91364-1.05116,6.97029-4.10859,8.02046-8.02249c1.68262-6.55046,1.68237-13.41993-0.00072-19.97026
				c-1.05112-3.91364-4.10849-6.97033-8.02237-8.02056c-6.55051-1.68277-13.42009-1.68253-19.97049,0.00071
				c-3.91359,1.05115-6.97025,4.10853-8.02046,8.02237c-1.68294,6.55046-1.68269,13.42005,0.00072,19.97038
				C156.23428,33.89957,159.291,36.95601,163.20421,38.00666z"/>
		</g>
		<path fill="#FFFFFF" d="M187.4267,33.37561l-6.65515-6.65515v-9.44623c-0.0145-0.05807-0.02264-0.11754-0.02431-0.17737
			l-1.92924-6.64586c0.48758-0.36714,0.77519-0.94135,0.77722-1.5517V8.11841c-0.00269-1.07682-0.87653-1.94826-1.95335-1.948
			H168.793c-1.07683-0.00027-1.95068,0.87117-1.95337,1.948v0.78088c0.00203,0.61337,0.29251,1.19003,0.78418,1.55676
			l-0.66742,2.4491L159.8139,5.7627c-0.23845-0.23733-0.62415-0.23642-0.86148,0.00203
			c-0.23656,0.23767-0.23654,0.62183,0.00003,0.85948l7.63499,7.635l-0.95837,3.51666
			c-0.00545,0.03443-0.0078,0.06927-0.007,0.10412c-0.00189,0.0196-0.01447,0.03614-0.01447,0.056v13.9456
			c0.00119,1.07531,0.87256,1.94674,1.94788,1.948h11.26801c1.07539-0.00114,1.94691-0.8726,1.94812-1.948v-3.43817l5.7937,5.7937
			c0.23836,0.23742,0.62405,0.23666,0.86148-0.0017c0.23677-0.23771,0.23676-0.62212-0.00003-0.85981H187.4267z M179.5531,25.502
			l-5.81866-5.81866c0.59816-0.21244,1.17548-0.47949,1.72467-0.79779c1.13837-0.71172,2.46053-1.0738,3.80267-1.04138
			c0.09833,0,0.19562,0.0014,0.29132,0.00415V25.502z M168.54449,9.58374c-0.2896-0.10361-0.48378-0.37689-0.48637-0.68445V8.11841
			c0.00189-0.40421,0.33066-0.73059,0.73486-0.72956h8.84888c0.40424-0.00107,0.73303,0.32533,0.73492,0.72956v0.78088
			c-0.00261,0.30757-0.19684,0.58085-0.48645,0.68445c-0.30182,0.10942-0.46686,0.43435-0.3772,0.74261l1.82983,6.3028
			c-0.028-0.00018-0.05299-0.00354-0.08118-0.00354c-1.54634-0.03673-3.07002,0.37668-4.38574,1.18994
			c-0.66325,0.39812-1.38332,0.69284-2.13538,0.874l-4.79193-4.79193l0.97583-3.581
			C169.00795,10.01064,168.84264,9.69186,168.54449,9.58374z M171.18141,18.85321c-0.03766,0.00043-0.06989,0.00372-0.10834,0.00372
			c-1.32944,0.03359-2.63913-0.32662-3.7644-1.03534c-0.11926-0.06549-0.25134-0.13086-0.37547-0.19714l0.64661-2.37286
			L171.18141,18.85321z M179.55312,31.88159c-0.00044,0.40279-0.32689,0.72918-0.72968,0.72956h-11.26801
			c-0.40271-0.00048-0.72902-0.32686-0.72943-0.72956V18.94666c1.27757,0.77706,2.75221,1.16899,4.24699,1.12878
			c0.41815,0.00017,0.83589-0.02655,1.25061-0.08l7.22943,7.22943L179.55312,31.88159z"/>
		<g enable-background="new    ">
			<path fill="#FFFFFF" d="M165.27979,49.08105c0.55664,0.2832,0.9834,0.68848,1.27979,1.21484
				c0.29688,0.52637,0.44531,1.14648,0.44531,1.86035c0,0.71289-0.14844,1.33105-0.44531,1.85449
				c-0.29639,0.52344-0.72314,0.92383-1.27979,1.2002s-1.21484,0.41504-1.9751,0.41504h-2.16992v-6.96973h2.16992
				C164.06494,48.65625,164.72314,48.79785,165.27979,49.08105z M165.36475,54.16113
				c0.47314-0.47656,0.70996-1.14551,0.70996-2.00488c0-0.86719-0.23828-1.54395-0.71484-2.03027
				c-0.47705-0.48633-1.16162-0.73047-2.05518-0.73047h-1.25977v5.48047h1.25977
				C164.20459,54.87598,164.89111,54.6377,165.36475,54.16113z"/>
			<path fill="#FFFFFF" d="M168.20459,51.39062c0.22656-0.42285,0.53809-0.75098,0.93506-0.98438
				c0.39648-0.2334,0.83838-0.35059,1.32471-0.35059c0.47998,0,0.89697,0.10352,1.25,0.31055
				c0.35352,0.20605,0.6167,0.4668,0.79004,0.7793v-1h0.92041v5.48047h-0.92041v-1.01953
				c-0.17969,0.31934-0.44824,0.58496-0.80469,0.79492c-0.35693,0.20996-0.77197,0.31445-1.24512,0.31445
				c-0.48682,0-0.92676-0.12012-1.31982-0.35938c-0.39355-0.24023-0.70361-0.57715-0.93018-1.01074
				c-0.22656-0.43262-0.33984-0.92676-0.33984-1.47949C167.86475,52.30566,167.97803,51.81445,168.20459,51.39062z
				 M172.25439,51.7959c-0.1665-0.30664-0.3916-0.54102-0.6748-0.70508c-0.28369-0.16309-0.59521-0.24512-0.93506-0.24512
				s-0.6499,0.08008-0.93018,0.24023c-0.27979,0.16016-0.50342,0.39355-0.66992,0.7002s-0.25,0.66699-0.25,1.08008
				c0,0.41992,0.0835,0.78516,0.25,1.09473s0.39014,0.54688,0.66992,0.70996c0.28027,0.16309,0.59033,0.24512,0.93018,0.24512
				s0.65137-0.08203,0.93506-0.24512c0.2832-0.16309,0.5083-0.40039,0.6748-0.70996s0.25-0.67188,0.25-1.08496
				S172.4209,52.10254,172.25439,51.7959z"/>
			<path fill="#FFFFFF" d="M174.99414,49.07617c-0.12012-0.12012-0.17969-0.2666-0.17969-0.44043
				c0-0.17285,0.05957-0.31934,0.17969-0.43945s0.2666-0.18066,0.44043-0.18066c0.16602,0,0.30762,0.06055,0.4248,0.18066
				c0.11621,0.12012,0.1748,0.2666,0.1748,0.43945c0,0.17383-0.05859,0.32031-0.1748,0.44043
				c-0.11719,0.12012-0.25879,0.17969-0.4248,0.17969C175.26074,49.25586,175.11426,49.19629,174.99414,49.07617z
				 M175.87402,50.14551v5.48047h-0.91016v-5.48047H175.87402z"/>
			<path fill="#FFFFFF" d="M179.01953,50.30566c0.2959-0.17285,0.6582-0.25977,1.08496-0.25977v0.94043h-0.24023
				c-1.02051,0-1.53027,0.55273-1.53027,1.65918v2.98047h-0.91016V50.1455h0.91016v0.89062
				C178.49414,50.72266,178.72266,50.47949,179.01953,50.30566z"/>
			<path fill="#FFFFFF" d="M185.87402,50.14551l-3.2998,8.06055h-0.94043l1.08008-2.63965l-2.20996-5.4209h1.00977l1.7207,4.44043
				l1.69922-4.44043C184.93359,50.14552,185.87402,50.14552,185.87402,50.14551z"/>
		</g>
		<g enable-background="new    ">
			<path fill="#FFFFFF" d="M166.47949,62.89551h-1.1499v4.73047h-0.91016v-4.73047h-0.70996v-0.75h0.70996v-0.38965
				c0-0.61328,0.1582-1.06152,0.4751-1.34473c0.31641-0.2832,0.8252-0.4248,1.5249-0.4248v0.75977
				c-0.3999,0-0.68164,0.07812-0.84473,0.23535c-0.16357,0.15625-0.24512,0.41406-0.24512,0.77441v0.38965h1.1499V62.89551z"/>
			<path fill="#FFFFFF" d="M169.13477,62.30566c0.29639-0.17285,0.6582-0.25977,1.08496-0.25977v0.94043h-0.24023
				c-1.02002,0-1.52979,0.55273-1.52979,1.65918v2.98047h-0.91016V62.1455h0.91016v0.89062
				C168.60938,62.72266,168.83789,62.47949,169.13477,62.30566z"/>
			<path fill="#FFFFFF" d="M176.23926,65.22559h-4.37988c0.0332,0.54004,0.21826,0.96191,0.55518,1.26562
				c0.33643,0.30273,0.74463,0.45508,1.2251,0.45508c0.39258,0,0.7207-0.0918,0.98438-0.27539s0.44824-0.42773,0.55566-0.73535
				h0.97949c-0.14648,0.52734-0.43945,0.95508-0.87988,1.28516s-0.98633,0.49512-1.63965,0.49512
				c-0.52051,0-0.98535-0.11621-1.39502-0.34961c-0.41016-0.2334-0.73193-0.56543-0.96533-0.99512s-0.34961-0.92871-0.34961-1.49512
				s0.11328-1.06348,0.33984-1.49023s0.54492-0.75488,0.95508-0.98438c0.40967-0.23047,0.88086-0.3457,1.41504-0.3457
				c0.51953,0,0.97949,0.11328,1.37988,0.33984c0.39941,0.22754,0.70801,0.53906,0.9248,0.93555s0.3252,0.84473,0.3252,1.34473
				C176.26953,64.84961,176.25879,65.03223,176.23926,65.22559z M175.09961,63.59082c-0.15332-0.25-0.3623-0.43945-0.625-0.57031
				c-0.26367-0.12988-0.55566-0.19434-0.875-0.19434c-0.45996,0-0.85205,0.14648-1.17529,0.43945
				c-0.32324,0.29395-0.5083,0.7002-0.55469,1.2207h3.45947C175.3291,64.13965,175.25293,63.84082,175.09961,63.59082z"/>
			<path fill="#FFFFFF" d="M182.43945,65.22559h-4.38086c0.0332,0.54004,0.21875,0.96191,0.55566,1.26562
				c0.33594,0.30273,0.74512,0.45508,1.22461,0.45508c0.39355,0,0.72168-0.0918,0.98535-0.27539
				c0.2627-0.18359,0.44824-0.42773,0.55469-0.73535h0.98047c-0.14746,0.52734-0.44043,0.95508-0.88086,1.28516
				c-0.43945,0.33008-0.98633,0.49512-1.63965,0.49512c-0.51953,0-0.98535-0.11621-1.39453-0.34961
				c-0.41016-0.2334-0.73242-0.56543-0.96582-0.99512s-0.34961-0.92871-0.34961-1.49512s0.11328-1.06348,0.33984-1.49023
				s0.54492-0.75488,0.95508-0.98438c0.41016-0.23047,0.88184-0.3457,1.41504-0.3457c0.52051,0,0.98047,0.11328,1.37988,0.33984
				c0.40039,0.22754,0.70898,0.53906,0.9248,0.93555c0.2168,0.39648,0.3252,0.84473,0.3252,1.34473
				C182.46875,64.84961,182.45898,65.03223,182.43945,65.22559z M181.29883,63.59082c-0.15332-0.25-0.36133-0.43945-0.625-0.57031
				c-0.26367-0.12988-0.55469-0.19434-0.875-0.19434c-0.45996,0-0.85156,0.14648-1.1748,0.43945
				c-0.32324,0.29395-0.50879,0.7002-0.55469,1.2207h3.45996C181.5293,64.13965,181.45215,63.84082,181.29883,63.59082z"/>
		</g>
		<g opacity="0.5">
			<path fill="#FFFFFF" d="M98.18934,39.99977c-3.43195,0.00322-6.85043-0.42905-10.17355-1.28643l-0.00252-0.00068
				c-4.1652-1.11795-7.41864-4.37139-8.53659-8.53659C77.7606,23.50135,77.76037,16.50105,79.476,9.82622
				c1.11749-4.16623,4.37128-7.42072,8.53727-8.53911c6.67474-1.71592,13.675-1.71615,20.34985-0.00068
				c4.16624,1.11754,7.42073,4.37137,8.53911,8.53739c1.71606,6.67468,1.71629,13.67494,0.00068,20.34973
				c-1.11745,4.16625-4.37126,7.42076-8.53728,8.53911C105.04163,39.57046,101.62222,40.00295,98.18934,39.99977z
				 M88.19282,38.03421c3.2653,0.84239,6.62431,1.26704,9.99652,1.26379c3.37268,0.0033,6.73215-0.42143,9.99789-1.264
				c3.92172-1.05325,6.98471-4.11697,8.037-8.03895c1.68486-6.55777,1.68462-13.43504-0.00068-19.99269
				c-1.05322-3.92174-4.11689-6.9848-8.03884-8.03723c-6.55789-1.6847-13.43522-1.68447-19.993,0.00068
				c-3.92167,1.05337-6.98461,4.11707-8.037,8.039c-1.68486,6.55781-1.68462,13.43511,0.00069,19.9928
				C81.20848,33.91879,84.27153,36.98153,88.19282,38.03421z"/>
		</g>
		<path fill="#FFFFFF" d="M107.22355,30.96023c-0.16252-0.11698-0.31866-0.24257-0.46776-0.37623
			c-1.95733-1.95222-3.91467-3.90783-5.872-5.86686c-0.05498-0.06697-0.10429-0.1384-0.14741-0.21356
			c-0.4301,0.59842-1.04438,1.0395-1.74889,1.25575c-1.14938,0.50634-2.47513,0.40917-3.5384-0.25933
			c-0.47277-0.2592-0.92015-0.56429-1.40317-0.86425c-0.03563,0.03563-0.09665,0.0864-0.15254,0.14241
			c-1.4388,1.43867-2.87927,2.8791-4.3214,4.32128c-0.15395,0.19696-0.40517,0.29119-0.65068,0.24407
			c-0.32728-0.06872-0.53688-0.38975-0.46816-0.71703c0.01687-0.0803,0.04987-0.15634,0.09702-0.2235
			c0.05727-0.0742,0.12016-0.14389,0.18811-0.20844c1.41838-1.42354,2.83849-2.84537,4.26034-4.2655
			c0.0559-0.05589,0.122-0.10666,0.19831-0.1728c-0.13729-0.19319-0.26433-0.361-0.38637-0.53891
			c-0.44602-0.63-0.7813-1.33148-0.99141-2.07424c-0.18938-0.73298-0.12671-1.50835,0.17793-2.20139
			c0.17574-0.42429,0.38483-0.83399,0.62531-1.22524c0.18501-0.24596,0.39269-0.47403,0.6203-0.68121
			c-0.05845-0.02869-0.11309-0.06456-0.16267-0.10677c-1.85567-1.87093-3.7215-3.74181-5.59747-5.61266
			c-0.21593-0.16279-0.31066-0.44087-0.239-0.70162c0.09103-0.31832,0.42287-0.50257,0.74119-0.41154
			c0.07008,0.02004,0.1359,0.05269,0.19426,0.09634c0.07548,0.05761,0.14527,0.12229,0.20844,0.19318
			c2.01836,2.01837,4.03669,4.03671,6.05494,6.055c0.05321,0.06297,0.10248,0.12916,0.14753,0.19819
			c0.19319-0.45751,0.35586-0.86938,0.5388-1.271c0.10007-0.2142,0.2174-0.4199,0.35084-0.61507
			c0.37873-0.59729,1.10028-0.88103,1.78441-0.7017c0.04075,0.01025,0.07627,0.01526,0.14241,0.03051
			c0.03563-0.15243,0.06614-0.29985,0.10678-0.44738c0.17544-0.61903,0.452-1.2048,0.8185-1.73363
			c0.50307-0.74588,1.51553-0.94272,2.26141-0.43966c0.20198,0.13623,0.37084,0.31603,0.49413,0.52617
			c0.18806,0.305,0.34561,0.62531,0.53379,0.95578c0.0864-0.1119,0.16779-0.22881,0.25921-0.33559
			c0.52389-0.58971,1.20722-1.01524,1.96757-1.22524c0.24913-0.08554,0.50395-0.15348,0.7626-0.20331
			c0.87537-0.19309,1.74154,0.36002,1.93462,1.2354c0.05173,0.23451,0.05077,0.47758-0.0028,0.71168
			c-0.14272,0.9083-0.53925,1.75776-1.14384,2.45047c-0.19384,0.19013-0.39747,0.37001-0.61006,0.53891
			c0.27959,0.15254,0.56942,0.30509,0.85413,0.46776c0.80793,0.41082,1.12985,1.3988,0.71903,2.20673
			c-0.15839,0.31151-0.41209,0.56432-0.72415,0.72163c-0.6063,0.38091-1.27622,0.64956-1.97771,0.79311
			c0.03149,0.207,0.04849,0.41594,0.05089,0.62531c-0.01196,0.56052-0.3194,1.07294-0.80836,1.34727
			c-0.52337,0.33679-1.09396,0.59381-1.693,0.7626c-0.03051,0.01013-0.061,0.02538-0.1728,0.07115
			c0.08293,0.0447,0.16125,0.09748,0.23382,0.15755c2.12,2.11499,4.23833,4.23502,6.355,6.36011
			c0.13364,0.14908,0.25924,0.30518,0.37624,0.46765v0.32546c-0.14754,0.14742-0.3,0.3-0.44739,0.44739
			C107.44432,30.96287,107.33392,30.95779,107.22355,30.96023z M94.03067,22.80045c0.45701-0.56314,0.79436-1.21359,0.99141-1.91156
			c0.07265-0.30113,0.08986-0.61297,0.05077-0.92026c-0.10901-0.59355-0.35054-1.15486-0.70659-1.64211
			c-0.1168-0.188-0.36388-0.24572-0.55189-0.12892c-0.07207,0.04478-0.12808,0.11128-0.15994,0.18992
			c-0.1879,0.31986-0.35597,0.65096-0.50327,0.99142c-0.24609,0.55748-0.26253,1.18948-0.04577,1.759
			C93.33127,21.73419,93.64298,22.29426,94.03067,22.80045z M101.93624,15.87604c0.81375-0.07974,1.59652-0.35343,2.28268-0.79811
			c0.21157-0.16485,0.39377-0.36425,0.53891-0.58979c0.28312-0.46032,0.47954-0.96861,0.57954-1.4997
			c0.06064-0.22062-0.06906-0.44863-0.28969-0.50927c-0.07854-0.02159-0.1617-0.01954-0.23908,0.00588
			c-0.17281,0.04075-0.3406,0.08139-0.5084,0.13729c-0.62279,0.14504-1.17927,0.49398-1.58109,0.99141
			c-0.43101,0.68406-0.69887,1.4581-0.78286,2.26225V15.87604z M99.69424,17.19793c0.25921-0.45251,0.51341-0.85925,0.73209-1.28625
			c0.23997-0.42685,0.34957-0.91469,0.31522-1.40317c-0.09512-0.65889-0.34803-1.28505-0.73722-1.82516
			c-0.11689-0.18628-0.36266-0.24252-0.54893-0.12563c-0.06737,0.04228-0.12053,0.10376-0.15264,0.17652
			c-0.19199,0.3323-0.36511,0.67515-0.51853,1.02693c-0.19508,0.4355-0.24326,0.92263-0.13729,1.38791
			c0.21128,0.74505,0.56713,1.44123,1.04727,2.04885H99.69424z M100.6144,18.15883c0.42712,0.24908,0.80836,0.49816,1.21,0.70159
			c0.49891,0.29515,1.08342,0.41169,1.65737,0.33047c0.5894-0.12527,1.14775-0.36731,1.64211-0.71183
			c0.18823-0.11926,0.24414-0.36853,0.12489-0.55676c-0.03722-0.05874-0.08898-0.10686-0.15028-0.1397
			c-0.15788-0.10574-0.32263-0.20086-0.49315-0.28471c-0.39326-0.22777-0.82949-0.37147-1.28113-0.422
			c-1.00068,0.03986-1.95732,0.42216-2.70985,1.08294L100.6144,18.15883z M95.0017,23.77661
			c0.55724,0.44572,1.19373,0.78206,1.87594,0.9913c0.25252,0.07245,0.5158,0.1,0.77785,0.0814
			c0.65974-0.08868,1.287-0.34028,1.82516-0.73209c0.18561-0.10736,0.24904-0.34485,0.14168-0.53046
			c-0.03201-0.05535-0.0772-0.10193-0.13155-0.13561c-0.52139-0.39101-1.13369-0.64294-1.77928-0.73209
			C96.7121,22.74259,95.75284,23.11696,95.0017,23.77661z M98.44359,20.54317c0.40663,0.40674,0.81337,0.783,1.18448,1.19472
			c0.19027,0.22387,0.48169,0.33507,0.77273,0.29484c0.70048-0.08074,1.36707-0.34559,1.93194-0.76761
			c0.17477-0.12665,0.21378-0.371,0.08713-0.54576c-0.0326-0.04498-0.07441-0.0825-0.12265-0.11005
			c-0.15498-0.10759-0.31818-0.20279-0.48813-0.28471c-0.49857-0.30342-1.07391-0.45699-1.65737-0.44238
			C99.54052,19.97373,98.95718,20.19945,98.44359,20.54317z M97.26912,19.36369c0.3735-0.53913,0.59959-1.16654,0.65582-1.82
			c-0.03156-0.75489-0.30014-1.48065-0.7676-2.07423c-0.12583-0.174-0.36889-0.21305-0.54288-0.08722
			c-0.04665,0.03373-0.08522,0.0774-0.11294,0.12786c-0.36776,0.51956-0.61285,1.11577-0.71684,1.74376
			c-0.0552,0.22902-0.02824,0.47014,0.07616,0.68132C96.29809,18.43842,96.78611,18.8858,97.26912,19.36369z"/>
		<g enable-background="new    ">
			<path fill="#FFFFFF" d="M87.79932,50.24219c-0.19336-0.40625-0.47314-0.72168-0.83984-0.94434
				c-0.3667-0.22363-0.79346-0.33594-1.27979-0.33594c-0.48682,0-0.92529,0.1123-1.31494,0.33594
				c-0.39014,0.22266-0.69678,0.54297-0.92041,0.95996c-0.22314,0.41602-0.33496,0.89844-0.33496,1.44434
				c0,0.54688,0.11182,1.02734,0.33496,1.44043c0.22363,0.41309,0.53027,0.73145,0.92041,0.95508
				c0.38965,0.22363,0.82812,0.33496,1.31494,0.33496c0.67969,0,1.23975-0.20312,1.67969-0.61035
				c0.43994-0.40625,0.69678-0.95605,0.77002-1.64941h-2.77979v-0.74023h3.75v0.7002
				c-0.05371,0.57324-0.2334,1.09766-0.54004,1.57422c-0.30664,0.47754-0.70996,0.85352-1.20996,1.12988
				c-0.5,0.27734-1.05664,0.41504-1.66992,0.41504c-0.64697,0-1.23682-0.15137-1.77002-0.4541
				c-0.53369-0.30371-0.95508-0.72559-1.26514-1.26562s-0.46484-1.14941-0.46484-1.83008c0-0.67969,0.15479-1.29102,0.46484-1.83496
				c0.31006-0.54297,0.73145-0.9668,1.26514-1.26953c0.5332-0.30371,1.12305-0.45508,1.77002-0.45508
				c0.73975,0,1.39502,0.18359,1.96484,0.5498c0.56982,0.36719,0.98486,0.88379,1.24512,1.5498
				C88.88963,50.2422,87.79932,50.2422,87.79932,50.24219z"/>
			<path fill="#FFFFFF" d="M91.20947,47.79199v7.40039h-0.91016v-7.40039H91.20947z"/>
			<path fill="#FFFFFF" d="M97.61914,49.71191v5.48047h-0.90967v-0.80957c-0.17383,0.2793-0.41504,0.49805-0.7251,0.6543
				c-0.31006,0.15723-0.65186,0.23535-1.0249,0.23535c-0.42676,0-0.81006-0.08789-1.15039-0.26465
				c-0.33984-0.17676-0.6084-0.44238-0.80469-0.7959c-0.19678-0.35254-0.29492-0.7832-0.29492-1.28906v-3.21094h0.8999v3.09082
				c0,0.54004,0.13623,0.95508,0.40967,1.24512c0.27344,0.28906,0.64697,0.43457,1.12012,0.43457
				c0.48682,0,0.87012-0.15039,1.1499-0.4502c0.28027-0.2998,0.42041-0.73633,0.42041-1.30957v-3.01074
				C96.70947,49.71192,97.61914,49.71192,97.61914,49.71191z"/>
			<path fill="#FFFFFF" d="M100.26904,50.46191v3.23047c0,0.2666,0.05664,0.45508,0.16992,0.56543
				c0.11328,0.10938,0.31006,0.16504,0.59033,0.16504h0.66992v0.76953h-0.81982c-0.50684,0-0.88672-0.11621-1.14014-0.34961
				s-0.37988-0.61719-0.37988-1.15039v-3.23047h-0.71045v-0.75h0.71045v-1.37988h0.90967v1.37988h1.43018v0.75H100.26904z"/>
			<path fill="#FFFFFF" d="M107.76953,52.79199h-4.38037c0.0332,0.54004,0.21826,0.96191,0.55518,1.26562
				c0.33643,0.30273,0.74512,0.45508,1.2251,0.45508c0.39307,0,0.72119-0.0918,0.98486-0.27539
				c0.26318-0.18359,0.44824-0.42773,0.55518-0.73535h0.97998c-0.14697,0.52734-0.43994,0.95508-0.88037,1.28516
				c-0.43994,0.33008-0.98633,0.49512-1.63965,0.49512c-0.52002,0-0.98535-0.11621-1.39502-0.34961
				c-0.41016-0.2334-0.73193-0.56543-0.96533-0.99512s-0.34961-0.92871-0.34961-1.49512s0.11328-1.06348,0.33984-1.49023
				s0.54492-0.75488,0.95508-0.98438c0.40967-0.23047,0.88135-0.3457,1.41504-0.3457c0.52002,0,0.97998,0.11328,1.37988,0.33984
				c0.3999,0.22754,0.7085,0.53906,0.9248,0.93555c0.2168,0.39648,0.3252,0.84473,0.3252,1.34473
				C107.79932,52.41602,107.78906,52.59863,107.76953,52.79199z M106.62939,51.15723c-0.15332-0.25-0.36182-0.43945-0.625-0.57031
				c-0.26367-0.12988-0.55518-0.19434-0.875-0.19434c-0.45996,0-0.85205,0.14648-1.17529,0.43945
				c-0.32324,0.29395-0.5083,0.7002-0.55469,1.2207h3.45996C106.85938,51.70605,106.78271,51.40723,106.62939,51.15723z"/>
			<path fill="#FFFFFF" d="M113.28955,50.21777c0.41309,0.40332,0.62012,0.98438,0.62012,1.74414v3.23047h-0.90039v-3.09961
				c0-0.54688-0.13672-0.96582-0.40967-1.25586c-0.27344-0.28906-0.64697-0.43457-1.12012-0.43457
				c-0.47998,0-0.86182,0.15039-1.14502,0.4502s-0.4248,0.73633-0.4248,1.30957v3.03027h-0.91016v-5.48047h0.91016v0.78027
				c0.17969-0.28027,0.4248-0.49609,0.73486-0.64941s0.65137-0.23047,1.0249-0.23047
				C112.33594,49.6123,112.87598,49.81445,113.28955,50.21777z"/>
		</g>
		<g enable-background="new    ">
			<path fill="#FFFFFF" d="M91.47949,62.46191h-1.1499v4.73047h-0.91016v-4.73047h-0.70996v-0.75h0.70996v-0.38965
				c0-0.61328,0.1582-1.06152,0.4751-1.34473c0.31641-0.2832,0.8252-0.4248,1.5249-0.4248v0.75977
				c-0.3999,0-0.68164,0.07812-0.84473,0.23535c-0.16357,0.15625-0.24512,0.41406-0.24512,0.77441v0.38965h1.1499V62.46191z"/>
			<path fill="#FFFFFF" d="M94.13477,61.87207c0.29639-0.17285,0.6582-0.25977,1.08496-0.25977v0.94043h-0.24023
				c-1.02002,0-1.52979,0.55273-1.52979,1.65918v2.98047h-0.91016v-5.48047h0.91016v0.89062
				C93.60938,62.28906,93.83789,62.0459,94.13477,61.87207z"/>
			<path fill="#FFFFFF" d="M101.23975,64.79199h-4.38037c0.0332,0.54004,0.21826,0.96191,0.55518,1.26562
				c0.33643,0.30273,0.74512,0.45508,1.2251,0.45508c0.39307,0,0.72119-0.0918,0.98486-0.27539
				c0.26318-0.18359,0.44824-0.42773,0.55518-0.73535h0.97998c-0.14697,0.52734-0.43994,0.95508-0.88037,1.28516
				c-0.43994,0.33008-0.98633,0.49512-1.63965,0.49512c-0.52002,0-0.98535-0.11621-1.39502-0.34961
				c-0.41016-0.2334-0.73193-0.56543-0.96533-0.99512s-0.34961-0.92871-0.34961-1.49512s0.11328-1.06348,0.33984-1.49023
				s0.54492-0.75488,0.95508-0.98438c0.40967-0.23047,0.88135-0.3457,1.41504-0.3457c0.52002,0,0.97998,0.11328,1.37988,0.33984
				c0.3999,0.22754,0.7085,0.53906,0.9248,0.93555c0.2168,0.39648,0.3252,0.84473,0.3252,1.34473
				C101.26953,64.41602,101.25928,64.59863,101.23975,64.79199z M100.09961,63.15723c-0.15332-0.25-0.36182-0.43945-0.625-0.57031
				c-0.26367-0.12988-0.55518-0.19434-0.875-0.19434c-0.45996,0-0.85205,0.14648-1.17529,0.43945
				c-0.32324,0.29395-0.5083,0.7002-0.55469,1.2207h3.45996C100.32959,63.70605,100.25293,63.40723,100.09961,63.15723z"/>
			<path fill="#FFFFFF" d="M107.43945,64.79199h-4.38037c0.0332,0.54004,0.21826,0.96191,0.55518,1.26562
				c0.33643,0.30273,0.74512,0.45508,1.2251,0.45508c0.39307,0,0.72119-0.0918,0.98486-0.27539
				c0.26318-0.18359,0.44824-0.42773,0.55518-0.73535h0.97998c-0.14697,0.52734-0.43994,0.95508-0.88037,1.28516
				c-0.43994,0.33008-0.98633,0.49512-1.63965,0.49512c-0.52002,0-0.98535-0.11621-1.39502-0.34961
				c-0.41016-0.2334-0.73193-0.56543-0.96533-0.99512s-0.34961-0.92871-0.34961-1.49512s0.11328-1.06348,0.33984-1.49023
				s0.54492-0.75488,0.95508-0.98438c0.40967-0.23047,0.88135-0.3457,1.41504-0.3457c0.52002,0,0.97998,0.11328,1.37988,0.33984
				c0.3999,0.22754,0.7085,0.53906,0.9248,0.93555c0.2168,0.39648,0.3252,0.84473,0.3252,1.34473
				C107.46924,64.41602,107.45898,64.59863,107.43945,64.79199z M106.29932,63.15723c-0.15332-0.25-0.36182-0.43945-0.625-0.57031
				c-0.26367-0.12988-0.55518-0.19434-0.875-0.19434c-0.45996,0-0.85205,0.14648-1.17529,0.43945
				c-0.32324,0.29395-0.5083,0.7002-0.55469,1.2207h3.45996C106.5293,63.70605,106.45264,63.40723,106.29932,63.15723z"/>
		</g>
		<g opacity="0.5">
			<path fill="#FFFFFF" d="M240.75781,22.229c-0.91928,0-1.30624,0.78958-1.30624,1.5881c0,0.81859,0.38699,1.635,1.30624,1.635
				l0.46976-0.10078l-0.4294-0.38251l0.36238-0.40932l0.50983,0.45426c0.25597-0.34497,0.38551-0.76748,0.36687-1.19664
				C242.03725,23.01858,241.67036,22.229,240.75781,22.229z"/>
		</g>
		<g opacity="0.5">
			<path fill="#FFFFFF" d="M260.67615,19.5202c0.04816-7.01415-5.59888-12.7393-12.61304-12.78747
				s-12.7393,5.59888-12.78746,12.61304c-0.04817,7.01415,5.59888,12.7393,12.61304,12.78747
				c0.00819,0.00006,0.0164,0.0001,0.02461,0.00014C254.91687,32.16531,260.62546,26.52365,260.67615,19.5202z M244.58501,13.34678
				h2.05099l1.56129,4.57637h0.00893l1.48312-4.57637h2.07559v6.65656h-1.37794v-4.733h-0.0201l-1.63947,4.733h-1.12517
				l-1.63277-4.67481H245.936v4.67481h-1.351V13.34678z M237.20155,16.69969c-0.16092-1.77772,1.14975-3.34929,2.92747-3.51021
				c0.11461-0.01038,0.22968-0.01462,0.34474-0.01272c1.40923-0.07288,2.63626,0.9532,2.81393,2.35308h-1.407
				c-0.12428-0.66977-0.72675-1.14298-1.40689-1.10507c-1.30849,0-1.81847,1.10507-1.81847,2.27492
				c0,1.107,0.50999,2.23221,1.81847,2.23221c0.77885,0.08954,1.48282-0.46927,1.57236-1.24812
				c0.00725-0.06307,0.01027-0.12655,0.00902-0.19002h-1.45825v-1.09615h2.79807v3.60573h-0.93727l-0.15427-0.73805
				c-0.43199,0.57337-1.11194,0.9058-1.82974,0.89456c-1.77081,0.04146-3.23994-1.36046-3.2814-3.13127
				c-0.00256-0.10972,0.0005-0.21949,0.00919-0.32889C237.20151,16.69969,237.20155,16.69969,237.20155,16.69969z
				 M242.7374,25.92394l-0.37567,0.40735l-0.6039-0.53689c-0.30739,0.1662-0.65057,0.25521-1,0.25937
				c-1.13748-0.01419-2.04808-0.94781-2.03389-2.08529c0.00063-0.05054,0.00311-0.10103,0.00746-0.15138
				c-0.09541-1.11735,0.73303-2.10049,1.85039-2.1959s2.10049,0.73304,2.19591,1.85039c0.00981,0.11496,0.00981,0.23055,0,0.34551
				c0.02245,0.60347-0.19186,1.19181-0.59721,1.63945L242.7374,25.92394z M246.07468,25.95102h-0.67554V25.5191h-0.01561
				c-0.18816,0.30929-0.52374,0.49833-0.88577,0.49893c-0.78288,0-1.13174-0.40038-1.13174-1.19218v-1.946h0.6754v1.8768
				c0,0.5411,0.23495,0.74241,0.586,0.74241c0.57265,0,0.7561-0.36018,0.7561-0.82981V22.8798h0.69115L246.07468,25.95102z
				 M249.67819,25.95325l-0.43163,0.06478c-0.27975,0-0.46991-0.08265-0.52576-0.36687
				c-0.29486,0.25713-0.67857,0.38879-1.06918,0.36687c-0.54124,0-1.05357-0.282-1.05357-0.87669
				c0-0.78288,0.62178-0.89261,1.20113-0.951c0.48537-0.105,0.9127-0.04689,0.9127-0.44727
				c0-0.35123-0.36018-0.41379-0.6331-0.41379c-0.38013,0-0.651,0.15888-0.68893,0.48329h-0.66644
				c0.04243-0.78734,0.71335-1.01767,1.39349-1.01767c0.6039,0,1.23686,0.24151,1.23686,0.89008v1.57917l0.15662,0.23482
				l0.1678-0.01788L249.67819,25.95325z M250.783,25.951h-0.6888v-4.23879h0.6888V25.951z M252.2234,25.951h-0.70219v-3.0712
				h0.70219V25.951z M252.2234,22.34066h-0.70219v-0.62624h0.70219V22.34066z M254.42241,23.37173h-0.59526v1.642
				c0,0.284,0.01367,0.43835,0.32442,0.43835l0.27084-0.038v0.5369l-0.4272,0.029c-0.71811,0-0.83676-0.27306-0.83676-0.78734
				v-1.821h-0.53688V22.8798h0.53688v-0.92609h0.6687v0.92609h0.59526V23.37173z M254.51398,20.00332h-1.47166v-6.65654h3.00169
				c1.12646-0.14171,2.15451,0.65659,2.29623,1.78305c0.01416,0.1126,0.01898,0.22618,0.0144,0.33957
				c0.05457,1.13508-0.82138,2.09947-1.95645,2.15403c-0.11823,0.00568-0.23672,0.00115-0.35419-0.01354h-1.53L254.51398,20.00332z
				 M255.34375,27.15882l-0.47185-0.03348V26.5457l0.33336,0.05835c0.29958,0,0.38699-0.179,0.46738-0.42745l0.08043-0.24124
				l-1.17432-3.05558h0.765l0.79407,2.275h0.0022l0.76947-2.275h0.71365l-1.19,3.23875
				c-0.21915,0.56147-0.38919,1.04031-1.08945,1.04031L255.34375,27.15882z"/>
		</g>
		<g opacity="0.5">
			<path fill="#FFFFFF" d="M247.27576,25.112c0,0.29313,0.39815,0.387,0.63756,0.387c0.29288,0,0.75578-0.1477,0.75578-0.58828
				v-0.49195c-0.26187,0.0984-0.53699,0.15712-0.81621,0.1742C247.55315,24.638,247.27576,24.74543,247.27576,25.112z"/>
		</g>
		<g opacity="0.5">
			<path fill="#FFFFFF" d="M256.93179,15.4694c0-0.84779-0.59946-0.98865-1.29045-0.98865h-1.12743v1.99754h1.12743
				C256.33234,16.47829,256.93179,16.31719,256.93179,15.4694z"/>
		</g>
		<polygon fill="#FFFFFF" points="232.71201,21.354 233.30499,20.813 232.522,20.679 232.17101,19.99 231.81799,20.677 
			231.04401,20.786 231.616,21.336 231.466,22.124 232.16901,21.752 232.847,22.124 		"/>
		<g opacity="0.5">
			<path fill="#FFFFFF" d="M248.3092,0.00223L248.1861,0c-11.00528,0.00164-19.94092,8.89529-19.99438,19.90045l0.43385,0.00448
				l0.43401,0.00224c0.04929-10.52832,8.5981-19.03713,19.12653-19.03706h0.11642
				c10.51923,0.07036,19.01172,8.61378,19.01917,19.13323v0.114c-0.04996,10.52301-8.59238,19.0284-19.11549,19.03266
				l-0.12967-0.00224c-10.50966-0.05469-19.00412-8.58307-19.01694-19.09286v-0.14769l-0.43401-0.00224l-0.43385-0.00448v0.00226
				v-0.00226l-0.00221,0.15441c0.01544,10.98713,8.89561,19.90216,19.8826,19.96063h0.13414
				c10.99965-0.00447,19.92934-8.8941,19.98326-19.89361v-0.11854C268.18234,9.00712,259.30524,0.07605,248.3092,0.00223z"/>
		</g>
		<path fill="#FFFFFF" d="M231.104,17.68165l0.45847,0.35331c0.19046,0.09765,0.39622,0.16196,0.60838,0.19016h0.57709
			c0.18924-0.02373,0.37099-0.08864,0.53244-0.19016l0.40933-0.40483c0.12706-0.16557,0.20322-0.36453,0.21918-0.57263
			l-0.01787-0.53006l-0.25491-0.50788l0.39366-0.03351l0.03799-0.2616l-1.57692-0.255l-0.21695,1.31294l0.33327,0.05375
			l0.15424-0.94607l0.37132,0.1139l0.29529,0.22827l0.15437,0.34439l0.00447,0.41825l-0.15884,0.43177l-0.34663,0.26846
			l-0.40932,0.12969l-0.45413-0.0067l-0.44963-0.13194l-0.38474-0.25729l-0.22141-0.35108l-0.03351-0.49447l0.07372-0.29065
			l0.17226-0.2686l0.2506-0.152l0.30865-0.05821l0.06712-0.38251l-0.47868,0.07176l-0.35124,0.2214l-0.24821,0.35332
			l-0.14101,0.4519c-0.0354,0.21648-0.02162,0.43816,0.04034,0.64859L231.104,17.68165z"/>
		<path fill="#FFFFFF" d="M232.84653,14.52109l0.39589,0.23481l0.44057,0.10513l0.42273-0.06044l0.34229-0.22366l0.25044-0.387
			l0.08279-0.46739l-0.09843-0.40707l-0.2662-0.31772l-0.38686-0.22364l-0.44295-0.10512l-0.42509,0.04466l-0.33099,0.23495
			l-0.25951,0.39815l-0.08936,0.44726l0.09381,0.40038L232.84653,14.52109z M232.85991,13.45176l0.1431-0.22812l0.23941-0.13192
			l0.29514-0.047l0.35123,0.08961l0.29526,0.1812l0.20576,0.22589l0.06493,0.25714l-0.04482,0.26175l-0.15871,0.23258
			l-0.22144,0.14532l-0.29317,0.04257l-0.36015-0.08054l-0.304-0.18343l-0.19012-0.23035l-0.05153-0.26386L232.85991,13.45176z"/>
		<path fill="#FFFFFF" d="M233.98273,11.8906l0.33768,0.29079l0.416,0.18566l0.42047,0.01787l0.39146-0.14547l0.30432-0.34885
			l0.17-0.44295l-0.02025-0.40707l-0.21469-0.36464l-0.33099-0.29959l-0.42494-0.18118l-0.41167-0.02013l-0.38235,0.15205
			l-0.3289,0.34885l-0.17229,0.43849l0.04707,0.41167L233.98273,11.8906z M234.18401,10.846l0.19461-0.1879l0.2415-0.105
			l0.30194,0.01787l0.32668,0.12969l0.27499,0.23941l0.14101,0.25491l0.00668,0.28187l-0.06938,0.25056l-0.19682,0.18778
			l-0.25505,0.10736l-0.29065-0.01118l-0.33336-0.14993l-0.27499-0.237l-0.14548-0.26832l-0.00894-0.25282L234.18401,10.846z"/>
		<path fill="#FFFFFF" d="M235.84599,9.83722l0.36464,0.25282l0.39589,0.11851l0.39592-0.067l0.36896-0.26414l0.21471-0.35332
			v-0.4026l0.20815,0.20354l0.25713-0.26623l-2.23-2.04429l-0.23941,0.27278l0.82545,0.74489v0.01341h-0.22824l-0.20354,0.05361
			l-0.16542,0.12759l-0.14548,0.11182l-0.20799,0.38251l-0.03574,0.40037l0.12733,0.39815L235.84599,9.83722z M235.78329,8.79722
			l0.14758-0.28407l0.27975-0.17451l0.28169-0.029l0.27962,0.085l0.255,0.19012l0.18121,0.21248l0.11166,0.275v0.27753
			l-0.14307,0.26386l-0.25954,0.1812l-0.27724,0.04243l-0.27516-0.07817l-0.25056-0.18569l-0.21027-0.22363l-0.12076-0.25742
			L235.78329,8.79722z"/>
		<polygon fill="#FFFFFF" points="239.964,7.502 238.73801,5.31 240.80701,7.037 241.10001,6.858 240.69099,4.205 240.69099,4.192 
			241.93401,6.393 242.26801,6.205 240.783,3.561 240.30099,3.845 240.718,6.52 238.63699,4.782 238.14999,5.062 239.63699,7.694 		
			"/>
		<path fill="#FFFFFF" d="M242.9297,4.40872l0.0627-0.36018l0.34229-0.19012l0.16542-0.02905h0.17213l0.13654,0.07147
			l0.10068,0.16334l-0.00447,0.17674l-0.12968,0.10736l-0.23706,0.11628l-0.25056,0.11853l-0.24837,0.14532l-0.18121,0.17449
			l-0.11612,0.23035l0.03572,0.31326l0.13416,0.25491l0.20131,0.13875l0.25281,0.04023l0.27724-0.06033l0.37582-0.19458
			l0.26846-0.34008l0.14978,0.22363l0.24164,0.02236l0.23259-0.14295l-0.08727-0.25966l-0.09381,0.03362l-0.10527-0.0201
			L244.547,4.98344l-0.32443-1.096l-0.15215-0.275l-0.23483-0.12982h-0.27724l-0.29317,0.06032l-0.32875,0.14547l-0.23927,0.19907
			l-0.13638,0.27515l0.02681,0.35332L242.9297,4.40872z M244.11743,4.82472l0.01801,0.179l-0.065,0.18789l-0.161,0.1766
			l-0.27516,0.14084l-0.1498,0.02459l-0.1498-0.01787l-0.11865-0.06925L243.13788,5.31V5.0886l0.10272-0.15885l0.19016-0.12507
			l0.24149-0.112l0.20578-0.08712l0.14101-0.12314L244.11743,4.82472z"/>
		<path fill="#FFFFFF" d="M245.7325,5.281l-0.13879-1.23241V3.7667l0.09619-0.235l0.18565-0.16765l0.28409-0.07608l0.33769,0.07608
			l0.15199,0.31981l0.17671,1.46513l0.36018-0.04037l-0.17671-1.42476l-0.06924-0.34228l-0.15887-0.21917l-0.246-0.14087
			l-0.37581-0.03142c-0.2915,0.03046-0.54427,0.21496-0.66211,0.48332l-0.04483-0.3289l-0.3399,0.02456l0.27075,2.1809
			L245.7325,5.281z"/>
		<polygon fill="#FFFFFF" points="248.077,4.914 248.285,5.098 248.642,5.162 249.065,5.109 249.37399,4.823 249.394,4.823 
			249.36301,5.162 249.7,5.192 249.83,2.993 249.47501,2.982 249.394,4.214 249.343,4.482 249.202,4.69 248.998,4.823 
			248.71201,4.856 248.38699,4.728 248.29601,4.395 248.37601,2.921 248.02499,2.894 247.927,4.328 247.94901,4.657 		"/>
		<polygon fill="#FFFFFF" points="250.483,5.33 250.828,5.406 251.181,3.559 251.60899,3.612 251.658,3.326 251.246,3.241 
			251.295,2.941 251.396,2.765 251.61099,2.753 251.714,2.787 251.80701,2.818 251.87,2.516 251.765,2.458 251.642,2.436 
			251.181,2.489 250.944,2.859 250.888,3.151 250.526,3.105 250.45,3.416 250.828,3.483 		"/>
		<path fill="#FFFFFF" d="M251.73363,5.28764l0.08936,0.22812l0.17226,0.17671l0.2686,0.1075l0.43388,0.07148l0.40034-0.141V6.008
			l0.179,0.14087l0.26387,0.02682l0.103-0.25059l-0.12094-0.0246L253.45155,5.8l0.04689-0.17448l0.3535-1.06476l0.02232-0.31981
			l-0.12093-0.23035l-0.2169-0.16556l-0.27278-0.12537l-0.34677-0.05361l-0.31776,0.02236l-0.25714,0.15215l-0.19234,0.29288
			l0.35123,0.1075l0.25044-0.25282l0.38921,0.03142l0.15887,0.07593l0.1432,0.09618l0.05583,0.13863l-0.00891,0.19236
			l-0.10974,0.12983l-0.17422,0.03573l-0.244-0.04465l-0.27724-0.04469l-0.284-0.02693l-0.25069,0.03365l-0.22366,0.12285
			l-0.15216,0.2753L251.73363,5.28764z M252.14963,5.10864l0.11418-0.19458l0.19237-0.06033l0.2281,0.00223l0.23259,0.04915
			l0.24149,0.04929l0.18568-0.02471l-0.10722,0.35124l-0.07845,0.14547l-0.17,0.11181l-0.237,0.04926l-0.30406-0.04926
			l-0.14992-0.07385l-0.112-0.09618l-0.04915-0.12076L252.14963,5.10864z"/>
		<path fill="#FFFFFF" d="M254.73753,6.85787c0.20667,0.13346,0.45958,0.17484,0.698,0.11419
			c0.23407-0.06287,0.43701-0.20933,0.57042-0.41168l-0.33336-0.16768l-0.3445,0.25494l-0.45177-0.0536l-0.22812-0.21248
			l-0.0695-0.25966l0.02011-0.28173l0.10524-0.2662l0.16782-0.264l0.23479-0.18117l0.27055-0.067l0.33562,0.07147l0.2574,0.27976
			V5.8l0.33086,0.16543l0.09631-0.35332L256.30109,5.31l-0.17453-0.24818l-0.30179-0.22141l-0.44759-0.14769l-0.38919,0.08276
			l-0.35321,0.24837l-0.26636,0.36464l-0.16333,0.43162v0.40261l0.18149,0.37136L254.73753,6.85787z"/>
		<polygon fill="#FFFFFF" points="256.30099,7.489 256.30099,7.659 256.397,7.82 256.57401,7.981 256.79099,8.142 256.98801,7.871 
			256.85599,7.797 256.75101,7.694 256.69299,7.625 256.69299,7.551 256.75101,7.466 257.547,6.357 257.88501,6.61 258.08401,6.357 
			257.73001,6.088 258.12201,5.572 257.81799,5.357 257.44199,5.892 257.142,5.661 256.94699,5.927 257.24701,6.149 
			256.43301,7.287 		"/>
		<polygon fill="#FFFFFF" points="257.53299,8.155 257.44199,8.435 257.49799,8.708 257.72101,8.985 258.086,9.211 258.509,9.191 
			258.51099,9.202 258.25601,9.459 258.51099,9.694 260.03,8.099 259.78201,7.86 258.91599,8.764 258.69901,8.92 258.46201,9.007 
			258.207,8.963 257.965,8.797 257.815,8.484 257.952,8.166 258.96899,7.108 258.72299,6.858 257.72101,7.896 		"/>
		<path fill="#FFFFFF" d="M259.14862,10.49711l0.77621-0.61746l0.32416-0.18552l0.30182-0.08054l0.28424,0.09395l0.28201,0.25282
			l0.29288-0.24613l-0.39142-0.29972c-0.16687-0.05639-0.34769-0.05639-0.51456,0V9.39665l0.37357-0.293l-0.21472-0.25506
			l-1.72906,1.36L259.14862,10.49711z"/>
		<polygon fill="#FFFFFF" points="260.03699,11.732 261.89099,10.526 261.68301,10.211 259.86401,11.423 		"/>
		<polygon fill="#FFFFFF" points="262.573,10.063 262.37601,9.757 262.021,9.994 262.215,10.307 		"/>
		<path fill="#FFFFFF" d="M262.21957,11.76986l0.3197-0.14993l-0.16299-0.31761l-1.96616,0.97525l0.16782,0.3176l1.10477-0.54807
			l0.26639-0.08489l0.246,0.01564l0.21918,0.1029l0.1879,0.24165l0.03799,0.34662l-0.25266,0.25282l-1.32428,0.65752
			l0.16333,0.32664l1.28601-0.642l0.28867-0.17226l0.15665-0.22586l0.04688-0.28632l-0.10522-0.34009
			c-0.10336-0.27434-0.36438-0.45722-0.65753-0.46067L262.21957,11.76986z"/>
		<path fill="#FFFFFF" d="M262.48788,14.14976l-0.38919,0.18121l-0.27499,0.26606l-0.16336,0.36464l0.02905,0.42942l0.20575,0.36464
			l0.36685,0.18343l-0.13428,0.05361l-0.33755,0.056l-0.27499-0.04706l-0.20599-0.14755l-0.1474-0.27069l-0.04022-0.18121
			l0.01117-0.18118l0.07147-0.17214l0.14294-0.08948l-0.11618-0.36241l-0.25711,0.179l-0.1142,0.26163l-0.02899,0.29762
			l0.04916,0.31981c0.0556,0.27667,0.22531,0.51707,0.46738,0.66213c0.27234,0.10801,0.57559,0.10801,0.84793,0l1.9234-0.54359
			l-0.09381-0.331l-0.29761,0.08723l0.17926-0.34451l-0.01562-0.38474l-0.23511-0.43612l-0.34232-0.21471l-0.41376-0.06716
			L262.48788,14.14976z M263.2261,14.48521l0.21918,0.1364l0.15662,0.28868v0.29291l-0.11612,0.22809l-0.20834,0.18567
			l-0.27277,0.10749l-0.29733,0.04915l-0.30206-0.04915l-0.23929-0.13651l-0.14545-0.25941l-0.01343-0.311l0.12064-0.22363
			l0.24179-0.179l0.2728-0.11167l0.2951-0.0448L263.2261,14.48521z"/>
		<path fill="#FFFFFF" d="M262.29578,18.77751h1.23465l0.01785,0.91271c-0.02423,0.25441,0.06213,0.50695,0.23706,0.69326
			c0.18494,0.16091,0.42642,0.2414,0.6709,0.22363c0.24323,0.01723,0.48187-0.07262,0.65332-0.246
			c0.16702-0.18864,0.24878-0.43788,0.22589-0.6888l-0.00671-1.331l-3.03299,0.04245L262.29578,18.77751z M264.99536,18.75518
			l0.00223,0.78735c0.02002,0.18197-0.03769,0.36395-0.15887,0.50115l-0.3959,0.1586l-0.41824-0.14964
			c-0.10547-0.14719-0.15387-0.32767-0.13623-0.50788l-0.0271-0.76725L264.99536,18.75518z"/>
		<polygon fill="#FFFFFF" points="262.14301,21.551 263.10101,21.699 263.48599,21.806 263.72699,21.974 263.86099,22.251 
			263.86099,22.625 264.242,22.674 264.20801,22.186 263.86099,21.806 264.32199,21.873 264.367,21.524 262.19501,21.2 		"/>
		<path fill="#FFFFFF" d="M263.72476,23.29358l-0.31522-0.17674l-0.09634,0.33785l0.26193,0.25045l-0.01788,0.40261
			l-0.07147,0.15216l-0.09637,0.13652l-0.13876,0.09157l-0.19012-0.0201l-0.13879-0.10944l-0.02231-0.16808l0.02231-0.23453
			l0.03601-0.28645v-0.27752l-0.02039-0.25491l-0.13626-0.22366l-0.28201-0.14741l-0.27725-0.036l-0.22141,0.09409l-0.19238,0.19462
			l-0.09857,0.275l-0.04691,0.425l0.14548,0.40037h-0.26385l-0.14099,0.19684l-0.02011,0.2616l0.25714,0.09186l0.0112-0.13429
			l0.09631-0.067l0.18121,0.04023l1.07129,0.31772l0.32443,0.01787l0.23035-0.11868l0.16779-0.22363l0.10944-0.28619
			l0.05389-0.33559l-0.04501-0.33113L263.72476,23.29358z M262.69843,23.6694l-0.02933,0.237l-0.04242,0.24151l0.01562,0.206
			l-0.349-0.10527l-0.14999-0.08737l-0.10721-0.16977l-0.06924-0.24848l0.05362-0.28842l0.05133-0.15887l0.09409-0.10945
			l0.12061-0.06953l0.16556,0.02013l0.17453,0.11865l0.07175,0.1812L262.69843,23.6694z"/>
		<path fill="#FFFFFF" d="M262.60208,25.65116l-0.3959-0.2616l-0.42719-0.14324l-0.40039,0.01787l-0.35791,0.19236l-0.26611,0.35795
			c-0.12845,0.21034-0.16489,0.4642-0.10077,0.70217c0.077,0.225,0.23056,0.41582,0.43387,0.53916l0.14319-0.31747l-0.25711-0.34451
			l0.04691-0.44283l0.21021-0.2373l0.25269-0.10053l0.27084,0.02905l0.28171,0.09381l0.2753,0.179l0.18762,0.20353l0.08737,0.28868
			l-0.08737,0.33113l-0.25714,0.26832l-0.36911,0.01341l-0.18344,0.33979l0.35568,0.06728l0.30209-0.09187l0.25491-0.2077
			l0.19907-0.2753l0.12061-0.44506l-0.08264-0.42717L262.60208,25.65116z"/>
		<polygon fill="#FFFFFF" points="262.021,28.152 261.754,27.969 261.53101,28.293 260.39401,27.501 260.16901,27.387 
			260.00101,27.387 259.86401,27.479 259.703,27.658 259.54001,27.897 259.82401,28.082 259.91599,27.942 260.00101,27.821 
			260.05899,27.778 260.13,27.778 260.22198,27.821 261.34698,28.579 261.099,28.93 261.37201,29.116 261.60501,28.751 
			262.14301,29.125 262.34698,28.832 261.82401,28.46 		"/>
		<polygon fill="#FFFFFF" points="259.01901,28.557 260.72101,29.935 260.95999,29.657 259.258,28.275 		"/>
		<polygon fill="#FFFFFF" points="261.043,30.185 261.383,30.458 261.60501,30.167 261.26199,29.912 		"/>
		<path fill="#FFFFFF" d="M259.43481,29.76017l-0.36911-0.27753l-0.38474-0.12285l-0.37799,0.08263l-0.36911,0.22812
			c-0.18573,0.1596-0.30661,0.38167-0.33978,0.6243c-0.00061,0.23932,0.07803,0.4721,0.22366,0.662l0.26828-0.24373l-0.134-0.42047
			l0.19211-0.38028l0.24625-0.1678h0.27725l0.26608,0.09381l0.215,0.18343l0.21219,0.26609l0.12091,0.25742l-0.02234,0.29511
			l-0.18118,0.28422l-0.34454,0.172l-0.35101-0.11617l-0.27979,0.25717l0.31775,0.17226l0.31299,0.03128l0.30655-0.105
			l0.27725-0.2013l0.26413-0.39145l0.04242-0.40959l-0.10968-0.3934L259.43481,29.76017z"/>
		<path fill="#FFFFFF" d="M257.55832,31.57413l-0.33337-0.34454l-0.36911-0.18344l-0.40482-0.00668l-0.41824,0.18566
			c-0.18634,0.12018-0.32967,0.29646-0.4093,0.50339c-0.05513,0.21518-0.03706,0.44259,0.05135,0.64637l0.29539-0.21472
			l-0.02707-0.3624l0.25266-0.29734l0.29315-0.14324l0.2619,0.0201l0.23901,0.12314l0.17923,0.19878l-1.34435,0.93058
			l0.2549,0.32442l0.37134,0.24376l0.44058,0.08711l0.46069-0.18763l0.28424-0.311l0.134-0.37356l-0.02457-0.42493
			L257.55832,31.57413z M257.44189,32.41731l-0.06726,0.23258l-0.18542,0.17449l-0.23734,0.09409h-0.23032l-0.22141-0.07622
			l-0.19907-0.1742l1.05118-0.70918l0.08963,0.22586V32.41731z"/>
		<path fill="#FFFFFF" d="M253.93678,33.48667l-0.40034-0.39592l-0.51682-0.17228l-0.61928,0.08265
			c-0.32747,0.07814-0.60777,0.28878-0.77393,0.58158c-0.15196,0.30234-0.18166,0.65159-0.08293,0.97525l0.36017-0.13207
			l-0.03351-0.34453l0.09605-0.32416l0.1946-0.25714l0.31549-0.179l0.4808-0.05835l0.38474,0.16557l0.30206,0.3289l0.19685,0.44506
			l0.09599,0.4565l-0.05807,0.42048l-0.21695,0.3691l-0.39812,0.237l-0.57936,0.03574l-0.43832-0.387l-0.38474,0.1276
			l0.27499,0.36212l0.36464,0.21692l0.416,0.05612l0.45621-0.07845l0.52571-0.30852l0.33337-0.461l0.09605-0.58352
			c-0.0101-0.21065-0.04466-0.41941-0.103-0.62207L253.93678,33.48667z"/>
		<path fill="#FFFFFF" d="M250.44093,33.851l-0.36465-0.18793l-0.4565-0.038c-0.22081,0.02229-0.42937,0.11219-0.59718,0.25743
			c-0.15277,0.15825-0.24057,0.3681-0.246,0.588l0.35345-0.0447l0.16556-0.33335l0.35127-0.15636l0.304,0.02009l0.23482,0.13627
			l0.1544,0.20159l0.07401,0.27724l-1.63754,0.19461l0.08299,0.41153l0.21442,0.39368l0.33336,0.25268l0.50784,0.065l0.39146-0.132
			l0.29958-0.27055l0.17451-0.387l0.01562-0.461l-0.12508-0.4473L250.44093,33.851z M250.42528,35.12609l-0.11864,0.208
			l-0.17451,0.15216l-0.24152,0.08488l-0.24371-0.02236l-0.21054-0.096l-0.16081-0.177l-0.08514-0.246l1.25055-0.1477
			L250.42528,35.12609z"/>
		<polygon fill="#FFFFFF" points="247.78101,34.744 247.728,35.099 247.59599,35.383 247.347,35.549 246.963,35.627 246.963,35.992 
			247.439,35.878 247.77901,35.486 247.78101,35.486 247.77901,35.963 248.117,35.963 248.164,33.759 247.815,33.757 		"/>
		<polygon fill="#FFFFFF" points="246.49699,34.178 246.49699,33.921 246.403,33.759 246.25101,33.677 246.021,33.634 
			245.746,33.596 245.71201,33.921 245.87601,33.936 246.021,33.956 246.101,33.988 246.117,34.068 246.117,34.158 245.972,35.52 
			245.524,35.462 245.498,35.784 245.936,35.824 245.851,36.482 246.20399,36.524 246.289,35.878 246.66499,35.92 246.69901,35.598 
			246.334,35.549 		"/>
		<polygon fill="#FFFFFF" points="244.299,36.392 244.66499,36.47 244.735,36.047 244.386,35.967 		"/>
		<polygon fill="#FFFFFF" points="244.46899,35.585 244.82401,35.674 245.265,33.505 244.911,33.428 		"/>
		<polygon fill="#FFFFFF" points="243.8,33.158 243.285,34.938 242.858,34.824 242.778,35.131 243.196,35.251 243.11301,35.549 
			242.979,35.721 242.758,35.71 242.679,35.674 242.588,35.629 242.494,35.92 242.59399,35.976 242.70799,36.018 243.19099,36.018 
			243.431,35.674 243.52699,35.356 243.88499,35.453 243.979,35.157 243.62801,35.05 244.153,33.249 		"/>
		<polygon fill="#FFFFFF" points="242.679,32.742 241.881,34.802 242.22701,34.92 243.00999,32.88 		"/>
		<polygon fill="#FFFFFF" points="241.592,35.585 241.92999,35.721 242.084,35.285 241.758,35.169 		"/>
		<path fill="#FFFFFF" d="M241.80246,33.08181v-0.41376l-0.19238-0.349l-0.3356-0.27084
			c-0.21501-0.11703-0.46251-0.16019-0.70444-0.12285c-0.23146,0.06608-0.43004,0.21598-0.55701,0.42048l0.32652,0.17228
			l0.34886-0.27083l0.42731,0.07176l0.22812,0.19907l0.0984,0.25937l-0.02901,0.26606l-0.08949,0.29316l-0.18567,0.2594
			l-0.23047,0.19236l-0.28172,0.06256l-0.31549-0.09158l-0.26833-0.27278l-0.00446-0.37136l-0.34006-0.1611l-0.05811,0.3532
			l0.05811,0.2887l0.19901,0.25966l0.282,0.21219l0.44727,0.12311l0.39368-0.06252l0.35794-0.246l0.26831-0.378L241.80246,33.08181z
			"/>
		<path fill="#FFFFFF" d="M239.81845,31.58082l-0.01566-0.2415l-0.10524-0.21471l-0.21246-0.20382l-0.38252-0.18761
			l-0.42493-0.01118l0.06935-0.26411l-0.10957-0.19908l-0.2482-0.1139l-0.16556,0.237l0.105,0.0402l0.04926,0.10944l-0.10736,0.1477
			l-0.69115,0.90153l-0.12746,0.31326l0.03799,0.2393l0.15884,0.23033l0.22812,0.19461l0.27293,0.18343l0.33768,0.07371
			l0.28188-0.0402l0.27962-0.21917l-0.302-0.23258l-0.31979,0.15636l-0.36018-0.16082l-0.13651-0.112l-0.07817-0.141
			l-0.0246-0.15187l0.09157-0.18569l0.13206-0.08737l0.17229,0.04688l0.20354,0.10974l0.27499,0.12759l0.24165,0.12285
			l0.23941,0.05361l0.26385-0.04915l0.25044-0.208L239.81845,31.58082z M239.3688,31.6322l-0.18556,0.13206h-0.1879
			l-0.22379-0.08737l-0.19907-0.1184l-0.22141-0.11865l-0.1879-0.04691l0.226-0.29288l0.14978-0.09855l0.19238-0.05809
			l0.22809,0.0134l0.26845,0.1678l0.11629,0.10052l0.07832,0.13206l0.00671,0.14324L239.3688,31.6322z"/>
		<polygon fill="#FFFFFF" points="237.658,30.058 237.79401,29.856 237.85201,29.697 237.78999,29.528 237.638,29.344 
			237.427,29.154 237.20799,29.378 237.32001,29.489 237.427,29.604 237.45399,29.671 237.452,29.745 237.38,29.818 236.407,30.78 
			236.112,30.478 235.888,30.7 236.179,31.013 235.705,31.478 235.96899,31.708 236.44501,31.265 236.698,31.525 236.924,31.31 
			236.653,31.046 		"/>
		<polygon fill="#FFFFFF" points="234.55299,30.436 234.78101,30.722 235.123,30.422 234.89101,30.149 		"/>
		<polygon fill="#FFFFFF" points="236.877,28.494 235.19501,29.912 235.42599,30.167 237.10699,28.783 		"/>
		<path fill="#FFFFFF" d="M235.93086,28.36892l0.20576-0.36464l0.00224-0.39592l-0.16991-0.44952l-0.31984-0.34005l-0.38474-0.13878
			l-0.40483,0.03128l-0.41824,0.18343l-0.34454,0.29316l-0.20576,0.37356l-0.02681,0.4071l0.18793,0.445l0.32652,0.3289
			l0.36224,0.15636l0.43401-0.02905l0.42493-0.19907L235.93086,28.36892z M235.0564,28.49846l-0.31551,0.04465l-0.246-0.105
			l-0.17451-0.2013l-0.10287-0.25042l0.02025-0.26861l0.14085-0.26606l0.25729-0.22366l0.33543-0.1678l0.293-0.00445
			l0.25937,0.10078l0.179,0.17868l0.10062,0.25074l-0.01561,0.25937l-0.13863,0.275l-0.26622,0.23732L235.0564,28.49846z"/>
		<path fill="#FFFFFF" d="M234.96005,25.43868l-1.14735,0.4808l-0.27293,0.06058l-0.23482-0.02681l-0.22141-0.13875l-0.15887-0.2415
			l-0.02232-0.34678l0.25937-0.23034l1.37117-0.56818l-0.14087-0.33559l-1.33081,0.54585l-0.27975,0.17448l-0.1833,0.20354
			l-0.07608,0.284l0.10065,0.35123c0.09151,0.27771,0.33774,0.47567,0.62863,0.50536V26.161l-0.32668,0.141l0.14771,0.311
			l2.013-0.83454L234.96005,25.43868z"/>
		<g enable-background="new    ">
			<path fill="#FFFFFF" d="M243.14941,50.68359c-0.19336-0.40625-0.47363-0.72168-0.83984-0.94434
				c-0.36621-0.22363-0.79395-0.33594-1.28027-0.33594s-0.9248,0.1123-1.31445,0.33594
				c-0.39062,0.22266-0.69727,0.54297-0.91992,0.95996c-0.22363,0.41602-0.33594,0.89844-0.33594,1.44434
				c0,0.54688,0.1123,1.02734,0.33594,1.44043c0.22266,0.41309,0.5293,0.73145,0.91992,0.95508
				c0.38965,0.22363,0.82812,0.33496,1.31445,0.33496c0.67969,0,1.24023-0.20312,1.67969-0.61035
				c0.44043-0.40625,0.69727-0.95605,0.77051-1.64941h-2.78027v-0.74023h3.75v0.7002
				c-0.05273,0.57324-0.23242,1.09766-0.53906,1.57422c-0.30664,0.47754-0.71094,0.85352-1.21094,1.12988
				c-0.5,0.27734-1.05664,0.41504-1.66992,0.41504c-0.64648,0-1.23633-0.15137-1.76953-0.4541
				c-0.5332-0.30371-0.95508-0.72559-1.26562-1.26562c-0.30957-0.54004-0.46484-1.14941-0.46484-1.83008
				c0-0.67969,0.15527-1.29102,0.46484-1.83496c0.31055-0.54297,0.73242-0.9668,1.26562-1.26953
				c0.5332-0.30371,1.12305-0.45508,1.76953-0.45508c0.74023,0,1.39551,0.18359,1.96484,0.5498
				c0.57031,0.36719,0.98535,0.88379,1.24609,1.5498C244.24023,50.68359,243.14941,50.68359,243.14941,50.68359z"/>
			<path fill="#FFFFFF" d="M252.71875,48.71387v6.91992h-0.90918v-5.16016l-2.2998,5.16016h-0.64062l-2.30957-5.16992v5.16992
				h-0.91016v-6.91992h0.97949l2.56055,5.71973l2.56055-5.71973C251.75,48.71387,252.71875,48.71387,252.71875,48.71387z"/>
			<path fill="#FFFFFF" d="M258.32422,52.14844c-0.39648,0.38379-1.00098,0.5752-1.81445,0.5752h-1.33984v2.91016h-0.91016v-6.96973
				h2.25c0.78711,0,1.38477,0.18945,1.79492,0.56934c0.41016,0.38086,0.61523,0.87012,0.61523,1.4707
				C258.91992,51.28418,258.7207,51.76562,258.32422,52.14844z M257.62988,51.64355c0.23926-0.21973,0.36035-0.5332,0.36035-0.93945
				c0-0.86035-0.49414-1.29004-1.48047-1.29004h-1.33984v2.55957h1.33984C257.01562,51.97363,257.38965,51.86426,257.62988,51.64355
				z"/>
		</g>
		<g enable-background="new    ">
			<path fill="#FFFFFF" d="M236.93457,68.9541l-1.38965-1.39062c-0.33984,0.09375-0.68652,0.14062-1.04004,0.14062
				c-0.64648,0-1.23633-0.15234-1.76953-0.45508c-0.53418-0.30371-0.95508-0.72656-1.26562-1.27051
				c-0.30957-0.54297-0.46484-1.1543-0.46484-1.83496c0-0.67969,0.15527-1.29102,0.46484-1.83496
				c0.31055-0.54297,0.73145-0.9668,1.26562-1.26953c0.5332-0.30371,1.12305-0.45508,1.76953-0.45508
				c0.65332,0,1.24707,0.15137,1.78027,0.45508c0.5332,0.30273,0.95312,0.72461,1.25977,1.26465s0.45996,1.15332,0.45996,1.83984
				c0,0.66699-0.14648,1.2666-0.43945,1.7998c-0.29395,0.53418-0.69727,0.9541-1.21094,1.26074l1.76074,1.75
				C238.11523,68.95409,236.93457,68.95409,236.93457,68.9541z M232.26953,65.60352c0.22363,0.41992,0.53027,0.74414,0.9209,0.9707
				c0.38965,0.22656,0.82812,0.33984,1.31445,0.33984s0.9248-0.11328,1.31543-0.33984
				c0.38965-0.22656,0.69629-0.55078,0.91992-0.9707c0.22266-0.41992,0.33496-0.90625,0.33496-1.45996
				c0-0.55957-0.1123-1.04785-0.33496-1.46484c-0.22363-0.41602-0.52832-0.73828-0.91504-0.96484s-0.82715-0.33984-1.32031-0.33984
				s-0.93359,0.11328-1.32031,0.33984s-0.69141,0.54883-0.91504,0.96484c-0.22266,0.41699-0.33496,0.90527-0.33496,1.46484
				C231.93457,64.69727,232.04688,65.18359,232.26953,65.60352z"/>
			<path fill="#FFFFFF" d="M244.08496,62.15332v5.48047h-0.91016v-0.80957c-0.17383,0.2793-0.41504,0.49805-0.72461,0.6543
				c-0.31055,0.15723-0.65234,0.23535-1.02539,0.23535c-0.42676,0-0.80957-0.08789-1.15039-0.26465
				c-0.33984-0.17676-0.6084-0.44238-0.80469-0.7959c-0.19629-0.35254-0.29492-0.7832-0.29492-1.28906v-3.21094h0.90039v3.09082
				c0,0.54004,0.13574,0.95508,0.40918,1.24512c0.27344,0.28906,0.64746,0.43457,1.12012,0.43457
				c0.4873,0,0.87012-0.15039,1.15039-0.4502s0.41992-0.73633,0.41992-1.30957v-3.01074h0.91016V62.15332z"/>
			<path fill="#FFFFFF" d="M245.625,63.39844c0.22656-0.42285,0.53809-0.75098,0.93457-0.98438s0.83887-0.35059,1.3252-0.35059
				c0.47949,0,0.89648,0.10352,1.25,0.31055c0.35352,0.20605,0.61621,0.4668,0.79004,0.7793v-1h0.91992v5.48047h-0.91992v-1.01953
				c-0.17969,0.31934-0.44824,0.58496-0.80469,0.79492c-0.35742,0.20996-0.77246,0.31445-1.24512,0.31445
				c-0.4873,0-0.92676-0.12012-1.32031-0.35938c-0.39355-0.24023-0.70312-0.57715-0.92969-1.01074
				c-0.22656-0.43262-0.33984-0.92676-0.33984-1.47949C245.28516,64.31348,245.39844,63.82227,245.625,63.39844z M249.6748,63.80371
				c-0.16699-0.30664-0.3916-0.54102-0.6748-0.70508c-0.28418-0.16309-0.5957-0.24512-0.93555-0.24512
				s-0.64941,0.08008-0.92969,0.24023s-0.50391,0.39355-0.66992,0.7002c-0.16699,0.30664-0.25,0.66699-0.25,1.08008
				c0,0.41992,0.08301,0.78516,0.25,1.09473c0.16602,0.30957,0.38965,0.54688,0.66992,0.70996s0.58984,0.24512,0.92969,0.24512
				S248.71582,66.8418,249,66.67871c0.2832-0.16309,0.50781-0.40039,0.6748-0.70996c0.16602-0.30957,0.25-0.67188,0.25-1.08496
				S249.84082,64.11035,249.6748,63.80371z"/>
			<path fill="#FFFFFF" d="M253.29492,60.2334v7.40039h-0.91016V60.2334H253.29492z"/>
			<path fill="#FFFFFF" d="M254.875,61.08398c-0.12012-0.12012-0.17969-0.2666-0.17969-0.44043
				c0-0.17285,0.05957-0.31934,0.17969-0.43945s0.2666-0.18066,0.44043-0.18066c0.16602,0,0.30762,0.06055,0.4248,0.18066
				c0.11621,0.12012,0.1748,0.2666,0.1748,0.43945c0,0.17383-0.05859,0.32031-0.1748,0.44043
				c-0.11719,0.12012-0.25879,0.17969-0.4248,0.17969C255.1416,61.26367,254.99512,61.2041,254.875,61.08398z M255.75488,62.15332
				v5.48047h-0.91016v-5.48047H255.75488z"/>
			<path fill="#FFFFFF" d="M258.41406,62.90332v3.23047c0,0.2666,0.05664,0.45508,0.16992,0.56543
				c0.11328,0.10938,0.31055,0.16504,0.59082,0.16504h0.66992v0.76953h-0.82031c-0.50684,0-0.88672-0.11621-1.13965-0.34961
				c-0.25391-0.2334-0.37988-0.61719-0.37988-1.15039v-3.23047h-0.71094v-0.75h0.71094v-1.37988h0.90918v1.37988h1.43066v0.75
				H258.41406z"/>
			<path fill="#FFFFFF" d="M265.66504,62.15332l-3.30078,8.06055h-0.93945l1.08008-2.63965l-2.20996-5.4209h1.00977l1.71973,4.44043
				l1.7002-4.44043H265.66504z"/>
		</g>
		<g opacity="0.5">
			<path fill="#FFFFFF" d="M23.18939,41c-3.51778,0.00337-7.02176-0.43967-10.428-1.31848l-0.00257-0.0007
				c-4.26935-1.146-7.60418-4.48074-8.75029-8.75006c-1.75867-6.8417-1.75891-14.01701-0.00071-20.85883
				c1.14559-4.27038,4.48082-7.60618,8.751-8.75251c6.84155-1.75899,14.01682-1.75923,20.85848-0.00071
				c4.27051,1.14535,7.60648,4.48053,8.75286,8.75076c1.75868,6.84167,1.75892,14.01694,0.00071,20.85872
				c-1.14562,4.27039-4.48082,7.60622-8.751,8.75263C30.21285,40.56004,26.70802,41.00331,23.18939,41z M12.94266,38.9854
				c3.34704,0.86344,6.79011,1.29868,10.24673,1.2953c3.45692,0.00336,6.90029-0.43196,10.24761-1.29553
				c4.01973-1.07979,7.1593-4.22004,8.23822-8.24c1.72668-6.72183,1.72644-13.77103-0.00071-20.49274
				c-1.07973-4.01976-4.22006-7.15933-8.24008-8.2381c-6.72179-1.72699-13.77107-1.72674-20.49274,0.00071
				c-4.0197,1.07974-7.15928,4.21993-8.23822,8.23985C2.97679,16.97676,2.97704,24.026,4.70418,30.74775
				C5.78381,34.76691,8.92339,37.90618,12.94266,38.9854z"/>
		</g>
		<path fill="#FFFFFF" d="M25.7306,31.12959c-0.13979-1.20314-0.34189-2.28293-0.35741-3.37813
			c-0.08537-2.26465,1.01579-4.41006,2.90556-5.66094c0.80792-0.5553,1.64688-1.06428,2.486-1.55785
			c1.13063-0.69008,1.99137-1.74597,2.4394-2.99249c0.13979-0.35472,0.52822-0.80209,0.839-0.81749
			c0.40764,0.05827,0.76133,0.3115,0.94782,0.67864c1.3858,2.48334,1.98705,5.32815,1.7246,8.15985
			c-0.50021,3.71076-3.62148,6.50877-7.36465,6.60188c-0.90127,0.04621-1.80242-0.09253-2.70357-0.12345
			c-0.27856-0.00973-0.55681,0.02677-0.82344,0.108c-0.69918,0.18506-1.38283,0.44725-2.082,0.60151
			c-0.2175,0.04633-0.49719-0.20046-0.74585-0.30851c0.17094-0.21587,0.31073-0.5399,0.52835-0.61691
			C24.27006,31.53063,25.04694,31.33005,25.7306,31.12959z M28.4496,30.8982c0.01564,0.07713,0.04667,0.13885,0.0622,0.216
			c0.08687,0.02156,0.17514,0.037,0.26417,0.04621c2.87987,0.14467,5.52598-1.57965,6.55672-4.27263
			c1.10314-3.11594,0.13979-6.00037-1.08761-8.86941c-0.12427,0.07713-0.18646,0.09253-0.202,0.13886
			c-0.06476,0.08221-0.1123,0.17661-0.13979,0.27759c-0.56968,1.28099-1.54033,2.34207-2.76565,3.02329
			c-0.73033,0.432-1.46054,0.87922-2.17523,1.342c-2.73461,1.75843-3.123,5.38334-2.06648,7.805
			c0.37281-0.18506,0.73021-0.38564,1.08761-0.5553c0.47318-0.15491,0.73119-0.66407,0.57628-1.13725
			c-0.00045-0.00139-0.00091-0.00278-0.00137-0.00416c-0.14253-1.04251-0.1997-2.09492-0.17094-3.14674
			c0-0.293,0.32624-0.58611,0.49719-0.89462c0.21211,0.26504,0.37045,0.56893,0.46615,0.89462
			c0.09312,0.97186,0.10875,1.959,0.15531,2.94616c0.08054,0.03274,0.16372,0.05855,0.24865,0.07713
			c0.48156-0.52438,0.96323-1.03347,1.41387-1.57325c0.08517-0.15547,0.10743-0.3377,0.06219-0.5091
			c-0.10887-1.01807-0.26417-2.036-0.34189-3.05409c-0.031-0.44737-0.18646-1.14153,0.52823-1.14153
			c0.66814,0,0.46616,0.66335,0.4972,1.0952c0.03115,0.35484,0.01563,0.725,0.04667,1.0798
			c0.02629,0.24909,0.06779,0.49634,0.12427,0.74036c0.10875,0.01541,0.2175,0.01541,0.34188,0.03081
			c0.32625-1.17221,0.62146-2.34454,0.97887-3.50146c0.07759-0.2622,0.3728-0.44726,0.55927-0.66324
			c0.1399,0.26219,0.404,0.5553,0.37292,0.80209c-0.14257,0.77983-0.32409,1.55204-0.54387,2.31373
			c-0.06208,0.26231-0.1553,0.5245-0.233,0.80209l0.18647,0.09265c0.21696-0.24408,0.46207-0.46159,0.73021-0.648
			c0.27356-0.10816,0.56147-0.1757,0.85459-0.20046c-0.04656,0.29311,0.01552,0.70955-0.17094,0.84841
			c-0.82344,0.694-1.70908,1.31106-2.548,1.97429c-0.39175,0.33991-0.76519,0.70035-1.11877,1.0798
			c0.06506,0.05949,0.12248,0.12682,0.17095,0.20046c0.27492-0.18111,0.56623-0.33601,0.87011-0.46265
			c0.27237-0.04402,0.5496-0.04924,0.82344-0.01552c-0.09323,0.27771-0.12426,0.70956-0.31073,0.80221
			c-1.02542,0.47817-2.082,0.8637-3.123,1.31106c-0.48176,0.21603-0.979,0.4782-1.47619,0.70959
			C28.44957,30.8982,28.4496,30.8982,28.4496,30.8982z"/>
		<path fill="#FFFFFF" d="M13.1784,18.25662c0.3574,0.12334,0.59042,0.20047,0.83907,0.27759
			c4.00858,1.23406,5.82652,3.64032,5.91975,7.82042c0,0.33944,0.01552,0.66335,0,1.00267
			c-0.08078,1.50788,0.44516,2.9854,1.46054,4.10309c0.24175,0.27354,0.33968,0.64542,0.264,1.00255
			c-0.21954,0.32241-0.57431,0.52691-0.96334,0.5553c-2.85829-0.0359-5.64217-0.91602-8.00163-2.52972
			c-2.81451-1.96373-3.88684-5.61919-2.57919-8.79216c0.517-1.08673,1.11427-2.13341,1.78684-3.13136
			c0.13638-0.20638,0.246-0.42924,0.32625-0.66323c0.17094-0.64784,0.27969-1.31107,0.46615-1.9435
			c0.10875-0.37024,0.13979-0.92554,0.74573-0.75588c0.55939,0.15426,0.31073,0.617,0.233,0.97175
			C13.52028,16.85291,13.34934,17.51614,13.1784,18.25662z M20.3567,31.89223c-1.04858-1.44319-1.57463-3.20033-1.49158-4.9823
			c0.00809-0.84534-0.0386-1.6903-0.13978-2.5296c-0.60727-2.67541-2.8625-4.65933-5.5935-4.92058
			c-0.04655,0.23139-0.09323,0.47818-0.12427,0.74037c-0.07771,0.75576,0,1.32658,0.93219,1.63509
			c0.98831,0.37753,1.93155,0.86383,2.81233,1.44992c0.17082,0.10794,0.18634,0.49358,0.27957,0.74036
			c-0.24845,0.06375-0.50507,0.08975-0.76125,0.07713c-0.24309-0.093-0.47293-0.21748-0.68365-0.37024
			c-0.74584-0.38552-1.47605-0.75576-2.2219-1.1414l-0.17083,0.16966c0.15531,0.50909,0.32625,1.00266,0.435,1.527
			c0.11006,0.47473,0.48617,0.84209,0.96335,0.94095c0.96017,0.37519,1.88998,0.82385,2.78117,1.342
			c0.233,0.12346,0.49719,0.617,0.41948,0.80209c-0.202,0.46277-0.59042,0.20058-0.91667,0.03092
			c-0.66814-0.33943-1.33627-0.67875-2.01993-1.01807c-0.06207,0.09253-0.13978,0.18506-0.202,0.26219
			c0.808,0.84841,1.63149,1.69671,2.43941,2.52972c0.27969,0.293,0.91667,0.509,0.46615,1.00255
			c-0.404,0.46277-0.7924-0.03081-1.11877-0.27759c-0.27146-0.19989-0.52606-0.42171-0.76125-0.66324
			c-0.48167-0.49369-0.9323-1.00267-1.39834-1.49624c0.02091,0.41382,0.06759,0.82593,0.13979,1.23393
			c-0.04852,0.28584-0.14298,0.56194-0.2797,0.81761c-0.21749-0.16977-0.5749-0.32391-0.62146-0.52449
			c-0.202-1.0798-0.29521-2.15948-0.46615-3.23928c-0.07771-0.46276-0.233-0.92542-0.34177-1.37279
			c-0.09472,0.01314-0.18824,0.03378-0.27969,0.06173v0.725c0,0.401,0,0.87921-0.54387,0.80209
			c-0.202-0.03081-0.51271-0.5245-0.49719-0.78669c0.09323-1.06428,0.31085-2.12867,0.46616-3.17755
			c0.07771-0.5553,0.10874-1.1106,0.15542-1.6967c-0.21762,0.0308-0.27969,0.0154-0.31073,0.04621
			c-0.03961,0.02764-0.07167,0.06477-0.09323,0.108c-1.16174,1.89314-1.34102,4.2298-0.48167,6.278
			c0.89468,1.89522,2.5388,3.33177,4.53691,3.96412C17.15424,31.58849,18.74824,31.89766,20.3567,31.89223z"/>
		<path fill="#FFFFFF" d="M30.7332,14.08493c-0.58871,0.54155-1.20592,1.05128-1.849,1.527
			c-2.1986,1.72854-5.21281,1.98904-7.67537,0.66335c-0.76137-0.38564-1.50722-0.78668-2.253-1.20313
			c-1.15444-0.60508-2.47994-0.80084-3.76-0.5553c-0.40018,0.06737-0.80968-0.04556-1.11877-0.30851
			c-0.14888-0.38112-0.10855-0.81023,0.10875-1.15693c1.02345-1.65013,2.35236-3.08982,3.91546-4.24182
			c4.5214-3.34721,9.72634-2.252,12.36772,2.69937c0.57932,1.21583,1.39854,2.30194,2.4084,3.19304
			c0.31073,0.24679,0.93219,0.58611,0.38833,1.0952c-0.4972,0.47817-0.76125-0.13885-1.05646-0.401
			C31.71206,14.97954,31.21487,14.53229,30.7332,14.08493z M22.01677,10.22874c-0.44902-0.10935-0.89026-0.24852-1.32077-0.41656
			c-0.233-0.12334-0.37281-0.401-0.54375-0.60151c0.24854-0.10793,0.55927-0.38564,0.74573-0.32391
			c1.02554,0.35472,2.0044,0.78668,3.0143,1.17232c0.51271,0.20047,1.05658,0.33932,1.58481,0.509
			c0.031-0.09253,0.07771-0.16966,0.10875-0.26219c-0.33728-0.15859-0.6553-0.35528-0.94783-0.58622
			c-0.17082-0.16966-0.202-0.49357-0.29521-0.74036c0.24865-0.03081,0.59042-0.20047,0.74585-0.09253
			c0.91667,0.617,1.78678,1.29566,2.67242,1.95889c0.51271,0.38565,1.02542,0.75588,1.52261,1.12612
			c-0.62146-2.54511-3.993-4.47332-6.69651-4.04136c-3.41827,0.5399-5.5313,2.85363-7.62894,5.63014
			c1.89425-0.34215,3.8471,0.07327,5.43807,1.15681c0.53275,0.31329,1.08261,0.59653,1.647,0.84841
			c1.05647,0.51088,2.2464,0.6781,3.40275,0.47817c1.72015-0.34186,3.27166-1.2617,4.397-2.60684
			c-0.32626-0.216-0.57491-0.35473-0.80793-0.5245c-0.46509-0.49049-1.23975-0.51107-1.73023-0.04597
			c-0.03082,0.02922-0.06009,0.06003-0.08771,0.09229c-0.81173,0.63744-1.68633,1.19046-2.61023,1.6505
			c-0.202,0.10794-0.5749-0.06172-0.85459-0.09253c0.09508-0.25858,0.22582-0.5026,0.38844-0.725
			c0.19997-0.1604,0.41921-0.29516,0.65262-0.40116c0.68365-0.43185,1.3673-0.87921,2.23742-1.44992
			c-0.69917-0.18506-1.13429-0.293-1.56929-0.41644c-0.58495-0.20203-1.23399-0.04548-1.66252,0.401
			c-0.82423,0.66203-1.70854,1.24557-2.64138,1.743c-0.17094,0.09253-0.48167-0.04632-0.73021-0.09253
			c0.04234-0.24669,0.12085-0.48579,0.233-0.70956c0.19696-0.16869,0.41665-0.30887,0.65261-0.41644
			c0.466-0.30852,0.94771-0.617,1.41387-0.91014c-0.0453-0.11598-0.0972-0.22927-0.15543-0.33932
			c-1.16521,0.29311-2.33053,0.5707-3.48034,0.87922c-0.37281,0.09253-0.77688,0.38564-0.97886-0.15426
			c-0.202-0.509,0.26417-0.66323,0.63709-0.78668C19.74831,10.83025,20.77373,10.56806,22.01677,10.22874z"/>
		<g enable-background="new    ">
			<path fill="#FFFFFF" d="M7.00488,55.44238H6.09473l-3.66016-5.5498v5.5498H1.52441v-6.98047h0.91016l3.66016,5.54004v-5.54004
				h0.91016v6.98047H7.00488z"/>
			<path fill="#FFFFFF" d="M8.55469,51.20703c0.22656-0.42285,0.53809-0.75098,0.93457-0.98438s0.83887-0.35059,1.3252-0.35059
				c0.47949,0,0.89648,0.10352,1.25,0.31055c0.35352,0.20605,0.61621,0.4668,0.79004,0.7793v-1h0.91992v5.48047H12.8545v-1.01953
				c-0.17969,0.31934-0.44824,0.58496-0.80469,0.79492c-0.35742,0.20996-0.77246,0.31445-1.24512,0.31445
				c-0.4873,0-0.92676-0.12012-1.32031-0.35938c-0.39355-0.24023-0.70312-0.57715-0.92969-1.01074
				c-0.22656-0.43262-0.33984-0.92676-0.33984-1.47949C8.21484,52.12207,8.32812,51.63086,8.55469,51.20703z M12.60449,51.6123
				c-0.16699-0.30664-0.3916-0.54102-0.6748-0.70508c-0.28418-0.16309-0.5957-0.24512-0.93555-0.24512
				s-0.64941,0.08008-0.92969,0.24023s-0.50391,0.39355-0.66992,0.7002c-0.16699,0.30664-0.25,0.66699-0.25,1.08008
				c0,0.41992,0.08301,0.78516,0.25,1.09473c0.16602,0.30957,0.38965,0.54688,0.66992,0.70996s0.58984,0.24512,0.92969,0.24512
				s0.65137-0.08203,0.93555-0.24512c0.2832-0.16309,0.50781-0.40039,0.6748-0.70996c0.16602-0.30957,0.25-0.67188,0.25-1.08496
				S12.77051,51.91895,12.60449,51.6123z"/>
			<path fill="#FFFFFF" d="M16.4248,50.71191v3.23047c0,0.2666,0.05664,0.45508,0.16992,0.56543
				c0.11328,0.10938,0.30957,0.16504,0.58984,0.16504h0.66992v0.76953h-0.81934c-0.50684,0-0.88672-0.11621-1.14062-0.34961
				c-0.25293-0.2334-0.37988-0.61719-0.37988-1.15039v-3.23047h-0.70996v-0.75h0.70996v-1.37988h0.91016v1.37988h1.42969v0.75
				H16.4248z"/>
			<path fill="#FFFFFF" d="M23.81445,49.96191v5.48047H22.9043v-0.80957c-0.17383,0.2793-0.41504,0.49805-0.72461,0.6543
				c-0.31055,0.15723-0.65234,0.23535-1.02539,0.23535c-0.42676,0-0.80957-0.08789-1.15039-0.26465
				c-0.33984-0.17676-0.6084-0.44238-0.80469-0.7959c-0.19629-0.35254-0.29492-0.7832-0.29492-1.28906v-3.21094h0.90039v3.09082
				c0,0.54004,0.13574,0.95508,0.40918,1.24512c0.27344,0.28906,0.64746,0.43457,1.12012,0.43457
				c0.4873,0,0.87012-0.15039,1.15039-0.4502s0.41992-0.73633,0.41992-1.30957v-3.01074
				C22.9043,49.96192,23.81445,49.96192,23.81445,49.96191z"/>
			<path fill="#FFFFFF" d="M26.94922,50.12207c0.29688-0.17285,0.6582-0.25977,1.08496-0.25977v0.94043h-0.24023
				c-1.01953,0-1.5293,0.55273-1.5293,1.65918v2.98047h-0.91016v-5.48047h0.91016v0.89062
				C26.42383,50.53906,26.65234,50.2959,26.94922,50.12207z"/>
			<path fill="#FFFFFF" d="M29.08398,51.20703c0.22656-0.42285,0.53809-0.75098,0.93555-0.98438
				c0.39648-0.2334,0.83789-0.35059,1.32422-0.35059c0.48047,0,0.89746,0.10352,1.25,0.31055
				c0.35352,0.20605,0.61719,0.4668,0.79004,0.7793v-1h0.9209v5.48047h-0.9209v-1.01953
				c-0.17969,0.31934-0.44824,0.58496-0.80469,0.79492s-0.77148,0.31445-1.24512,0.31445
				c-0.48633,0-0.92676-0.12012-1.31934-0.35938c-0.39355-0.24023-0.7041-0.57715-0.93066-1.01074
				c-0.22656-0.43262-0.33984-0.92676-0.33984-1.47949C28.74414,52.12207,28.85742,51.63086,29.08398,51.20703z M33.13379,51.6123
				c-0.16602-0.30664-0.3916-0.54102-0.6748-0.70508c-0.2832-0.16309-0.59473-0.24512-0.93457-0.24512
				s-0.65039,0.08008-0.93066,0.24023c-0.2793,0.16016-0.50293,0.39355-0.66992,0.7002c-0.16602,0.30664-0.25,0.66699-0.25,1.08008
				c0,0.41992,0.08398,0.78516,0.25,1.09473c0.16699,0.30957,0.39062,0.54688,0.66992,0.70996
				c0.28027,0.16309,0.59082,0.24512,0.93066,0.24512s0.65137-0.08203,0.93457-0.24512s0.50879-0.40039,0.6748-0.70996
				c0.16699-0.30957,0.25-0.67188,0.25-1.08496S33.30078,51.91895,33.13379,51.6123z"/>
			<path fill="#FFFFFF" d="M36.75488,48.04199v7.40039h-0.91016v-7.40039H36.75488z"/>
			<path fill="#FFFFFF" d="M39.21387,48.04199v7.40039h-0.91016v-7.40039H39.21387z"/>
			<path fill="#FFFFFF" d="M45.48438,49.96191l-3.30078,8.06055h-0.93945l1.08008-2.63965l-2.20996-5.4209h1.00977l1.71973,4.44043
				l1.7002-4.44043C44.54396,49.96191,45.48438,49.96191,45.48438,49.96191z"/>
		</g>
		<g enable-background="new    ">
			<path fill="#FFFFFF" d="M0.76953,63.20703c0.22656-0.42285,0.53809-0.75098,0.93555-0.98438
				c0.39648-0.2334,0.84082-0.35059,1.33496-0.35059c0.42676,0,0.82324,0.09863,1.18945,0.29492
				c0.36719,0.19727,0.64648,0.45508,0.83984,0.77539v-2.90039h0.9209v7.40039h-0.9209V66.4121
				c-0.17969,0.32715-0.44629,0.5957-0.7998,0.80566s-0.7666,0.31445-1.24023,0.31445c-0.48633,0-0.92773-0.12012-1.32422-0.35938
				c-0.39746-0.24023-0.70898-0.57715-0.93555-1.01074c-0.22656-0.43262-0.33984-0.92676-0.33984-1.47949
				C0.42969,64.12207,0.54297,63.63086,0.76953,63.20703z M4.81934,63.6123c-0.16602-0.30664-0.3916-0.54102-0.6748-0.70508
				c-0.2832-0.16309-0.59473-0.24512-0.93457-0.24512s-0.65039,0.08008-0.93066,0.24023C2,63.0625,1.77637,63.2959,1.60938,63.60254
				c-0.16602,0.30664-0.25,0.66699-0.25,1.08008c0,0.41992,0.08398,0.78516,0.25,1.09473
				C1.77637,66.08691,2,66.32422,2.2793,66.4873c0.28027,0.16309,0.59082,0.24512,0.93066,0.24512s0.65137-0.08203,0.93457-0.24512
				s0.50879-0.40039,0.6748-0.70996c0.16699-0.30957,0.25-0.67188,0.25-1.08496S4.98633,63.91895,4.81934,63.6123z"/>
			<path fill="#FFFFFF" d="M12.5,65.04199H8.11914c0.0332,0.54004,0.21875,0.96191,0.55566,1.26562
				c0.33594,0.30273,0.74512,0.45508,1.22461,0.45508c0.39355,0,0.72168-0.0918,0.98535-0.27539
				c0.2627-0.18359,0.44824-0.42773,0.55469-0.73535h0.98047c-0.14746,0.52734-0.44043,0.95508-0.88086,1.28516
				c-0.43945,0.33008-0.98633,0.49512-1.63965,0.49512c-0.51953,0-0.98535-0.11621-1.39453-0.34961
				c-0.41016-0.2334-0.73242-0.56543-0.96582-0.99512s-0.34961-0.92871-0.34961-1.49512s0.11328-1.06348,0.33984-1.49023
				s0.54492-0.75488,0.95508-0.98438c0.41016-0.23047,0.88184-0.3457,1.41504-0.3457c0.52051,0,0.98047,0.11328,1.37988,0.33984
				c0.40039,0.22754,0.70898,0.53906,0.9248,0.93555c0.2168,0.39648,0.3252,0.84473,0.3252,1.34473
				C12.5293,64.66602,12.51953,64.84863,12.5,65.04199z M11.35938,63.40723c-0.15332-0.25-0.36133-0.43945-0.625-0.57031
				c-0.26367-0.12988-0.55469-0.19434-0.875-0.19434c-0.45996,0-0.85156,0.14648-1.1748,0.43945
				c-0.32324,0.29395-0.50879,0.7002-0.55469,1.2207h3.45996C11.58984,63.95605,11.5127,63.65723,11.35938,63.40723z"/>
			<path fill="#FFFFFF" d="M14.63965,60.04199v7.40039h-0.91016v-7.40039C13.72949,60.04198,14.63965,60.04198,14.63965,60.04199z"
				/>
			<path fill="#FFFFFF" d="M16.21973,60.89258c-0.12012-0.12012-0.17969-0.2666-0.17969-0.44043
				c0-0.17285,0.05957-0.31934,0.17969-0.43945s0.2666-0.18066,0.44043-0.18066c0.16602,0,0.30762,0.06055,0.4248,0.18066
				c0.11621,0.12012,0.1748,0.2666,0.1748,0.43945c0,0.17383-0.05859,0.32031-0.1748,0.44043
				c-0.11719,0.12012-0.25879,0.17969-0.4248,0.17969C16.48633,61.07227,16.33984,61.0127,16.21973,60.89258z M17.09961,61.96191
				v5.48047h-0.91016v-5.48047C16.18945,61.96191,17.09961,61.96191,17.09961,61.96191z"/>
			<path fill="#FFFFFF" d="M20.68945,66.60254l1.7002-4.64062h0.96973l-2.14941,5.48047h-1.06055L18,61.96191h0.97949
				L20.68945,66.60254z"/>
			<path fill="#FFFFFF" d="M29.22949,65.04199h-4.37988c0.0332,0.54004,0.21777,0.96191,0.55469,1.26562
				c0.33691,0.30273,0.74512,0.45508,1.22559,0.45508c0.39258,0,0.7207-0.0918,0.98438-0.27539s0.44824-0.42773,0.55566-0.73535
				h0.97949c-0.14648,0.52734-0.43945,0.95508-0.87988,1.28516s-0.98633,0.49512-1.63965,0.49512
				c-0.52051,0-0.98535-0.11621-1.39551-0.34961s-0.73145-0.56543-0.96484-0.99512s-0.34961-0.92871-0.34961-1.49512
				s0.11328-1.06348,0.33984-1.49023s0.54492-0.75488,0.95508-0.98438c0.40918-0.23047,0.88086-0.3457,1.41504-0.3457
				c0.51953,0,0.97949,0.11328,1.37988,0.33984c0.39941,0.22754,0.70801,0.53906,0.9248,0.93555s0.3252,0.84473,0.3252,1.34473
				C29.25977,64.66602,29.24902,64.84863,29.22949,65.04199z M28.08984,63.40723c-0.15332-0.25-0.3623-0.43945-0.625-0.57031
				c-0.26367-0.12988-0.55566-0.19434-0.875-0.19434c-0.45996,0-0.85254,0.14648-1.17578,0.43945
				c-0.32324,0.29395-0.50781,0.7002-0.55469,1.2207h3.45996C28.31934,63.95605,28.24316,63.65723,28.08984,63.40723z"/>
			<path fill="#FFFFFF" d="M32.05469,62.12207c0.2959-0.17285,0.6582-0.25977,1.08496-0.25977v0.94043h-0.24023
				c-1.02051,0-1.53027,0.55273-1.53027,1.65918v2.98047h-0.91016v-5.48047h0.91016v0.89062
				C31.5293,62.53906,31.75781,62.2959,32.05469,62.12207z"/>
			<path fill="#FFFFFF" d="M39.15918,65.04199H34.7793c0.0332,0.54004,0.21777,0.96191,0.55469,1.26562
				c0.33691,0.30273,0.74512,0.45508,1.22559,0.45508c0.39258,0,0.7207-0.0918,0.98438-0.27539s0.44824-0.42773,0.55566-0.73535
				h0.97949c-0.14648,0.52734-0.43945,0.95508-0.87988,1.28516s-0.98633,0.49512-1.63965,0.49512
				c-0.52051,0-0.98535-0.11621-1.39551-0.34961s-0.73145-0.56543-0.96484-0.99512s-0.34961-0.92871-0.34961-1.49512
				s0.11328-1.06348,0.33984-1.49023s0.54492-0.75488,0.95508-0.98438c0.40918-0.23047,0.88086-0.3457,1.41504-0.3457
				c0.51953,0,0.97949,0.11328,1.37988,0.33984c0.39941,0.22754,0.70801,0.53906,0.9248,0.93555s0.3252,0.84473,0.3252,1.34473
				C39.18945,64.66602,39.17871,64.84863,39.15918,65.04199z M38.01953,63.40723c-0.15332-0.25-0.3623-0.43945-0.625-0.57031
				c-0.26367-0.12988-0.55566-0.19434-0.875-0.19434c-0.45996,0-0.85254,0.14648-1.17578,0.43945
				c-0.32324,0.29395-0.50781,0.7002-0.55469,1.2207h3.45996C38.24902,63.95605,38.17285,63.65723,38.01953,63.40723z"/>
			<path fill="#FFFFFF" d="M40.38867,63.20703c0.22656-0.42285,0.53809-0.75098,0.93555-0.98438
				c0.39648-0.2334,0.84082-0.35059,1.33496-0.35059c0.42676,0,0.82324,0.09863,1.18945,0.29492
				c0.36719,0.19727,0.64648,0.45508,0.83984,0.77539v-2.90039h0.9209v7.40039h-0.9209V66.4121
				c-0.17969,0.32715-0.44629,0.5957-0.7998,0.80566s-0.7666,0.31445-1.24023,0.31445c-0.48633,0-0.92773-0.12012-1.32422-0.35938
				c-0.39746-0.24023-0.70898-0.57715-0.93555-1.01074c-0.22656-0.43262-0.33984-0.92676-0.33984-1.47949
				C40.04883,64.12207,40.16211,63.63086,40.38867,63.20703z M44.43848,63.6123c-0.16602-0.30664-0.3916-0.54102-0.6748-0.70508
				c-0.2832-0.16309-0.59473-0.24512-0.93457-0.24512s-0.65039,0.08008-0.93066,0.24023
				c-0.2793,0.16016-0.50293,0.39355-0.66992,0.7002c-0.16602,0.30664-0.25,0.66699-0.25,1.08008
				c0,0.41992,0.08398,0.78516,0.25,1.09473c0.16699,0.30957,0.39062,0.54688,0.66992,0.70996
				c0.28027,0.16309,0.59082,0.24512,0.93066,0.24512s0.65137-0.08203,0.93457-0.24512s0.50879-0.40039,0.6748-0.70996
				c0.16699-0.30957,0.25-0.67188,0.25-1.08496S44.60547,63.91895,44.43848,63.6123z"/>
		</g>
	</g>
</g>
</svg>
